<svg id="Layer_1" data-name="Layer 1" xmlns="http://www.w3.org/2000/svg" viewBox="0 0 32 32"><defs><style>.cls-1{fill:#0e94cd;fill-rule:evenodd;}.cls-2{fill:#fff;}</style></defs><title>c icon</title><path class="cls-1" d="M23.44.06H8.56a8.49,8.49,0,0,0-8.5,8.5V23.44a8.49,8.49,0,0,0,8.5,8.5H31.94V8.56C31.93,3.13,28.87.06,23.44.06Z"/><path class="cls-2" d="M21.48,5.32a2,2,0,0,1,1.32.49A1.63,1.63,0,0,1,23.34,7a1.55,1.55,0,0,1-.54,1.19,1.92,1.92,0,0,1-1.32.51H19a6.35,6.35,0,0,0-4.65,1.95,6.7,6.7,0,0,0-2,4.92v.7a6.7,6.7,0,0,0,2,4.92,6.35,6.35,0,0,0,4.65,2h2.52a1.92,1.92,0,0,1,1.32.51,1.56,1.56,0,0,1,.54,1.19,1.63,1.63,0,0,1-.54,1.22,2,2,0,0,1-1.32.49H19A10.17,10.17,0,0,1,11.5,23.5a9.84,9.84,0,0,1-3-7.2v-.7a9.81,9.81,0,0,1,3-7.19A10.14,10.14,0,0,1,19,5.32Z"/></svg>