<svg width="100" height="100" viewBox="0 0 100 100" fill="none" xmlns="http://www.w3.org/2000/svg">
<g clip-path="url(#clip0)">
<path d="M100 0H0V100H100V0Z" fill="white"/>
<path d="M100 0H0V100H100V0Z" fill="#FFF4CB"/>
<g filter="url(#filter0_d)">
<path fill-rule="evenodd" clip-rule="evenodd" d="M36.6114 18.0433H63.3944C73.2659 18.0433 78.7624 23.7316 78.7624 33.4784V66.4897C78.7624 76.3963 73.2659 81.9568 63.3944 81.9568H36.6114C26.8966 81.9568 21.2402 76.3963 21.2402 66.4897V33.4784C21.2402 23.7316 26.8966 18.0433 36.6114 18.0433ZM37.4778 32.9352V32.9032H47.0297C48.407 32.9032 49.5255 34.0217 49.5255 35.3927C49.5255 36.8019 48.407 37.9204 47.0297 37.9204H37.4778C36.1005 37.9204 34.9852 36.8019 34.9852 35.4278C34.9852 34.0537 36.1005 32.9352 37.4778 32.9352ZM37.4778 52.3649H62.5319C63.906 52.3649 65.0245 51.2464 65.0245 49.8722C65.0245 48.4981 63.906 47.3764 62.5319 47.3764H37.4778C36.1005 47.3764 34.9852 48.4981 34.9852 49.8722C34.9852 51.2464 36.1005 52.3649 37.4778 52.3649ZM37.4783 66.9691H62.5324C63.8075 66.8413 64.7694 65.7516 64.7694 64.4765C64.7694 63.1663 63.8075 62.0798 62.5324 61.9519H37.4783C36.5196 61.8561 35.5928 62.3035 35.0815 63.1343C34.5702 63.9333 34.5702 64.9878 35.0815 65.8187C35.5928 66.6176 36.5196 67.097 37.4783 66.9691Z" fill="#FFC226" fill-opacity="0.01"/>
</g>
<path d="M66.2398 29.7787H34.127V70.6563H66.2398V29.7787Z" fill="white"/>
<path fill-rule="evenodd" clip-rule="evenodd" d="M36.6114 18.0432H63.3944C73.2659 18.0432 78.7624 23.7315 78.7624 33.4783V66.4896C78.7624 76.3962 73.2659 81.9567 63.3944 81.9567H36.6114C26.8966 81.9567 21.2402 76.3962 21.2402 66.4896V33.4783C21.2402 23.7315 26.8966 18.0432 36.6114 18.0432ZM37.4778 32.9351V32.9031H47.0297C48.407 32.9031 49.5255 34.0216 49.5255 35.3926C49.5255 36.8018 48.407 37.9203 47.0297 37.9203H37.4778C36.1005 37.9203 34.9852 36.8018 34.9852 35.4277C34.9852 34.0536 36.1005 32.9351 37.4778 32.9351ZM37.4778 52.3648H62.5319C63.906 52.3648 65.0245 51.2463 65.0245 49.8721C65.0245 48.498 63.906 47.3763 62.5319 47.3763H37.4778C36.1005 47.3763 34.9852 48.498 34.9852 49.8721C34.9852 51.2463 36.1005 52.3648 37.4778 52.3648ZM37.4783 66.969H62.5324C63.8075 66.8412 64.7694 65.7515 64.7694 64.4764C64.7694 63.1662 63.8075 62.0797 62.5324 61.9518H37.4783C36.5196 61.856 35.5928 62.3034 35.0815 63.1342C34.5702 63.9332 34.5702 64.9877 35.0815 65.8186C35.5928 66.6175 36.5196 67.0969 37.4783 66.969Z" fill="#FFC226"/>
</g>
<defs>
<filter id="filter0_d" x="7.24017" y="9.0433" width="85.5222" height="91.9135" filterUnits="userSpaceOnUse" color-interpolation-filters="sRGB">
<feFlood flood-opacity="0" result="BackgroundImageFix"/>
<feColorMatrix in="SourceAlpha" type="matrix" values="0 0 0 0 0 0 0 0 0 0 0 0 0 0 0 0 0 0 127 0"/>
<feOffset dy="5"/>
<feGaussianBlur stdDeviation="7"/>
<feColorMatrix type="matrix" values="0 0 0 0 1 0 0 0 0 0.760784 0 0 0 0 0.14902 0 0 0 0.39 0"/>
<feBlend mode="normal" in2="BackgroundImageFix" result="effect1_dropShadow"/>
<feBlend mode="normal" in="SourceGraphic" in2="effect1_dropShadow" result="shape"/>
</filter>
<clipPath id="clip0">
<rect width="100" height="100" fill="white"/>
</clipPath>
</defs>
</svg>
