<svg width="100" height="100" viewBox="0 0 100 100" fill="none" xmlns="http://www.w3.org/2000/svg">
<path d="M100 0H0V100H100V0Z" fill="white"/>
<path d="M100 0H0V100H100V0Z" fill="#EAE7FF"/>
<g filter="url(#filter0_d)">
<path d="M38.1953 51.4611C37.9704 51.2283 37.7014 51.0426 37.404 50.9148C37.1066 50.7871 36.7867 50.7198 36.4631 50.717C36.1394 50.7142 35.8184 50.7759 35.5188 50.8984C35.2192 51.021 34.9471 51.202 34.7182 51.4309C34.4893 51.6598 34.3083 51.9319 34.1857 52.2315C34.0632 52.5311 34.0015 52.8521 34.0043 53.1758C34.0071 53.4994 34.0744 53.8193 34.2021 54.1167C34.3299 54.4141 34.5156 54.6831 34.7484 54.9079L35.6089 55.7684C35.8374 55.997 35.9658 56.307 35.9658 56.6302C35.9658 56.9533 35.8374 57.2633 35.6089 57.4919L22.175 70.9306C21.4944 71.6124 21.031 72.4806 20.8434 73.4256C20.6557 74.3705 20.7523 75.3498 21.1208 76.2399C21.4893 77.1301 22.1133 77.8911 22.9139 78.4268C23.7146 78.9626 24.656 79.2492 25.6194 79.2504C26.2605 79.2524 26.8956 79.1269 27.4877 78.8812C28.0799 78.6356 28.6173 78.2747 29.0687 77.8195L42.5002 64.388C42.7287 64.1595 43.0387 64.0311 43.3619 64.0311C43.685 64.0311 43.995 64.1595 44.2236 64.388L45.0841 65.2485C45.3104 65.475 45.5791 65.6546 45.8749 65.7773C46.1706 65.8999 46.4877 65.9631 46.8078 65.9632C47.128 65.9633 47.4451 65.9004 47.7409 65.7779C48.0368 65.6555 48.3056 65.476 48.5321 65.2497C48.7586 65.0234 48.9383 64.7547 49.0609 64.4589C49.1836 64.1631 49.2467 63.8461 49.2469 63.5259C49.247 63.2057 49.184 62.8887 49.0616 62.5928C48.9392 62.297 48.7597 62.0281 48.5333 61.8016L38.1953 51.4611Z" fill="#6A35FF" fill-opacity="0.01"/>
</g>
<path d="M38.1953 51.461C37.9704 51.2282 37.7014 51.0425 37.404 50.9147C37.1066 50.787 36.7867 50.7197 36.4631 50.7169C36.1394 50.7141 35.8184 50.7758 35.5188 50.8983C35.2192 51.0209 34.9471 51.2019 34.7182 51.4308C34.4893 51.6597 34.3083 51.9318 34.1857 52.2314C34.0632 52.531 34.0015 52.852 34.0043 53.1757C34.0071 53.4993 34.0744 53.8192 34.2021 54.1166C34.3299 54.414 34.5156 54.683 34.7484 54.9078L35.6089 55.7683C35.8374 55.9969 35.9658 56.3069 35.9658 56.6301C35.9658 56.9532 35.8374 57.2632 35.6089 57.4918L22.175 70.9305C21.4944 71.6123 21.031 72.4805 20.8434 73.4255C20.6557 74.3704 20.7523 75.3497 21.1208 76.2398C21.4893 77.13 22.1133 77.891 22.9139 78.4267C23.7146 78.9625 24.656 79.2491 25.6194 79.2503C26.2605 79.2523 26.8956 79.1268 27.4877 78.8811C28.0799 78.6355 28.6173 78.2746 29.0687 77.8194L42.5002 64.3879C42.7287 64.1594 43.0387 64.031 43.3619 64.031C43.685 64.031 43.995 64.1594 44.2236 64.3879L45.0841 65.2484C45.3104 65.4749 45.5791 65.6545 45.8749 65.7772C46.1706 65.8998 46.4877 65.963 46.8078 65.9631C47.128 65.9632 47.4451 65.9003 47.7409 65.7778C48.0368 65.6554 48.3056 65.4759 48.5321 65.2496C48.7586 65.0233 48.9383 64.7546 49.0609 64.4588C49.1836 64.163 49.2467 63.846 49.2469 63.5258C49.247 63.2056 49.184 62.8886 49.0616 62.5927C48.9392 62.2969 48.7597 62.028 48.5333 61.8015L38.1953 51.461Z" fill="#6A35FF"/>
<g filter="url(#filter1_d)">
<path d="M70.5584 35.8356H70.8631C71.463 35.7908 72.0464 35.6174 72.5734 35.3271C73.1004 35.0369 73.5588 34.6367 73.9174 34.1536L78.7147 27.7352C79.1022 27.2147 79.2905 26.5727 79.2458 25.9253C79.2011 25.2779 78.9263 24.6679 78.471 24.2055L75.7944 21.5387C75.3457 21.0911 74.754 20.8153 74.1226 20.7596C73.4913 20.7039 72.8604 20.8718 72.3403 21.234L65.7586 25.8046C65.2544 26.1539 64.8334 26.61 64.5254 27.1404C64.2174 27.6708 64.0301 28.2626 63.9767 28.8736C63.9283 29.4386 63.9989 30.0074 64.1839 30.5434C64.2573 30.7591 64.2689 30.991 64.2172 31.2129C64.1655 31.4348 64.0526 31.6378 63.8914 31.7988L45.3433 50.325C45.0009 50.6678 44.8086 51.1324 44.8086 51.6169C44.8086 52.1014 45.0009 52.5661 45.3433 52.9089L47.0691 54.6347C47.2389 54.8046 47.4405 54.9394 47.6624 55.0314C47.8843 55.1233 48.1221 55.1706 48.3623 55.1706C48.6025 55.1706 48.8403 55.1233 49.0622 55.0314C49.2841 54.9394 49.4857 54.8046 49.6555 54.6347L68.3035 36.0062C68.4565 35.8513 68.6482 35.7402 68.8587 35.6845C69.0692 35.6287 69.2908 35.6304 69.5004 35.6893C69.845 35.7848 70.2008 35.834 70.5584 35.8356Z" fill="#6A35FF" fill-opacity="0.01"/>
</g>
<path d="M70.5584 35.8355H70.8631C71.463 35.7907 72.0464 35.6173 72.5734 35.327C73.1004 35.0368 73.5588 34.6366 73.9174 34.1535L78.7147 27.7351C79.1022 27.2146 79.2905 26.5726 79.2458 25.9252C79.2011 25.2778 78.9263 24.6678 78.471 24.2054L75.7944 21.5386C75.3457 21.091 74.754 20.8152 74.1226 20.7595C73.4913 20.7038 72.8604 20.8717 72.3403 21.2339L65.7586 25.8045C65.2544 26.1538 64.8334 26.6099 64.5254 27.1403C64.2174 27.6707 64.0301 28.2625 63.9767 28.8735C63.9283 29.4385 63.9989 30.0073 64.1839 30.5433C64.2573 30.759 64.2689 30.9909 64.2172 31.2128C64.1655 31.4347 64.0526 31.6377 63.8914 31.7987L45.3433 50.3249C45.0009 50.6677 44.8086 51.1323 44.8086 51.6168C44.8086 52.1013 45.0009 52.566 45.3433 52.9088L47.0691 54.6346C47.2389 54.8045 47.4405 54.9393 47.6624 55.0313C47.8843 55.1232 48.1221 55.1705 48.3623 55.1705C48.6025 55.1705 48.8403 55.1232 49.0622 55.0313C49.2841 54.9393 49.4857 54.8045 49.6555 54.6346L68.3035 36.0061C68.4565 35.8512 68.6482 35.7401 68.8587 35.6844C69.0692 35.6286 69.2908 35.6303 69.5004 35.6892C69.845 35.7847 70.2008 35.8339 70.5584 35.8355Z" fill="#6A35FF"/>
<g filter="url(#filter2_d)">
<path d="M65.1368 57.6844C64.9296 57.7401 64.7115 57.7401 64.5043 57.6845C64.2972 57.6289 64.1084 57.5195 63.957 57.3676L58.4966 51.9072C58.2633 51.6878 57.9552 51.5657 57.6349 51.5657C57.3147 51.5657 57.0065 51.6878 56.7732 51.9072L51.6029 57.0677C51.3745 57.2963 51.2461 57.6062 51.2461 57.9294C51.2461 58.2526 51.3745 58.5626 51.6029 58.7911L57.0633 64.2539C57.2148 64.4056 57.3237 64.5945 57.3789 64.8016C57.4341 65.0088 57.4337 65.2268 57.3778 65.4338C56.8836 67.2934 56.8867 69.2503 57.3867 71.1084C57.8867 72.9665 58.866 74.6607 60.2266 76.0213C61.5872 77.3819 63.2814 78.3612 65.1395 78.8612C66.9976 79.3611 68.9544 79.3642 70.8141 78.8701C71.0211 78.8151 71.2101 78.7065 71.3618 78.5552C71.5135 78.404 71.6226 78.2154 71.6783 78.0085C71.7339 77.8016 71.734 77.5837 71.6786 77.3768C71.6231 77.1699 71.5141 76.9812 71.3626 76.8298L67.7061 73.1879C67.511 72.9903 67.3882 72.7326 67.3575 72.4566L66.926 68.5783C66.9059 68.3965 66.9269 68.2124 66.9875 68.0398C67.0482 67.8672 67.1469 67.7105 67.2764 67.5813C67.4058 67.452 67.5628 67.3536 67.7355 67.2932C67.9082 67.2329 68.0923 67.2122 68.2741 67.2327L72.1499 67.6642C72.4263 67.6936 72.6843 67.8166 72.8812 68.0128L76.5377 71.6693C76.6892 71.8202 76.8777 71.9287 77.0843 71.9837C77.2909 72.0388 77.5084 72.0385 77.7149 71.9829C77.9214 71.9274 78.1096 71.8184 78.2607 71.6671C78.4117 71.5158 78.5204 71.3274 78.5756 71.1208C79.0744 69.2606 79.0747 67.3019 78.5765 65.4415C78.0782 63.5812 77.0989 61.8848 75.7371 60.523C74.3752 59.1611 72.6789 58.1819 70.8185 57.6836C68.9582 57.1853 66.9994 57.1856 65.1392 57.6844H65.1368Z" fill="#421AB5" fill-opacity="0.01"/>
</g>
<path d="M65.1368 57.6844C64.9296 57.7401 64.7115 57.7401 64.5043 57.6845C64.2972 57.6289 64.1084 57.5195 63.957 57.3676L58.4966 51.9072C58.2633 51.6878 57.9552 51.5657 57.6349 51.5657C57.3147 51.5657 57.0065 51.6878 56.7732 51.9072L51.6029 57.0677C51.3745 57.2963 51.2461 57.6062 51.2461 57.9294C51.2461 58.2526 51.3745 58.5626 51.6029 58.7911L57.0633 64.2539C57.2148 64.4056 57.3237 64.5945 57.3789 64.8016C57.4341 65.0088 57.4337 65.2268 57.3778 65.4338C56.8836 67.2934 56.8867 69.2503 57.3867 71.1084C57.8867 72.9665 58.866 74.6607 60.2266 76.0213C61.5872 77.3819 63.2814 78.3612 65.1395 78.8612C66.9976 79.3611 68.9544 79.3642 70.8141 78.8701C71.0211 78.8151 71.2101 78.7065 71.3618 78.5552C71.5135 78.404 71.6226 78.2154 71.6783 78.0085C71.7339 77.8016 71.734 77.5837 71.6786 77.3768C71.6231 77.1699 71.5141 76.9812 71.3626 76.8298L67.7061 73.1879C67.511 72.9903 67.3882 72.7326 67.3575 72.4566L66.926 68.5783C66.9059 68.3965 66.9269 68.2124 66.9875 68.0398C67.0482 67.8672 67.1469 67.7105 67.2764 67.5813C67.4058 67.452 67.5628 67.3536 67.7355 67.2932C67.9082 67.2329 68.0923 67.2122 68.2741 67.2327L72.1499 67.6642C72.4263 67.6936 72.6843 67.8166 72.8812 68.0128L76.5377 71.6693C76.6892 71.8202 76.8777 71.9287 77.0843 71.9837C77.2909 72.0388 77.5084 72.0385 77.7149 71.9829C77.9214 71.9274 78.1096 71.8184 78.2607 71.6671C78.4117 71.5158 78.5204 71.3274 78.5756 71.1208C79.0744 69.2606 79.0747 67.3019 78.5765 65.4415C78.0782 63.5812 77.0989 61.8848 75.7371 60.523C74.3752 59.1611 72.6789 58.1819 70.8185 57.6836C68.9582 57.1853 66.9994 57.1856 65.1392 57.6844H65.1368Z" fill="#421AB5"/>
<g filter="url(#filter3_d)">
<path d="M34.5568 42.622C34.7639 42.5663 34.9821 42.5663 35.1893 42.6219C35.3964 42.6776 35.5852 42.7869 35.7366 42.9389L41.197 48.3992C41.4255 48.6277 41.7355 48.7561 42.0587 48.7561C42.3819 48.7561 42.6918 48.6277 42.9204 48.3992L48.0906 43.2289C48.3191 43.0004 48.4475 42.6904 48.4475 42.3672C48.4475 42.044 48.3191 41.7341 48.0906 41.5055L42.6303 36.0427C42.4788 35.8911 42.3699 35.7022 42.3147 35.495C42.2595 35.2879 42.2599 35.0699 42.3158 34.8629C42.8149 33.0025 42.8152 31.0434 42.3169 29.1828C41.8185 27.3222 40.839 25.6256 39.4768 24.2637C38.1146 22.9018 36.4179 21.9226 34.5572 21.4245C32.6965 20.9265 30.7374 20.9272 28.8771 21.4266C28.6705 21.4818 28.4821 21.5904 28.3307 21.7415C28.1794 21.8926 28.0705 22.0808 28.0149 22.2873C27.9593 22.4938 27.9591 22.7112 28.0141 22.9179C28.0692 23.1245 28.1776 23.313 28.3286 23.4644L31.9729 27.1209C32.17 27.3175 32.2938 27.5755 32.3239 27.8522L32.7529 31.7159C32.773 31.8975 32.7521 32.0813 32.6916 32.2537C32.631 32.4261 32.5325 32.5827 32.4034 32.7119C32.2742 32.8411 32.1176 32.9396 31.9452 33.0001C31.7728 33.0606 31.5889 33.0816 31.4073 33.0615L27.529 32.63C27.2527 32.6006 26.9946 32.4776 26.7977 32.2814L23.1583 28.6372C23.0069 28.4862 22.8184 28.3777 22.6117 28.3227C22.4051 28.2676 22.1876 28.2679 21.9812 28.3235C21.7747 28.3791 21.5864 28.488 21.4354 28.6393C21.2843 28.7906 21.1757 28.979 21.1204 29.1856C20.6216 31.0458 20.6213 33.0046 21.1196 34.8649C21.6179 36.7252 22.5971 38.4216 23.959 39.7834C25.3208 41.1453 27.0172 42.1246 28.8775 42.6228C30.7379 43.1211 32.6966 43.1208 34.5568 42.622Z" fill="#421AB5" fill-opacity="0.01"/>
</g>
<path d="M34.5568 42.622C34.7639 42.5663 34.9821 42.5663 35.1893 42.6219C35.3964 42.6776 35.5852 42.7869 35.7366 42.9389L41.197 48.3992C41.4255 48.6277 41.7355 48.7561 42.0587 48.7561C42.3819 48.7561 42.6918 48.6277 42.9204 48.3992L48.0906 43.2289C48.3191 43.0004 48.4475 42.6904 48.4475 42.3672C48.4475 42.044 48.3191 41.7341 48.0906 41.5055L42.6303 36.0427C42.4788 35.8911 42.3699 35.7022 42.3147 35.495C42.2595 35.2879 42.2599 35.0699 42.3158 34.8629C42.8149 33.0025 42.8152 31.0434 42.3169 29.1828C41.8185 27.3222 40.839 25.6256 39.4768 24.2637C38.1146 22.9018 36.4179 21.9226 34.5572 21.4245C32.6965 20.9265 30.7374 20.9272 28.8771 21.4266C28.6705 21.4818 28.4821 21.5904 28.3307 21.7415C28.1794 21.8926 28.0705 22.0808 28.0149 22.2873C27.9593 22.4938 27.9591 22.7112 28.0141 22.9179C28.0692 23.1245 28.1776 23.313 28.3286 23.4644L31.9729 27.1209C32.17 27.3175 32.2938 27.5755 32.3239 27.8522L32.7529 31.7159C32.773 31.8975 32.7521 32.0813 32.6916 32.2537C32.631 32.4261 32.5325 32.5827 32.4034 32.7119C32.2742 32.8411 32.1176 32.9396 31.9452 33.0001C31.7728 33.0606 31.5889 33.0816 31.4073 33.0615L27.529 32.63C27.2527 32.6006 26.9946 32.4776 26.7977 32.2814L23.1583 28.6372C23.0069 28.4862 22.8184 28.3777 22.6117 28.3227C22.4051 28.2676 22.1876 28.2679 21.9812 28.3235C21.7747 28.3791 21.5864 28.488 21.4354 28.6393C21.2843 28.7906 21.1757 28.979 21.1204 29.1856C20.6216 31.0458 20.6213 33.0046 21.1196 34.8649C21.6179 36.7252 22.5971 38.4216 23.959 39.7834C25.3208 41.1453 27.0172 42.1246 28.8775 42.6228C30.7379 43.1211 32.6966 43.1208 34.5568 42.622Z" fill="#421AB5"/>
<defs>
<filter id="filter0_d" x="13.75" y="45.7169" width="42.4969" height="42.5335" filterUnits="userSpaceOnUse" color-interpolation-filters="sRGB">
<feFlood flood-opacity="0" result="BackgroundImageFix"/>
<feColorMatrix in="SourceAlpha" type="matrix" values="0 0 0 0 0 0 0 0 0 0 0 0 0 0 0 0 0 0 127 0"/>
<feOffset dy="2"/>
<feGaussianBlur stdDeviation="3.5"/>
<feColorMatrix type="matrix" values="0 0 0 0 0.414166 0 0 0 0 0.208333 0 0 0 0 1 0 0 0 0.26 0"/>
<feBlend mode="normal" in2="BackgroundImageFix" result="effect1_dropShadow"/>
<feBlend mode="normal" in="SourceGraphic" in2="effect1_dropShadow" result="shape"/>
</filter>
<filter id="filter1_d" x="37.8086" y="15.7491" width="48.4437" height="48.4215" filterUnits="userSpaceOnUse" color-interpolation-filters="sRGB">
<feFlood flood-opacity="0" result="BackgroundImageFix"/>
<feColorMatrix in="SourceAlpha" type="matrix" values="0 0 0 0 0 0 0 0 0 0 0 0 0 0 0 0 0 0 127 0"/>
<feOffset dy="2"/>
<feGaussianBlur stdDeviation="3.5"/>
<feColorMatrix type="matrix" values="0 0 0 0 0.414166 0 0 0 0 0.208333 0 0 0 0 1 0 0 0 0.26 0"/>
<feBlend mode="normal" in2="BackgroundImageFix" result="effect1_dropShadow"/>
<feBlend mode="normal" in="SourceGraphic" in2="effect1_dropShadow" result="shape"/>
</filter>
<filter id="filter2_d" x="45.2461" y="47.5657" width="39.7038" height="39.6727" filterUnits="userSpaceOnUse" color-interpolation-filters="sRGB">
<feFlood flood-opacity="0" result="BackgroundImageFix"/>
<feColorMatrix in="SourceAlpha" type="matrix" values="0 0 0 0 0 0 0 0 0 0 0 0 0 0 0 0 0 0 127 0"/>
<feOffset dy="2"/>
<feGaussianBlur stdDeviation="3"/>
<feColorMatrix type="matrix" values="0 0 0 0 0.258824 0 0 0 0 0.101961 0 0 0 0 0.709804 0 0 0 0.24 0"/>
<feBlend mode="normal" in2="BackgroundImageFix" result="effect1_dropShadow"/>
<feBlend mode="normal" in="SourceGraphic" in2="effect1_dropShadow" result="shape"/>
</filter>
<filter id="filter3_d" x="14.7461" y="17.0515" width="39.7014" height="39.7046" filterUnits="userSpaceOnUse" color-interpolation-filters="sRGB">
<feFlood flood-opacity="0" result="BackgroundImageFix"/>
<feColorMatrix in="SourceAlpha" type="matrix" values="0 0 0 0 0 0 0 0 0 0 0 0 0 0 0 0 0 0 127 0"/>
<feOffset dy="2"/>
<feGaussianBlur stdDeviation="3"/>
<feColorMatrix type="matrix" values="0 0 0 0 0.258824 0 0 0 0 0.101961 0 0 0 0 0.709804 0 0 0 0.24 0"/>
<feBlend mode="normal" in2="BackgroundImageFix" result="effect1_dropShadow"/>
<feBlend mode="normal" in="SourceGraphic" in2="effect1_dropShadow" result="shape"/>
</filter>
</defs>
</svg>
