<svg width="100" height="100" viewBox="0 0 100 100" fill="none" xmlns="http://www.w3.org/2000/svg">
<path d="M100 0H0V100H100V0Z" fill="white"/>
<path d="M100 0H0V100H100V0Z" fill="#DEEBFF"/>
<g filter="url(#filter0_d)">
<path d="M80.0998 29.5315C80.0973 27.297 79.2085 25.1548 77.6284 23.5747C76.0484 21.9947 73.9061 21.1059 71.6716 21.1033H62.0394C59.8049 21.1059 57.6626 21.9947 56.0826 23.5747C54.5025 25.1548 53.6138 27.297 53.6112 29.5315V50C53.6112 51.1173 53.4378 56.1935 49.9991 56.1935C46.5604 56.1935 46.387 51.1173 46.387 50V29.5315C46.3845 27.297 45.4957 25.1548 43.9157 23.5747C42.3356 21.9947 40.1934 21.1059 37.9588 21.1033H28.3266C26.0921 21.1059 23.9499 21.9947 22.3698 23.5747C20.7898 25.1548 19.901 27.297 19.8984 29.5315V49.4895C19.8984 67.0972 31.9965 78.8967 49.9991 78.8967C68.0017 78.8967 80.0998 67.0779 80.0998 49.4895V29.5315ZM39.1629 36.7557C39.1635 36.914 39.1328 37.0708 39.0725 37.2172C39.0122 37.3636 38.9236 37.4966 38.8116 37.6085C38.6997 37.7204 38.5667 37.8091 38.4204 37.8694C38.274 37.9297 38.1171 37.9604 37.9588 37.9597H28.3266C28.1683 37.9604 28.0115 37.9297 27.8651 37.8694C27.7187 37.8091 27.5858 37.7204 27.4738 37.6085C27.3619 37.4966 27.2732 37.3636 27.213 37.2172C27.1527 37.0708 27.122 36.914 27.1226 36.7557V29.5315C27.1226 29.2122 27.2495 28.906 27.4753 28.6802C27.7011 28.4544 28.0073 28.3275 28.3266 28.3275H37.9588C38.2782 28.3275 38.5844 28.4544 38.8102 28.6802C39.036 28.906 39.1629 29.2122 39.1629 29.5315V36.7557ZM60.8354 29.5315C60.8354 29.2122 60.9622 28.906 61.188 28.6802C61.4138 28.4544 61.7201 28.3275 62.0394 28.3275H71.6716C71.9909 28.3275 72.2972 28.4544 72.523 28.6802C72.7488 28.906 72.8756 29.2122 72.8756 29.5315V36.7557C72.8763 36.914 72.8456 37.0708 72.7853 37.2172C72.725 37.3636 72.6363 37.4966 72.5244 37.6085C72.4125 37.7204 72.2795 37.8091 72.1331 37.8694C71.9868 37.9297 71.8299 37.9604 71.6716 37.9597H62.0394C61.8811 37.9604 61.7242 37.9297 61.5779 37.8694C61.4315 37.8091 61.2985 37.7204 61.1866 37.6085C61.0747 37.4966 60.986 37.3636 60.9257 37.2172C60.8654 37.0708 60.8347 36.914 60.8354 36.7557V29.5315Z" fill="#3F80FD" fill-opacity="0.01"/>
<path d="M19.8984 29.1033C19.8984 24.6851 23.4802 21.1033 27.8984 21.1033H38.3876C42.8059 21.1033 46.3876 24.6851 46.3876 29.1033V40.8996H19.8984V29.1033Z" fill="#1055D9" fill-opacity="0.01"/>
<path d="M53.6113 29.1033C53.6113 24.6851 57.193 21.1033 61.6113 21.1033H72.1005C76.5188 21.1033 80.1005 24.6851 80.1005 29.1033V40.8996H53.6113V29.1033Z" fill="#1055D9" fill-opacity="0.01"/>
</g>
<path d="M80.0998 29.5315C80.0973 27.297 79.2085 25.1548 77.6284 23.5747C76.0484 21.9947 73.9061 21.1059 71.6716 21.1033H62.0394C59.8049 21.1059 57.6626 21.9947 56.0826 23.5747C54.5025 25.1548 53.6138 27.297 53.6112 29.5315V50C53.6112 51.1173 53.4378 56.1935 49.9991 56.1935C46.5604 56.1935 46.387 51.1173 46.387 50V29.5315C46.3845 27.297 45.4957 25.1548 43.9157 23.5747C42.3356 21.9947 40.1934 21.1059 37.9588 21.1033H28.3266C26.0921 21.1059 23.9499 21.9947 22.3698 23.5747C20.7898 25.1548 19.901 27.297 19.8984 29.5315V49.4895C19.8984 67.0972 31.9965 78.8967 49.9991 78.8967C68.0017 78.8967 80.0998 67.0779 80.0998 49.4895V29.5315ZM39.1629 36.7557C39.1635 36.914 39.1328 37.0708 39.0725 37.2172C39.0122 37.3636 38.9236 37.4966 38.8116 37.6085C38.6997 37.7204 38.5667 37.8091 38.4204 37.8694C38.274 37.9297 38.1171 37.9604 37.9588 37.9597H28.3266C28.1683 37.9604 28.0115 37.9297 27.8651 37.8694C27.7187 37.8091 27.5858 37.7204 27.4738 37.6085C27.3619 37.4966 27.2732 37.3636 27.213 37.2172C27.1527 37.0708 27.122 36.914 27.1226 36.7557V29.5315C27.1226 29.2122 27.2495 28.906 27.4753 28.6802C27.7011 28.4544 28.0073 28.3275 28.3266 28.3275H37.9588C38.2782 28.3275 38.5844 28.4544 38.8102 28.6802C39.036 28.906 39.1629 29.2122 39.1629 29.5315V36.7557ZM60.8354 29.5315C60.8354 29.2122 60.9622 28.906 61.188 28.6802C61.4138 28.4544 61.7201 28.3275 62.0394 28.3275H71.6716C71.9909 28.3275 72.2972 28.4544 72.523 28.6802C72.7488 28.906 72.8756 29.2122 72.8756 29.5315V36.7557C72.8763 36.914 72.8456 37.0708 72.7853 37.2172C72.725 37.3636 72.6363 37.4966 72.5244 37.6085C72.4125 37.7204 72.2795 37.8091 72.1331 37.8694C71.9868 37.9297 71.8299 37.9604 71.6716 37.9597H62.0394C61.8811 37.9604 61.7242 37.9297 61.5779 37.8694C61.4315 37.8091 61.2985 37.7204 61.1866 37.6085C61.0747 37.4966 60.986 37.3636 60.9257 37.2172C60.8654 37.0708 60.8347 36.914 60.8354 36.7557V29.5315Z" fill="#3F80FD"/>
<path d="M19.8984 29.1033C19.8984 24.6851 23.4802 21.1033 27.8984 21.1033H38.3876C42.8059 21.1033 46.3876 24.6851 46.3876 29.1033V40.8996H19.8984V29.1033Z" fill="#1055D9"/>
<path d="M53.6113 29.1033C53.6113 24.6851 57.193 21.1033 61.6113 21.1033H72.1005C76.5188 21.1033 80.1005 24.6851 80.1005 29.1033V40.8996H53.6113V29.1033Z" fill="#1055D9"/>
<defs>
<filter id="filter0_d" x="9.89844" y="15.1033" width="80.2021" height="77.7934" filterUnits="userSpaceOnUse" color-interpolation-filters="sRGB">
<feFlood flood-opacity="0" result="BackgroundImageFix"/>
<feColorMatrix in="SourceAlpha" type="matrix" values="0 0 0 0 0 0 0 0 0 0 0 0 0 0 0 0 0 0 127 0"/>
<feOffset dy="4"/>
<feGaussianBlur stdDeviation="5"/>
<feColorMatrix type="matrix" values="0 0 0 0 0.247059 0 0 0 0 0.501961 0 0 0 0 0.992157 0 0 0 0.46 0"/>
<feBlend mode="normal" in2="BackgroundImageFix" result="effect1_dropShadow"/>
<feBlend mode="normal" in="SourceGraphic" in2="effect1_dropShadow" result="shape"/>
</filter>
</defs>
</svg>
