<svg width="19" height="21" viewBox="0 0 19 21" fill="none" xmlns="http://www.w3.org/2000/svg">
<circle cx="9.73693" cy="8.32397" r="4.19982" fill="white"/>
<path d="M9.73633 21C9.8729 21 10.0054 20.9535 10.1119 20.868C10.4647 20.5836 18.7363 13.8708 18.7363 9C18.7363 6.61305 17.7881 4.32387 16.1003 2.63604C14.4125 0.948211 12.1233 0 9.73633 0C7.34938 0 5.06019 0.948211 3.37237 2.63604C1.68454 4.32387 0.736328 6.61305 0.736328 9C0.736328 13.8708 9.00793 20.5836 9.36073 20.868C9.46726 20.9535 9.59975 21 9.73633 21ZM9.73633 5.4C10.3297 5.4 10.9097 5.57595 11.403 5.90559C11.8964 6.23524 12.2809 6.70377 12.508 7.25195C12.735 7.80013 12.7944 8.40333 12.6787 8.98527C12.5629 9.56721 12.2772 10.1018 11.8576 10.5213C11.4381 10.9409 10.9035 11.2266 10.3216 11.3424C9.73966 11.4581 9.13646 11.3987 8.58828 11.1716C8.0401 10.9446 7.57156 10.5601 7.24192 10.0667C6.91227 9.57336 6.73633 8.99334 6.73633 8.4C6.73633 7.60435 7.0524 6.84129 7.61501 6.27868C8.17762 5.71607 8.94068 5.4 9.73633 5.4Z" fill="#FF3951"/>
</svg>
