<svg width="100" height="100" viewBox="0 0 100 100" fill="none" xmlns="http://www.w3.org/2000/svg">
<g clip-path="url(#clip0)">
<path d="M100 0H0V100H100V0Z" fill="white"/>
<path d="M100 0H0V100H100V0Z" fill="#E1F7FF"/>
<g filter="url(#filter0_d)">
<path fill-rule="evenodd" clip-rule="evenodd" d="M59.8586 31.5611C60.8404 31.5746 61.8246 31.5881 62.8122 31.5982C73.423 31.5982 81.1595 39.163 81.1595 49.6096V63.0282C81.1595 73.4748 73.423 81.0396 62.8122 81.0396C58.5617 81.1297 54.3113 81.1597 50.0302 81.1597C45.7492 81.1597 41.4376 81.1297 37.1871 81.0396C26.5763 81.0396 18.8398 73.4748 18.8398 63.0282V49.6096C18.8398 39.163 26.5763 31.5982 37.2177 31.5982C41.2235 31.5382 45.3211 31.4781 49.4798 31.4781V30.9678C49.4798 28.8965 47.7368 27.2154 45.6575 27.2154H42.6302C39.1748 27.2154 36.3615 24.4537 36.3615 21.0915C36.3615 19.8607 37.4012 18.8401 38.6549 18.8401C39.9392 18.8401 40.9483 19.8607 40.9483 21.0915C40.9483 21.9921 41.7128 22.7125 42.6302 22.7125H45.6575C50.2749 22.7426 54.0361 26.4349 54.0666 30.9378V31.5081C55.9943 31.5081 57.922 31.5346 59.8586 31.5611ZM46.4211 58.555H43.2103V61.737C43.2103 62.9678 42.1707 63.9885 40.9169 63.9885C39.6326 63.9885 38.6235 62.9678 38.6235 61.737V58.555H35.3822C34.1284 58.555 33.0888 57.5644 33.0888 56.3036C33.0888 55.0728 34.1284 54.0521 35.3822 54.0521H38.6235V50.9001C38.6235 49.6694 39.6326 48.6487 40.9169 48.6487C42.1707 48.6487 43.2103 49.6694 43.2103 50.9001V54.0521H46.4211C47.6748 54.0521 48.7145 55.0728 48.7145 56.3036C48.7145 57.5644 47.6748 58.555 46.4211 58.555ZM59.4145 53.4818H59.7203C60.974 53.4818 62.0137 52.4912 62.0137 51.2304C62.0137 49.9996 60.974 48.979 59.7203 48.979H59.4145C58.1302 48.979 57.1211 49.9996 57.1211 51.2304C57.1211 52.4912 58.1302 53.4818 59.4145 53.4818ZM64.6426 63.8082H64.9484C66.2021 63.8082 67.2418 62.8175 67.2418 61.5567C67.2418 60.326 66.2021 59.3053 64.9484 59.3053H64.6426C63.3552 59.3053 62.3492 60.326 62.3492 61.5567C62.3492 62.8175 63.3552 63.8082 64.6426 63.8082Z" fill="#3FCFFD" fill-opacity="0.01"/>
</g>
<path d="M73.3663 39.3298H26.2892V69.0631H73.3663V39.3298Z" fill="white"/>
<path fill-rule="evenodd" clip-rule="evenodd" d="M59.8586 31.5611C60.8404 31.5746 61.8246 31.5881 62.8122 31.5982C73.423 31.5982 81.1595 39.163 81.1595 49.6096V63.0282C81.1595 73.4748 73.423 81.0396 62.8122 81.0396C58.5617 81.1297 54.3113 81.1597 50.0302 81.1597C45.7492 81.1597 41.4376 81.1297 37.1871 81.0396C26.5763 81.0396 18.8398 73.4748 18.8398 63.0282V49.6096C18.8398 39.163 26.5763 31.5982 37.2177 31.5982C41.2235 31.5382 45.3211 31.4781 49.4798 31.4781V30.9678C49.4798 28.8965 47.7368 27.2154 45.6575 27.2154H42.6302C39.1748 27.2154 36.3615 24.4537 36.3615 21.0915C36.3615 19.8607 37.4012 18.8401 38.6549 18.8401C39.9392 18.8401 40.9483 19.8607 40.9483 21.0915C40.9483 21.9921 41.7128 22.7125 42.6302 22.7125H45.6575C50.2749 22.7426 54.0361 26.4349 54.0666 30.9378V31.5081C55.9943 31.5081 57.922 31.5346 59.8586 31.5611ZM46.4211 58.555H43.2103V61.737C43.2103 62.9678 42.1707 63.9885 40.9169 63.9885C39.6326 63.9885 38.6235 62.9678 38.6235 61.737V58.555H35.3822C34.1284 58.555 33.0888 57.5644 33.0888 56.3036C33.0888 55.0728 34.1284 54.0521 35.3822 54.0521H38.6235V50.9001C38.6235 49.6694 39.6326 48.6487 40.9169 48.6487C42.1707 48.6487 43.2103 49.6694 43.2103 50.9001V54.0521H46.4211C47.6748 54.0521 48.7145 55.0728 48.7145 56.3036C48.7145 57.5644 47.6748 58.555 46.4211 58.555ZM59.4145 53.4818H59.7203C60.974 53.4818 62.0137 52.4912 62.0137 51.2304C62.0137 49.9996 60.974 48.979 59.7203 48.979H59.4145C58.1302 48.979 57.1211 49.9996 57.1211 51.2304C57.1211 52.4912 58.1302 53.4818 59.4145 53.4818ZM64.6426 63.8082H64.9484C66.2021 63.8082 67.2418 62.8175 67.2418 61.5567C67.2418 60.326 66.2021 59.3053 64.9484 59.3053H64.6426C63.3552 59.3053 62.3492 60.326 62.3492 61.5567C62.3492 62.8175 63.3552 63.8082 64.6426 63.8082Z" fill="#3FCFFD"/>
</g>
<defs>
<filter id="filter0_d" x="4.83984" y="11.8401" width="90.3197" height="90.3196" filterUnits="userSpaceOnUse" color-interpolation-filters="sRGB">
<feFlood flood-opacity="0" result="BackgroundImageFix"/>
<feColorMatrix in="SourceAlpha" type="matrix" values="0 0 0 0 0 0 0 0 0 0 0 0 0 0 0 0 0 0 127 0"/>
<feOffset dy="7"/>
<feGaussianBlur stdDeviation="7"/>
<feColorMatrix type="matrix" values="0 0 0 0 0.247059 0 0 0 0 0.811765 0 0 0 0 0.992157 0 0 0 0.32 0"/>
<feBlend mode="normal" in2="BackgroundImageFix" result="effect1_dropShadow"/>
<feBlend mode="normal" in="SourceGraphic" in2="effect1_dropShadow" result="shape"/>
</filter>
<clipPath id="clip0">
<rect width="100" height="100" fill="white"/>
</clipPath>
</defs>
</svg>
