<svg width="40" height="47" viewBox="0 0 40 47" fill="none" xmlns="http://www.w3.org/2000/svg">
<path d="M38.3434 27.3347C38.1742 27.5601 37.3848 28.5182 36.7645 29.1382L36.4262 29.4763C31.6897 34.6051 19.9047 42.3264 13.9277 44.8063C13.9277 44.8626 10.3753 46.328 8.68365 46.3844H8.4581C5.86428 46.3844 3.43963 44.919 2.19911 42.5519C1.52246 41.2556 0.902197 37.4795 0.84581 37.4231C0.338324 34.0415 0 28.862 0 23.164C0 17.1898 0.338324 11.7793 0.958584 8.45402C0.958584 8.39766 1.57884 5.35421 1.97356 4.33973C2.59382 2.87437 3.72156 1.63444 5.13125 0.845402C6.25899 0.281801 7.44312 0 8.68365 0C9.98055 0.0563601 12.4052 0.907398 13.3638 1.29628C19.6792 3.77613 31.7461 11.892 36.3698 16.8517C37.1592 17.6407 38.005 18.5988 38.2306 18.8243C39.1892 20.0642 39.6967 21.5859 39.6967 23.226C39.6967 24.6857 39.2456 26.1511 38.3434 27.3347" fill="#FF3951"/>
</svg>
