<svg width="184" height="47" viewBox="0 0 184 47" fill="none" xmlns="http://www.w3.org/2000/svg">
<g clip-path="url(#clip0)">
<g filter="url(#filter0_d)">
<path d="M34.8996 14.7527C34.7734 14.3625 34.5406 14.0153 34.2276 13.7503C33.9146 13.4853 33.5338 13.313 33.1281 13.2529L27.834 12.4891L25.4594 7.71347C25.2777 7.34893 24.998 7.04226 24.6516 6.82791C24.3053 6.61355 23.9061 6.5 23.4988 6.5C23.0915 6.5 22.6922 6.61355 22.3459 6.82791C21.9995 7.04226 21.7198 7.34893 21.5381 7.71347L19.1708 12.4876L13.8782 13.2529C13.4744 13.3131 13.0953 13.4843 12.783 13.7473C12.4708 14.0103 12.2376 14.3548 12.1096 14.7425C11.9811 15.1323 11.9652 15.5505 12.0639 15.9489C12.1626 16.3473 12.3719 16.7098 12.6675 16.9945L16.4909 20.6981L15.5869 25.9337C15.518 26.3362 15.563 26.7499 15.7168 27.1282C15.8706 27.5065 16.127 27.8342 16.4572 28.0745C16.7874 28.3148 17.1781 28.458 17.5854 28.4879C17.9926 28.5179 18.4001 28.4335 18.7619 28.2441L23.501 25.7673L28.2444 28.25C28.6064 28.4396 29.0143 28.5241 29.4218 28.494C29.8294 28.464 30.2204 28.3205 30.5507 28.0799C30.881 27.8392 31.1374 27.511 31.2909 27.1322C31.4444 26.7535 31.4889 26.3394 31.4194 25.9367L30.511 20.6996L34.3344 16.9945C34.6283 16.7107 34.8369 16.3504 34.9368 15.9542C35.0367 15.5581 35.0238 15.1419 34.8996 14.7527Z" fill="#FFC226" fill-opacity="0.01"/>
</g>
<path d="M34.8996 14.7527C34.7734 14.3625 34.5406 14.0153 34.2276 13.7503C33.9146 13.4853 33.5338 13.313 33.1281 13.2529L27.834 12.4891L25.4594 7.71347C25.2777 7.34893 24.998 7.04226 24.6516 6.82791C24.3053 6.61355 23.9061 6.5 23.4988 6.5C23.0915 6.5 22.6922 6.61355 22.3459 6.82791C21.9995 7.04226 21.7198 7.34893 21.5381 7.71347L19.1708 12.4876L13.8782 13.2529C13.4744 13.3131 13.0953 13.4843 12.783 13.7473C12.4708 14.0103 12.2376 14.3548 12.1096 14.7425C11.9811 15.1323 11.9652 15.5505 12.0639 15.9489C12.1626 16.3473 12.3719 16.7098 12.6675 16.9945L16.4909 20.6981L15.5869 25.9337C15.518 26.3362 15.563 26.7499 15.7168 27.1282C15.8706 27.5065 16.127 27.8342 16.4572 28.0745C16.7874 28.3148 17.1781 28.458 17.5854 28.4879C17.9926 28.5179 18.4001 28.4335 18.7619 28.2441L23.501 25.7673L28.2444 28.25C28.6064 28.4396 29.0143 28.5241 29.4218 28.494C29.8294 28.464 30.2204 28.3205 30.5507 28.0799C30.881 27.8392 31.1374 27.511 31.2909 27.1322C31.4444 26.7535 31.4889 26.3394 31.4194 25.9367L30.511 20.6996L34.3344 16.9945C34.6283 16.7107 34.8369 16.3504 34.9368 15.9542C35.0367 15.5581 35.0238 15.1419 34.8996 14.7527Z" fill="#FFC226"/>
<g filter="url(#filter1_d)">
<path d="M68.903 14.7527C68.7768 14.3625 68.544 14.0153 68.231 13.7503C67.918 13.4853 67.5372 13.313 67.1315 13.2529L61.8374 12.4891L59.4628 7.71347C59.2811 7.34893 59.0014 7.04226 58.655 6.82791C58.3087 6.61355 57.9095 6.5 57.5022 6.5C57.0949 6.5 56.6956 6.61355 56.3493 6.82791C56.0029 7.04226 55.7232 7.34893 55.5415 7.71347L53.1742 12.4876L47.8816 13.2529C47.4778 13.3131 47.0987 13.4843 46.7864 13.7473C46.4742 14.0103 46.241 14.3548 46.113 14.7425C45.9845 15.1323 45.9686 15.5505 46.0673 15.9489C46.166 16.3473 46.3753 16.7098 46.6709 16.9945L50.4943 20.6981L49.5903 25.9337C49.5214 26.3362 49.5664 26.7499 49.7202 27.1282C49.874 27.5065 50.1304 27.8342 50.4606 28.0745C50.7908 28.3148 51.1815 28.458 51.5888 28.4879C51.996 28.5179 52.4035 28.4335 52.7653 28.2441L57.5044 25.7673L62.2478 28.25C62.6098 28.4396 63.0177 28.5241 63.4252 28.494C63.8328 28.464 64.2238 28.3205 64.5541 28.0799C64.8844 27.8392 65.1408 27.511 65.2943 27.1322C65.4478 26.7535 65.4923 26.3394 65.4228 25.9367L64.5144 20.6996L68.3378 16.9945C68.6317 16.7107 68.8403 16.3504 68.9402 15.9542C69.0401 15.5581 69.0272 15.1419 68.903 14.7527Z" fill="#FFC226" fill-opacity="0.01"/>
</g>
<path d="M68.903 14.7527C68.7768 14.3625 68.544 14.0153 68.231 13.7503C67.918 13.4853 67.5372 13.313 67.1315 13.2529L61.8374 12.4891L59.4628 7.71347C59.2811 7.34893 59.0014 7.04226 58.655 6.82791C58.3087 6.61355 57.9095 6.5 57.5022 6.5C57.0949 6.5 56.6956 6.61355 56.3493 6.82791C56.0029 7.04226 55.7232 7.34893 55.5415 7.71347L53.1742 12.4876L47.8816 13.2529C47.4778 13.3131 47.0987 13.4843 46.7864 13.7473C46.4742 14.0103 46.241 14.3548 46.113 14.7425C45.9845 15.1323 45.9686 15.5505 46.0673 15.9489C46.166 16.3473 46.3753 16.7098 46.6709 16.9945L50.4943 20.6981L49.5903 25.9337C49.5214 26.3362 49.5664 26.7499 49.7202 27.1282C49.874 27.5065 50.1304 27.8342 50.4606 28.0745C50.7908 28.3148 51.1815 28.458 51.5888 28.4879C51.996 28.5179 52.4035 28.4335 52.7653 28.2441L57.5044 25.7673L62.2478 28.25C62.6098 28.4396 63.0177 28.5241 63.4252 28.494C63.8328 28.464 64.2238 28.3205 64.5541 28.0799C64.8844 27.8392 65.1408 27.511 65.2943 27.1322C65.4478 26.7535 65.4923 26.3394 65.4228 25.9367L64.5144 20.6996L68.3378 16.9945C68.6317 16.7107 68.8403 16.3504 68.9402 15.9542C69.0401 15.5581 69.0272 15.1419 68.903 14.7527Z" fill="#FFC226"/>
<g filter="url(#filter2_d)">
<path d="M102.906 14.7527C102.78 14.3625 102.547 14.0153 102.234 13.7503C101.921 13.4853 101.541 13.313 101.135 13.2529L95.8409 12.4891L93.4663 7.71347C93.2846 7.34893 93.0049 7.04226 92.6585 6.82791C92.3122 6.61355 91.913 6.5 91.5057 6.5C91.0984 6.5 90.6991 6.61355 90.3528 6.82791C90.0064 7.04226 89.7267 7.34893 89.545 7.71347L87.1777 12.4876L81.8851 13.2529C81.4813 13.3131 81.1022 13.4843 80.7899 13.7473C80.4777 14.0103 80.2445 14.3548 80.1165 14.7425C79.988 15.1323 79.9721 15.5505 80.0708 15.9489C80.1695 16.3473 80.3788 16.7098 80.6744 16.9945L84.4978 20.6981L83.5938 25.9337C83.5249 26.3362 83.5699 26.7499 83.7237 27.1282C83.8775 27.5065 84.1339 27.8342 84.4641 28.0745C84.7943 28.3148 85.185 28.458 85.5923 28.4879C85.9995 28.5179 86.407 28.4335 86.7688 28.2441L91.5079 25.7673L96.2513 28.25C96.6133 28.4396 97.0212 28.5241 97.4287 28.494C97.8363 28.464 98.2273 28.3205 98.5576 28.0799C98.8878 27.8392 99.1443 27.511 99.2978 27.1322C99.4513 26.7535 99.4958 26.3394 99.4263 25.9367L98.5179 20.6996L102.341 16.9945C102.635 16.7107 102.844 16.3504 102.944 15.9542C103.044 15.5581 103.031 15.1419 102.906 14.7527Z" fill="#FFC226" fill-opacity="0.01"/>
</g>
<path d="M102.906 14.7527C102.78 14.3625 102.547 14.0153 102.234 13.7503C101.921 13.4853 101.541 13.313 101.135 13.2529L95.8409 12.4891L93.4663 7.71347C93.2846 7.34893 93.0049 7.04226 92.6585 6.82791C92.3122 6.61355 91.913 6.5 91.5057 6.5C91.0984 6.5 90.6991 6.61355 90.3528 6.82791C90.0064 7.04226 89.7267 7.34893 89.545 7.71347L87.1777 12.4876L81.8851 13.2529C81.4813 13.3131 81.1022 13.4843 80.7899 13.7473C80.4777 14.0103 80.2445 14.3548 80.1165 14.7425C79.988 15.1323 79.9721 15.5505 80.0708 15.9489C80.1695 16.3473 80.3788 16.7098 80.6744 16.9945L84.4978 20.6981L83.5938 25.9337C83.5249 26.3362 83.5699 26.7499 83.7237 27.1282C83.8775 27.5065 84.1339 27.8342 84.4641 28.0745C84.7943 28.3148 85.185 28.458 85.5923 28.4879C85.9995 28.5179 86.407 28.4335 86.7688 28.2441L91.5079 25.7673L96.2513 28.25C96.6133 28.4396 97.0212 28.5241 97.4287 28.494C97.8363 28.464 98.2273 28.3205 98.5576 28.0799C98.8878 27.8392 99.1443 27.511 99.2978 27.1322C99.4513 26.7535 99.4958 26.3394 99.4263 25.9367L98.5179 20.6996L102.341 16.9945C102.635 16.7107 102.844 16.3504 102.944 15.9542C103.044 15.5581 103.031 15.1419 102.906 14.7527Z" fill="#FFC226"/>
<g filter="url(#filter3_d)">
<path d="M136.91 14.7527C136.784 14.3625 136.551 14.0153 136.238 13.7503C135.925 13.4853 135.544 13.313 135.138 13.2529L129.844 12.4891L127.47 7.71347C127.288 7.34893 127.008 7.04226 126.662 6.82791C126.316 6.61355 125.916 6.5 125.509 6.5C125.102 6.5 124.702 6.61355 124.356 6.82791C124.01 7.04226 123.73 7.34893 123.548 7.71347L121.181 12.4876L115.888 13.2529C115.485 13.3131 115.106 13.4843 114.793 13.7473C114.481 14.0103 114.248 14.3548 114.12 14.7425C113.991 15.1323 113.975 15.5505 114.074 15.9489C114.173 16.3473 114.382 16.7098 114.678 16.9945L118.501 20.6981L117.597 25.9337C117.528 26.3362 117.573 26.7499 117.727 27.1282C117.881 27.5065 118.137 27.8342 118.467 28.0745C118.798 28.3148 119.188 28.458 119.596 28.4879C120.003 28.5179 120.41 28.4335 120.772 28.2441L125.511 25.7673L130.255 28.25C130.617 28.4396 131.025 28.5241 131.432 28.494C131.84 28.464 132.231 28.3205 132.561 28.0799C132.891 27.8392 133.148 27.511 133.301 27.1322C133.455 26.7535 133.499 26.3394 133.43 25.9367L132.521 20.6996L136.345 16.9945C136.639 16.7107 136.847 16.3504 136.947 15.9542C137.047 15.5581 137.034 15.1419 136.91 14.7527Z" fill="#FFC226" fill-opacity="0.01"/>
</g>
<path d="M136.91 14.7527C136.784 14.3625 136.551 14.0153 136.238 13.7503C135.925 13.4853 135.544 13.313 135.138 13.2529L129.844 12.4891L127.47 7.71347C127.288 7.34893 127.008 7.04226 126.662 6.82791C126.316 6.61355 125.916 6.5 125.509 6.5C125.102 6.5 124.702 6.61355 124.356 6.82791C124.01 7.04226 123.73 7.34893 123.548 7.71347L121.181 12.4876L115.888 13.2529C115.485 13.3131 115.106 13.4843 114.793 13.7473C114.481 14.0103 114.248 14.3548 114.12 14.7425C113.991 15.1323 113.975 15.5505 114.074 15.9489C114.173 16.3473 114.382 16.7098 114.678 16.9945L118.501 20.6981L117.597 25.9337C117.528 26.3362 117.573 26.7499 117.727 27.1282C117.881 27.5065 118.137 27.8342 118.467 28.0745C118.798 28.3148 119.188 28.458 119.596 28.4879C120.003 28.5179 120.41 28.4335 120.772 28.2441L125.511 25.7673L130.255 28.25C130.617 28.4396 131.025 28.5241 131.432 28.494C131.84 28.464 132.231 28.3205 132.561 28.0799C132.891 27.8392 133.148 27.511 133.301 27.1322C133.455 26.7535 133.499 26.3394 133.43 25.9367L132.521 20.6996L136.345 16.9945C136.639 16.7107 136.847 16.3504 136.947 15.9542C137.047 15.5581 137.034 15.1419 136.91 14.7527Z" fill="#FFC226"/>
<g filter="url(#filter4_d)">
<path d="M170.913 14.7527C170.787 14.3625 170.554 14.0153 170.241 13.7503C169.928 13.4853 169.547 13.313 169.142 13.2529L163.848 12.4891L161.473 7.71347C161.291 7.34893 161.012 7.04226 160.665 6.82791C160.319 6.61355 159.92 6.5 159.512 6.5C159.105 6.5 158.706 6.61355 158.36 6.82791C158.013 7.04226 157.733 7.34893 157.552 7.71347L155.184 12.4876L149.892 13.2529C149.488 13.3131 149.109 13.4843 148.797 13.7473C148.484 14.0103 148.251 14.3548 148.123 14.7425C147.995 15.1323 147.979 15.5505 148.078 15.9489C148.176 16.3473 148.386 16.7098 148.681 16.9945L152.505 20.6981L151.601 25.9337C151.532 26.3362 151.577 26.7499 151.73 27.1282C151.884 27.5065 152.141 27.8342 152.471 28.0745C152.801 28.3148 153.192 28.458 153.599 28.4879C154.006 28.5179 154.414 28.4335 154.776 28.2441L159.515 25.7673L164.258 28.25C164.62 28.4396 165.028 28.5241 165.435 28.494C165.843 28.464 166.234 28.3205 166.564 28.0799C166.895 27.8392 167.151 27.511 167.305 27.1322C167.458 26.7535 167.503 26.3394 167.433 25.9367L166.525 20.6996L170.348 16.9945C170.642 16.7107 170.851 16.3504 170.95 15.9542C171.05 15.5581 171.037 15.1419 170.913 14.7527Z" fill="#FFC226" fill-opacity="0.01"/>
</g>
<path d="M170.913 14.7527C170.787 14.3625 170.554 14.0153 170.241 13.7503C169.928 13.4853 169.547 13.313 169.142 13.2529L163.848 12.4891L161.473 7.71347C161.291 7.34893 161.012 7.04226 160.665 6.82791C160.319 6.61355 159.92 6.5 159.512 6.5C159.105 6.5 158.706 6.61355 158.36 6.82791C158.013 7.04226 157.733 7.34893 157.552 7.71347L155.184 12.4876L149.892 13.2529C149.488 13.3131 149.109 13.4843 148.797 13.7473C148.484 14.0103 148.251 14.3548 148.123 14.7425C147.995 15.1323 147.979 15.5505 148.078 15.9489C148.176 16.3473 148.386 16.7098 148.681 16.9945L152.505 20.6981L151.601 25.9337C151.532 26.3362 151.577 26.7499 151.73 27.1282C151.884 27.5065 152.141 27.8342 152.471 28.0745C152.801 28.3148 153.192 28.458 153.599 28.4879C154.006 28.5179 154.414 28.4335 154.776 28.2441L159.515 25.7673L164.258 28.25C164.62 28.4396 165.028 28.5241 165.435 28.494C165.843 28.464 166.234 28.3205 166.564 28.0799C166.895 27.8392 167.151 27.511 167.305 27.1322C167.458 26.7535 167.503 26.3394 167.433 25.9367L166.525 20.6996L170.348 16.9945C170.642 16.7107 170.851 16.3504 170.95 15.9542C171.05 15.5581 171.037 15.1419 170.913 14.7527Z" fill="#FFC226"/>
</g>
<defs>
<filter id="filter0_d" x="0" y="0.5" width="47.0033" height="46" filterUnits="userSpaceOnUse" color-interpolation-filters="sRGB">
<feFlood flood-opacity="0" result="BackgroundImageFix"/>
<feColorMatrix in="SourceAlpha" type="matrix" values="0 0 0 0 0 0 0 0 0 0 0 0 0 0 0 0 0 0 127 0"/>
<feOffset dy="6"/>
<feGaussianBlur stdDeviation="6"/>
<feColorMatrix type="matrix" values="0 0 0 0 1 0 0 0 0 0.760784 0 0 0 0 0.14902 0 0 0 0.31 0"/>
<feBlend mode="normal" in2="BackgroundImageFix" result="effect1_dropShadow"/>
<feBlend mode="normal" in="SourceGraphic" in2="effect1_dropShadow" result="shape"/>
</filter>
<filter id="filter1_d" x="34.0034" y="0.5" width="47.0033" height="46" filterUnits="userSpaceOnUse" color-interpolation-filters="sRGB">
<feFlood flood-opacity="0" result="BackgroundImageFix"/>
<feColorMatrix in="SourceAlpha" type="matrix" values="0 0 0 0 0 0 0 0 0 0 0 0 0 0 0 0 0 0 127 0"/>
<feOffset dy="6"/>
<feGaussianBlur stdDeviation="6"/>
<feColorMatrix type="matrix" values="0 0 0 0 1 0 0 0 0 0.760784 0 0 0 0 0.14902 0 0 0 0.31 0"/>
<feBlend mode="normal" in2="BackgroundImageFix" result="effect1_dropShadow"/>
<feBlend mode="normal" in="SourceGraphic" in2="effect1_dropShadow" result="shape"/>
</filter>
<filter id="filter2_d" x="68.0068" y="0.5" width="47.0033" height="46" filterUnits="userSpaceOnUse" color-interpolation-filters="sRGB">
<feFlood flood-opacity="0" result="BackgroundImageFix"/>
<feColorMatrix in="SourceAlpha" type="matrix" values="0 0 0 0 0 0 0 0 0 0 0 0 0 0 0 0 0 0 127 0"/>
<feOffset dy="6"/>
<feGaussianBlur stdDeviation="6"/>
<feColorMatrix type="matrix" values="0 0 0 0 1 0 0 0 0 0.760784 0 0 0 0 0.14902 0 0 0 0.31 0"/>
<feBlend mode="normal" in2="BackgroundImageFix" result="effect1_dropShadow"/>
<feBlend mode="normal" in="SourceGraphic" in2="effect1_dropShadow" result="shape"/>
</filter>
<filter id="filter3_d" x="102.01" y="0.5" width="47.0033" height="46" filterUnits="userSpaceOnUse" color-interpolation-filters="sRGB">
<feFlood flood-opacity="0" result="BackgroundImageFix"/>
<feColorMatrix in="SourceAlpha" type="matrix" values="0 0 0 0 0 0 0 0 0 0 0 0 0 0 0 0 0 0 127 0"/>
<feOffset dy="6"/>
<feGaussianBlur stdDeviation="6"/>
<feColorMatrix type="matrix" values="0 0 0 0 1 0 0 0 0 0.760784 0 0 0 0 0.14902 0 0 0 0.31 0"/>
<feBlend mode="normal" in2="BackgroundImageFix" result="effect1_dropShadow"/>
<feBlend mode="normal" in="SourceGraphic" in2="effect1_dropShadow" result="shape"/>
</filter>
<filter id="filter4_d" x="136.014" y="0.5" width="47.0033" height="46" filterUnits="userSpaceOnUse" color-interpolation-filters="sRGB">
<feFlood flood-opacity="0" result="BackgroundImageFix"/>
<feColorMatrix in="SourceAlpha" type="matrix" values="0 0 0 0 0 0 0 0 0 0 0 0 0 0 0 0 0 0 127 0"/>
<feOffset dy="6"/>
<feGaussianBlur stdDeviation="6"/>
<feColorMatrix type="matrix" values="0 0 0 0 1 0 0 0 0 0.760784 0 0 0 0 0.14902 0 0 0 0.31 0"/>
<feBlend mode="normal" in2="BackgroundImageFix" result="effect1_dropShadow"/>
<feBlend mode="normal" in="SourceGraphic" in2="effect1_dropShadow" result="shape"/>
</filter>
<clipPath id="clip0">
<rect width="184" height="46" fill="white" transform="translate(0 0.5)"/>
</clipPath>
</defs>
</svg>
