<svg id="Layer_1" data-name="Layer 1" xmlns="http://www.w3.org/2000/svg" xmlns:xlink="http://www.w3.org/1999/xlink" viewBox="0 0 100 100"><defs><style>.cls-1{fill:none;}.cls-2{clip-path:url(#clip-path);}.cls-3{fill:#fff;}.cls-4{fill:#eae7ff;}.cls-5{fill:#6a35ff;}.cls-5,.cls-6{fill-opacity:0.01;}.cls-5,.cls-7{fill-rule:evenodd;}.cls-6{fill:#4a1ec6;}.cls-7,.cls-8{fill:#0e94cd;}</style><clipPath id="clip-path"><rect class="cls-1" width="100" height="100"/></clipPath></defs><title>icon-4-values-marketing-template</title><g class="cls-2"><path class="cls-3" d="M100,0H0V100H100Z"/><path class="cls-4" d="M100,0H0V100H100Z"/><path class="cls-5" d="M57,36.66a15.31,15.31,0,0,1-30.61,0,15.1,15.1,0,0,1,15.31-15A15.09,15.09,0,0,1,57,36.66Zm-38.43,32c0-7.7,10.65-9.63,23.13-9.63s23.13,2,23.13,9.7-10.66,9.63-23.13,9.63S18.53,76.33,18.53,68.62Z"/><path class="cls-6" d="M63.13,36.94a20.09,20.09,0,0,1-3.57,11.47.56.56,0,0,0,.38.87,12.66,12.66,0,1,0,2.13-25.1,12.83,12.83,0,0,0-2.58.26.44.44,0,0,0-.3.17.35.35,0,0,0,.06.39A20.17,20.17,0,0,1,63.13,36.94Z"/><path class="cls-6" d="M80.78,60C79.68,57.69,77,56.13,73,55.36a57.26,57.26,0,0,0-11.8-1,.12.12,0,0,0-.11.09.16.16,0,0,0,.1.17c2.21,1.07,10.73,5.71,9.66,15.51a.65.65,0,0,0,.73.73c2.1-.29,7.49-1.43,9.17-5A6.67,6.67,0,0,0,80.78,60Z"/><path class="cls-7" d="M57,36.66a15.31,15.31,0,0,1-30.61,0,15.1,15.1,0,0,1,15.31-15A15.09,15.09,0,0,1,57,36.66Zm-38.43,32c0-7.7,10.65-9.63,23.13-9.63s23.13,2,23.13,9.7-10.66,9.63-23.13,9.63S18.53,76.33,18.53,68.62Z"/><path class="cls-8" d="M63.13,36.94a20.09,20.09,0,0,1-3.57,11.47.56.56,0,0,0,.38.87,12.66,12.66,0,1,0,2.13-25.1,12.83,12.83,0,0,0-2.58.26.44.44,0,0,0-.3.17.35.35,0,0,0,.06.39A20.17,20.17,0,0,1,63.13,36.94Z"/><path class="cls-8" d="M80.78,60C79.68,57.69,77,56.13,73,55.36a57.26,57.26,0,0,0-11.8-1,.12.12,0,0,0-.11.09.16.16,0,0,0,.1.17c2.21,1.07,10.73,5.71,9.66,15.51a.65.65,0,0,0,.73.73c2.1-.29,7.49-1.43,9.17-5A6.67,6.67,0,0,0,80.78,60Z"/></g></svg>