<svg width="19" height="19" viewBox="0 0 19 19" fill="none" xmlns="http://www.w3.org/2000/svg">
<path d="M9.69845 1.32843L12.1291 6.18858L16.8048 6.65663C16.9163 6.66755 17.0224 6.70995 17.1108 6.77887C17.1992 6.84779 17.2662 6.94041 17.304 7.04593C17.3418 7.15145 17.3488 7.26553 17.3242 7.37489C17.2997 7.48425 17.2445 7.58437 17.1653 7.66361L13.3121 11.5156L14.7407 16.7497C14.7705 16.8599 14.7679 16.9764 14.733 17.0852C14.6982 17.1939 14.6327 17.2903 14.5444 17.3627C14.4561 17.4352 14.3488 17.4805 14.2353 17.4934C14.1218 17.5063 14.0071 17.4861 13.9048 17.4352L9.16929 15.0669L4.43379 17.4377C4.33159 17.4887 4.2168 17.5091 4.10329 17.4963C3.98978 17.4835 3.8824 17.4381 3.79412 17.3656C3.70585 17.2931 3.64046 17.1966 3.60586 17.0877C3.57125 16.9788 3.56891 16.8623 3.59912 16.7521L5.02649 11.5156L1.17332 7.66117C1.09405 7.58193 1.03893 7.4818 1.01437 7.37245C0.989815 7.26309 0.996834 7.14901 1.03461 7.04349C1.07239 6.93796 1.13937 6.84535 1.22775 6.77643C1.31614 6.7075 1.42228 6.66511 1.53383 6.65419L6.20945 6.18614L8.64014 1.32598C8.68947 1.22778 8.76517 1.14527 8.85877 1.08769C8.95237 1.03011 9.06016 0.999748 9.17005 1C9.27994 1.00026 9.38759 1.03112 9.48092 1.08913C9.57425 1.14714 9.64957 1.23 9.69845 1.32843Z" stroke="white" stroke-width="2" stroke-linecap="round" stroke-linejoin="round"/>
</svg>
