<svg width="100" height="100" viewBox="0 0 100 100" fill="none" xmlns="http://www.w3.org/2000/svg">
<path d="M100 0H0V100H100V0Z" fill="white"/>
<path d="M100 0H0V100H100V0Z" fill="#FFEFEF"/>
<g filter="url(#filter0_d)">
<path d="M80.4037 62.1606H78.1236C77.9221 62.1606 77.7287 62.0805 77.5862 61.938C77.4437 61.7954 77.3636 61.6021 77.3636 61.4005V30.7467C77.3612 28.5971 76.5062 26.5362 74.9861 25.0161C73.4661 23.4961 71.4052 22.6411 69.2555 22.6387H30.749C28.5991 22.6403 26.5377 23.495 25.0175 25.0152C23.4973 26.5355 22.6426 28.5968 22.641 30.7467V61.4005C22.641 61.6021 22.5609 61.7954 22.4183 61.938C22.2758 62.0805 22.0825 62.1606 21.8809 62.1606H19.6008C18.785 62.16 17.9839 62.3782 17.2811 62.7926C16.5784 63.207 15.9996 63.8023 15.6053 64.5165C15.2109 65.2307 15.0154 66.0376 15.039 66.8531C15.0627 67.6686 15.3047 68.4628 15.7398 69.1529C17.3167 71.6731 19.5103 73.7495 22.1132 75.1858C24.7162 76.6222 27.6424 77.3709 30.6153 77.3613H69.3893C72.3618 77.371 75.2876 76.6222 77.89 75.1859C80.4924 73.7495 82.6855 71.6731 84.2617 69.1529C84.6967 68.463 84.9387 67.6691 84.9625 66.8538C84.9863 66.0386 84.791 65.2319 84.397 64.5178C84.003 63.8037 83.4247 63.2083 82.7223 62.7937C82.02 62.3792 81.2193 62.1605 80.4037 62.1606ZM30.749 28.719H69.2555C69.7933 28.719 70.3091 28.9326 70.6894 29.3129C71.0697 29.6932 71.2833 30.2089 71.2833 30.7467V61.4005C71.2833 61.6021 71.2032 61.7954 71.0607 61.938C70.9182 62.0805 70.7248 62.1606 70.5233 62.1606H62.9533C62.1073 62.1635 61.2786 62.4001 60.5587 62.8443C59.8387 63.2885 59.2555 63.923 58.8734 64.6778C57.8018 65.9554 56.4316 66.949 54.8842 67.5705C53.3367 68.192 51.6599 68.4223 50.0023 68.2409C48.3449 68.4221 46.6684 68.1921 45.1211 67.5712C43.5738 66.9502 42.2034 65.9575 41.1311 64.6809C40.755 63.9211 40.1733 63.2821 39.4521 62.8365C38.7308 62.391 37.899 62.1568 37.0512 62.1606H29.4813C29.2797 62.1606 29.0864 62.0805 28.9439 61.938C28.8013 61.7954 28.7212 61.6021 28.7212 61.4005V30.7467C28.7212 30.2089 28.9349 29.6932 29.3152 29.3129C29.6954 28.9326 30.2112 28.719 30.749 28.719Z" fill="#FF3951" fill-opacity="0.01"/>
</g>
<path d="M73.9784 26.7671H26.0215V71.2853H73.9784V26.7671Z" fill="white"/>
<path d="M80.4037 62.1606H78.1236C77.9221 62.1606 77.7287 62.0805 77.5862 61.938C77.4437 61.7954 77.3636 61.6021 77.3636 61.4005V30.7467C77.3612 28.5971 76.5062 26.5362 74.9861 25.0161C73.4661 23.4961 71.4052 22.6411 69.2555 22.6387H30.749C28.5991 22.6403 26.5377 23.495 25.0175 25.0152C23.4973 26.5355 22.6426 28.5968 22.641 30.7467V61.4005C22.641 61.6021 22.5609 61.7954 22.4183 61.938C22.2758 62.0805 22.0825 62.1606 21.8809 62.1606H19.6008C18.785 62.16 17.9839 62.3782 17.2811 62.7926C16.5784 63.207 15.9996 63.8023 15.6053 64.5165C15.2109 65.2307 15.0154 66.0376 15.039 66.8531C15.0627 67.6686 15.3047 68.4628 15.7398 69.1529C17.3167 71.6731 19.5103 73.7495 22.1132 75.1858C24.7162 76.6222 27.6424 77.3709 30.6153 77.3613H69.3893C72.3618 77.371 75.2876 76.6222 77.89 75.1859C80.4924 73.7495 82.6855 71.6731 84.2617 69.1529C84.6967 68.463 84.9387 67.6691 84.9625 66.8538C84.9863 66.0386 84.791 65.2319 84.397 64.5178C84.003 63.8037 83.4247 63.2083 82.7223 62.7937C82.02 62.3792 81.2193 62.1605 80.4037 62.1606ZM30.749 28.719H69.2555C69.7933 28.719 70.3091 28.9326 70.6894 29.3129C71.0697 29.6932 71.2833 30.2089 71.2833 30.7467V61.4005C71.2833 61.6021 71.2032 61.7954 71.0607 61.938C70.9182 62.0805 70.7248 62.1606 70.5233 62.1606H62.9533C62.1073 62.1635 61.2786 62.4001 60.5587 62.8443C59.8387 63.2885 59.2555 63.923 58.8734 64.6778C57.8018 65.9554 56.4316 66.949 54.8842 67.5705C53.3367 68.192 51.6599 68.4223 50.0023 68.2409C48.3449 68.4221 46.6684 68.1921 45.1211 67.5712C43.5738 66.9502 42.2034 65.9575 41.1311 64.6809C40.755 63.9211 40.1733 63.2821 39.4521 62.8365C38.7308 62.391 37.899 62.1568 37.0512 62.1606H29.4813C29.2797 62.1606 29.0864 62.0805 28.9439 61.938C28.8013 61.7954 28.7212 61.6021 28.7212 61.4005V30.7467C28.7212 30.2089 28.9349 29.6932 29.3152 29.3129C29.6954 28.9326 30.2112 28.719 30.749 28.719Z" fill="#FF3951"/>
<defs>
<filter id="filter0_d" x="5.03711" y="18.6387" width="89.9274" height="74.7227" filterUnits="userSpaceOnUse" color-interpolation-filters="sRGB">
<feFlood flood-opacity="0" result="BackgroundImageFix"/>
<feColorMatrix in="SourceAlpha" type="matrix" values="0 0 0 0 0 0 0 0 0 0 0 0 0 0 0 0 0 0 127 0"/>
<feOffset dy="6"/>
<feGaussianBlur stdDeviation="5"/>
<feColorMatrix type="matrix" values="0 0 0 0 1 0 0 0 0 0.223529 0 0 0 0 0.317647 0 0 0 0.24 0"/>
<feBlend mode="normal" in2="BackgroundImageFix" result="effect1_dropShadow"/>
<feBlend mode="normal" in="SourceGraphic" in2="effect1_dropShadow" result="shape"/>
</filter>
</defs>
</svg>
