<svg width="100" height="100" viewBox="0 0 100 100" fill="none" xmlns="http://www.w3.org/2000/svg">
<g clip-path="url(#clip0)">
<path d="M100 0H0V100H100V0Z" fill="white"/>
<path d="M100 0H0V100H100V0Z" fill="#FFF4CB"/>
<g filter="url(#filter0_d)">
<path d="M50.2574 66.2992C59.4789 66.2992 66.9544 58.8237 66.9544 49.6022C66.9544 40.3807 59.4789 32.9052 50.2574 32.9052C41.0359 32.9052 33.5604 40.3807 33.5604 49.6022C33.5604 58.8237 41.0359 66.2992 50.2574 66.2992Z" fill="white" fill-opacity="0.01"/>
<path fill-rule="evenodd" clip-rule="evenodd" d="M50.0002 80.8321C32.9808 80.8321 19.168 67.0501 19.168 49.9999C19.168 32.9805 32.9808 19.1677 50.0002 19.1677C67.0504 19.1677 80.8324 32.9805 80.8324 49.9999C80.8324 67.0501 67.0504 80.8321 50.0002 80.8321ZM59.838 61.4388C60.208 61.6547 60.6088 61.778 61.0405 61.778C61.8113 61.778 62.5821 61.3772 63.0137 60.6372C63.6612 59.5581 63.3221 58.1398 62.2121 57.4615L51.2358 50.9251V36.6806C51.2358 35.3856 50.1875 34.3682 48.9234 34.3682C47.6593 34.3682 46.611 35.3856 46.611 36.6806V52.2508C46.611 53.0525 47.0427 53.7924 47.7518 54.2241L59.838 61.4388Z" fill="#FFC226" fill-opacity="0.01"/>
</g>
<path d="M50.2574 66.2992C59.4789 66.2992 66.9544 58.8237 66.9544 49.6022C66.9544 40.3807 59.4789 32.9052 50.2574 32.9052C41.0359 32.9052 33.5604 40.3807 33.5604 49.6022C33.5604 58.8237 41.0359 66.2992 50.2574 66.2992Z" fill="white"/>
<path fill-rule="evenodd" clip-rule="evenodd" d="M50.0002 80.8321C32.9808 80.8321 19.168 67.0501 19.168 49.9999C19.168 32.9805 32.9808 19.1677 50.0002 19.1677C67.0504 19.1677 80.8324 32.9805 80.8324 49.9999C80.8324 67.0501 67.0504 80.8321 50.0002 80.8321ZM59.838 61.4388C60.208 61.6547 60.6088 61.778 61.0405 61.778C61.8113 61.778 62.5821 61.3772 63.0137 60.6372C63.6612 59.5581 63.3221 58.1398 62.2121 57.4615L51.2358 50.9251V36.6806C51.2358 35.3856 50.1875 34.3682 48.9234 34.3682C47.6593 34.3682 46.611 35.3856 46.611 36.6806V52.2508C46.611 53.0525 47.0427 53.7924 47.7518 54.2241L59.838 61.4388Z" fill="#FFC226"/>
</g>
<defs>
<filter id="filter0_d" x="5.16797" y="11.1677" width="89.6644" height="89.6644" filterUnits="userSpaceOnUse" color-interpolation-filters="sRGB">
<feFlood flood-opacity="0" result="BackgroundImageFix"/>
<feColorMatrix in="SourceAlpha" type="matrix" values="0 0 0 0 0 0 0 0 0 0 0 0 0 0 0 0 0 0 127 0"/>
<feOffset dy="6"/>
<feGaussianBlur stdDeviation="7"/>
<feColorMatrix type="matrix" values="0 0 0 0 1 0 0 0 0 0.760784 0 0 0 0 0.14902 0 0 0 0.77 0"/>
<feBlend mode="normal" in2="BackgroundImageFix" result="effect1_dropShadow"/>
<feBlend mode="normal" in="SourceGraphic" in2="effect1_dropShadow" result="shape"/>
</filter>
<clipPath id="clip0">
<rect width="100" height="100" fill="white"/>
</clipPath>
</defs>
</svg>
