<svg width="100" height="100" viewBox="0 0 100 100" fill="none" xmlns="http://www.w3.org/2000/svg">
<path d="M100 0H0V100H100V0Z" fill="white"/>
<path d="M100 0H0V100H100V0Z" fill="#FFE2D1"/>
<g filter="url(#filter0_d)">
<path d="M19.7285 66.7274L36.3624 45.6473C36.8426 45.1172 37.5082 44.7918 38.2215 44.7385C38.9348 44.6852 39.6413 44.9081 40.195 45.3609L53.1424 57.3171C53.6956 57.7699 54.4022 57.992 55.115 57.9372C55.8278 57.8823 56.4921 57.5548 56.9696 57.0227L77.2707 33.2727" stroke="#FF8139" stroke-opacity="0.01" stroke-width="9.89192" stroke-linecap="round" stroke-linejoin="round"/>
<path d="M58.7031 33.2725H77.2718L80.2718 50.2745" stroke="#FF8139" stroke-opacity="0.01" stroke-width="9.89192" stroke-linecap="round" stroke-linejoin="round"/>
</g>
<path d="M19.7285 66.7274L36.3624 45.6473C36.8426 45.1172 37.5082 44.7918 38.2215 44.7385C38.9348 44.6852 39.6413 44.9081 40.195 45.3609L53.1424 57.3171C53.6956 57.7699 54.4022 57.992 55.115 57.9372C55.8278 57.8823 56.4921 57.5548 56.9696 57.0227L77.2707 33.2727" stroke="#FF8139" stroke-width="9.89192" stroke-linecap="round" stroke-linejoin="round"/>
<path d="M58.7031 33.2725H77.2718L80.2718 50.2745" stroke="#FF8139" stroke-width="9.89192" stroke-linecap="round" stroke-linejoin="round"/>
<defs>
<filter id="filter0_d" x="4.78235" y="23.3265" width="90.4363" height="63.347" filterUnits="userSpaceOnUse" color-interpolation-filters="sRGB">
<feFlood flood-opacity="0" result="BackgroundImageFix"/>
<feColorMatrix in="SourceAlpha" type="matrix" values="0 0 0 0 0 0 0 0 0 0 0 0 0 0 0 0 0 0 127 0"/>
<feOffset dy="5"/>
<feGaussianBlur stdDeviation="5"/>
<feColorMatrix type="matrix" values="0 0 0 0 1 0 0 0 0 0.504861 0 0 0 0 0.225 0 0 0 0.24 0"/>
<feBlend mode="normal" in2="BackgroundImageFix" result="effect1_dropShadow"/>
<feBlend mode="normal" in="SourceGraphic" in2="effect1_dropShadow" result="shape"/>
</filter>
</defs>
</svg>
