<svg id="Layer_1" data-name="Layer 1" xmlns="http://www.w3.org/2000/svg" viewBox="0 0 32 32"><defs><style>.cls-1{fill:#fff;}.cls-2{fill:#0e94cd;}</style></defs><title>play button</title><rect class="cls-1" x="6.59" y="6.62" width="19.93" height="19.59"/><path class="cls-2" d="M28.88,0H3.12A3.11,3.11,0,0,0,0,3.12V28.88A3.11,3.11,0,0,0,3.12,32H28.88A3.11,3.11,0,0,0,32,28.88V3.12A3.11,3.11,0,0,0,28.88,0ZM22.6,17.61l-9.25,5.28a1.61,1.61,0,0,1-2.2-.59,1.57,1.57,0,0,1-.22-.81V10.93a1.63,1.63,0,0,1,.81-1.4,1.61,1.61,0,0,1,.81-.22,1.59,1.59,0,0,1,.8.21L22.6,14.8a1.62,1.62,0,0,1,.59.6,1.52,1.52,0,0,1,.22.81,1.57,1.57,0,0,1-.22.81,1.52,1.52,0,0,1-.59.59Z"/></svg>