<svg id="Layer_1" data-name="Layer 1" xmlns="http://www.w3.org/2000/svg" xmlns:xlink="http://www.w3.org/1999/xlink" viewBox="0 0 100 100"><defs><style>.cls-1,.cls-8{fill:none;}.cls-2{clip-path:url(#clip-path);}.cls-3{fill:#fff;}.cls-4{fill:#fff4cb;}.cls-5{fill:#ff8139;}.cls-5,.cls-7{fill-opacity:0.01;}.cls-6{fill:#0e94cd;}.cls-7{fill:#ffc226;}.cls-8{stroke:#fff;stroke-linecap:round;stroke-linejoin:round;stroke-width:4.67px;}</style><clipPath id="clip-path"><rect class="cls-1" width="100" height="100"/></clipPath></defs><title>icon-3-values-marketing-template</title><g class="cls-2"><path class="cls-3" d="M100,0H0V100H100Z"/><path class="cls-4" d="M100,0H0V100H100Z"/><path class="cls-5" d="M38.75,70a1.51,1.51,0,0,1,.35-.58,1.79,1.79,0,0,1,.56-.38,1.65,1.65,0,0,1,1.33.06A19.52,19.52,0,0,0,59.15,69a1.56,1.56,0,0,1,.67-.18,1.69,1.69,0,0,1,.67.11,1.75,1.75,0,0,1,.57.39,1.58,1.58,0,0,1,.35.6l2.76,8.5a3.74,3.74,0,0,1,.18,1.15v2.85a3.63,3.63,0,0,1-.28,1.42,3.69,3.69,0,0,1-2,2,3.68,3.68,0,0,1-1.43.28H39.36a3.72,3.72,0,0,1-3.71-3.71V79.62a3.52,3.52,0,0,1,.2-1.2Z"/><path class="cls-6" d="M39.1,70a1.51,1.51,0,0,1,.35-.58A1.79,1.79,0,0,1,40,69a1.72,1.72,0,0,1,.67-.11,1.65,1.65,0,0,1,.66.17A19.54,19.54,0,0,0,59.51,69a1.51,1.51,0,0,1,.66-.18,1.77,1.77,0,0,1,.68.11,1.71,1.71,0,0,1,.56.39,1.58,1.58,0,0,1,.35.6l2.76,8.5a3.75,3.75,0,0,1,.19,1.15v2.85a3.64,3.64,0,0,1-.29,1.42,3.78,3.78,0,0,1-.81,1.21A3.74,3.74,0,0,1,61,86.16H39.71A3.72,3.72,0,0,1,36,82.45V79.62a3.78,3.78,0,0,1,.2-1.2Z"/><path class="cls-7" d="M50,66.19a27,27,0,1,0-27-27A27,27,0,0,0,50,66.19Z"/><path class="cls-3" d="M49.58,60.44A19.4,19.4,0,1,0,30.18,41,19.41,19.41,0,0,0,49.58,60.44Z"/><path class="cls-6" d="M50,65.93A27,27,0,1,0,23,39,27,27,0,0,0,50,65.93Z"/><path class="cls-8" d="M64.35,30.73l-17,17a2.42,2.42,0,0,1-.76.51,2.47,2.47,0,0,1-.89.17,2.52,2.52,0,0,1-.9-.17,2.42,2.42,0,0,1-.76-.51L38.68,42.4"/></g></svg>