<svg width="100" height="100" viewBox="0 0 100 100" fill="none" xmlns="http://www.w3.org/2000/svg">
<g clip-path="url(#clip0)">
<path d="M100 0H0V100H100V0Z" fill="white"/>
<path d="M100 0H0V100H100V0Z" fill="#EAE7FF"/>
<g filter="url(#filter0_d)">
<path d="M66.455 32.6204H30.5371V67.3796H66.455V32.6204Z" fill="white" fill-opacity="0.01"/>
<path fill-rule="evenodd" clip-rule="evenodd" d="M49.0917 83.1357C49.4618 83.3291 49.8757 83.4275 50.2896 83.4242C50.7035 83.4209 51.114 83.3193 51.4875 83.1226L63.4129 76.7477C66.7947 74.945 69.4429 72.9293 71.509 70.5825C76.0012 65.4695 78.4543 58.9437 78.4105 52.2148L78.2692 30.0189C78.2558 27.4624 76.5766 25.1811 74.0933 24.3519L51.9082 16.9085C50.5723 16.4562 49.1085 16.466 47.7962 16.9314L25.6952 24.6403C23.2253 25.5023 21.5765 27.7999 21.5899 30.3598L21.7313 52.5393C21.775 59.2781 24.3122 65.7743 28.8784 70.8349C30.9647 73.1489 33.6365 75.1351 37.0553 76.9083L49.0917 83.1357ZM52.938 50.972H60.6982C61.9552 50.9447 62.9662 49.9337 62.9662 48.6767C62.9662 47.4198 61.9552 46.4088 60.6982 46.4088H52.938V38.7032C52.938 37.4463 51.927 36.4352 50.6701 36.4352C49.4131 36.4352 48.4021 37.4463 48.4021 38.7032V46.4088H40.6692C40.0681 46.4088 39.4943 46.6547 39.0571 47.0646C38.6472 47.5018 38.4013 48.0728 38.4013 48.6767C38.4013 49.9337 39.4123 50.9447 40.6692 50.972H48.4021V58.7049C48.4021 59.9618 49.4131 60.9728 50.6701 60.9728C51.927 60.9728 52.938 59.9618 52.938 58.7049V50.972Z" fill="#6A35FF" fill-opacity="0.01"/>
</g>
<path d="M66.455 32.6204H30.5371V67.3796H66.455V32.6204Z" fill="white"/>
<path fill-rule="evenodd" clip-rule="evenodd" d="M49.0917 83.1357C49.4618 83.3291 49.8757 83.4275 50.2896 83.4242C50.7035 83.4209 51.114 83.3193 51.4875 83.1226L63.4129 76.7477C66.7947 74.945 69.4429 72.9293 71.509 70.5825C76.0012 65.4695 78.4543 58.9437 78.4105 52.2148L78.2692 30.0189C78.2558 27.4624 76.5766 25.1811 74.0933 24.3519L51.9082 16.9085C50.5723 16.4562 49.1085 16.466 47.7962 16.9314L25.6952 24.6403C23.2253 25.5023 21.5765 27.7999 21.5899 30.3598L21.7313 52.5393C21.775 59.2781 24.3122 65.7743 28.8784 70.8349C30.9647 73.1489 33.6365 75.1351 37.0553 76.9083L49.0917 83.1357ZM52.938 50.972H60.6982C61.9552 50.9447 62.9662 49.9337 62.9662 48.6767C62.9662 47.4198 61.9552 46.4088 60.6982 46.4088H52.938V38.7032C52.938 37.4463 51.927 36.4352 50.6701 36.4352C49.4131 36.4352 48.4021 37.4463 48.4021 38.7032V46.4088H40.6692C40.0681 46.4088 39.4943 46.6547 39.0571 47.0646C38.6472 47.5018 38.4013 48.0728 38.4013 48.6767C38.4013 49.9337 39.4123 50.9447 40.6692 50.972H48.4021V58.7049C48.4021 59.9618 49.4131 60.9728 50.6701 60.9728C51.927 60.9728 52.938 59.9618 52.938 58.7049V50.972Z" fill="#6A35FF"/>
</g>
<defs>
<filter id="filter0_d" x="-2.41019" y="-2.42429" width="104.821" height="114.849" filterUnits="userSpaceOnUse" color-interpolation-filters="sRGB">
<feFlood flood-opacity="0" result="BackgroundImageFix"/>
<feColorMatrix in="SourceAlpha" type="matrix" values="0 0 0 0 0 0 0 0 0 0 0 0 0 0 0 0 0 0 127 0"/>
<feOffset dy="5"/>
<feGaussianBlur stdDeviation="12"/>
<feColorMatrix type="matrix" values="0 0 0 0 0.414166 0 0 0 0 0.208333 0 0 0 0 1 0 0 0 0.27 0"/>
<feBlend mode="normal" in2="BackgroundImageFix" result="effect1_dropShadow"/>
<feBlend mode="normal" in="SourceGraphic" in2="effect1_dropShadow" result="shape"/>
</filter>
<clipPath id="clip0">
<rect width="100" height="100" fill="white"/>
</clipPath>
</defs>
</svg>
