<svg id="Layer_1" data-name="Layer 1" xmlns="http://www.w3.org/2000/svg" xmlns:xlink="http://www.w3.org/1999/xlink" viewBox="0 0 100 100"><defs><style>.cls-1{fill:none;}.cls-2{clip-path:url(#clip-path);}.cls-3,.cls-5{fill:#fff;}.cls-4{fill:#ecf3ff;}.cls-5{fill-opacity:0.01;}.cls-6{fill:#ff3951;}.cls-6,.cls-7{fill-rule:evenodd;}.cls-7{fill:#0e94cd;}</style><clipPath id="clip-path"><rect class="cls-1" width="100" height="100"/></clipPath></defs><title>icon-1-service-marketing-template</title><g class="cls-2"><path class="cls-3" d="M100,0H0V100H100Z"/><path class="cls-4" d="M100,0H0V100H100Z"/><path class="cls-5" d="M75.5,34.31H25.35V66.75H75.5Z"/><path class="cls-6" d="M66.15,20.57A16.52,16.52,0,0,1,82.7,37.08V62.92A16.54,16.54,0,0,1,66.15,79.43H33.85A16.54,16.54,0,0,1,17.3,62.92V37.08A16.52,16.52,0,0,1,33.85,20.57ZM71.35,42l.26-.27a2.54,2.54,0,0,0,0-3.27,2.83,2.83,0,0,0-1.73-.85,2.52,2.52,0,0,0-1.84.66L53.27,50a5.13,5.13,0,0,1-6.54,0L32,38.23a2.5,2.5,0,0,0-3.51,3.5l.43.42L43.82,53.76a10.31,10.31,0,0,0,12.78,0Z"/><path class="cls-3" d="M75.5,34.31H25.35V66.75H75.5Z"/><path class="cls-7" d="M66.15,20.57A16.52,16.52,0,0,1,82.7,37.08V62.92A16.54,16.54,0,0,1,66.15,79.43H33.85A16.54,16.54,0,0,1,17.3,62.92V37.08A16.52,16.52,0,0,1,33.85,20.57ZM71.35,42l.26-.27a2.54,2.54,0,0,0,0-3.27,2.83,2.83,0,0,0-1.73-.85,2.52,2.52,0,0,0-1.84.66L53.27,50a5.13,5.13,0,0,1-6.54,0L32,38.23a2.5,2.5,0,0,0-3.51,3.5l.43.42L43.82,53.76a10.31,10.31,0,0,0,12.78,0Z"/></g></svg>