<svg width="100" height="100" viewBox="0 0 100 100" fill="none" xmlns="http://www.w3.org/2000/svg">
<path d="M100 0H0V100H100V0Z" fill="white"/>
<path d="M100 0H0V100H100V0Z" fill="#FFEFEF"/>
<g filter="url(#filter0_d)">
<path fill-rule="evenodd" clip-rule="evenodd" d="M37.0414 20.072H62.9889C73.1345 20.072 79.9281 27.1919 79.9281 37.7864V62.2375C79.9281 72.805 73.1345 79.9279 62.9889 79.9279H37.0414C26.8958 79.9279 20.0723 72.805 20.0723 62.2375V37.7864C20.0723 27.1919 26.8958 20.072 37.0414 20.072ZM58.6417 56.1144L69.1539 42.5504L69.0084 42.6231C69.5904 41.8229 69.6995 40.8044 69.2994 39.895C68.9029 38.9857 68.0263 38.3673 67.0842 38.2945C66.0985 38.1854 65.12 38.6219 64.5344 39.4222L55.7354 50.8074L45.656 42.8777C45.0376 42.4049 44.3101 42.2194 43.5826 42.2957C42.8588 42.4049 42.204 42.8013 41.7639 43.3833L31.0007 57.3912L30.7788 57.7185C30.1604 58.8789 30.4514 60.3703 31.5426 61.1741C32.0519 61.5015 32.5975 61.7197 33.2159 61.7197C34.0561 61.7561 34.8527 61.316 35.362 60.6285L44.492 48.8759L54.8587 56.6637L55.1861 56.8783C56.3501 57.4967 57.8051 57.2093 58.6417 56.1144Z" fill="#FF3951" fill-opacity="0.01"/>
</g>
<path d="M74.7157 31.7603H27.6172V67.4128H74.7157V31.7603Z" fill="white"/>
<path fill-rule="evenodd" clip-rule="evenodd" d="M37.0414 20.072H62.9889C73.1345 20.072 79.9281 27.1919 79.9281 37.7864V62.2375C79.9281 72.805 73.1345 79.9279 62.9889 79.9279H37.0414C26.8958 79.9279 20.0723 72.805 20.0723 62.2375V37.7864C20.0723 27.1919 26.8958 20.072 37.0414 20.072ZM58.6417 56.1144L69.1539 42.5504L69.0084 42.6231C69.5904 41.8229 69.6995 40.8044 69.2994 39.895C68.9029 38.9857 68.0263 38.3673 67.0842 38.2945C66.0985 38.1854 65.12 38.6219 64.5344 39.4222L55.7354 50.8074L45.656 42.8777C45.0376 42.4049 44.3101 42.2194 43.5826 42.2957C42.8588 42.4049 42.204 42.8013 41.7639 43.3833L31.0007 57.3912L30.7788 57.7185C30.1604 58.8789 30.4514 60.3703 31.5426 61.1741C32.0519 61.5015 32.5975 61.7197 33.2159 61.7197C34.0561 61.7561 34.8527 61.316 35.362 60.6285L44.492 48.8759L54.8587 56.6637L55.1861 56.8783C56.3501 57.4967 57.8051 57.2093 58.6417 56.1144Z" fill="#FF3951"/>
<defs>
<filter id="filter0_d" x="12.0723" y="17.072" width="75.8558" height="75.8559" filterUnits="userSpaceOnUse" color-interpolation-filters="sRGB">
<feFlood flood-opacity="0" result="BackgroundImageFix"/>
<feColorMatrix in="SourceAlpha" type="matrix" values="0 0 0 0 0 0 0 0 0 0 0 0 0 0 0 0 0 0 127 0"/>
<feOffset dy="5"/>
<feGaussianBlur stdDeviation="4"/>
<feColorMatrix type="matrix" values="0 0 0 0 1 0 0 0 0 0.223529 0 0 0 0 0.317647 0 0 0 0.4 0"/>
<feBlend mode="normal" in2="BackgroundImageFix" result="effect1_dropShadow"/>
<feBlend mode="normal" in="SourceGraphic" in2="effect1_dropShadow" result="shape"/>
</filter>
</defs>
</svg>
