<svg id="Layer_1" data-name="Layer 1" xmlns="http://www.w3.org/2000/svg" viewBox="0 0 30 30"><defs><style>.cls-1{fill:#fff;}.cls-2{fill:#0e94cd;}</style></defs><title>icon-1-check-marketing-template</title><circle class="cls-1" cx="15" cy="15.13" r="12.66"/><path class="cls-2" d="M15,0A15,15,0,1,0,25.6,4.4,15,15,0,0,0,15,0Zm8.66,10.25L15.1,21.86a1.16,1.16,0,0,1-.37.33,1.29,1.29,0,0,1-1,.13,1.35,1.35,0,0,1-.45-.22l-6.1-4.89a1.26,1.26,0,0,1-.32-.37,1.29,1.29,0,0,1-.15-.47A1.25,1.25,0,0,1,7.85,15a1.29,1.29,0,0,1,.48,0,1.42,1.42,0,0,1,.44.23l5.09,4.07L21.65,8.77A1.17,1.17,0,0,1,22,8.42a1.29,1.29,0,0,1,.47-.19,1.2,1.2,0,0,1,.5,0,1.28,1.28,0,0,1,.46.21,1.17,1.17,0,0,1,.33.37,1.33,1.33,0,0,1,.17.47,1.2,1.2,0,0,1,0,.5,1.37,1.37,0,0,1-.23.45Z"/></svg>