<svg id="Layer_1" data-name="Layer 1" xmlns="http://www.w3.org/2000/svg" xmlns:xlink="http://www.w3.org/1999/xlink" viewBox="0 0 100 100"><defs><style>.cls-1{fill:none;}.cls-2{clip-path:url(#clip-path);}.cls-3,.cls-5{fill:#fff;}.cls-4{fill:#ffefef;}.cls-5,.cls-6{fill-opacity:0.01;}.cls-6{fill:#ff3951;}.cls-6,.cls-7{fill-rule:evenodd;}.cls-7{fill:#0e94cd;}</style><clipPath id="clip-path"><rect class="cls-1" width="100" height="100"/></clipPath></defs><title>icon-4-service-Process-marketing-template</title><g class="cls-2"><path class="cls-3" d="M100,0H0V100H100Z"/><path class="cls-4" d="M100,0H0V100H100Z"/><path class="cls-5" d="M80.62,28.8H31.16V68.87H80.62Z"/><path class="cls-6" d="M35.13,18.16H64.86c10.83,0,16.94,6.15,17,17V64.87c0,10.82-6.15,17-17,17H35.13c-10.82,0-17-6.15-17-17V35.13C18.16,24.31,24.31,18.16,35.13,18.16Zm15,50.5a2.64,2.64,0,0,0,2.65-2.39V33.83a2.62,2.62,0,0,0-1.21-2.52,2.68,2.68,0,0,0-4.08,2.52V66.27A2.68,2.68,0,0,0,50.15,68.66Zm14.66,0a2.68,2.68,0,0,0,2.64-2.39V42.83a2.68,2.68,0,0,0-4.08-2.52,2.58,2.58,0,0,0-1.21,2.52V66.27A2.64,2.64,0,0,0,64.81,68.66ZM38,66.27a2.65,2.65,0,0,1-5.28,0v-22a2.71,2.71,0,0,1,1.24-2.52,2.64,2.64,0,0,1,2.81,0A2.7,2.7,0,0,1,38,44.27Z"/><path class="cls-3" d="M80.62,28.8H31.16V68.87H80.62Z"/><path class="cls-7" d="M35.13,18.16H64.86c10.83,0,16.94,6.15,17,17V64.87c0,10.82-6.15,17-17,17H35.13c-10.82,0-17-6.15-17-17V35.13C18.16,24.31,24.31,18.16,35.13,18.16Zm15,50.5a2.64,2.64,0,0,0,2.65-2.39V33.83a2.62,2.62,0,0,0-1.21-2.52,2.68,2.68,0,0,0-4.08,2.52V66.27A2.68,2.68,0,0,0,50.15,68.66Zm14.66,0a2.68,2.68,0,0,0,2.64-2.39V42.83a2.68,2.68,0,0,0-4.08-2.52,2.58,2.58,0,0,0-1.21,2.52V66.27A2.64,2.64,0,0,0,64.81,68.66ZM38,66.27a2.65,2.65,0,0,1-5.28,0v-22a2.71,2.71,0,0,1,1.24-2.52,2.64,2.64,0,0,1,2.81,0A2.7,2.7,0,0,1,38,44.27Z"/></g></svg>