<svg id="Layer_1" data-name="Layer 1" xmlns="http://www.w3.org/2000/svg" viewBox="0 0 126 126"><defs><style>.cls-1,.cls-3{fill:#fff;}.cls-2{fill:#c6283b;}.cls-2,.cls-3,.cls-4{fill-opacity:0.01;}.cls-4{fill:#ff3951;}.cls-5{fill:#077ba3;}.cls-6{fill:#0e94cd;}</style></defs><title>icon-1-cta-v1-marketing-template</title><rect class="cls-1" width="126" height="126"/><path class="cls-2" d="M97.51,55.36,66.62,81a5.73,5.73,0,0,1-7.32,0L28.4,55.36,59.3,29.73a5.71,5.71,0,0,1,7.32,0Z"/><path class="cls-2" d="M66.62,29.73A5.67,5.67,0,0,0,63,28.4V82.32A5.72,5.72,0,0,0,66.62,81L97.51,55.36Z"/><path class="cls-3" d="M91.3,61.5V38.4q0-6.4-6.4-6.4H41q-6.39,0-6.4,6.4V61.5L59.5,82.23a5.39,5.39,0,0,0,6.91,0Z"/><path class="cls-3" d="M91.69,61.5V38.4q0-6.4-6.4-6.4H41.4Q35,32,35,38.4V61.5L59.89,82.23a5.39,5.39,0,0,0,6.91,0Z"/><path class="cls-4" d="M69.1,48.23a2.36,2.36,0,0,0,0-4.72H46.44a2.36,2.36,0,0,0,0,4.72Z"/><path class="cls-4" d="M69,48.23a2.36,2.36,0,0,0,0-4.72H46.36a2.36,2.36,0,0,0,0,4.72Z"/><path class="cls-4" d="M79.47,56.65a2.36,2.36,0,0,0,0-4.72h-33a2.36,2.36,0,0,0,0,4.72Z"/><path class="cls-4" d="M79.39,56.65a2.36,2.36,0,0,0,0-4.72h-33a2.36,2.36,0,0,0,0,4.72Z"/><path class="cls-4" d="M97.51,55.36,66.62,81a5.75,5.75,0,0,1-7.33,0L28.4,55.36V91.78a5.74,5.74,0,0,0,5.74,5.73H91.78a5.74,5.74,0,0,0,5.73-5.73Z"/><path class="cls-4" d="M66.62,81A5.72,5.72,0,0,1,63,82.32V97.51H91.78a5.74,5.74,0,0,0,5.73-5.73V55.36Z"/><path class="cls-4" d="M66.62,81a5.75,5.75,0,0,1-7.33,0l-3.24-2.7L30.24,96a5.72,5.72,0,0,0,3.9,1.53H91.78A5.69,5.69,0,0,0,95.67,96L69.87,78.3Z"/><path class="cls-4" d="M95.67,96,69.87,78.3,66.62,81A5.72,5.72,0,0,1,63,82.32V97.51H91.78A5.69,5.69,0,0,0,95.67,96Z"/><path class="cls-5" d="M97.51,55.36,66.62,81a5.73,5.73,0,0,1-7.32,0L28.4,55.36,59.3,29.73a5.71,5.71,0,0,1,7.32,0Z"/><path class="cls-5" d="M66.62,29.73A5.67,5.67,0,0,0,63,28.4V82.32A5.72,5.72,0,0,0,66.62,81L97.51,55.36Z"/><path class="cls-3" d="M91.3,61.5V38.4q0-6.4-6.4-6.4H41q-6.39,0-6.4,6.4V61.5L59.5,82.23a5.39,5.39,0,0,0,6.91,0Z"/><path class="cls-1" d="M91.69,61.5V38.4q0-6.4-6.4-6.4H41.4Q35,32,35,38.4V61.5L59.89,82.23a5.39,5.39,0,0,0,6.91,0Z"/><path class="cls-4" d="M69.1,48.23a2.36,2.36,0,0,0,0-4.72H46.44a2.36,2.36,0,0,0,0,4.72Z"/><path class="cls-6" d="M69,48.23a2.36,2.36,0,0,0,0-4.72H46.36a2.36,2.36,0,0,0,0,4.72Z"/><path class="cls-4" d="M79.47,56.65a2.36,2.36,0,0,0,0-4.72h-33a2.36,2.36,0,0,0,0,4.72Z"/><path class="cls-6" d="M79.39,56.65a2.36,2.36,0,0,0,0-4.72h-33a2.36,2.36,0,0,0,0,4.72Z"/><path class="cls-6" d="M97.51,55.36,66.62,81a5.75,5.75,0,0,1-7.33,0L28.4,55.36V91.78a5.74,5.74,0,0,0,5.74,5.73H91.78a5.74,5.74,0,0,0,5.73-5.73Z"/><path class="cls-6" d="M66.62,81A5.72,5.72,0,0,1,63,82.32V97.51H91.78a5.74,5.74,0,0,0,5.73-5.73V55.36Z"/><path class="cls-6" d="M66.62,81a5.75,5.75,0,0,1-7.33,0l-3.24-2.7L30.24,96a5.72,5.72,0,0,0,3.9,1.53H91.78A5.69,5.69,0,0,0,95.67,96L69.87,78.3Z"/><path class="cls-6" d="M95.67,96,69.87,78.3,66.62,81A5.72,5.72,0,0,1,63,82.32V97.51H91.78A5.69,5.69,0,0,0,95.67,96Z"/></svg>