<svg width="100" height="100" viewBox="0 0 100 100" fill="none" xmlns="http://www.w3.org/2000/svg">
<path d="M100 0H0V100H100V0Z" fill="white"/>
<path d="M100 0H0V100H100V0Z" fill="#E1F7FF"/>
<path d="M57.2693 26.8556H21.5352V48.2224H57.2693V26.8556Z" fill="white"/>
<path fill-rule="evenodd" clip-rule="evenodd" d="M48.7624 16.0414C51.8982 16.0414 54.9148 17.2808 57.134 19.5046C59.3556 21.7238 60.5973 24.7171 60.5973 27.8506V46.3244C60.5973 52.8487 55.289 58.1336 48.7624 58.1336H25.6607C19.1341 58.1336 13.8281 52.8487 13.8281 46.3244V27.8506C13.8281 21.3263 19.1107 16.0414 25.6607 16.0414H48.7624ZM52.4822 31.3349L52.6693 31.1478C53.2282 30.4697 53.2282 29.4875 52.6436 28.8094C52.3185 28.4609 51.8719 28.2481 51.4065 28.2014C50.9155 28.1756 50.4478 28.3417 50.0947 28.6691L39.5505 37.0875C38.1942 38.2123 36.251 38.2123 34.8736 37.0875L24.3506 28.6691C23.6233 28.1312 22.6178 28.2014 22.0121 28.8327C21.3807 29.4641 21.3106 30.4697 21.8461 31.1712L22.1524 31.4752L32.7924 39.7767C34.1019 40.8057 35.6898 41.3669 37.3524 41.3669C39.0104 41.3669 40.6262 40.8057 41.9334 39.7767L52.4822 31.3349Z" fill="#3FCFFD"/>
<mask id="mask0" mask-type="alpha" maskUnits="userSpaceOnUse" x="36" y="38" width="54" height="50">
<path d="M89.4023 38.8663H36.4023V87.8663H89.4023V38.8663Z" fill="white"/>
<path fill-rule="evenodd" clip-rule="evenodd" d="M74.3366 41.8663C77.4725 41.8663 80.4891 43.1057 82.7083 45.3296C84.9298 47.5488 86.1715 50.542 86.1715 53.6755V72.1494C86.1715 78.6737 80.8632 83.9586 74.3366 83.9586H51.2349C44.7083 83.9586 39.4023 78.6737 39.4023 72.1494V53.6755C39.4023 47.1512 44.6849 41.8663 51.2349 41.8663H74.3366ZM78.0564 57.1599L78.2435 56.9728C78.8024 56.2946 78.8024 55.3125 78.2178 54.6343C77.8927 54.2859 77.4461 54.0731 76.9808 54.0263C76.4897 54.0006 76.022 54.1666 75.6689 54.494L65.1248 62.9125C63.7685 64.0373 61.8252 64.0373 60.4478 62.9125L49.9248 54.494C49.1975 53.9562 48.192 54.0263 47.5863 54.6577C46.9549 55.2891 46.8848 56.2946 47.4203 56.9962L47.7266 57.3002L58.3666 65.6017C59.6762 66.6306 61.264 67.1918 62.9266 67.1918C64.5846 67.1918 66.2005 66.6306 67.5077 65.6017L78.0564 57.1599Z" fill="black"/>
</mask>
<g mask="url(#mask0)">
<path fill-rule="evenodd" clip-rule="evenodd" d="M74.3366 41.8663C77.4725 41.8663 80.4891 43.1057 82.7083 45.3296C84.9298 47.5488 86.1715 50.542 86.1715 53.6755V72.1494C86.1715 78.6737 80.8632 83.9586 74.3366 83.9586H51.2349C44.7083 83.9586 39.4023 78.6737 39.4023 72.1494V53.6755C39.4023 47.1512 44.6849 41.8663 51.2349 41.8663H74.3366ZM78.0564 57.1599L78.2435 56.9728C78.8024 56.2946 78.8024 55.3125 78.2178 54.6343C77.8927 54.2859 77.4461 54.0731 76.9808 54.0263C76.4897 54.0006 76.022 54.1666 75.6689 54.494L65.1248 62.9125C63.7685 64.0373 61.8252 64.0373 60.4478 62.9125L49.9248 54.494C49.1975 53.9562 48.192 54.0263 47.5863 54.6577C46.9549 55.2891 46.8848 56.2946 47.4203 56.9962L47.7266 57.3002L58.3666 65.6017C59.6762 66.6306 61.264 67.1918 62.9266 67.1918C64.5846 67.1918 66.2005 66.6306 67.5077 65.6017L78.0564 57.1599Z" fill="#3FCFFD"/>
<path d="M82.7083 45.3296L80.5847 47.4487L80.5881 47.452L82.7083 45.3296ZM78.2435 56.9728L80.3648 59.0941L80.4669 58.9921L80.5586 58.8807L78.2435 56.9728ZM78.0564 57.1599L79.9309 59.5022L80.0604 59.3985L80.1778 59.2812L78.0564 57.1599ZM78.2178 54.6343L80.49 52.6755L80.4516 52.6309L80.4114 52.5879L78.2178 54.6343ZM76.9808 54.0263L77.2807 51.0414L77.2093 51.0342L77.1377 51.0304L76.9808 54.0263ZM75.6689 54.494L77.5407 56.8384L77.6273 56.7693L77.7086 56.6939L75.6689 54.494ZM65.1248 62.9125L63.253 60.568L63.2312 60.5854L63.2097 60.6032L65.1248 62.9125ZM60.4478 62.9125L62.3454 60.5888L62.3337 60.5793L62.3219 60.5699L60.4478 62.9125ZM49.9248 54.494L51.7989 52.1514L51.7544 52.1158L51.7086 52.082L49.9248 54.494ZM47.5863 54.6577L49.7076 56.779L49.7297 56.757L49.7513 56.7345L47.5863 54.6577ZM47.4203 56.9962L45.0356 58.8164L45.1608 58.9803L45.3071 59.1256L47.4203 56.9962ZM47.7266 57.3002L45.6135 59.4296L45.7403 59.5555L45.8812 59.6654L47.7266 57.3002ZM58.3666 65.6017L60.2201 63.2427L60.212 63.2364L58.3666 65.6017ZM67.5077 65.6017L69.3632 67.959L69.3727 67.9515L69.3821 67.944L67.5077 65.6017ZM84.8318 43.2105C82.0449 40.4177 78.2622 38.8663 74.3366 38.8663V44.8663C76.6827 44.8663 78.9332 45.7937 80.5847 47.4487L84.8318 43.2105ZM89.1715 53.6755C89.1715 49.7443 87.6122 45.988 84.8285 43.2072L80.5881 47.452C82.2474 49.1096 83.1715 51.3397 83.1715 53.6755H89.1715ZM89.1715 72.1494V53.6755H83.1715V72.1494H89.1715ZM74.3366 86.9586C82.5119 86.9586 89.1715 80.3386 89.1715 72.1494H83.1715C83.1715 77.0087 79.2145 80.9586 74.3366 80.9586V86.9586ZM51.2349 86.9586H74.3366V80.9586H51.2349V86.9586ZM36.4023 72.1494C36.4023 80.3379 43.0588 86.9586 51.2349 86.9586V80.9586C46.3578 80.9586 42.4023 77.0095 42.4023 72.1494H36.4023ZM36.4023 53.6755V72.1494H42.4023V53.6755H36.4023ZM51.2349 38.8663C43.0315 38.8663 36.4023 45.4909 36.4023 53.6755H42.4023C42.4023 48.8116 46.3383 44.8663 51.2349 44.8663V38.8663ZM74.3366 38.8663H51.2349V44.8663H74.3366V38.8663ZM76.1222 54.8515L75.9351 55.0385L80.1778 59.2812L80.3648 59.0941L76.1222 54.8515ZM75.9456 56.5931C75.5649 56.1515 75.5693 55.5006 75.9284 55.0648L80.5586 58.8807C82.0355 57.0887 82.0399 54.4734 80.49 52.6755L75.9456 56.5931ZM76.6808 57.0113C76.45 56.9881 76.2145 56.8848 76.0241 56.6807L80.4114 52.5879C79.571 51.687 78.4422 51.1581 77.2807 51.0414L76.6808 57.0113ZM77.7086 56.6939C77.4496 56.934 77.1183 57.0376 76.8238 57.0222L77.1377 51.0304C75.8611 50.9636 74.5944 51.3992 73.6292 52.2941L77.7086 56.6939ZM66.9966 65.2569L77.5407 56.8384L73.7971 52.1496L63.253 60.568L66.9966 65.2569ZM58.5503 65.2361C61.0234 67.2557 64.5645 67.2745 67.0398 65.2217L63.2097 60.6032C62.9725 60.8 62.627 60.8188 62.3454 60.5888L58.5503 65.2361ZM48.0507 56.8366L58.5738 65.2551L62.3219 60.5699L51.7989 52.1514L48.0507 56.8366ZM49.7513 56.7345C49.2579 57.2488 48.5626 57.2179 48.141 56.9061L51.7086 52.082C49.8324 50.6944 47.1261 50.8038 45.4214 52.5809L49.7513 56.7345ZM49.8049 55.1759C50.1934 55.6848 50.1245 56.3622 49.7076 56.779L45.465 52.5364C43.7854 54.216 43.5762 56.9045 45.0356 58.8164L49.8049 55.1759ZM49.8398 55.1707L49.5335 54.8667L45.3071 59.1256L45.6135 59.4296L49.8398 55.1707ZM60.212 63.2364L49.5721 54.9349L45.8812 59.6654L56.5212 67.9669L60.212 63.2364ZM62.9266 64.1918C61.9515 64.1918 61.0132 63.8659 60.2201 63.2427L56.5132 67.9606C58.3391 69.3953 60.5765 70.1918 62.9266 70.1918V64.1918ZM65.6521 63.2443C64.8714 63.8589 63.9084 64.1918 62.9266 64.1918V70.1918C65.2608 70.1918 67.5295 69.4023 69.3632 67.959L65.6521 63.2443ZM76.182 54.8175L65.6332 63.2594L69.3821 67.944L79.9309 59.5022L76.182 54.8175Z" fill="#E1F7FF"/>
<g filter="url(#filter0_d)">
<path d="M80.619 49.3561H44.9531V72.5387H80.619V49.3561Z" fill="white"/>
<path fill-rule="evenodd" clip-rule="evenodd" d="M74.3366 41.8662C77.4725 41.8662 80.4891 43.1056 82.7083 45.3295C84.9298 47.5487 86.1715 50.5419 86.1715 53.6754V72.1493C86.1715 78.6736 80.8632 83.9585 74.3366 83.9585H51.2349C44.7083 83.9585 39.4023 78.6736 39.4023 72.1493V53.6754C39.4023 47.1511 44.6849 41.8662 51.2349 41.8662H74.3366ZM78.0564 57.1598L78.2435 56.9727C78.8024 56.2945 78.8024 55.3124 78.2178 54.6342C77.8927 54.2858 77.4461 54.073 76.9808 54.0262C76.4897 54.0005 76.022 54.1665 75.6689 54.4939L65.1248 62.9124C63.7685 64.0372 61.8252 64.0372 60.4478 62.9124L49.9248 54.4939C49.1975 53.9561 48.192 54.0262 47.5863 54.6576C46.9549 55.289 46.8848 56.2945 47.4203 56.9961L47.7266 57.3001L58.3666 65.6016C59.6762 66.6305 61.264 67.1917 62.9266 67.1917C64.5846 67.1917 66.2005 66.6305 67.5077 65.6016L78.0564 57.1598Z" fill="#3FCFFD"/>
</g>
<path d="M80.619 49.4899H44.9531V72.6725H80.619V49.4899Z" fill="white"/>
<path fill-rule="evenodd" clip-rule="evenodd" d="M74.3366 42C77.4725 42 80.4891 43.2394 82.7083 45.4633C84.9298 47.6825 86.1715 50.6757 86.1715 53.8092V72.2831C86.1715 78.8074 80.8632 84.0923 74.3366 84.0923H51.2349C44.7083 84.0923 39.4023 78.8074 39.4023 72.2831V53.8092C39.4023 47.2849 44.6849 42 51.2349 42H74.3366ZM78.0564 57.2936L78.2435 57.1065C78.8024 56.4283 78.8024 55.4462 78.2178 54.768C77.8927 54.4196 77.4461 54.2068 76.9808 54.16C76.4897 54.1343 76.022 54.3003 75.6689 54.6277L65.1248 63.0462C63.7685 64.171 61.8252 64.171 60.4478 63.0462L49.9248 54.6277C49.1975 54.0899 48.192 54.16 47.5863 54.7914C46.9549 55.4228 46.8848 56.4283 47.4203 57.1299L47.7266 57.4339L58.3666 65.7354C59.6762 66.7643 61.264 67.3255 62.9266 67.3255C64.5846 67.3255 66.2005 66.7643 67.5077 65.7354L78.0564 57.2936Z" fill="#3FCFFD"/>
</g>
<defs>
<filter id="filter0_d" x="25.4023" y="29.8662" width="74.7692" height="70.0923" filterUnits="userSpaceOnUse" color-interpolation-filters="sRGB">
<feFlood flood-opacity="0" result="BackgroundImageFix"/>
<feColorMatrix in="SourceAlpha" type="matrix" values="0 0 0 0 0 0 0 0 0 0 0 0 0 0 0 0 0 0 127 0"/>
<feOffset dy="2"/>
<feGaussianBlur stdDeviation="7"/>
<feColorMatrix type="matrix" values="0 0 0 0 0.247059 0 0 0 0 0.811765 0 0 0 0 0.992157 0 0 0 0.31 0"/>
<feBlend mode="normal" in2="BackgroundImageFix" result="effect1_dropShadow"/>
<feBlend mode="normal" in="SourceGraphic" in2="effect1_dropShadow" result="shape"/>
</filter>
</defs>
</svg>
