<svg width="100" height="100" viewBox="0 0 100 100" fill="none" xmlns="http://www.w3.org/2000/svg">
<g clip-path="url(#clip0)">
<path d="M100 0H0V100H100V0Z" fill="white"/>
<path d="M100 0H0V100H100V0Z" fill="#EAE7FF"/>
<g filter="url(#filter0_d)">
<path d="M87 50C87 70.4345 70.4345 87 50 87C29.5655 87 13 70.4345 13 50C13 29.5655 29.5655 13 50 13C70.4345 13 87 29.5655 87 50Z" fill="#6A35FF" fill-opacity="0.01"/>
</g>
<path d="M87 50C87 70.4345 70.4345 87 50 87C29.5655 87 13 70.4345 13 50C13 29.5655 29.5655 13 50 13C70.4345 13 87 29.5655 87 50Z" fill="#6A35FF"/>
<g filter="url(#filter1_d)">
<path d="M57.219 35.7958H47.4375C45.9391 35.7968 44.4879 36.3192 43.3325 37.2733C42.1772 38.2273 41.3899 39.5537 41.1056 41.0248C40.8212 42.4959 41.0576 44.0201 41.7742 45.336C42.4908 46.6519 43.6429 47.6774 45.033 48.2367L54.954 52.2041C56.3471 52.7614 57.5025 53.7868 58.2215 55.1038C58.9405 56.4208 59.1781 57.9472 58.8935 59.4204C58.6088 60.8936 57.8198 62.2216 56.662 63.1761C55.5041 64.1305 54.0499 64.6516 52.5495 64.6499H42.792" stroke="white" stroke-opacity="0.01" stroke-width="7.21352" stroke-linecap="round" stroke-linejoin="round"/>
<path d="M50.0059 35.7957V30.0713" stroke="white" stroke-opacity="0.01" stroke-width="7.21352" stroke-linecap="round" stroke-linejoin="round"/>
<path d="M50.0059 69.9288V64.6499" stroke="white" stroke-opacity="0.01" stroke-width="7.21352" stroke-linecap="round" stroke-linejoin="round"/>
</g>
<path d="M57.219 35.7958H47.4375C45.9391 35.7968 44.4879 36.3192 43.3325 37.2733C42.1772 38.2273 41.3899 39.5537 41.1056 41.0248C40.8212 42.4959 41.0576 44.0201 41.7742 45.336C42.4908 46.6519 43.6429 47.6774 45.033 48.2367L54.954 52.2041C56.3471 52.7614 57.5025 53.7868 58.2215 55.1038C58.9405 56.4208 59.1781 57.9472 58.8935 59.4204C58.6088 60.8936 57.8198 62.2216 56.662 63.1761C55.5041 64.1305 54.0499 64.6516 52.5495 64.6499H42.792" stroke="white" stroke-width="7.21352" stroke-linecap="round" stroke-linejoin="round"/>
<path d="M50.0059 35.7957V30.0713" stroke="white" stroke-width="7.21352" stroke-linecap="round" stroke-linejoin="round"/>
<path d="M50.0059 69.9288V64.6499" stroke="white" stroke-width="7.21352" stroke-linecap="round" stroke-linejoin="round"/>
</g>
<defs>
<filter id="filter0_d" x="-7" y="-4" width="114" height="114" filterUnits="userSpaceOnUse" color-interpolation-filters="sRGB">
<feFlood flood-opacity="0" result="BackgroundImageFix"/>
<feColorMatrix in="SourceAlpha" type="matrix" values="0 0 0 0 0 0 0 0 0 0 0 0 0 0 0 0 0 0 127 0"/>
<feOffset dy="3"/>
<feGaussianBlur stdDeviation="10"/>
<feColorMatrix type="matrix" values="0 0 0 0 0.414166 0 0 0 0 0.208333 0 0 0 0 1 0 0 0 0.37 0"/>
<feBlend mode="normal" in2="BackgroundImageFix" result="effect1_dropShadow"/>
<feBlend mode="normal" in="SourceGraphic" in2="effect1_dropShadow" result="shape"/>
</filter>
<filter id="filter1_d" x="27.3815" y="18.4645" width="45.2359" height="67.071" filterUnits="userSpaceOnUse" color-interpolation-filters="sRGB">
<feFlood flood-opacity="0" result="BackgroundImageFix"/>
<feColorMatrix in="SourceAlpha" type="matrix" values="0 0 0 0 0 0 0 0 0 0 0 0 0 0 0 0 0 0 127 0"/>
<feOffset dy="2"/>
<feGaussianBlur stdDeviation="5"/>
<feColorMatrix type="matrix" values="0 0 0 0 0 0 0 0 0 0 0 0 0 0 0 0 0 0 0.15 0"/>
<feBlend mode="normal" in2="BackgroundImageFix" result="effect1_dropShadow"/>
<feBlend mode="normal" in="SourceGraphic" in2="effect1_dropShadow" result="shape"/>
</filter>
<clipPath id="clip0">
<rect width="100" height="100" fill="white"/>
</clipPath>
</defs>
</svg>
