<svg width="100" height="100" viewBox="0 0 100 100" fill="none" xmlns="http://www.w3.org/2000/svg">
<g clip-path="url(#clip0)">
<path d="M100 0H0V100H100V0Z" fill="white"/>
<path d="M100 0H0V100H100V0Z" fill="#FFE2D1"/>
<g filter="url(#filter0_d)">
<path fill-rule="evenodd" clip-rule="evenodd" d="M79.771 55.5981C81.0383 56.2713 82.0159 57.3342 82.7038 58.3971C84.0436 60.5938 83.9349 63.2865 82.6314 65.6604L80.0968 69.9121C78.7571 72.1796 76.2587 73.5969 73.6879 73.5969C72.4206 73.5969 71.0085 73.2425 69.8498 72.5339C68.9084 71.9316 67.8221 71.719 66.6634 71.719C63.0788 71.719 60.0735 74.6598 59.9648 78.1674C59.9648 82.2419 56.6337 85.4307 52.4697 85.4307H47.5453C43.3451 85.4307 40.0139 82.2419 40.0139 78.1674C39.9415 74.6598 36.9362 71.719 33.3515 71.719C32.1566 71.719 31.0704 71.9316 30.1652 72.5339C29.0065 73.2425 27.5581 73.5969 26.3271 73.5969C23.72 73.5969 21.2216 72.1796 19.8819 69.9121L17.3835 65.6604C16.0438 63.3574 15.9714 60.5938 17.3111 58.3971C17.8904 57.3342 18.9767 56.2713 20.2078 55.5981C21.2216 55.1021 21.8734 54.2872 22.4889 53.3305C24.2994 50.2835 23.2131 46.2798 20.1354 44.4729C16.5507 42.4533 15.3921 37.9536 17.4559 34.446L19.8819 30.2652C21.982 26.7576 26.4719 25.5175 30.0927 27.5725C33.2429 29.2731 37.3345 28.1393 39.1811 25.1277C39.7604 24.1357 40.0863 23.0728 40.0139 22.0098C39.9415 20.6281 40.3398 19.3171 41.0277 18.2542C42.3675 16.0575 44.7934 14.6403 47.4367 14.5694H52.5421C55.2215 14.5694 57.6475 16.0575 58.9872 18.2542C59.639 19.3171 60.0735 20.6281 59.9648 22.0098C59.8924 23.0728 60.2183 24.1357 60.7976 25.1277C62.6443 28.1393 66.7359 29.2731 69.9222 27.5725C73.5069 25.5175 78.0329 26.7576 80.0968 30.2652L82.5228 34.446C84.6229 37.9536 83.4642 42.4533 79.8434 44.4729C76.7656 46.2798 75.6794 50.2835 77.526 53.3305C78.1054 54.2872 78.7571 55.1021 79.771 55.5981ZM39.7596 50.0357C39.7596 55.5983 44.3581 60.0272 50.0429 60.0272C55.7276 60.0272 60.2175 55.5983 60.2175 50.0357C60.2175 44.4731 55.7276 40.0089 50.0429 40.0089C44.3581 40.0089 39.7596 44.4731 39.7596 50.0357Z" fill="#FF8139" fill-opacity="0.01"/>
</g>
<path d="M49.5224 68.0248C59.2969 68.0248 67.2206 60.1011 67.2206 50.3266C67.2206 40.5522 59.2969 32.6284 49.5224 32.6284C39.748 32.6284 31.8242 40.5522 31.8242 50.3266C31.8242 60.1011 39.748 68.0248 49.5224 68.0248Z" fill="white"/>
<path fill-rule="evenodd" clip-rule="evenodd" d="M79.771 55.598C81.0383 56.2712 82.0159 57.3341 82.7038 58.397C84.0436 60.5937 83.9349 63.2864 82.6314 65.6603L80.0968 69.912C78.7571 72.1795 76.2587 73.5968 73.6879 73.5968C72.4206 73.5968 71.0085 73.2424 69.8498 72.5338C68.9084 71.9315 67.8221 71.7189 66.6634 71.7189C63.0788 71.7189 60.0735 74.6597 59.9648 78.1673C59.9648 82.2418 56.6337 85.4306 52.4697 85.4306H47.5453C43.3451 85.4306 40.0139 82.2418 40.0139 78.1673C39.9415 74.6597 36.9362 71.7189 33.3515 71.7189C32.1566 71.7189 31.0704 71.9315 30.1652 72.5338C29.0065 73.2424 27.5581 73.5968 26.3271 73.5968C23.72 73.5968 21.2216 72.1795 19.8819 69.912L17.3835 65.6603C16.0438 63.3573 15.9714 60.5937 17.3111 58.397C17.8904 57.3341 18.9767 56.2712 20.2078 55.598C21.2216 55.102 21.8734 54.2871 22.4889 53.3304C24.2994 50.2834 23.2131 46.2797 20.1354 44.4728C16.5507 42.4532 15.3921 37.9535 17.4559 34.4459L19.8819 30.2651C21.982 26.7575 26.4719 25.5174 30.0927 27.5724C33.2429 29.273 37.3345 28.1392 39.1811 25.1276C39.7604 24.1356 40.0863 23.0727 40.0139 22.0097C39.9415 20.628 40.3398 19.317 41.0277 18.2541C42.3675 16.0574 44.7934 14.6402 47.4367 14.5693H52.5421C55.2215 14.5693 57.6475 16.0574 58.9872 18.2541C59.639 19.317 60.0735 20.628 59.9648 22.0097C59.8924 23.0727 60.2183 24.1356 60.7976 25.1276C62.6443 28.1392 66.7359 29.273 69.9222 27.5724C73.5069 25.5174 78.0329 26.7575 80.0968 30.2651L82.5228 34.4459C84.6229 37.9535 83.4642 42.4532 79.8434 44.4728C76.7656 46.2797 75.6794 50.2834 77.526 53.3304C78.1054 54.2871 78.7571 55.102 79.771 55.598ZM39.7596 50.0356C39.7596 55.5982 44.3581 60.0271 50.0429 60.0271C55.7276 60.0271 60.2175 55.5982 60.2175 50.0356C60.2175 44.473 55.7276 40.0088 50.0429 40.0088C44.3581 40.0088 39.7596 44.473 39.7596 50.0356Z" fill="#FF8139"/>
</g>
<defs>
<filter id="filter0_d" x="4.3418" y="5.5694" width="91.3182" height="94.8613" filterUnits="userSpaceOnUse" color-interpolation-filters="sRGB">
<feFlood flood-opacity="0" result="BackgroundImageFix"/>
<feColorMatrix in="SourceAlpha" type="matrix" values="0 0 0 0 0 0 0 0 0 0 0 0 0 0 0 0 0 0 127 0"/>
<feOffset dy="3"/>
<feGaussianBlur stdDeviation="6"/>
<feColorMatrix type="matrix" values="0 0 0 0 1 0 0 0 0 0.504861 0 0 0 0 0.225 0 0 0 0.6 0"/>
<feBlend mode="normal" in2="BackgroundImageFix" result="effect1_dropShadow"/>
<feBlend mode="normal" in="SourceGraphic" in2="effect1_dropShadow" result="shape"/>
</filter>
<clipPath id="clip0">
<rect width="100" height="100" fill="white"/>
</clipPath>
</defs>
</svg>
