<svg width="100" height="100" viewBox="0 0 100 100" fill="none" xmlns="http://www.w3.org/2000/svg">
<path d="M100 0H0V100H100V0Z" fill="white"/>
<path d="M100 0H0V100H100V0Z" fill="#DEEBFF"/>
<g filter="url(#filter0_d)">
<path d="M24.8785 49.6978C25.1186 50.3543 25.6094 50.8887 26.2431 51.1838C26.5991 51.3549 26.9885 51.445 27.3834 51.4478C27.6858 51.4475 27.9859 51.3948 28.2703 51.292L31.984 49.9617C32.3564 49.8327 32.6934 49.6185 32.9683 49.3362C33.2433 49.0539 33.4485 48.7114 33.5677 48.3358L34.518 44.1865C34.542 44.077 34.5935 43.9754 34.6676 43.8913C34.7418 43.8072 34.8361 43.7434 34.9418 43.7059C35.0474 43.6684 35.1609 43.6584 35.2715 43.6769C35.382 43.6954 35.4861 43.7418 35.5738 43.8117L38.9365 46.4195C39.2678 46.6362 39.6456 46.7716 40.0391 46.8147C40.4327 46.8578 40.8308 46.8074 41.2012 46.6676L47.5175 44.4082C47.6828 44.3505 47.8641 44.3602 48.0222 44.4354C48.1804 44.5105 48.3025 44.6449 48.3622 44.8094L54.3169 61.4673C54.3495 61.5575 54.3621 61.6537 54.3536 61.7493C54.3451 61.8448 54.3158 61.9373 54.2677 62.0203C54.2197 62.1033 54.1541 62.1748 54.0755 62.2297C53.9969 62.2847 53.9072 62.3218 53.8127 62.3384C50.9447 62.6906 48.1866 63.6577 45.7267 65.1738C43.2668 66.6898 41.1631 68.719 39.5594 71.1227C39.5132 71.2044 39.4851 71.2951 39.4769 71.3886C39.4686 71.4822 39.4806 71.5764 39.5118 71.6649C39.5431 71.7534 39.593 71.8342 39.6581 71.9019C39.7232 71.9695 39.8021 72.0224 39.8894 72.057C40.2959 72.227 40.7315 72.3167 41.1722 72.321C42.1126 72.2254 43.0245 71.9427 43.854 71.4893C44.6836 71.036 45.414 70.4214 46.0025 69.6815C46.6266 68.8709 47.4252 68.2113 48.3391 67.7517C49.253 67.292 50.2586 67.044 51.2815 67.0261C52.5243 67.0264 53.742 67.3769 54.7947 68.0375C55.8475 68.6981 56.6927 69.642 57.2335 70.761L57.2652 70.8191C57.5323 71.2673 57.9082 71.6409 58.3581 71.9053C58.8079 72.1697 59.3172 72.3163 59.8387 72.3316C60.5558 72.2955 61.2552 72.0963 61.8837 71.7491C62.5122 71.402 63.0531 70.916 63.4654 70.3282C64.0333 69.3401 64.8474 68.516 65.8284 67.936C66.8095 67.3561 67.924 67.0401 69.0634 67.0188C70.2029 66.9975 71.3284 67.2717 72.3304 67.8147C73.3323 68.3576 74.1766 69.1508 74.781 70.117L74.8127 70.1619C74.9895 70.3994 76.6075 72.5374 78.1569 72.2999C79.0516 72.1858 79.9603 72.2586 80.8255 72.5137C80.9248 72.5431 81.0297 72.5488 81.1317 72.5301C81.2336 72.5115 81.3298 72.4691 81.4123 72.4063C81.4948 72.3436 81.5614 72.2623 81.6066 72.1691C81.6519 72.0759 81.6745 71.9733 81.6727 71.8696V63.1593C81.6727 62.8092 81.5337 62.4736 81.2862 62.2261C81.0387 61.9786 80.703 61.8395 80.353 61.8395H60.5224C60.3864 61.8396 60.2536 61.7976 60.1425 61.7191C60.0314 61.6406 59.9474 61.5296 59.9021 61.4014L53.3271 43.0198C53.2687 42.855 53.2782 42.6737 53.3534 42.5158C53.4287 42.3579 53.5635 42.2364 53.7283 42.1778L60.0631 39.9131C60.4354 39.7841 60.7725 39.5699 61.0474 39.2876C61.3223 39.0054 61.5276 38.6628 61.6468 38.2872L62.5944 34.1379C62.6198 34.0298 62.6717 33.9298 62.7454 33.8469C62.8191 33.7639 62.9124 33.7006 63.0167 33.6628C63.121 33.6254 63.233 33.6151 63.3424 33.6326C63.4517 33.6501 63.5549 33.695 63.6423 33.7631L67.0076 36.3736C67.3398 36.5871 67.717 36.7206 68.1095 36.7637C68.502 36.8067 68.8992 36.7581 69.2697 36.6217L72.9967 35.2861C73.6551 35.0504 74.193 34.5631 74.4924 33.9311C74.7918 33.2991 74.8282 32.5742 74.5936 31.9154L74.1475 30.6696C73.2189 28.1643 71.6228 25.9606 69.5321 24.2969C67.4413 22.6332 64.9355 21.5729 62.2856 21.2307C57.0427 20.4143 51.6821 20.8171 46.6201 22.4079C46.4605 22.4509 46.2906 22.4325 46.144 22.3562C45.9974 22.28 45.8847 22.1515 45.8282 21.9962L45.1103 20.0377C44.8592 19.3993 44.3695 18.8838 43.7449 18.6003C43.1203 18.3167 42.4098 18.2875 41.764 18.5188C41.1182 18.7501 40.5878 19.2237 40.2852 19.8393C39.9826 20.4549 39.9315 21.1641 40.1427 21.8167L40.8422 23.7726C40.8983 23.9305 40.8925 24.1038 40.8259 24.2576C40.7592 24.4114 40.6368 24.5342 40.4832 24.6014C35.5614 26.5848 31.1615 29.6734 27.6236 33.6285C25.7919 35.5726 24.5266 37.9806 23.9646 40.5919C23.4026 43.2032 23.5653 45.9185 24.435 48.444L24.8785 49.6978Z" fill="#3F80FD" fill-opacity="0.01"/>
<path d="M22.0646 81.6358C21.5792 81.6351 21.0943 81.6033 20.6129 81.5407C19.9188 81.448 19.29 81.0833 18.8648 80.5269C18.4396 79.9705 18.2528 79.268 18.3455 78.5739C18.4383 77.8798 18.803 77.251 19.3594 76.8258C19.9157 76.4006 20.6183 76.2138 21.3123 76.3066C25.7309 76.882 29.7139 72.0121 29.7588 71.9673C30.0339 71.6536 30.3767 71.4067 30.7614 71.2451C31.1461 71.0835 31.5624 71.0116 31.979 71.0348C32.3956 71.0579 32.8014 71.1755 33.1658 71.3787C33.5302 71.5818 33.8436 71.8653 34.0823 72.2074C34.8682 73.387 35.9176 74.3677 37.1475 75.0723C38.3774 75.7768 39.7543 76.1858 41.1693 76.267C42.7229 76.1648 44.2374 75.7358 45.6137 75.008C46.9901 74.2803 48.1973 73.2702 49.1565 72.0438C49.4438 71.7018 49.8098 71.4346 50.223 71.265C50.6362 71.0954 51.0844 71.0285 51.5292 71.07C51.9739 71.1115 52.4019 71.2602 52.7766 71.5034C53.1513 71.7465 53.4615 72.0769 53.6806 72.4661C54.2803 73.5885 55.167 74.5316 56.2502 75.1994C57.3334 75.8671 58.5744 76.2355 59.8465 76.267C61.2596 76.2324 62.6425 75.8508 63.8733 75.1558C65.1042 74.4607 66.1452 73.4736 66.9045 72.2814C67.1512 71.9091 67.4847 71.6026 67.8764 71.3882C68.268 71.1737 68.706 71.0579 69.1524 71.0506C69.5988 71.0433 70.0404 71.1448 70.4388 71.3464C70.8372 71.5479 71.1806 71.8435 71.4392 72.2074C71.463 72.2391 74.3981 76.7606 78.6873 76.201C79.3814 76.1083 80.0839 76.295 80.6403 76.7202C81.1966 77.1455 81.5613 77.7743 81.6541 78.4684C81.7468 79.1624 81.5601 79.865 81.1349 80.4213C80.7097 80.9777 80.0808 81.3424 79.3868 81.4352C77.6174 81.6432 75.8239 81.4522 74.138 80.8762C72.4521 80.3002 70.9166 79.3539 69.6443 78.1067C69.5237 77.9982 69.3671 77.9382 69.2049 77.9382C69.0426 77.9382 68.886 77.9982 68.7654 78.1067C66.3216 80.3183 63.1424 81.5415 59.8465 81.5381C58.2863 81.5507 56.7391 81.2539 55.2943 80.665C53.8495 80.076 52.5358 79.2065 51.4291 78.1067C51.314 77.9937 51.1614 77.927 51.0003 77.9192C50.8392 77.9114 50.6809 77.9631 50.5554 78.0645C47.918 80.2668 44.6049 81.4975 41.1693 81.5513C37.8021 81.5126 34.5725 80.2097 32.1211 77.9009C32.0027 77.7948 31.8501 77.7348 31.6912 77.7319C31.5323 77.729 31.3776 77.7834 31.2554 77.885C28.7157 80.1574 25.469 81.4824 22.0646 81.6358Z" fill="#3F80FD" fill-opacity="0.01"/>
</g>
<path d="M24.8785 49.6978C25.1186 50.3543 25.6094 50.8887 26.2431 51.1838C26.5991 51.3549 26.9885 51.445 27.3834 51.4478C27.6858 51.4475 27.9859 51.3948 28.2703 51.292L31.984 49.9617C32.3564 49.8327 32.6934 49.6185 32.9683 49.3362C33.2433 49.0539 33.4485 48.7114 33.5677 48.3358L34.518 44.1865C34.542 44.077 34.5935 43.9754 34.6676 43.8913C34.7418 43.8072 34.8361 43.7434 34.9418 43.7059C35.0474 43.6684 35.1609 43.6584 35.2715 43.6769C35.382 43.6954 35.4861 43.7418 35.5738 43.8117L38.9365 46.4195C39.2678 46.6362 39.6456 46.7716 40.0391 46.8147C40.4327 46.8578 40.8308 46.8074 41.2012 46.6676L47.5175 44.4082C47.6828 44.3505 47.8641 44.3602 48.0222 44.4354C48.1804 44.5105 48.3025 44.6449 48.3622 44.8094L54.3169 61.4673C54.3495 61.5575 54.3621 61.6537 54.3536 61.7493C54.3451 61.8448 54.3158 61.9373 54.2677 62.0203C54.2197 62.1033 54.1541 62.1748 54.0755 62.2297C53.9969 62.2847 53.9072 62.3218 53.8127 62.3384C50.9447 62.6906 48.1866 63.6577 45.7267 65.1738C43.2668 66.6898 41.1631 68.719 39.5594 71.1227C39.5132 71.2044 39.4851 71.2951 39.4769 71.3886C39.4686 71.4822 39.4806 71.5764 39.5118 71.6649C39.5431 71.7534 39.593 71.8342 39.6581 71.9019C39.7232 71.9695 39.8021 72.0224 39.8894 72.057C40.2959 72.227 40.7315 72.3167 41.1722 72.321C42.1126 72.2254 43.0245 71.9427 43.854 71.4893C44.6836 71.036 45.414 70.4214 46.0025 69.6815C46.6266 68.8709 47.4252 68.2113 48.3391 67.7517C49.253 67.292 50.2586 67.044 51.2815 67.0261C52.5243 67.0264 53.742 67.3769 54.7947 68.0375C55.8475 68.6981 56.6927 69.642 57.2335 70.761L57.2652 70.8191C57.5323 71.2673 57.9082 71.6409 58.3581 71.9053C58.8079 72.1697 59.3172 72.3163 59.8387 72.3316C60.5558 72.2955 61.2552 72.0963 61.8837 71.7491C62.5122 71.402 63.0531 70.916 63.4654 70.3282C64.0333 69.3401 64.8474 68.516 65.8284 67.936C66.8095 67.3561 67.924 67.0401 69.0634 67.0188C70.2029 66.9975 71.3284 67.2717 72.3304 67.8147C73.3323 68.3576 74.1766 69.1508 74.781 70.117L74.8127 70.1619C74.9895 70.3994 76.6075 72.5374 78.1569 72.2999C79.0516 72.1858 79.9603 72.2586 80.8255 72.5137C80.9248 72.5431 81.0297 72.5488 81.1317 72.5301C81.2336 72.5115 81.3298 72.4691 81.4123 72.4063C81.4948 72.3436 81.5614 72.2623 81.6066 72.1691C81.6519 72.0759 81.6745 71.9733 81.6727 71.8696V63.1593C81.6727 62.8092 81.5337 62.4736 81.2862 62.2261C81.0387 61.9786 80.703 61.8395 80.353 61.8395H60.5224C60.3864 61.8396 60.2536 61.7976 60.1425 61.7191C60.0314 61.6406 59.9474 61.5296 59.9021 61.4014L53.3271 43.0198C53.2687 42.855 53.2782 42.6737 53.3534 42.5158C53.4287 42.3579 53.5635 42.2364 53.7283 42.1778L60.0631 39.9131C60.4354 39.7841 60.7725 39.5699 61.0474 39.2876C61.3223 39.0054 61.5276 38.6628 61.6468 38.2872L62.5944 34.1379C62.6198 34.0298 62.6717 33.9298 62.7454 33.8469C62.8191 33.7639 62.9124 33.7006 63.0167 33.6628C63.121 33.6254 63.233 33.6151 63.3424 33.6326C63.4517 33.6501 63.5549 33.695 63.6423 33.7631L67.0076 36.3736C67.3398 36.5871 67.717 36.7206 68.1095 36.7637C68.502 36.8067 68.8992 36.7581 69.2697 36.6217L72.9967 35.2861C73.6551 35.0504 74.193 34.5631 74.4924 33.9311C74.7918 33.2991 74.8282 32.5742 74.5936 31.9154L74.1475 30.6696C73.2189 28.1643 71.6228 25.9606 69.5321 24.2969C67.4413 22.6332 64.9355 21.5729 62.2856 21.2307C57.0427 20.4143 51.6821 20.8171 46.6201 22.4079C46.4605 22.4509 46.2906 22.4325 46.144 22.3562C45.9974 22.28 45.8847 22.1515 45.8282 21.9962L45.1103 20.0377C44.8592 19.3993 44.3695 18.8838 43.7449 18.6003C43.1203 18.3167 42.4098 18.2875 41.764 18.5188C41.1182 18.7501 40.5878 19.2237 40.2852 19.8393C39.9826 20.4549 39.9315 21.1641 40.1427 21.8167L40.8422 23.7726C40.8983 23.9305 40.8925 24.1038 40.8259 24.2576C40.7592 24.4114 40.6368 24.5342 40.4832 24.6014C35.5614 26.5848 31.1615 29.6734 27.6236 33.6285C25.7919 35.5726 24.5266 37.9806 23.9646 40.5919C23.4026 43.2032 23.5653 45.9185 24.435 48.444L24.8785 49.6978Z" fill="#3F80FD"/>
<path d="M22.0646 81.6358C21.5792 81.6351 21.0943 81.6033 20.6129 81.5407C19.9188 81.448 19.29 81.0833 18.8648 80.5269C18.4396 79.9705 18.2528 79.268 18.3455 78.5739C18.4383 77.8798 18.803 77.251 19.3594 76.8258C19.9157 76.4006 20.6183 76.2138 21.3123 76.3066C25.7309 76.882 29.7139 72.0121 29.7588 71.9673C30.0339 71.6536 30.3767 71.4067 30.7614 71.2451C31.1461 71.0835 31.5624 71.0116 31.979 71.0348C32.3956 71.0579 32.8014 71.1755 33.1658 71.3787C33.5302 71.5818 33.8436 71.8653 34.0823 72.2074C34.8682 73.387 35.9176 74.3677 37.1475 75.0723C38.3774 75.7768 39.7543 76.1858 41.1693 76.267C42.7229 76.1648 44.2374 75.7358 45.6137 75.008C46.9901 74.2803 48.1973 73.2702 49.1565 72.0438C49.4438 71.7018 49.8098 71.4346 50.223 71.265C50.6362 71.0954 51.0844 71.0285 51.5292 71.07C51.9739 71.1115 52.4019 71.2602 52.7766 71.5034C53.1513 71.7465 53.4615 72.0769 53.6806 72.4661C54.2803 73.5885 55.167 74.5316 56.2502 75.1994C57.3334 75.8671 58.5744 76.2355 59.8465 76.267C61.2596 76.2324 62.6425 75.8508 63.8733 75.1558C65.1042 74.4607 66.1452 73.4736 66.9045 72.2814C67.1512 71.9091 67.4847 71.6026 67.8764 71.3882C68.268 71.1737 68.706 71.0579 69.1524 71.0506C69.5988 71.0433 70.0404 71.1448 70.4388 71.3464C70.8372 71.5479 71.1806 71.8435 71.4392 72.2074C71.463 72.2391 74.3981 76.7606 78.6873 76.201C79.3814 76.1083 80.0839 76.295 80.6403 76.7202C81.1966 77.1455 81.5613 77.7743 81.6541 78.4684C81.7468 79.1624 81.5601 79.865 81.1349 80.4213C80.7097 80.9777 80.0808 81.3424 79.3868 81.4352C77.6174 81.6432 75.8239 81.4522 74.138 80.8762C72.4521 80.3002 70.9166 79.3539 69.6443 78.1067C69.5237 77.9982 69.3671 77.9382 69.2049 77.9382C69.0426 77.9382 68.886 77.9982 68.7654 78.1067C66.3216 80.3183 63.1424 81.5415 59.8465 81.5381C58.2863 81.5507 56.7391 81.2539 55.2943 80.665C53.8495 80.076 52.5358 79.2065 51.4291 78.1067C51.314 77.9937 51.1614 77.927 51.0003 77.9192C50.8392 77.9114 50.6809 77.9631 50.5554 78.0645C47.918 80.2668 44.6049 81.4975 41.1693 81.5513C37.8021 81.5126 34.5725 80.2097 32.1211 77.9009C32.0027 77.7948 31.8501 77.7348 31.6912 77.7319C31.5323 77.729 31.3776 77.7834 31.2554 77.885C28.7157 80.1574 25.469 81.4824 22.0646 81.6358Z" fill="#3F80FD"/>
<defs>
<filter id="filter0_d" x="11.6224" y="17.4071" width="76.7549" height="76.6714" filterUnits="userSpaceOnUse" color-interpolation-filters="sRGB">
<feFlood flood-opacity="0" result="BackgroundImageFix"/>
<feColorMatrix in="SourceAlpha" type="matrix" values="0 0 0 0 0 0 0 0 0 0 0 0 0 0 0 0 0 0 127 0"/>
<feOffset dy="5.74278"/>
<feGaussianBlur stdDeviation="3.34995"/>
<feColorMatrix type="matrix" values="0 0 0 0 0.247059 0 0 0 0 0.501961 0 0 0 0 0.992157 0 0 0 0.19 0"/>
<feBlend mode="normal" in2="BackgroundImageFix" result="effect1_dropShadow"/>
<feBlend mode="normal" in="SourceGraphic" in2="effect1_dropShadow" result="shape"/>
</filter>
</defs>
</svg>
