<svg width="29" height="29" viewBox="0 0 29 29" fill="none" xmlns="http://www.w3.org/2000/svg">
<rect width="29" height="29" fill="#54E447"/>
<path fill-rule="evenodd" clip-rule="evenodd" d="M20.4749 7.60183C18.8767 6.00233 16.7513 5.12102 14.4869 5.12012C9.82112 5.12012 6.02377 8.91601 6.0219 13.5818C6.02128 15.0732 6.41109 16.5291 7.15181 17.8123L5.95093 22.1974L10.4383 21.0207C11.6747 21.6948 13.0667 22.0501 14.4835 22.0507H14.487C19.1522 22.0507 22.9499 18.2543 22.9518 13.5885C22.9527 11.3274 22.0731 9.20132 20.4749 7.60183V7.60183ZM14.487 20.6215H14.4841C13.2216 20.621 11.9834 20.282 10.9031 19.6411L10.6462 19.4887L7.98336 20.187L8.69414 17.5915L8.52683 17.3254C7.82255 16.2056 7.45056 14.9113 7.45112 13.5823C7.45266 9.70431 10.6089 6.54933 14.4898 6.54933C16.369 6.55004 18.1355 7.28261 19.4638 8.61205C20.7922 9.94149 21.5233 11.7086 21.5226 13.588C21.521 17.4663 18.3648 20.6215 14.487 20.6215V20.6215ZM18.3462 15.3538C18.1347 15.248 17.0948 14.7365 16.9009 14.6659C16.707 14.5953 16.5661 14.5601 16.425 14.7717C16.284 14.9834 15.8787 15.4597 15.7553 15.6008C15.6319 15.7419 15.5085 15.7596 15.297 15.6537C15.0855 15.5479 14.404 15.3246 13.5961 14.6042C12.9674 14.0436 12.5429 13.3512 12.4195 13.1395C12.2961 12.9278 12.4064 12.8134 12.5123 12.708C12.6074 12.6132 12.7238 12.461 12.8295 12.3375C12.9353 12.2141 12.9705 12.1259 13.041 11.9848C13.1115 11.8436 13.0763 11.7201 13.0234 11.6143C12.9705 11.5085 12.5475 10.4677 12.3712 10.0444C12.1996 9.63209 12.0252 9.68788 11.8954 9.68142C11.7721 9.67529 11.631 9.67398 11.49 9.67398C11.349 9.67398 11.1199 9.7269 10.926 9.93856C10.7321 10.1502 10.1857 10.6618 10.1857 11.7025C10.1857 12.7432 10.9436 13.7487 11.0494 13.8898C11.1551 14.0309 12.5408 16.1666 14.6625 17.0825C15.1672 17.3003 15.5611 17.4304 15.8683 17.5279C16.375 17.6888 16.8361 17.6661 17.2005 17.6117C17.6069 17.551 18.4519 17.1002 18.6282 16.6063C18.8044 16.1123 18.8044 15.689 18.7515 15.6008C18.6987 15.5126 18.5577 15.4597 18.3462 15.3538" fill="white"/>
</svg>
