<svg id="Layer_1" data-name="Layer 1" xmlns="http://www.w3.org/2000/svg" xmlns:xlink="http://www.w3.org/1999/xlink" viewBox="0 0 56 56"><defs><style>.cls-1{fill:none;}.cls-2{clip-path:url(#clip-path);}.cls-3{fill:#fff;}.cls-4,.cls-5{fill:#3f80fd;}.cls-4{opacity:0.1;isolation:isolate;}.cls-5{fill-opacity:0.01;}.cls-6{fill:#0e94cd;}</style><clipPath id="clip-path"><rect class="cls-1" width="56" height="56"/></clipPath></defs><title>icon-2-contact-marketing-template</title><g class="cls-2"><path class="cls-3" d="M56,0H0V56H56Z"/><path class="cls-4" d="M56,0H0V56H56Z"/><path class="cls-5" d="M38.29,32a3.81,3.81,0,0,0-2.79.73c-.8.47-2.33,1.71-3.21,1.4A19.93,19.93,0,0,1,21.75,23.81c-.32-.89.92-2.43,1.38-3.24a3.94,3.94,0,0,0,.73-2.82c-.21-1-2.93-4.47-3.89-5.42a3.22,3.22,0,0,0-1.95-1c-2.5-.11-5.3,3.24-5.79,4-1.23,1.7-1.23,4,0,6.72,3,7.4,14.33,18.55,21.75,21.66a9,9,0,0,0,3.74,1,4.86,4.86,0,0,0,2.92-.92c.64-.36,4.12-3.3,4-5.87a3.27,3.27,0,0,0-1-1.95C42.74,35,39.3,32.18,38.29,32Z"/><path class="cls-6" d="M38.29,32a3.81,3.81,0,0,0-2.79.73c-.8.47-2.33,1.71-3.21,1.4A19.93,19.93,0,0,1,21.75,23.81c-.32-.89.92-2.43,1.38-3.24a3.94,3.94,0,0,0,.73-2.82c-.21-1-2.93-4.47-3.89-5.42a3.22,3.22,0,0,0-1.95-1c-2.5-.11-5.3,3.24-5.79,4-1.23,1.7-1.23,4,0,6.72,3,7.4,14.33,18.55,21.75,21.66a9,9,0,0,0,3.74,1,4.86,4.86,0,0,0,2.92-.92c.64-.36,4.12-3.3,4-5.87a3.27,3.27,0,0,0-1-1.95C42.74,35,39.3,32.18,38.29,32Z"/></g></svg>