<svg width="100" height="100" viewBox="0 0 100 100" fill="none" xmlns="http://www.w3.org/2000/svg">
<path d="M100 0H0V100H100V0Z" fill="white"/>
<path d="M100 0H0V100H100V0Z" fill="#FFF4CB"/>
<g filter="url(#filter0_d)">
<path d="M55.2056 76.375H44.7944C44.5576 76.375 44.3249 76.4356 44.1181 76.5509C43.9114 76.6662 43.7376 76.8325 43.6132 77.0339C43.4889 77.2353 43.4181 77.4652 43.4076 77.7017C43.3971 77.9382 43.4473 78.1734 43.5533 78.3851L44.4862 80.248C44.9442 81.171 45.6513 81.9475 46.5275 82.4897C47.4038 83.0318 48.4143 83.318 49.4447 83.3158H50.5552C51.5846 83.3195 52.5945 83.0355 53.4711 82.4959C54.3477 81.9563 55.0561 81.1825 55.5165 80.2618L56.4493 78.3989C56.5555 78.1871 56.6057 77.9516 56.595 77.7149C56.5844 77.4782 56.5134 77.2481 56.3887 77.0466C56.264 76.8451 56.0899 76.6789 55.8827 76.5637C55.6756 76.4486 55.4425 76.3884 55.2056 76.3889V76.375Z" fill="#FF8139" fill-opacity="0.01"/>
</g>
<path d="M55.2056 76.375H44.7944C44.5576 76.375 44.3249 76.4356 44.1181 76.5509C43.9114 76.6662 43.7376 76.8325 43.6132 77.0339C43.4889 77.2353 43.4181 77.4652 43.4076 77.7017C43.3971 77.9382 43.4473 78.1734 43.5533 78.3851L44.4862 80.248C44.9442 81.171 45.6513 81.9475 46.5275 82.4897C47.4038 83.0318 48.4143 83.318 49.4447 83.3158H50.5552C51.5846 83.3195 52.5945 83.0355 53.4711 82.4959C54.3477 81.9563 55.0561 81.1825 55.5165 80.2618L56.4493 78.3989C56.5555 78.1871 56.6057 77.9516 56.595 77.7149C56.5844 77.4782 56.5134 77.2481 56.3887 77.0466C56.264 76.8451 56.0899 76.6789 55.8827 76.5637C55.6756 76.4486 55.4425 76.3884 55.2056 76.3889V76.375Z" fill="#FF8139"/>
<g filter="url(#filter1_d)">
<path d="M49.999 29.1776C50.7353 29.1776 51.4415 28.8851 51.9621 28.3645C52.4828 27.8438 52.7753 27.1376 52.7753 26.4013V19.4605C52.7753 18.7242 52.4828 18.018 51.9621 17.4974C51.4415 16.9767 50.7353 16.6842 49.999 16.6842C49.2626 16.6842 48.5565 16.9767 48.0358 17.4974C47.5152 18.018 47.2227 18.7242 47.2227 19.4605V26.4013C47.2227 27.1376 47.5152 27.8438 48.0358 28.3645C48.5565 28.8851 49.2626 29.1776 49.999 29.1776Z" fill="#FFC226" fill-opacity="0.01"/>
</g>
<path d="M49.999 29.1775C50.7353 29.1775 51.4415 28.885 51.9621 28.3644C52.4828 27.8437 52.7753 27.1375 52.7753 26.4012V19.4604C52.7753 18.7241 52.4828 18.0179 51.9621 17.4973C51.4415 16.9766 50.7353 16.6841 49.999 16.6841C49.2626 16.6841 48.5565 16.9766 48.0358 17.4973C47.5152 18.0179 47.2227 18.7241 47.2227 19.4604V26.4012C47.2227 27.1375 47.5152 27.8437 48.0358 28.3644C48.5565 28.885 49.2626 29.1775 49.999 29.1775Z" fill="#FFC226"/>
<g filter="url(#filter2_d)">
<path d="M75.5189 27.2565C74.9982 26.736 74.2922 26.4436 73.556 26.4436C72.8199 26.4436 72.1138 26.736 71.5932 27.2565L66.6874 32.165C66.4223 32.4211 66.2107 32.7275 66.0652 33.0662C65.9197 33.4049 65.8432 33.7692 65.8399 34.1378C65.8367 34.5065 65.907 34.8721 66.0466 35.2133C66.1862 35.5545 66.3923 35.8644 66.653 36.1251C66.9137 36.3858 67.2237 36.592 67.5649 36.7315C67.9061 36.8711 68.2716 36.9414 68.6403 36.9382C69.0089 36.935 69.3732 36.8584 69.712 36.7129C70.0507 36.5674 70.357 36.3559 70.6131 36.0907L75.5189 31.1822C76.0394 30.6615 76.3318 29.9555 76.3318 29.2193C76.3318 28.4831 76.0394 27.7771 75.5189 27.2565Z" fill="#FFC226" fill-opacity="0.01"/>
</g>
<path d="M75.5189 27.2565C74.9982 26.736 74.2923 26.4436 73.5561 26.4436C72.82 26.4436 72.1139 26.736 71.5933 27.2565L66.6875 32.165C66.4224 32.4211 66.2108 32.7275 66.0653 33.0662C65.9198 33.4049 65.8432 33.7692 65.8399 34.1378C65.8367 34.5065 65.9071 34.8721 66.0467 35.2133C66.1863 35.5545 66.3924 35.8644 66.6531 36.1251C66.9138 36.3858 67.2238 36.592 67.565 36.7315C67.9062 36.8711 68.2716 36.9414 68.6403 36.9382C69.0089 36.935 69.3732 36.8584 69.712 36.7129C70.0507 36.5674 70.357 36.3559 70.6131 36.0907L75.5189 31.1822C76.0394 30.6615 76.3319 29.9555 76.3319 29.2193C76.3319 28.4831 76.0394 27.7771 75.5189 27.2565Z" fill="#FFC226"/>
<g filter="url(#filter3_d)">
<path d="M80.5399 50H74.9873C74.2509 50 73.5448 50.2925 73.0241 50.8132C72.5034 51.3338 72.2109 52.04 72.2109 52.7763C72.2109 53.5126 72.5034 54.2188 73.0241 54.7395C73.5448 55.2601 74.2509 55.5526 74.9873 55.5526H80.5399C81.2762 55.5526 81.9824 55.2601 82.503 54.7395C83.0237 54.2188 83.3162 53.5126 83.3162 52.7763C83.3162 52.04 83.0237 51.3338 82.503 50.8132C81.9824 50.2925 81.2762 50 80.5399 50Z" fill="#FFC226" fill-opacity="0.01"/>
</g>
<path d="M80.5399 50H74.9873C74.2509 50 73.5448 50.2925 73.0241 50.8132C72.5034 51.3338 72.2109 52.04 72.2109 52.7763C72.2109 53.5126 72.5034 54.2188 73.0241 54.7395C73.5448 55.2601 74.2509 55.5526 74.9873 55.5526H80.5399C81.2762 55.5526 81.9824 55.2601 82.503 54.7395C83.0237 54.2188 83.3162 53.5126 83.3162 52.7763C83.3162 52.04 83.0237 51.3338 82.503 50.8132C81.9824 50.2925 81.2762 50 80.5399 50Z" fill="#FFC226"/>
<g filter="url(#filter4_d)">
<path d="M33.3148 32.165L28.4062 27.2565C27.8826 26.7508 27.1813 26.471 26.4534 26.4773C25.7254 26.4836 25.0291 26.7756 24.5143 27.2903C23.9996 27.8051 23.7076 28.5014 23.7013 29.2294C23.695 29.9573 23.9748 30.6586 24.4805 31.1822L29.389 36.0908C29.9127 36.5965 30.614 36.8763 31.3419 36.87C32.0699 36.8637 32.7662 36.5717 33.2809 36.0569C33.7957 35.5422 34.0877 34.8459 34.094 34.1179C34.1003 33.39 33.8205 32.6887 33.3148 32.165Z" fill="#FFC226" fill-opacity="0.01"/>
</g>
<path d="M33.3148 32.1651L28.4062 27.2566C27.8826 26.7509 27.1813 26.4711 26.4534 26.4774C25.7254 26.4837 25.0291 26.7757 24.5143 27.2904C23.9996 27.8052 23.7076 28.5015 23.7013 29.2295C23.695 29.9574 23.9748 30.6587 24.4805 31.1823L29.389 36.0909C29.9127 36.5966 30.614 36.8764 31.3419 36.8701C32.0699 36.8638 32.7662 36.5718 33.2809 36.057C33.7957 35.5423 34.0877 34.846 34.094 34.118C34.1003 33.3901 33.8205 32.6888 33.3148 32.1651Z" fill="#FFC226"/>
<g filter="url(#filter5_d)">
<path d="M25.0125 50H19.4599C18.7236 50 18.0174 50.2925 17.4968 50.8132C16.9761 51.3338 16.6836 52.04 16.6836 52.7763C16.6836 53.5126 16.9761 54.2188 17.4968 54.7395C18.0174 55.2601 18.7236 55.5526 19.4599 55.5526H25.0125C25.7489 55.5526 26.455 55.2601 26.9757 54.7395C27.4964 54.2188 27.7889 53.5126 27.7889 52.7763C27.7889 52.04 27.4964 51.3338 26.9757 50.8132C26.455 50.2925 25.7489 50 25.0125 50Z" fill="#FFC226" fill-opacity="0.01"/>
</g>
<path d="M25.0125 50H19.4599C18.7236 50 18.0174 50.2925 17.4968 50.8132C16.9761 51.3338 16.6836 52.04 16.6836 52.7763C16.6836 53.5126 16.9761 54.2188 17.4968 54.7395C18.0174 55.2601 18.7236 55.5526 19.4599 55.5526H25.0125C25.7489 55.5526 26.455 55.2601 26.9757 54.7395C27.4964 54.2188 27.7889 53.5126 27.7889 52.7763C27.7889 52.04 27.4964 51.3338 26.9757 50.8132C26.455 50.2925 25.7489 50 25.0125 50Z" fill="#FFC226"/>
<g filter="url(#filter6_d)">
<path d="M49.9997 33.342C46.1631 33.3477 42.4282 34.576 39.3371 36.8486C36.246 39.1212 33.9596 42.3198 32.8098 45.9801C31.6601 49.6404 31.7068 53.5719 32.9433 57.2038C34.1797 60.8357 36.5415 63.9791 39.6857 66.1775C39.87 66.3054 40.0206 66.476 40.1245 66.6747C40.2285 66.8734 40.2827 67.0943 40.2826 67.3186V69.4342C40.2826 70.1705 40.5751 70.8767 41.0958 71.3973C41.6165 71.918 42.3226 72.2105 43.059 72.2105H56.9405C57.6769 72.2105 58.383 71.918 58.9037 71.3973C59.4244 70.8767 59.7169 70.1705 59.7169 69.4342V67.3158C59.7168 67.0916 59.771 66.8706 59.875 66.6719C59.9789 66.4732 60.1295 66.3026 60.3138 66.1748C63.466 63.981 65.8354 60.8381 67.077 57.2038C68.3186 53.5696 68.3674 49.6339 67.2164 45.97C66.0655 42.3061 63.7748 39.1053 60.678 36.8339C57.5813 34.5626 53.8402 33.3392 49.9997 33.342Z" fill="#FFC226" fill-opacity="0.01"/>
</g>
<path d="M49.9997 33.342C46.1631 33.3477 42.4282 34.576 39.3371 36.8486C36.246 39.1212 33.9596 42.3198 32.8098 45.9801C31.6601 49.6404 31.7068 53.5719 32.9433 57.2038C34.1797 60.8357 36.5415 63.9791 39.6857 66.1775C39.87 66.3054 40.0206 66.476 40.1245 66.6747C40.2285 66.8734 40.2827 67.0943 40.2826 67.3186V69.4342C40.2826 70.1705 40.5751 70.8767 41.0958 71.3973C41.6165 71.918 42.3226 72.2105 43.059 72.2105H56.9405C57.6769 72.2105 58.383 71.918 58.9037 71.3973C59.4244 70.8767 59.7169 70.1705 59.7169 69.4342V67.3158C59.7168 67.0916 59.771 66.8706 59.875 66.6719C59.9789 66.4732 60.1295 66.3026 60.3138 66.1748C63.466 63.981 65.8354 60.8381 67.077 57.2038C68.3186 53.5696 68.3674 49.6339 67.2164 45.97C66.0655 42.3061 63.7748 39.1053 60.678 36.8339C57.5813 34.5626 53.8402 33.3392 49.9997 33.342Z" fill="#FFC226"/>
<defs>
<filter id="filter0_d" x="37.4062" y="72.375" width="25.1902" height="18.9408" filterUnits="userSpaceOnUse" color-interpolation-filters="sRGB">
<feFlood flood-opacity="0" result="BackgroundImageFix"/>
<feColorMatrix in="SourceAlpha" type="matrix" values="0 0 0 0 0 0 0 0 0 0 0 0 0 0 0 0 0 0 127 0"/>
<feOffset dy="2"/>
<feGaussianBlur stdDeviation="3"/>
<feColorMatrix type="matrix" values="0 0 0 0 1 0 0 0 0 0.504861 0 0 0 0 0.225 0 0 0 0.27 0"/>
<feBlend mode="normal" in2="BackgroundImageFix" result="effect1_dropShadow"/>
<feBlend mode="normal" in="SourceGraphic" in2="effect1_dropShadow" result="shape"/>
</filter>
<filter id="filter1_d" x="41.2227" y="12.6842" width="17.5526" height="24.4934" filterUnits="userSpaceOnUse" color-interpolation-filters="sRGB">
<feFlood flood-opacity="0" result="BackgroundImageFix"/>
<feColorMatrix in="SourceAlpha" type="matrix" values="0 0 0 0 0 0 0 0 0 0 0 0 0 0 0 0 0 0 127 0"/>
<feOffset dy="2"/>
<feGaussianBlur stdDeviation="3"/>
<feColorMatrix type="matrix" values="0 0 0 0 1 0 0 0 0 0.760784 0 0 0 0 0.14902 0 0 0 0.56 0"/>
<feBlend mode="normal" in2="BackgroundImageFix" result="effect1_dropShadow"/>
<feBlend mode="normal" in="SourceGraphic" in2="effect1_dropShadow" result="shape"/>
</filter>
<filter id="filter2_d" x="59.8398" y="22.4436" width="22.492" height="22.4947" filterUnits="userSpaceOnUse" color-interpolation-filters="sRGB">
<feFlood flood-opacity="0" result="BackgroundImageFix"/>
<feColorMatrix in="SourceAlpha" type="matrix" values="0 0 0 0 0 0 0 0 0 0 0 0 0 0 0 0 0 0 127 0"/>
<feOffset dy="2"/>
<feGaussianBlur stdDeviation="3"/>
<feColorMatrix type="matrix" values="0 0 0 0 1 0 0 0 0 0.760784 0 0 0 0 0.14902 0 0 0 0.56 0"/>
<feBlend mode="normal" in2="BackgroundImageFix" result="effect1_dropShadow"/>
<feBlend mode="normal" in="SourceGraphic" in2="effect1_dropShadow" result="shape"/>
</filter>
<filter id="filter3_d" x="66.2109" y="46" width="23.1053" height="17.5526" filterUnits="userSpaceOnUse" color-interpolation-filters="sRGB">
<feFlood flood-opacity="0" result="BackgroundImageFix"/>
<feColorMatrix in="SourceAlpha" type="matrix" values="0 0 0 0 0 0 0 0 0 0 0 0 0 0 0 0 0 0 127 0"/>
<feOffset dy="2"/>
<feGaussianBlur stdDeviation="3"/>
<feColorMatrix type="matrix" values="0 0 0 0 1 0 0 0 0 0.760784 0 0 0 0 0.14902 0 0 0 0.56 0"/>
<feBlend mode="normal" in2="BackgroundImageFix" result="effect1_dropShadow"/>
<feBlend mode="normal" in="SourceGraphic" in2="effect1_dropShadow" result="shape"/>
</filter>
<filter id="filter4_d" x="17.7012" y="22.4772" width="22.3929" height="22.3929" filterUnits="userSpaceOnUse" color-interpolation-filters="sRGB">
<feFlood flood-opacity="0" result="BackgroundImageFix"/>
<feColorMatrix in="SourceAlpha" type="matrix" values="0 0 0 0 0 0 0 0 0 0 0 0 0 0 0 0 0 0 127 0"/>
<feOffset dy="2"/>
<feGaussianBlur stdDeviation="3"/>
<feColorMatrix type="matrix" values="0 0 0 0 1 0 0 0 0 0.760784 0 0 0 0 0.14902 0 0 0 0.56 0"/>
<feBlend mode="normal" in2="BackgroundImageFix" result="effect1_dropShadow"/>
<feBlend mode="normal" in="SourceGraphic" in2="effect1_dropShadow" result="shape"/>
</filter>
<filter id="filter5_d" x="10.6836" y="46" width="23.1053" height="17.5526" filterUnits="userSpaceOnUse" color-interpolation-filters="sRGB">
<feFlood flood-opacity="0" result="BackgroundImageFix"/>
<feColorMatrix in="SourceAlpha" type="matrix" values="0 0 0 0 0 0 0 0 0 0 0 0 0 0 0 0 0 0 127 0"/>
<feOffset dy="2"/>
<feGaussianBlur stdDeviation="3"/>
<feColorMatrix type="matrix" values="0 0 0 0 1 0 0 0 0 0.760784 0 0 0 0 0.14902 0 0 0 0.56 0"/>
<feBlend mode="normal" in2="BackgroundImageFix" result="effect1_dropShadow"/>
<feBlend mode="normal" in="SourceGraphic" in2="effect1_dropShadow" result="shape"/>
</filter>
<filter id="filter6_d" x="23.9804" y="27.342" width="52.0649" height="54.8685" filterUnits="userSpaceOnUse" color-interpolation-filters="sRGB">
<feFlood flood-opacity="0" result="BackgroundImageFix"/>
<feColorMatrix in="SourceAlpha" type="matrix" values="0 0 0 0 0 0 0 0 0 0 0 0 0 0 0 0 0 0 127 0"/>
<feOffset dy="2"/>
<feGaussianBlur stdDeviation="4"/>
<feColorMatrix type="matrix" values="0 0 0 0 1 0 0 0 0 0.760784 0 0 0 0 0.14902 0 0 0 0.44 0"/>
<feBlend mode="normal" in2="BackgroundImageFix" result="effect1_dropShadow"/>
<feBlend mode="normal" in="SourceGraphic" in2="effect1_dropShadow" result="shape"/>
</filter>
</defs>
</svg>
