<svg width="380" height="452" viewBox="0 0 380 452" fill="none" xmlns="http://www.w3.org/2000/svg">
<g filter="url(#filter0_d)">
<path d="M282.117 50H97C78.7746 50 64 64.7746 64 83V340.057C64 358.282 78.7746 373.057 97 373.057H282.117C300.342 373.057 315.117 358.282 315.117 340.057V83C315.117 64.7746 300.342 50 282.117 50Z" fill="white" fill-opacity="0.01"/>
</g>
<path d="M282.117 50H97C78.7746 50 64 64.7746 64 83V340.057C64 358.282 78.7746 373.057 97 373.057H282.117C300.342 373.057 315.117 358.282 315.117 340.057V83C315.117 64.7746 300.342 50 282.117 50Z" fill="white"/>
<g filter="url(#filter1_d)">
<path d="M149.558 340.651C156.185 340.651 161.558 335.278 161.558 328.651C161.558 322.024 156.185 316.651 149.558 316.651C142.931 316.651 137.558 322.024 137.558 328.651C137.558 335.278 142.931 340.651 149.558 340.651Z" fill="#FF3951" fill-opacity="0.01"/>
</g>
<path d="M149.558 340.651C156.185 340.651 161.558 335.278 161.558 328.651C161.558 322.023 156.185 316.651 149.558 316.651C142.931 316.651 137.558 322.023 137.558 328.651C137.558 335.278 142.931 340.651 149.558 340.651Z" fill="#FF3951"/>
<g filter="url(#filter2_d)">
<path d="M189.558 340.651C196.185 340.651 201.558 335.278 201.558 328.651C201.558 322.024 196.185 316.651 189.558 316.651C182.931 316.651 177.558 322.024 177.558 328.651C177.558 335.278 182.931 340.651 189.558 340.651Z" fill="#FF8139" fill-opacity="0.01"/>
</g>
<path d="M189.558 340.651C196.185 340.651 201.558 335.278 201.558 328.651C201.558 322.023 196.185 316.651 189.558 316.651C182.931 316.651 177.558 322.023 177.558 328.651C177.558 335.278 182.931 340.651 189.558 340.651Z" fill="#FF8139"/>
<g filter="url(#filter3_d)">
<path d="M229.558 340.651C236.185 340.651 241.558 335.278 241.558 328.651C241.558 322.024 236.185 316.651 229.558 316.651C222.931 316.651 217.558 322.024 217.558 328.651C217.558 335.278 222.931 340.651 229.558 340.651Z" fill="#FFC226" fill-opacity="0.01"/>
</g>
<path d="M229.558 340.651C236.185 340.651 241.558 335.278 241.558 328.651C241.558 322.023 236.185 316.651 229.558 316.651C222.931 316.651 217.558 322.023 217.558 328.651C217.558 335.278 222.931 340.651 229.558 340.651Z" fill="#FFC226"/>
<path opacity="0.8" d="M244.803 263.776H134.313C130.91 263.776 128.151 266.535 128.151 269.938C128.151 273.341 130.91 276.1 134.313 276.1H244.803C248.206 276.1 250.965 273.341 250.965 269.938C250.965 266.535 248.206 263.776 244.803 263.776Z" fill="#D9DBE9"/>
<path opacity="0.26" d="M269.112 285.227H110.004C106.601 285.227 103.842 287.986 103.842 291.389C103.842 294.792 106.601 297.551 110.004 297.551H269.112C272.515 297.551 275.274 294.792 275.274 291.389C275.274 287.986 272.515 285.227 269.112 285.227Z" fill="#D9DBE9"/>
<path d="M269.125 161.971C269.125 205.915 233.502 241.538 189.558 241.538C145.615 241.538 109.992 205.915 109.992 161.971C109.992 118.028 145.615 82.4052 189.558 82.4052C233.502 82.4052 269.125 118.028 269.125 161.971ZM133.532 161.971C133.532 192.914 158.616 217.998 189.558 217.998C220.501 217.998 245.585 192.914 245.585 161.971C245.585 131.029 220.501 105.945 189.558 105.945C158.616 105.945 133.532 131.029 133.532 161.971Z" fill="#F5F7FC"/>
<g filter="url(#filter4_d)">
<path d="M198.592 96.021C207.866 97.2914 216.768 100.503 224.717 105.448C232.665 110.392 239.482 116.956 244.721 124.714C249.96 132.471 253.505 141.246 255.123 150.465C256.741 159.685 256.396 169.143 254.111 178.22" stroke="#FFC226" stroke-opacity="0.01" stroke-width="26" stroke-linecap="round"/>
</g>
<path d="M198.592 96.021C207.866 97.2914 216.768 100.503 224.717 105.448C232.665 110.392 239.482 116.956 244.721 124.714C249.96 132.471 253.505 141.246 255.123 150.465C256.741 159.685 256.396 169.143 254.111 178.22" stroke="#FFC226" stroke-width="26" stroke-linecap="round"/>
<g filter="url(#filter5_d)">
<path d="M135.643 122.93C145.67 109.083 160.641 99.6247 177.452 96.5154C194.263 93.406 211.626 96.8839 225.942 106.228" stroke="#FF8139" stroke-opacity="0.01" stroke-width="26" stroke-linecap="round"/>
</g>
<path d="M135.643 122.93C145.67 109.083 160.641 99.6248 177.452 96.5155C194.263 93.4061 211.626 96.884 225.942 106.228" stroke="#FF8139" stroke-width="26" stroke-linecap="round"/>
<g filter="url(#filter6_d)">
<path d="M202.655 227.237C190.017 229.773 176.916 228.585 164.941 223.818C152.966 219.052 142.632 210.911 135.194 200.385C127.756 189.858 123.534 177.399 123.041 164.52C122.547 151.64 125.804 138.894 132.415 127.83" stroke="#FF3951" stroke-opacity="0.01" stroke-width="26" stroke-linecap="round"/>
</g>
<path d="M202.655 227.237C190.017 229.773 176.916 228.585 164.941 223.818C152.966 219.052 142.632 210.911 135.194 200.385C127.756 189.858 123.534 177.399 123.041 164.52C122.547 151.64 125.804 138.894 132.415 127.83" stroke="#FF3951" stroke-width="26" stroke-linecap="round"/>
<defs>
<filter id="filter0_d" x="0" y="0" width="379.117" height="451.057" filterUnits="userSpaceOnUse" color-interpolation-filters="sRGB">
<feFlood flood-opacity="0" result="BackgroundImageFix"/>
<feColorMatrix in="SourceAlpha" type="matrix" values="0 0 0 0 0 0 0 0 0 0 0 0 0 0 0 0 0 0 127 0"/>
<feOffset dy="14"/>
<feGaussianBlur stdDeviation="32"/>
<feColorMatrix type="matrix" values="0 0 0 0 0.078875 0 0 0 0 0.0770833 0 0 0 0 0.166667 0 0 0 0.12 0"/>
<feBlend mode="normal" in2="BackgroundImageFix" result="effect1_dropShadow"/>
<feBlend mode="normal" in="SourceGraphic" in2="effect1_dropShadow" result="shape"/>
</filter>
<filter id="filter1_d" x="129.558" y="310.651" width="40" height="40" filterUnits="userSpaceOnUse" color-interpolation-filters="sRGB">
<feFlood flood-opacity="0" result="BackgroundImageFix"/>
<feColorMatrix in="SourceAlpha" type="matrix" values="0 0 0 0 0 0 0 0 0 0 0 0 0 0 0 0 0 0 127 0"/>
<feOffset dy="2"/>
<feGaussianBlur stdDeviation="4"/>
<feColorMatrix type="matrix" values="0 0 0 0 1 0 0 0 0 0.223529 0 0 0 0 0.317647 0 0 0 0.21 0"/>
<feBlend mode="normal" in2="BackgroundImageFix" result="effect1_dropShadow"/>
<feBlend mode="normal" in="SourceGraphic" in2="effect1_dropShadow" result="shape"/>
</filter>
<filter id="filter2_d" x="169.558" y="310.651" width="40" height="40" filterUnits="userSpaceOnUse" color-interpolation-filters="sRGB">
<feFlood flood-opacity="0" result="BackgroundImageFix"/>
<feColorMatrix in="SourceAlpha" type="matrix" values="0 0 0 0 0 0 0 0 0 0 0 0 0 0 0 0 0 0 127 0"/>
<feOffset dy="2"/>
<feGaussianBlur stdDeviation="4"/>
<feColorMatrix type="matrix" values="0 0 0 0 1 0 0 0 0 0.504861 0 0 0 0 0.225 0 0 0 0.37 0"/>
<feBlend mode="normal" in2="BackgroundImageFix" result="effect1_dropShadow"/>
<feBlend mode="normal" in="SourceGraphic" in2="effect1_dropShadow" result="shape"/>
</filter>
<filter id="filter3_d" x="209.558" y="310.651" width="40" height="40" filterUnits="userSpaceOnUse" color-interpolation-filters="sRGB">
<feFlood flood-opacity="0" result="BackgroundImageFix"/>
<feColorMatrix in="SourceAlpha" type="matrix" values="0 0 0 0 0 0 0 0 0 0 0 0 0 0 0 0 0 0 127 0"/>
<feOffset dy="2"/>
<feGaussianBlur stdDeviation="4"/>
<feColorMatrix type="matrix" values="0 0 0 0 1 0 0 0 0 0.760784 0 0 0 0 0.14902 0 0 0 0.42 0"/>
<feBlend mode="normal" in2="BackgroundImageFix" result="effect1_dropShadow"/>
<feBlend mode="normal" in="SourceGraphic" in2="effect1_dropShadow" result="shape"/>
</filter>
<filter id="filter4_d" x="177.59" y="79.0194" width="99.5344" height="124.204" filterUnits="userSpaceOnUse" color-interpolation-filters="sRGB">
<feFlood flood-opacity="0" result="BackgroundImageFix"/>
<feColorMatrix in="SourceAlpha" type="matrix" values="0 0 0 0 0 0 0 0 0 0 0 0 0 0 0 0 0 0 127 0"/>
<feOffset dy="4"/>
<feGaussianBlur stdDeviation="4"/>
<feColorMatrix type="matrix" values="0 0 0 0 1 0 0 0 0 0.760784 0 0 0 0 0.14902 0 0 0 0.21 0"/>
<feBlend mode="normal" in2="BackgroundImageFix" result="effect1_dropShadow"/>
<feBlend mode="normal" in="SourceGraphic" in2="effect1_dropShadow" result="shape"/>
</filter>
<filter id="filter5_d" x="114.642" y="78.4049" width="132.301" height="69.526" filterUnits="userSpaceOnUse" color-interpolation-filters="sRGB">
<feFlood flood-opacity="0" result="BackgroundImageFix"/>
<feColorMatrix in="SourceAlpha" type="matrix" values="0 0 0 0 0 0 0 0 0 0 0 0 0 0 0 0 0 0 127 0"/>
<feOffset dy="4"/>
<feGaussianBlur stdDeviation="4"/>
<feColorMatrix type="matrix" values="0 0 0 0 1 0 0 0 0 0.505882 0 0 0 0 0.223529 0 0 0 0.16 0"/>
<feBlend mode="normal" in2="BackgroundImageFix" result="effect1_dropShadow"/>
<feBlend mode="normal" in="SourceGraphic" in2="effect1_dropShadow" result="shape"/>
</filter>
<filter id="filter6_d" x="93.9921" y="104.828" width="137.665" height="158.71" filterUnits="userSpaceOnUse" color-interpolation-filters="sRGB">
<feFlood flood-opacity="0" result="BackgroundImageFix"/>
<feColorMatrix in="SourceAlpha" type="matrix" values="0 0 0 0 0 0 0 0 0 0 0 0 0 0 0 0 0 0 127 0"/>
<feOffset dy="6"/>
<feGaussianBlur stdDeviation="8"/>
<feColorMatrix type="matrix" values="0 0 0 0 1 0 0 0 0 0.223529 0 0 0 0 0.317647 0 0 0 0.34 0"/>
<feBlend mode="normal" in2="BackgroundImageFix" result="effect1_dropShadow"/>
<feBlend mode="normal" in="SourceGraphic" in2="effect1_dropShadow" result="shape"/>
</filter>
</defs>
</svg>
