<svg width="889" height="392" viewBox="0 0 889 392" fill="none" xmlns="http://www.w3.org/2000/svg">
<path d="M353.523 80.1153C353.523 80.1153 360.246 106.628 367.347 114.843C367.347 114.843 380.237 101.965 384.155 90.756C384.155 90.756 384.522 85.5244 388.262 83.2874L393.86 75.6294L403.199 78.9909L400.962 86.4595L391.245 91.8805C391.245 91.8805 378.923 125.862 367.726 125.673C356.529 125.483 351.475 110.546 351.475 110.546L345.32 78.5884L353.523 80.1153Z" fill="#FFD5BD"/>
<path d="M391.021 95.0644L384.109 90.7561C384.109 90.7561 372.344 109.978 366.84 113.837C366.84 113.837 359.987 101.338 357.643 91.052C356.414 85.4552 354.901 79.9245 353.11 74.4813L345.275 85.8322C345.275 85.8322 350.423 121.98 361.076 125.649C371.729 129.318 377.753 118.914 380.18 114.819C382.606 110.724 391.021 95.0644 391.021 95.0644Z" fill="#14142B"/>
<path d="M331.783 355.271C331.783 355.709 324.682 365.746 324.682 365.746L317.248 356.135L325.261 344.784L331.783 355.271Z" fill="#FFD5BD"/>
<path d="M328.028 361.911L320.335 353.566C319.794 352.984 319.044 352.64 318.25 352.609C317.456 352.578 316.682 352.862 316.097 353.4L309.422 359.579C309.133 359.845 308.899 360.166 308.734 360.522C308.569 360.879 308.476 361.265 308.461 361.657C308.445 362.05 308.508 362.442 308.644 362.81C308.781 363.179 308.989 363.517 309.256 363.804L331.129 387.477C331.67 388.055 332.417 388.397 333.208 388.428C333.999 388.459 334.771 388.177 335.355 387.643V387.643C335.877 387.162 336.211 386.511 336.298 385.806C336.385 385.101 336.218 384.389 335.828 383.796C333.272 379.902 328.253 371.261 328.81 364.171C328.843 363.761 328.791 363.348 328.656 362.959C328.522 362.57 328.308 362.213 328.028 361.911V361.911Z" fill="#14142B"/>
<path d="M347.723 350.607L326.133 331.669L318.191 348.157L332.951 360.988L347.723 350.607Z" fill="#FF3951"/>
<path d="M355.617 136.018C355.617 136.018 378.899 237.655 379.29 262.037C379.68 286.42 358.411 328.71 344.965 348.512L326.855 334.108L353.096 270.192L340.917 190.606L326.855 351.862L309.48 354.087C309.48 354.087 307.267 293.107 309.48 270.938C311.693 248.769 299.384 173.373 308.498 144.54L355.617 136.018Z" fill="#14142B"/>
<path d="M308.439 144.516C308.439 144.516 304.474 106.711 296.863 91.9041L293.904 74.7772C293.904 74.7772 299.408 68.0069 311.883 68.2199C324.358 68.433 329.85 67.0363 329.85 67.0363C329.85 67.0363 346.149 65.9355 349.972 69.5337C353.795 73.1319 353.984 89.4185 354.623 97.2422C355.263 105.066 356.754 141.036 356.754 141.036L308.439 144.516Z" fill="#FF3951"/>
<path d="M309.542 66.9653C309.542 66.9653 328.291 88.9214 324.74 144.516L302.819 148.28L305.802 125.223L291.753 83.0744C291.753 83.0744 288.805 69.948 309.542 66.9653Z" fill="#14142B"/>
<path d="M330.918 66.9653C330.918 66.9653 351.11 81.7132 352.661 138.302L363.23 138.598L354.578 93.3363C356.097 89.2513 356.296 84.7926 355.146 80.5887C353.963 76.5171 352.684 71.7353 349.962 69.4864C345.63 65.9 338.73 66.2078 330.918 66.9653Z" fill="#14142B"/>
<path d="M306.18 80.2455C306.18 80.2455 293.61 110.759 296.711 123.104C296.711 123.104 318.395 117.529 328.396 107.836C328.396 107.836 331.533 102.545 336.682 102.154L346.577 97.0765L354.602 105.504L348.328 112.156L335.309 112.736C335.309 112.736 304.535 141.912 292.864 135.828C287.408 132.976 285.064 127.436 284.117 122.347C283.234 117.352 283.51 112.222 284.922 107.35L293.267 77.4877L306.18 80.2455Z" fill="#FFD5BD"/>
<path d="M336.1 115.648L327.53 105.681C327.53 105.681 308.498 120.358 296.756 123.104C297.78 113.078 299.361 103.116 301.491 93.2653L307.409 83.0744L306.864 78.7897L292.519 76.9314C292.519 76.9314 279.499 113.328 282.955 126.442C286.411 139.557 293.833 140.859 306.332 136.018C318.831 131.177 336.1 115.648 336.1 115.648Z" fill="#14142B"/>
<path d="M309.247 380.446H321.166L321.852 370.528L322.195 365.568L322.396 362.704L309.258 363.805V370.528L309.247 380.446Z" fill="#FFD5BD"/>
<path d="M321.671 376.008H310.32C309.526 376.008 308.764 376.323 308.203 376.885C307.641 377.446 307.326 378.208 307.326 379.002V388.104C307.329 388.896 307.646 389.655 308.207 390.214C308.768 390.773 309.528 391.087 310.32 391.087H342.562C342.955 391.089 343.344 391.013 343.707 390.863C344.07 390.714 344.401 390.495 344.679 390.218C344.957 389.94 345.178 389.611 345.328 389.248C345.479 388.886 345.557 388.497 345.557 388.104V388.104C345.558 387.395 345.308 386.709 344.851 386.167C344.393 385.625 343.758 385.263 343.059 385.145C338.455 384.388 328.702 382.21 323.873 376.978C323.593 376.673 323.253 376.429 322.874 376.262C322.495 376.095 322.085 376.008 321.671 376.008Z" fill="#14142B"/>
<path opacity="0.1" d="M309.542 66.9653C311.702 69.8213 313.529 72.9149 314.987 76.1857C319.23 85.551 322.073 95.4891 323.426 105.681L309.542 94.4371L312.56 84.7669L295.67 72.5046C295.67 72.5046 300.085 68.0188 309.542 66.9653Z" fill="white"/>
<path opacity="0.1" d="M347.297 98.0352C347.297 98.0352 340.609 74.1853 330.915 66.9652C330.915 66.9652 342.408 65.3674 347.699 68.0542L346.515 84.7668L351.451 86.3174L347.297 98.0352Z" fill="white"/>
<path d="M295.429 27.4797C293.157 33.1729 295.595 39.5763 295.37 45.6956C295.276 48.4889 294.613 51.2349 294.542 53.9809C294.471 56.7269 295.11 59.757 297.158 61.6626C299.004 63.4025 301.643 63.9233 304.129 64.3849C308.011 65.0832 312.225 65.7461 315.705 63.8996C316.51 63.4735 317.244 62.9291 318.072 62.574C319.791 61.987 321.628 61.8286 323.422 62.1124C325.212 62.4006 327.042 62.3119 328.796 61.852C334.335 59.9227 330.524 52.3002 329.577 48.3942C328.117 42.413 326.665 36.4358 325.221 30.4624C319.244 29.2788 313.314 27.6218 307.325 26.4145C305.369 25.8566 303.309 25.7674 301.312 26.1541C299.442 26.7222 297.3 28.0834 295.429 27.4797Z" fill="#14142B"/>
<path d="M295.278 39.245C295.742 40.7999 296.739 42.1412 298.095 43.0326C299.48 43.7664 299.693 45.0684 299.575 46.5834C299.326 50.1343 297.397 55.1528 304.037 57.9935C305.012 58.4813 306.107 58.6772 307.19 58.5575C308.274 58.4378 309.299 58.0077 310.144 57.3188C314.808 53.6378 316.287 43.3166 316.287 43.3166L324.738 18.946C324.711 18.8932 324.675 18.8453 324.632 18.8039L324.561 18.6737C324.532 18.6253 324.496 18.5814 324.454 18.5435C324.155 18.1267 323.826 17.7312 323.472 17.3599C323.208 17.0531 322.927 16.7607 322.631 16.484C319.542 13.6197 313.163 9.9623 304.013 16.0698C293.964 22.7927 293.1 33.4334 295.278 39.245Z" fill="#14142B"/>
<path d="M294.792 41.3045C294.685 44.1333 297.289 45.7549 299.526 46.6426C300.619 47.0544 301.749 47.3596 302.9 47.554C304.983 51.022 309.492 53.4721 309.492 53.4721C309.828 54.7578 310.03 56.0746 310.096 57.4017C310.217 60.6135 310.015 63.8294 309.492 67.0008L312.546 71.7353C325.27 77.5587 329.803 67.0008 329.803 67.0008C325.14 66.5037 323.649 62.5859 323.211 59.2955C323.031 57.7858 323.031 56.2601 323.211 54.7504C325.278 53.8802 327.108 52.5296 328.549 50.8109C329.99 49.0921 331 47.0545 331.496 44.8672C332.999 38.4993 331.768 32.5102 329.129 26.6276C328.068 24.2804 326.796 22.0341 325.329 19.9165L324.737 18.9578C324.71 18.9051 324.674 18.8571 324.631 18.8158C324.58 18.7236 324.521 18.6364 324.453 18.5554V18.4725C324.24 18.2003 323.933 17.8097 323.53 17.3836H323.459L307.492 15.3123L300.556 20.8516L298.13 34.5815L301.681 38.8071L303.16 40.5706L303.527 40.9967L303.065 40.6061C300.248 38.2389 296.65 37.0553 295.336 39.2923C294.996 39.9098 294.81 40.5999 294.792 41.3045V41.3045Z" fill="#FFD5BD"/>
<path d="M316.36 31.0542C316.561 31.8946 317.177 32.4746 317.721 32.3444C318.266 32.2142 318.562 31.4211 318.361 30.5689C318.159 29.7168 317.544 29.1486 316.988 29.2788C316.431 29.409 316.147 30.202 316.36 31.0542Z" fill="#14142B"/>
<path d="M325.449 28.6042C325.65 29.4564 326.265 30.0364 326.822 29.9062C327.378 29.776 327.662 28.9711 327.461 28.1307C327.26 27.2904 326.644 26.6986 326.088 26.8288C325.532 26.959 325.247 27.7757 325.449 28.6042Z" fill="#14142B"/>
<path d="M316.842 29.3382L319.031 28.1545C319.031 28.1545 318.652 30.3916 316.842 29.3382Z" fill="#14142B"/>
<path d="M325.922 26.959L328.111 25.7754C328.111 25.7754 327.697 28.0243 325.922 26.959Z" fill="#14142B"/>
<path d="M323.223 29.6104L325.307 37.1026C325.588 37.191 325.884 37.2217 326.177 37.1929C326.471 37.164 326.755 37.0762 327.014 36.9348C327.272 36.7933 327.5 36.601 327.682 36.3696C327.865 36.1381 327.999 35.8721 328.076 35.5876L323.223 29.6104Z" fill="#FF97B8"/>
<path d="M322.771 42.3106C322.771 42.3106 317.599 43.08 316.12 38.7598" stroke="#14142B" stroke-linecap="round" stroke-linejoin="round"/>
<path d="M316.287 25.1835C315.849 24.9541 315.369 24.8164 314.876 24.779C314.383 24.7415 313.888 24.8051 313.42 24.9657C312.952 25.1264 312.523 25.3808 312.157 25.7134C311.791 26.0459 311.497 26.4496 311.292 26.8998" stroke="#14142B" stroke-linecap="round" stroke-linejoin="round"/>
<path d="M323.495 22.0825C323.886 21.8216 324.327 21.6469 324.79 21.5701C325.254 21.4933 325.728 21.5162 326.181 21.6371C326.635 21.7581 327.058 21.9744 327.421 22.2717C327.785 22.5689 328.08 22.9402 328.289 23.3608" stroke="#14142B" stroke-linecap="round" stroke-linejoin="round"/>
<path d="M296.876 34.7709L303.007 40.5588H303.102C313.352 37.2447 311.292 18.3068 311.292 18.3068C314.192 20.1532 324.466 19.1353 324.738 18.9223C324.183 18.1013 323.544 17.3397 322.833 16.6497C322.383 16.2118 320.951 16.342 320.359 16.2946L316.583 15.9987L308.937 15.3833C308.712 15.3833 307.647 15.111 307.457 15.2649L300.521 20.8042L296.876 34.7709Z" fill="#14142B"/>
<path opacity="0.2" d="M317.991 55.5552C319.328 57.3033 321.165 58.6036 323.258 59.2836C323.078 57.7739 323.078 56.2482 323.258 54.7385C321.554 55.2786 319.778 55.554 317.991 55.5552Z" fill="#4E4B66"/>
<path opacity="0.3" d="M343.477 207.662L342.163 173.87L340.861 190.582L343.477 207.662Z" fill="#4E4B66"/>
<path opacity="0.1" d="M309.256 364.953V370.528H321.85L322.193 365.568L309.256 364.953Z" fill="#4E4B66"/>
<path d="M329.389 351.424L326.335 368.527H307.61L305.03 350.607L329.389 351.424Z" fill="#FF3951"/>
<path d="M463.875 380.965H454.136L454.204 358.438H463.93L463.875 380.965Z" fill="#FFD5BD"/>
<path d="M515.564 380.965H505.838L502.614 358.438H512.354L515.564 380.965Z" fill="#FFD5BD"/>
<path d="M505.227 379.849H516.11C516.299 379.845 516.483 379.91 516.626 380.033C516.769 380.156 516.862 380.329 516.885 380.516L518.164 389.154C518.189 389.373 518.167 389.594 518.101 389.804C518.034 390.013 517.924 390.207 517.778 390.371C517.631 390.535 517.452 390.667 517.251 390.757C517.051 390.848 516.833 390.895 516.613 390.895C512.791 390.827 510.954 390.596 506.152 390.596C503.187 390.596 497.079 390.909 492.998 390.909C488.918 390.909 488.673 386.828 490.373 386.501C497.991 384.869 500.983 382.597 503.554 380.448C504.018 380.047 504.615 379.834 505.227 379.849V379.849Z" fill="#14142B"/>
<path d="M454.257 379.849H464.881C465.072 379.847 465.258 379.912 465.406 380.035C465.553 380.157 465.651 380.328 465.684 380.516L467.139 389.154C467.174 389.359 467.165 389.569 467.114 389.77C467.063 389.972 466.971 390.161 466.843 390.324C466.715 390.488 466.554 390.624 466.371 390.722C466.188 390.82 465.986 390.879 465.779 390.895C461.957 390.827 456.42 390.596 451.605 390.596C445.973 390.596 441.09 390.909 434.492 390.909C430.493 390.909 429.568 386.828 431.255 386.501C438.94 384.842 445.171 384.665 451.931 380.598C452.627 380.148 453.43 379.89 454.257 379.849V379.849Z" fill="#14142B"/>
<path d="M461.699 73.1857L448.409 68.928C448.409 68.928 436.167 102.5 432.63 106.05C427.842 110.879 420.986 123.734 417.204 130.862C417.639 132.453 419.925 136.153 421.285 136.847C430.657 130.127 443.118 117.313 445.77 111.668C451.81 98.8407 461.699 73.1857 461.699 73.1857Z" fill="#FFD5BD"/>
<path d="M464.773 65.8674C469.235 74.0292 453.51 101.425 453.51 101.425L433.663 92.2299C433.663 92.2299 438.207 79.4295 443.498 68.4656C448.531 58.0322 459.822 56.8351 464.773 65.8674Z" fill="#3F80FD"/>
<path d="M418.049 129.502L408.038 135.582L415.451 145.757C418.543 142.623 421.14 139.036 423.15 135.12L418.049 129.502Z" fill="#FFD5BD"/>
<path d="M400.704 144.152L407.165 148.804L415.436 145.757L408.036 135.582L400.704 144.152Z" fill="#FFD5BD"/>
<path opacity="0.2" d="M454.204 358.438L454.176 370.055H463.903L463.943 358.438H454.204Z" fill="#14142B"/>
<path opacity="0.2" d="M512.354 358.438H502.614L504.274 370.055H514.014L512.354 358.438Z" fill="#14142B"/>
<path d="M452.056 60.3446C452.056 60.3446 439.813 93.7941 449.417 148.519H501.462C502.019 140.52 497.952 97.4941 506.59 59.8548C500.854 58.7422 495.051 58.006 489.219 57.6512C481.848 57.2224 474.458 57.2224 467.087 57.6512C462.015 58.1645 456.99 59.0649 452.056 60.3446V60.3446Z" fill="#3F80FD"/>
<path d="M479.477 60.535C479.477 60.535 470.689 71.9887 472.539 148.519H462.881C462.881 148.519 459.222 83.007 470.009 59.8685C473.178 59.8244 476.345 60.0474 479.477 60.535V60.535Z" fill="#3F80FD"/>
<path opacity="0.2" d="M495.054 69.1457C494.034 75.335 495.626 90.1622 501.108 107.234C501.374 92.5608 502.936 77.9398 505.773 63.5413V63.4733C502.359 63.1741 496.02 63.3373 495.054 69.1457Z" fill="#14142B"/>
<path d="M486.836 36.9612C485.258 44.0755 484.347 52.9038 489.217 57.6512C489.217 57.6512 486.183 64.8743 472.893 64.8743C460.8 64.8743 467.03 57.6512 467.03 57.6512C475.015 55.7604 474.852 45.9391 473.601 40.4027L486.836 36.9612Z" fill="#FFD5BD"/>
<path d="M489.215 57.0391C484.885 60.918 479.621 63.6041 473.939 64.8335C476.265 66.4115 479.258 72.0703 479.258 72.0703C479.258 72.0703 490.494 67.7853 492.697 57.556C491.623 57.3247 489.215 57.0391 489.215 57.0391Z" fill="white"/>
<path d="M468.105 56.7671C468.105 56.7671 465.017 63.2557 470.676 64.7656C467.864 66.1812 465.507 68.359 463.874 71.0501C463.874 71.0501 459.875 63.0652 464.677 57.3112C465.711 57.0527 468.105 56.7671 468.105 56.7671Z" fill="white"/>
<path opacity="0.2" d="M473.643 40.4163C474.627 44.2663 474.509 48.315 473.303 52.1012C474.433 52.6386 475.697 52.828 476.935 52.6453C479.846 52.0604 481.601 50.7273 484.022 45.8439C484.226 44.5924 486.566 38.2127 486.824 37.0156L473.643 40.4163Z" fill="#14142B"/>
<path d="M462.992 29.6699C462.865 30.8549 462.978 32.0533 463.324 33.1937C463.67 34.3341 464.241 35.3933 465.005 36.3081C467.059 38.7295 469.943 37.3012 470.909 34.4037C471.793 31.8056 471.779 27.3982 468.964 26.0379C468.336 25.75 467.648 25.6204 466.96 25.6604C466.271 25.7004 465.602 25.9088 465.013 26.2674C464.423 26.6259 463.931 27.1236 463.578 27.7168C463.226 28.3101 463.025 28.9807 462.992 29.6699V29.6699Z" fill="#FFD5BD"/>
<path opacity="0.2" d="M462.992 29.6699C462.865 30.8549 462.978 32.0533 463.324 33.1937C463.67 34.3341 464.241 35.3933 465.005 36.3081C467.059 38.7295 469.943 37.3012 470.909 34.4037C471.793 31.8056 471.779 27.3982 468.964 26.0379C468.336 25.75 467.648 25.6204 466.96 25.6604C466.271 25.7004 465.602 25.9088 465.013 26.2674C464.423 26.6259 463.931 27.1236 463.578 27.7168C463.226 28.3101 463.025 28.9807 462.992 29.6699V29.6699Z" fill="#14142B"/>
<path d="M493.382 29.3164C489.41 38.2127 488.825 43.2049 482.962 47.0001C474.134 52.7542 463.619 45.9119 463.632 35.9818C463.632 27.0583 468.257 13.4554 478.269 11.4966C489.219 9.44254 498.429 17.958 493.382 29.3164Z" fill="#FFD5BD"/>
<path d="M494.89 37.6278C493.413 39.4149 491.392 40.671 489.136 41.2054C486.415 41.7767 485.939 39.1242 487.517 36.5124C488.946 34.1591 491.462 29.5885 494.496 31.6562C496.509 33.0845 496.835 35.397 494.89 37.6278Z" fill="#FFD5BD"/>
<path d="M462.76 36.0362C462.461 42.0487 456.448 49.6391 467.235 51.3667C472.866 52.2538 478.625 51.0176 483.396 47.8979C488.116 44.9733 489.517 36.7299 493.176 31.2072C493.339 31.0031 493.258 30.7583 493.067 30.5134C492.847 30.2627 492.57 30.0689 492.259 29.9486C491.948 29.8283 491.612 29.785 491.281 29.8224C490.95 29.8598 490.632 29.9768 490.356 30.1635C490.079 30.3501 489.852 30.6009 489.694 30.8943C488.47 33.03 486.184 36.145 483.11 36.3355C478.403 36.7027 463.059 29.8877 462.76 36.0362Z" fill="#14142B"/>
<path d="M483.625 148.519C483.625 148.519 482.265 160.761 480.673 177.343C478.769 196.129 476.415 220.532 474.919 239.127C474.927 239.209 474.927 239.291 474.919 239.372C474.633 242.909 474.389 246.174 474.171 249.248C472.063 279.569 467.152 367.811 467.152 367.811H450.665C450.665 367.811 444.272 277.76 444.571 246.895C444.843 217.186 449.455 148.519 449.455 148.519H483.625Z" fill="#4E4B66"/>
<path d="M468.501 362.016C468.582 362.016 468.256 368.151 468.256 368.151H449.212L448.695 361.254L468.501 362.016Z" fill="#3F80FD"/>
<path opacity="0.2" d="M480.674 177.343C478.769 196.129 476.416 220.532 474.92 239.127C474.927 239.209 474.927 239.291 474.92 239.372C471.261 221.756 467.914 205.705 471.505 179.519L480.674 177.343Z" fill="#14142B"/>
<path d="M467.888 148.519C467.888 148.519 473.56 218.832 477.546 246.691C481.912 277.202 499.909 367.756 499.909 367.756H517.742C517.742 367.756 508.071 279.61 506.533 249.411C504.86 216.628 501.473 148.478 501.473 148.478L467.888 148.519Z" fill="#4E4B66"/>
<path d="M518.246 361.825C518.314 361.825 518.6 368.151 518.6 368.151H499.011L497.651 361.635L518.246 361.825Z" fill="#3F80FD"/>
<path d="M478.025 27.8473C477.834 28.6091 477.29 29.2076 476.787 29.0444C476.284 28.8811 476.039 28.2146 476.216 27.4528C476.392 26.6911 476.95 26.0925 477.453 26.2558C477.957 26.419 478.202 27.072 478.025 27.8473Z" fill="#14142B"/>
<path d="M469.427 25.9701C469.237 26.7455 468.693 27.3304 468.189 27.1672C467.686 27.0039 467.441 26.351 467.618 25.5756C467.795 24.8003 468.353 24.2153 468.856 24.3786C469.359 24.5418 469.604 25.1947 469.427 25.9701Z" fill="#14142B"/>
<path d="M472.062 26.9495C470.596 29.1038 468.849 31.0526 466.866 32.7443C467.298 33.2335 467.833 33.6204 468.433 33.8769C469.033 34.1334 469.683 34.253 470.335 34.227L472.062 26.9495Z" fill="#FF97B8"/>
<path d="M472.037 39.4913C472.007 39.4834 471.979 39.4698 471.955 39.4511C471.931 39.4324 471.911 39.4091 471.895 39.3826C471.88 39.356 471.87 39.3267 471.867 39.2963C471.863 39.2659 471.865 39.2351 471.873 39.2056C471.892 39.1478 471.932 39.0991 471.985 39.0689C472.038 39.0387 472.1 39.0293 472.159 39.0424C473.106 39.2956 474.099 39.323 475.058 39.1221C476.017 38.9213 476.916 38.4979 477.682 37.8862C477.702 37.8652 477.726 37.8485 477.753 37.8371C477.78 37.8257 477.809 37.8198 477.838 37.8198C477.867 37.8198 477.896 37.8257 477.923 37.8371C477.95 37.8485 477.974 37.8652 477.995 37.8862C478.018 37.9066 478.036 37.9317 478.049 37.9598C478.062 37.988 478.068 38.0185 478.068 38.0494C478.068 38.0803 478.062 38.1108 478.049 38.1389C478.036 38.1671 478.018 38.1922 477.995 38.2126C477.176 38.886 476.208 39.3536 475.171 39.576C474.134 39.7985 473.06 39.7694 472.037 39.4913V39.4913Z" fill="#FFD5BD"/>
<path d="M481.274 25.6027C481.206 25.5863 481.142 25.5544 481.088 25.5096C481.034 25.4648 480.99 25.4083 480.961 25.3443C480.749 24.8115 480.411 24.3385 479.974 23.9663C479.538 23.5941 479.018 23.334 478.458 23.2086C478.392 23.2058 478.328 23.1889 478.269 23.159C478.21 23.1291 478.158 23.087 478.117 23.0354C478.076 22.9839 478.046 22.9241 478.03 22.8602C478.014 22.7962 478.011 22.7294 478.023 22.6645C478.043 22.5428 478.11 22.4337 478.209 22.3602C478.308 22.2866 478.431 22.2543 478.554 22.27C479.273 22.4161 479.944 22.7422 480.503 23.218C481.062 23.6938 481.491 24.3037 481.75 24.9906C481.797 25.1028 481.799 25.2288 481.756 25.3427C481.713 25.4565 481.628 25.5496 481.519 25.6027C481.438 25.6204 481.355 25.6204 481.274 25.6027V25.6027Z" fill="#14142B"/>
<path d="M466.282 22.0525C466.218 22.0264 466.158 21.9896 466.106 21.9437C466.019 21.857 465.971 21.7396 465.971 21.6172C465.971 21.4948 466.019 21.3775 466.106 21.2908C466.583 20.7335 467.186 20.2974 467.864 20.0184C468.543 19.7393 469.278 19.6253 470.01 19.6856C470.13 19.7056 470.238 19.7727 470.31 19.8722C470.381 19.9716 470.41 20.0953 470.39 20.2161C470.367 20.3363 470.3 20.4434 470.202 20.5164C470.104 20.5894 469.982 20.623 469.86 20.6106C469.28 20.566 468.697 20.6598 468.16 20.8845C467.623 21.1092 467.148 21.4583 466.772 21.9029C466.712 21.9706 466.635 22.0204 466.548 22.0468C466.462 22.0732 466.37 22.0752 466.282 22.0525Z" fill="#14142B"/>
<path d="M512.218 72.5872L499.309 78.5588C499.309 78.5588 511.756 110.281 509.634 114.756C506.736 120.864 504.465 134.426 499.745 140.983C499.989 142.574 501.894 146.424 503.159 147.226C513.483 141.663 523.672 121.381 524.23 115.287C525.508 101.398 512.218 72.5872 512.218 72.5872Z" fill="#FFD5BD"/>
<path d="M506.588 59.8549C515.757 61.2152 525.523 93.0868 525.523 93.0868L503.201 102.922C503.201 102.922 497.76 88.8427 493.842 77.5659C489.734 65.7722 496.74 58.413 506.588 59.8549Z" fill="#3F80FD"/>
<path d="M501.881 381.55C501.229 381.601 500.58 381.423 500.045 381.046C499.88 380.896 499.759 380.705 499.692 380.492C499.625 380.28 499.615 380.053 499.664 379.836C499.669 379.697 499.712 379.563 499.789 379.448C499.866 379.332 499.973 379.241 500.099 379.183C501.215 378.625 504.18 380.543 504.547 380.774C504.584 380.8 504.612 380.835 504.629 380.876C504.646 380.917 504.651 380.962 504.643 381.006C504.63 381.051 504.606 381.093 504.573 381.126C504.539 381.159 504.498 381.184 504.452 381.196C503.611 381.409 502.749 381.527 501.881 381.55V381.55ZM500.589 379.536C500.486 379.514 500.379 379.514 500.276 379.536C500.228 379.564 500.188 379.604 500.159 379.651C500.131 379.699 500.115 379.753 500.113 379.808C500.082 379.957 500.09 380.112 500.135 380.257C500.18 380.402 500.262 380.533 500.371 380.638C501.451 381.147 502.687 381.21 503.813 380.815C502.837 380.174 501.739 379.739 500.589 379.536V379.536Z" fill="white"/>
<path d="M504.398 381.196C504.363 381.209 504.324 381.209 504.289 381.196C503.323 380.652 501.568 378.476 501.827 377.442C501.871 377.269 501.971 377.116 502.111 377.005C502.251 376.895 502.424 376.833 502.602 376.83C502.775 376.806 502.951 376.821 503.118 376.872C503.285 376.924 503.439 377.012 503.568 377.129C504.629 378.054 504.643 380.856 504.643 380.978C504.642 381.022 504.631 381.065 504.609 381.103C504.588 381.141 504.557 381.173 504.52 381.196H504.398ZM502.725 377.251H502.629C502.316 377.251 502.289 377.428 502.276 377.483C502.099 378.122 503.214 379.741 504.166 380.489C504.183 379.402 503.859 378.336 503.241 377.442C503.1 377.315 502.915 377.247 502.725 377.251V377.251Z" fill="white"/>
<path d="M450.136 381.55C449.311 381.627 448.484 381.416 447.797 380.951C447.644 380.809 447.53 380.632 447.463 380.435C447.397 380.238 447.38 380.027 447.416 379.822C447.428 379.694 447.471 379.571 447.543 379.465C447.614 379.358 447.71 379.27 447.824 379.21C449.034 378.543 452.857 380.57 453.265 380.761C453.305 380.787 453.337 380.823 453.356 380.867C453.375 380.91 453.381 380.959 453.374 381.006C453.366 381.053 453.343 381.097 453.309 381.131C453.275 381.166 453.231 381.188 453.183 381.196C452.181 381.407 451.161 381.525 450.136 381.55ZM448.463 379.536C448.314 379.531 448.165 379.558 448.028 379.618C447.984 379.642 447.946 379.677 447.92 379.72C447.894 379.763 447.879 379.813 447.878 379.863C447.851 379.996 447.859 380.134 447.902 380.263C447.945 380.392 448.021 380.507 448.123 380.597C448.694 381.142 450.286 381.223 452.449 380.869C451.208 380.196 449.859 379.745 448.463 379.536V379.536Z" fill="white"/>
<path d="M453.156 381.196H453.074C451.918 380.666 449.687 378.571 449.918 377.469C449.918 377.21 450.163 376.884 450.802 376.816C451.029 376.792 451.258 376.815 451.476 376.883C451.693 376.95 451.895 377.062 452.067 377.21C453.251 378.231 453.428 380.856 453.428 380.965C453.428 381.005 453.418 381.045 453.399 381.081C453.38 381.116 453.352 381.146 453.319 381.169C453.27 381.198 453.212 381.207 453.156 381.196V381.196ZM450.966 377.251H450.83C450.408 377.251 450.381 377.455 450.367 377.51C450.231 378.176 451.727 379.822 452.897 380.543C452.848 379.449 452.447 378.399 451.755 377.551C451.539 377.355 451.257 377.248 450.966 377.251Z" fill="white"/>
<path d="M500.902 140.806L491.72 142.166L498.522 151.13C498.522 151.13 506.506 149.688 506.615 143.309L500.902 140.806Z" fill="#FFD5BD"/>
<path d="M485.299 148.396L491.829 156.191L498.494 151.117L491.72 142.152L485.299 148.396Z" fill="#FFD5BD"/>
<path d="M824.006 265.095C832.753 216.274 836.398 157.414 836.398 157.414L789.781 156.68C789.781 156.68 793.767 236.012 795.699 269.244C797.698 303.782 799.099 370.273 799.099 370.273H815.178C815.178 370.273 828.862 307.808 824.006 265.095Z" fill="#6E7191"/>
<path opacity="0.2" d="M814.599 170.705C814.599 170.705 820.924 218.097 826.12 252.839C830.732 223.633 833.656 192.986 835.18 174.5L814.599 170.705Z" fill="#14142B"/>
<path d="M777.5 386.596C777.5 386.596 799.088 381.522 800.04 374.163L813.806 375.945L815.316 390.282H809.63L808.719 388.501L806.815 390.282C787.498 390.282 780.343 390.078 776.766 388.922C776.653 388.505 776.662 388.064 776.792 387.651C776.922 387.239 777.168 386.873 777.5 386.596V386.596Z" fill="#14142B"/>
<path d="M815.765 378.543C810.596 378.842 800.272 378.081 798.258 377.088C796.245 376.095 797.442 368.083 797.442 368.083C797.442 368.083 815.493 366.287 817.085 367.28C818.676 368.273 815.765 378.543 815.765 378.543Z" fill="#3FCFFD"/>
<path d="M867.293 263.708C859.336 214.615 859.594 181.818 851.636 157.605L806.135 156.979C806.135 156.979 828.199 234.883 838.183 267.312C848.168 299.742 866.45 370.273 866.45 370.273H881.25C881.25 370.273 880.597 301.687 867.293 263.708Z" fill="#6E7191"/>
<path d="M850.942 386.596C850.942 386.596 867.266 381.522 868.177 374.163L881.943 375.945L883.439 390.282H879.889L878.978 388.501L877.073 390.282C857.757 390.282 853.785 390.078 850.208 388.922C850.094 388.505 850.104 388.064 850.234 387.651C850.364 387.239 850.61 386.873 850.942 386.596V386.596Z" fill="#14142B"/>
<path d="M883.438 378.189C880.268 378.842 868.257 378.081 866.107 377.088C863.958 376.095 864.625 367.688 864.625 367.688C864.625 367.688 880.948 365.743 882.703 366.736C884.458 367.729 883.438 378.189 883.438 378.189Z" fill="#3FCFFD"/>
<path d="M802.421 88.3913L800.905 83.4687L799.422 78.3676C798.43 74.9651 797.525 71.6006 796.67 68.258C796.254 66.5922 795.864 64.9372 795.524 63.304C795.183 61.6708 794.855 60.0431 794.637 58.5375C794.419 57.032 794.223 55.4767 794.104 54.1183C794.019 53.067 794.009 52.011 794.074 50.9583L793.453 52.7205C793.237 52.9084 793.486 52.3046 793.943 51.5987C794.598 50.7647 795.324 49.9893 796.114 49.2812C798.078 47.5123 800.154 45.8707 802.328 44.3664C804.544 42.6923 807.01 41.1271 809.468 39.5439L816.885 34.7984L817.056 34.6799C818.08 33.9945 818.842 32.9814 819.216 31.8066C819.589 30.6318 819.553 29.365 819.112 28.2136C818.672 27.0622 817.854 26.0944 816.791 25.4688C815.729 24.8432 814.486 24.597 813.265 24.7702C810.087 25.3146 806.942 26.0367 803.844 26.9331C800.717 27.8293 797.641 28.8934 794.628 30.121C791.425 31.4179 788.337 32.9839 785.398 34.802C783.71 35.8474 782.117 37.0387 780.636 38.3623C778.643 40.0979 776.993 42.1917 775.772 44.5351C775.571 44.8915 775.407 45.2674 775.282 45.6569L775.113 46.2809C774.434 48.8389 774.053 51.4669 773.977 54.1125C773.896 56.3222 773.945 58.5347 774.125 60.7385C774.437 64.7991 774.998 68.8367 775.805 72.8286C776.555 76.7188 777.5 80.5015 778.527 84.2311C779.063 86.0979 779.585 87.9592 780.192 89.7979C780.799 91.6366 781.39 93.4091 782.127 95.3934C783.094 98.0258 785.052 100.176 787.582 101.387C790.112 102.597 793.015 102.772 795.672 101.873C798.329 100.975 800.53 99.0744 801.807 96.5769C803.083 94.0795 803.334 91.1823 802.506 88.5027L802.421 88.3913Z" fill="#FFD5BD"/>
<path d="M808.656 29.1697L813.568 18.1638L824.591 27.5224C824.591 27.5224 818.988 36.9498 813.434 34.7459L808.656 29.1697Z" fill="#FFD5BD"/>
<path d="M825.24 13.5996L828.538 17.5345C829.177 18.2918 829.527 19.2519 829.523 20.243C829.52 21.2342 829.164 22.1919 828.52 22.9448L824.59 27.5219L813.567 18.1634L819.277 13.1468C819.696 12.7802 820.184 12.5007 820.712 12.3247C821.24 12.1488 821.798 12.0799 822.353 12.122C822.909 12.1642 823.45 12.3166 823.945 12.5702C824.441 12.8239 824.881 13.1739 825.24 13.5996Z" fill="#FFD5BD"/>
<path d="M804.779 101.475C800.031 104.157 794.465 105.007 789.133 103.864C783.801 102.722 779.072 99.6655 775.84 95.2736C774.897 94.045 774.135 92.6874 773.578 91.2423C771.339 85.0535 772.413 72.6077 772.431 64.1395C779.619 56.488 791.249 56.0321 795.967 59.7413C802.092 70.6266 809.978 89.0655 808.895 96.3706C808.577 98.5922 806.959 100.156 804.779 101.475Z" fill="#29C6F9"/>
<path d="M844.633 59.6642C830.709 58.1285 816.664 58.0373 802.722 59.3921C796.985 59.9983 791.677 62.7111 787.825 67.0055C783.972 71.2999 781.85 76.8706 781.869 82.6395C781.937 104.078 785.378 127.76 788.942 160.693C799.09 171.181 853.529 160.271 853.529 160.271C852.957 148.32 851.484 136.429 849.121 124.7C850.971 111.097 855.678 95.5894 858.331 77.5656C858.63 75.4874 858.512 73.3703 857.983 71.3384C857.453 69.3066 856.523 67.401 855.247 65.7335C853.971 64.066 852.375 62.6701 850.552 61.6279C848.729 60.5857 846.717 59.918 844.633 59.6642Z" fill="#3FCFFD"/>
<g opacity="0.2">
<path opacity="0.2" d="M848.523 133.514C850.859 133.39 853.089 132.496 854.862 130.97C855.764 130.202 856.478 129.237 856.95 128.15C857.421 127.063 857.638 125.883 857.583 124.7C857.558 124.421 857.517 124.144 857.46 123.87C859.475 121.631 860.682 118.781 860.888 115.776C860.892 115.681 860.859 115.588 860.795 115.517C860.732 115.446 860.643 115.402 860.548 115.395C860.454 115.395 860.363 115.429 860.292 115.492C860.222 115.555 860.178 115.641 860.167 115.735C859.984 118.443 858.94 121.022 857.188 123.094C857.005 122.692 856.735 122.335 856.399 122.047C855.946 121.708 855.427 121.467 854.876 121.34C851.951 120.523 848.074 121.217 846.51 124.06C846.176 124.536 846.012 125.111 846.047 125.692C846.081 126.272 846.312 126.824 846.701 127.257C847.071 127.534 847.507 127.712 847.966 127.774C849.829 128.047 851.73 127.733 853.407 126.876C854.677 126.267 855.836 125.449 856.835 124.455C856.84 124.536 856.84 124.618 856.835 124.7C856.881 125.768 856.687 126.833 856.268 127.817C855.849 128.801 855.216 129.678 854.413 130.386C852.758 131.807 850.676 132.635 848.496 132.739C848.401 132.746 848.313 132.789 848.249 132.861C848.186 132.932 848.152 133.025 848.156 133.12C848.152 133.17 848.159 133.221 848.176 133.269C848.193 133.316 848.219 133.36 848.254 133.397C848.288 133.434 848.33 133.464 848.376 133.484C848.423 133.504 848.473 133.514 848.523 133.514V133.514ZM856.685 123.679C855.668 124.759 854.46 125.64 853.121 126.277C851.58 127.07 849.831 127.365 848.115 127.121C847.78 127.082 847.461 126.955 847.19 126.754C846.605 126.264 846.741 125.23 847.19 124.468C848.551 121.925 852.142 121.312 854.74 122.033C855.192 122.135 855.618 122.33 855.991 122.605C856.293 122.902 856.514 123.272 856.631 123.679H856.685Z" fill="white"/>
</g>
<path d="M832.008 33.7097C831.553 42.2744 833.041 50.8311 836.361 58.739C831.968 62.8199 824.826 67.9074 815.318 67.7714C805.809 67.6353 807.387 62.7655 809.876 59.4464C816.678 56.0185 817.127 50.9718 815.454 47.9111L832.008 33.7097Z" fill="#FFD5BD"/>
<path opacity="0.2" d="M815.507 47.9249L823.043 43.2183C826.512 43.7624 828.185 48.1833 823.873 51.516C820.935 53.7877 816.296 54.6855 815.711 54.0734C816.163 53.1046 816.379 52.043 816.344 50.9747C816.309 49.9065 816.022 48.8616 815.507 47.9249V47.9249Z" fill="#14142B"/>
<path d="M812.54 15.033C802.854 13.0062 804.473 25.0311 806.99 31.2749C813.342 21.9977 812.54 15.033 812.54 15.033Z" fill="#14142B"/>
<path d="M837.355 27.8197C835.478 38.4844 834.893 44.0071 828.037 47.6391C810.938 56.6714 807.061 50.4549 805.701 39.4774C804.49 29.5473 807.755 13.7679 818.76 10.7753C821.188 10.1273 823.741 10.1016 826.182 10.7005C828.624 11.2995 830.875 12.5038 832.728 14.2022C834.581 15.9007 835.976 18.0386 836.784 20.4186C837.593 22.7985 837.789 25.3439 837.355 27.8197Z" fill="#FFD5BD"/>
<path d="M834.156 36.6073C824.865 38.5117 834.809 28.7312 832.66 24.7592C830.51 20.7871 818.825 23.7389 822.172 17.2504C813.099 19.5492 804.692 20.379 802.856 14.2577C800.135 5.36143 808.814 3.66108 813.928 6.23203C818.213 8.39489 818.173 9.10224 824.579 6.95298C830.986 4.80372 846.902 6.05517 842.835 13.3599C850.071 13.6592 850.071 22.882 844.086 25.5073C838.101 28.1327 841.161 35.1654 834.156 36.6073Z" fill="#14142B"/>
<path d="M836.101 31.6422C836.178 31.64 836.252 31.6139 836.313 31.5675C836.373 31.5212 836.418 31.4569 836.441 31.3838C836.456 31.3391 836.462 31.292 836.458 31.2451C836.454 31.1982 836.441 31.1526 836.42 31.1108C836.398 31.069 836.369 31.0319 836.333 31.0017C836.296 30.9715 836.255 30.9488 836.21 30.9349L821.736 26.4459C821.646 26.4198 821.549 26.4292 821.466 26.4722C821.382 26.5152 821.319 26.5885 821.287 26.6772C821.273 26.7218 821.267 26.769 821.271 26.8158C821.274 26.8627 821.287 26.9084 821.309 26.9502C821.33 26.992 821.36 27.0291 821.396 27.0593C821.432 27.0895 821.474 27.1122 821.519 27.1261L835.992 31.615L836.101 31.6422Z" fill="white"/>
<path d="M841.19 13.8631C844.686 11.0473 849.352 10.3536 849.352 12.0132C849.352 13.6727 842.822 13.3734 842.196 14.4889C841.571 15.6043 841.19 13.8631 841.19 13.8631Z" fill="#14142B"/>
<path d="M811.074 39.3279C815.234 38.7012 819.435 38.3784 823.643 38.3621C822.582 40.4841 820.568 42.2525 815.821 42.3749C811.074 42.4973 811.074 39.3279 811.074 39.3279Z" fill="white"/>
<path d="M840.579 36.0632C839.496 38.3187 837.601 40.0822 835.274 41.001C832.308 42.0757 830.893 39.151 831.764 35.9543C832.567 33.0841 835.056 29.0577 838.008 29.3841C840.96 29.7106 841.98 33.1794 840.579 36.0632Z" fill="#FFD5BD"/>
<path d="M819.248 27.9966C819.112 28.9079 818.513 29.5609 817.887 29.4657C817.262 29.3704 816.922 28.5543 817.058 27.6429C817.194 26.7315 817.792 26.0786 818.418 26.1738C819.044 26.269 819.384 27.0852 819.248 27.9966Z" fill="#14142B"/>
<path d="M809.384 27.7789C809.248 28.6903 808.663 29.3568 808.024 29.2616C807.384 29.1664 807.058 28.3502 807.194 27.4388C807.33 26.5274 807.928 25.8609 808.554 25.9561C809.18 26.0513 809.533 26.8675 809.384 27.7789Z" fill="#14142B"/>
<path d="M822.95 25.684C823.043 25.6728 823.131 25.6402 823.209 25.5888C823.327 25.5086 823.409 25.3853 823.437 25.2454C823.465 25.1054 823.437 24.9601 823.358 24.8407C822.89 24.1125 822.254 23.5068 821.504 23.0738C820.754 22.6409 819.911 22.3932 819.046 22.3513C818.902 22.3513 818.764 22.4086 818.662 22.5107C818.559 22.6127 818.502 22.7511 818.502 22.8954C818.502 23.0398 818.559 23.1781 818.662 23.2802C818.764 23.3822 818.902 23.4396 819.046 23.4396C819.728 23.4836 820.39 23.6876 820.979 24.035C821.567 24.3824 822.065 24.8634 822.433 25.4392C822.486 25.5263 822.563 25.5961 822.655 25.6396C822.747 25.6832 822.85 25.6986 822.95 25.684Z" fill="#14142B"/>
<path d="M806.638 22.6778C806.725 22.6949 806.816 22.6902 806.901 22.6642C806.987 22.6381 807.064 22.5913 807.127 22.5281C807.585 22.026 808.155 21.6405 808.792 21.4039C809.428 21.1673 810.112 21.0863 810.787 21.1678C810.857 21.1816 810.93 21.1813 811 21.1668C811.071 21.1523 811.138 21.1241 811.197 21.0836C811.257 21.0431 811.307 20.9912 811.347 20.931C811.386 20.8707 811.413 20.8033 811.426 20.7326C811.45 20.592 811.418 20.4477 811.336 20.3307C811.255 20.2137 811.131 20.1333 810.991 20.1068C810.141 19.9853 809.274 20.073 808.466 20.3622C807.658 20.6514 806.932 21.1334 806.352 21.7664C806.252 21.8681 806.196 22.0048 806.196 22.1473C806.196 22.2897 806.252 22.4264 806.352 22.5281C806.428 22.608 806.529 22.6606 806.638 22.6778V22.6778Z" fill="#14142B"/>
<path d="M808.285 34.2538C808.625 34.2444 808.96 34.1632 809.267 34.0155C809.574 33.8678 809.847 33.657 810.067 33.3968C811.362 31.5547 811.897 29.2846 811.563 27.0579C811.223 23.0586 809.291 19.9299 807.142 19.9299C806.801 19.9367 806.465 20.0168 806.158 20.1646C805.85 20.3125 805.578 20.5247 805.36 20.7869C804.066 22.6243 803.53 24.8898 803.864 27.1123C804.204 31.1115 806.135 34.2538 808.285 34.2538ZM807.142 20.6509C808.856 20.6509 810.556 23.6163 810.842 27.1259C811.134 29.1599 810.648 31.2292 809.482 32.9207C809.325 33.1063 809.132 33.2576 808.914 33.3652C808.697 33.4729 808.459 33.5346 808.217 33.5464C806.503 33.5464 804.802 30.581 804.517 27.0715C804.217 25.0414 804.703 22.9736 805.877 21.2902C806.027 21.0957 806.219 20.9366 806.437 20.8238C806.656 20.711 806.896 20.6473 807.142 20.6373V20.6509Z" fill="white"/>
<path d="M812.201 27.8198C810.816 30.4994 809.062 32.9719 806.991 35.1654C807.57 35.688 808.255 36.08 808.999 36.3147C809.743 36.5494 810.529 36.6213 811.303 36.5257L812.201 27.8198Z" fill="#FF97B8"/>
<path d="M844.522 83.5236L848.086 87.2372L851.718 91.0732C854.112 93.6305 856.452 96.2287 858.71 98.7996C859.825 100.092 860.914 101.398 861.947 102.704C862.981 104.01 864.015 105.275 864.94 106.553C865.865 107.832 866.681 109.097 867.389 110.253C867.941 111.156 868.427 112.097 868.844 113.069L868.599 111.219C868.722 110.961 868.735 111.722 868.599 112.579C868.38 113.698 868.061 114.795 867.647 115.858C866.673 118.452 865.547 120.987 864.273 123.448C862.981 126.073 861.553 128.699 860.084 131.365L855.649 139.336L855.568 139.486C854.988 140.581 854.8 141.84 855.033 143.057C855.267 144.273 855.908 145.373 856.852 146.176C857.795 146.978 858.985 147.435 860.223 147.47C861.461 147.505 862.674 147.117 863.661 146.369C866.245 144.3 868.711 142.089 871.048 139.744C873.387 137.418 875.632 134.983 877.849 132.372C880.088 129.651 882.116 126.763 883.916 123.734C884.926 121.988 885.804 120.17 886.541 118.293C887.532 115.812 888.058 113.169 888.092 110.498C888.102 110.092 888.07 109.687 887.997 109.287L887.861 108.648C887.308 106.06 886.468 103.542 885.358 101.139C884.429 99.1309 883.384 97.1779 882.229 95.2901C880.132 91.8 877.815 88.4469 875.292 85.2512C872.884 82.1089 870.34 79.1571 867.742 76.2868C866.382 74.8585 865.13 73.4302 863.757 72.0563C862.383 70.6825 861.036 69.3358 859.512 67.9755C857.455 66.1198 854.762 65.129 851.992 65.2095C849.223 65.29 846.592 66.4356 844.646 68.4077C842.7 70.3798 841.59 73.0264 841.547 75.7965C841.503 78.5666 842.53 81.2467 844.413 83.2787L844.522 83.5236Z" fill="#FFD5BD"/>
<path d="M862.626 136.248L850.574 136.425L854.818 150.246C854.818 150.246 865.7 148.763 865.863 142.846L862.626 136.248Z" fill="#FFD5BD"/>
<path d="M841.801 145.335L844.113 149.919C844.554 150.808 845.298 151.511 846.21 151.9C847.123 152.289 848.145 152.339 849.092 152.041L854.846 150.246L850.602 136.425L843.8 139.69C843.293 139.923 842.837 140.256 842.461 140.668C842.084 141.08 841.794 141.564 841.608 142.09C841.421 142.616 841.342 143.175 841.375 143.732C841.409 144.29 841.553 144.835 841.801 145.335V145.335Z" fill="#FFD5BD"/>
<path d="M847.053 60.1538C853.025 61.5957 860.139 63.9626 866.533 71.0361C872.723 78.3531 878.113 86.3106 882.611 94.7732C875.81 106.553 864.819 107.914 861.867 107.138C851.515 100.174 845.231 96.6232 842.32 87.4004C839.409 78.1776 842.592 67.2953 847.053 60.1538Z" fill="#29C6F9"/>
<path d="M818.677 34.2538C819.02 34.2446 819.357 34.1635 819.666 34.0159C819.975 33.8683 820.25 33.6574 820.473 33.3968C821.768 31.5547 822.304 29.2846 821.969 27.0579C821.629 23.0586 819.698 19.9299 817.548 19.9299C817.205 19.9366 816.867 20.0165 816.558 20.1643C816.248 20.3121 815.974 20.5244 815.753 20.7869C814.455 22.6227 813.924 24.8913 814.27 27.1123C814.596 31.1115 816.596 34.2538 818.677 34.2538ZM817.548 20.6509C819.262 20.6509 820.949 23.6163 821.248 27.1259C821.54 29.1599 821.055 31.2292 819.888 32.9207C819.733 33.1082 819.54 33.2608 819.322 33.3686C819.104 33.4765 818.866 33.5371 818.623 33.5464C816.909 33.5464 815.222 30.581 814.923 27.0715C814.634 25.0419 815.12 22.9781 816.283 21.2902C816.441 21.0902 816.641 20.9278 816.869 20.8149C817.098 20.7019 817.348 20.6413 817.603 20.6373L817.548 20.6509Z" fill="white"/>
<path d="M811.206 27.4523C811.276 27.4523 811.344 27.4317 811.402 27.3929C811.46 27.3542 811.506 27.2991 811.533 27.2347C811.561 27.1617 811.604 27.0958 811.661 27.0417C811.717 26.9876 811.785 26.9467 811.859 26.9218C812.795 26.8074 813.743 26.978 814.58 27.4115C814.622 27.4319 814.669 27.4435 814.716 27.4457C814.764 27.4478 814.811 27.4404 814.855 27.4239C814.9 27.4074 814.94 27.3821 814.975 27.3496C815.009 27.3171 815.037 27.2781 815.056 27.2347C815.093 27.1478 815.096 27.0498 815.063 26.9611C815.03 26.8724 814.964 26.7999 814.879 26.7586C813.885 26.2518 812.756 26.0755 811.655 26.2553C811.33 26.3836 811.067 26.632 810.921 26.949C810.888 27.0359 810.89 27.1319 810.925 27.2177C810.96 27.3035 811.027 27.3727 811.111 27.4115C811.14 27.4303 811.172 27.4441 811.206 27.4523Z" fill="white"/>
<path d="M35.7186 41.1408C35.7186 41.1408 26.2304 37.0827 18.6252 41.9436C11.02 46.8045 17.2676 47.6658 8.91797 51.4757C0.568313 55.2856 9.89599 60.4822 8.91797 65.3869C7.75019 71.2258 -2.04461 73.7366 3.48777 80.5535C9.02015 87.3705 50.6809 90.8592 55.2206 82.3782C59.7604 73.8971 49.3817 73.9555 51.907 66.7445C54.4324 59.5334 55.7315 54.8915 48.7394 50.3809C41.7473 45.8703 43.6304 37.8126 35.7186 41.1408Z" fill="#14142B"/>
<path d="M64.8995 102.771C65.3083 105.135 65.8192 107.821 66.3593 110.332C66.8994 112.843 67.5271 115.441 68.2423 117.952C69.6264 122.969 71.328 127.894 73.3368 132.695C73.8185 133.907 74.3878 135.045 74.9133 136.213L75.0593 136.534V136.636C75.0593 136.636 75.0593 136.636 74.9863 136.636C74.7238 136.446 74.4054 136.348 74.0813 136.359C73.8331 136.359 73.9061 136.476 74.1542 136.359C74.5156 136.247 74.8632 136.096 75.1907 135.907C76.1444 135.35 77.0436 134.705 77.8766 133.98C81.7236 130.496 85.2733 126.697 88.4888 122.623L92.868 125.294C90.4248 130.506 87.287 135.362 83.5403 139.731C82.4583 140.95 81.2551 142.055 79.9494 143.03C79.1506 143.604 78.2945 144.093 77.3948 144.49C76.1665 145.04 74.8278 145.3 73.4828 145.249C71.7954 145.159 70.1869 144.506 68.9138 143.395C68.3717 142.929 67.8822 142.405 67.4541 141.833C67.2643 141.57 67.1037 141.322 66.9578 141.074C66.8118 140.826 66.7096 140.636 66.622 140.475C65.9506 139.206 65.1623 137.95 64.6222 136.666C62.1134 131.548 60.0335 126.231 58.4037 120.769C57.5717 118.069 56.8126 115.339 56.1996 112.58C55.5865 109.821 55.0172 107.121 54.623 104.114L64.8995 102.771Z" fill="#FFD5BD"/>
<path d="M60.912 91.3847C65.1306 92.173 69.1011 109.047 69.1011 109.047L58.1677 117.529C58.1677 117.529 46.1395 101.019 49.0444 96.2602C51.9493 91.5015 54.7666 90.2315 60.912 91.3847Z" fill="#FFC226"/>
<path opacity="0.2" d="M60.7815 95.2092L65.0439 112.2L58.8984 116.959L60.7815 95.2092Z" fill="#14142B"/>
<path d="M92.6326 120.127L100.851 118.74L96.0484 127.776C96.0484 127.776 89.5818 127.878 87.5527 124.214L88.0344 123.353C88.5155 122.509 89.1772 121.783 89.9722 121.225C90.7672 120.667 91.6757 120.292 92.6326 120.127V120.127Z" fill="#FFD5BD"/>
<path d="M107.95 121.163L105.103 129.279L96.0527 127.776L100.855 118.74L107.95 121.163Z" fill="#FFD5BD"/>
<path d="M81.0139 378.499L90.7357 375.828L85.2179 353.158L75.4961 355.83L81.0139 378.499Z" fill="#FFD5BD"/>
<path d="M90.7359 374.12L79.8755 377.273C79.6862 377.324 79.5222 377.443 79.4147 377.607C79.3071 377.772 79.2633 377.969 79.2916 378.163L80.547 387.112C80.5868 387.336 80.6738 387.55 80.8021 387.739C80.9304 387.928 81.0972 388.088 81.2915 388.208C81.4859 388.328 81.7034 388.405 81.9298 388.435C82.1562 388.465 82.3863 388.447 82.6052 388.382C86.3713 387.214 88.1376 386.469 92.9109 385.083C95.8303 384.221 104.384 382.076 108.442 380.893C112.5 379.711 111.552 375.638 109.756 375.769C101.698 376.339 95.699 375.653 92.5314 374.31C91.9741 374.036 91.338 373.969 90.7359 374.12Z" fill="#14142B"/>
<g opacity="0.2">
<path opacity="0.2" d="M85.2199 353.173L88.0517 364.851L78.3445 367.522L75.498 355.83L85.2199 353.173Z" fill="#14142B"/>
</g>
<path d="M60.9152 91.3847C60.9152 91.3847 65.8199 92.8445 59.9372 152.358L19.0648 154.927C18.7144 138.271 18.0867 128.024 8 94.421C13.6582 92.895 19.4198 91.7827 25.2394 91.0928C31.3833 90.2625 37.5785 89.8723 43.778 89.925C51.7773 90.1002 60.9152 91.3847 60.9152 91.3847Z" fill="#FFC226"/>
<path d="M25.7501 70.0581C27.2974 75.897 29.1513 86.8012 25.2246 91.049C25.2246 91.049 27.239 96.9902 38.3622 96.3041C50.5509 95.5304 43.807 89.8813 43.807 89.8813C37.063 88.7135 36.917 83.765 37.7783 79.0646L25.7501 70.0581Z" fill="#FFD5BD"/>
<path d="M25.2385 91.0928C31.3775 90.2624 37.5679 89.8721 43.7625 89.925H44.9887C46.6382 92.6401 47.2951 96.9317 44.142 103.471C44.142 103.471 27.4719 97.9535 22.8008 91.3702L25.2385 91.0928Z" fill="#FFD5BD"/>
<path opacity="0.2" d="M30.6395 73.7366L37.7338 79.05C37.5209 80.1475 37.3988 81.2606 37.3688 82.3782C34.8143 82.1738 30.7708 79.7507 30.3329 77.1085C30.0831 75.98 30.1903 74.8016 30.6395 73.7366V73.7366Z" fill="#14142B"/>
<path d="M18.6687 60.1319C21.5881 69.6932 22.5662 73.8096 28.6532 77.6487C37.7912 83.4146 48.9143 77.7801 48.9435 67.5328C48.9435 58.3219 44.2432 44.1771 33.8353 42.6006C31.5419 42.2296 29.1916 42.4514 27.0081 43.245C24.8246 44.0386 22.8804 45.3775 21.3604 47.1345C19.8404 48.8915 18.7952 51.0082 18.324 53.2831C17.8529 55.5581 17.9715 57.9158 18.6687 60.1319Z" fill="#FFD5BD"/>
<path d="M35.6892 42.0312C36.9008 46.6586 25.8652 62.9492 19.7052 67.4159C13.8663 61.0077 14.1874 52.7311 16.7127 48.5124C19.2381 44.2938 25.2376 39.754 35.6892 42.0312Z" fill="#14142B"/>
<path d="M36.481 42.1772C41.3711 43.564 46.4947 49.3591 43.7796 49.1256C41.0645 48.892 29.2699 43.6662 36.481 42.1772Z" fill="#14142B"/>
<path d="M59.9342 152.401C59.9342 152.401 71.4076 225.753 75.3051 256.218C79.3486 287.923 89.3039 361.61 89.3039 361.61L76.1664 365.405C76.1664 365.405 56.6498 293.193 50.8108 262.334C44.461 228.76 29.9805 154.314 29.9805 154.314L59.9342 152.401Z" fill="#FF3951"/>
<g opacity="0.2">
<path opacity="0.6" d="M59.9342 152.401C59.9342 152.401 71.4076 225.753 75.3051 256.218C79.3486 287.923 89.3039 361.61 89.3039 361.61L76.1664 365.405C76.1664 365.405 56.6498 293.193 50.8108 262.334C44.461 228.76 29.9805 154.314 29.9805 154.314L59.9342 152.401Z" fill="#14142B"/>
</g>
<path d="M75.2185 366.164L90.5603 361.698L90.2683 356.486L72.9121 360.88L75.2185 366.164Z" fill="#FFC226"/>
<path d="M51.2949 374.164L60.9875 376.864L63.5859 355.698H53.5137L51.2949 374.164Z" fill="#FFD5BD"/>
<path opacity="0.2" d="M52.2441 366.223L62.0389 368.354L63.5863 355.698H53.5141L52.2441 366.223Z" fill="#14142B"/>
<path d="M61.423 375.886L50.329 372.835C50.1359 372.783 49.9308 372.796 49.7459 372.873C49.561 372.949 49.4068 373.085 49.3072 373.259L45.8914 381.36C45.7875 381.56 45.7312 381.781 45.7268 382.006C45.7225 382.231 45.7702 382.454 45.8663 382.658C45.9624 382.861 46.1043 383.04 46.2809 383.179C46.4574 383.319 46.6639 383.416 46.8841 383.462C50.7815 384.455 51.8764 384.615 56.7665 385.958C59.7589 386.776 66.897 390.25 74.6335 390.25C78.7646 390.25 78.3267 385.871 76.5896 385.506C68.8092 383.813 64.7366 379.667 62.8681 376.908C62.5217 376.408 62.01 376.046 61.423 375.886V375.886Z" fill="#14142B"/>
<path d="M50.6529 152.912C50.6529 152.912 89.9489 236.847 86.4893 263.166C82.2707 295.207 64.243 362.705 64.243 362.705L50.507 359.99C50.507 359.99 57.8056 292.229 60.6375 260.845C63.7613 226.643 21.4291 200.105 18.7578 154.956L50.6529 152.912Z" fill="#FF3951"/>
<path d="M49.1934 363.157L65.2358 366.69L66.7685 361.216L49.4561 357.362L49.1934 363.157Z" fill="#FFC226"/>
<path d="M64.723 378.528C65.5567 378.839 66.4686 378.869 67.3213 378.616C67.5319 378.534 67.7206 378.404 67.8725 378.237C68.0245 378.07 68.1356 377.87 68.1971 377.653C68.245 377.534 68.2568 377.405 68.2308 377.28C68.2048 377.155 68.1422 377.041 68.0511 376.952C67.1315 375.988 62.4604 376.82 61.9349 376.952C61.8839 376.964 61.8371 376.99 61.7987 377.025C61.7604 377.061 61.7319 377.106 61.7159 377.156C61.704 377.201 61.7075 377.248 61.7261 377.291C61.7447 377.333 61.7771 377.368 61.8181 377.39C62.7459 377.865 63.719 378.247 64.723 378.528V378.528ZM67.2775 377.069C67.4224 377.099 67.5577 377.164 67.6716 377.258C67.6972 377.303 67.7107 377.353 67.7107 377.404C67.7107 377.456 67.6972 377.506 67.6716 377.55C67.6299 377.691 67.557 377.82 67.4585 377.929C67.3599 378.038 67.2382 378.123 67.1023 378.178C66.2994 378.528 64.6646 378.178 62.6501 377.229C64.1743 376.928 65.7374 376.879 67.2775 377.083V377.069Z" fill="#FFC226"/>
<path d="M61.8635 377.361H61.9657C63.3379 377.171 66.4763 375.799 66.7536 374.689C66.7536 374.427 66.7536 374.062 66.1551 373.813C65.6862 373.628 65.1643 373.628 64.6954 373.813C63.4384 374.58 62.4257 375.689 61.7759 377.01C61.7539 377.045 61.7422 377.086 61.7422 377.127C61.7422 377.168 61.7539 377.209 61.7759 377.244L61.8635 377.361ZM65.7756 374.222H65.9216C66.3157 374.383 66.2719 374.543 66.2573 374.602C66.0967 375.273 63.878 376.426 62.4036 376.777C62.9704 375.715 63.8255 374.834 64.8706 374.237C65.1692 374.155 65.4862 374.17 65.7756 374.281V374.222Z" fill="#FFC226"/>
<path d="M34.7549 59.0516C34.9447 59.8545 35.514 60.3946 36.0249 60.2632C36.5358 60.1318 36.8131 59.4019 36.6234 58.6137C36.4336 57.8254 35.8789 57.2853 35.3534 57.4021C34.8279 57.5189 34.5652 58.2633 34.7549 59.0516Z" fill="#14142B"/>
<path d="M43.6885 56.9496C43.8783 57.7378 44.4476 58.2779 44.9731 58.1611C45.4986 58.0444 45.7468 57.2999 45.5716 56.5116C45.3964 55.7234 44.8125 55.1687 44.287 55.3C43.7615 55.4314 43.5134 56.1613 43.6885 56.9496Z" fill="#14142B"/>
<path d="M44.082 55.4022L45.8483 54.395C45.8483 54.395 45.2206 56.0591 44.082 55.4022Z" fill="#14142B"/>
<path d="M41.2949 58.9788C42.4208 60.6152 43.7667 62.0888 45.2946 63.358C44.9623 63.7425 44.5494 64.0491 44.0851 64.256C43.6209 64.4629 43.1168 64.565 42.6087 64.5549L41.2949 58.9788Z" fill="#FF97B8"/>
<path d="M39.0043 68.7151C39.4078 68.6843 39.8081 68.6208 40.2013 68.5254C40.2622 68.5082 40.3143 68.4684 40.3468 68.4142C40.3794 68.3599 40.39 68.2952 40.3765 68.2334C40.3593 68.1725 40.3195 68.1204 40.2653 68.0879C40.211 68.0553 40.1463 68.0447 40.0845 68.0583C39.1071 68.3124 38.0836 68.3325 37.097 68.1169C36.1103 67.9014 35.1885 67.4561 34.4062 66.8175C34.3604 66.7754 34.3005 66.7521 34.2383 66.7521C34.1761 66.7521 34.1162 66.7754 34.0704 66.8175C34.0241 66.864 33.998 66.927 33.998 66.9927C33.998 67.0583 34.0241 67.1213 34.0704 67.1678C35.4457 68.3158 37.2198 68.8721 39.0043 68.7151Z" fill="#14142B"/>
<path d="M18.1266 69.6493C19.2031 71.2549 20.8725 72.3678 22.7686 72.744C25.2939 73.2257 26.3303 70.9339 25.4545 68.6713C24.6662 66.6277 22.4036 63.9272 19.9659 64.4673C19.4354 64.5959 18.9454 64.8546 18.54 65.2201C18.1347 65.5856 17.8268 66.0463 17.6443 66.5607C17.4617 67.0751 17.4102 67.6268 17.4944 68.1661C17.5786 68.7054 17.7959 69.2151 18.1266 69.6493Z" fill="#FFD5BD"/>
<path d="M30.7406 58.0883C30.8411 58.0812 30.9366 58.0419 31.0128 57.9761C31.0891 57.9103 31.1421 57.8217 31.1639 57.7233C31.4445 56.996 31.8718 56.3342 32.4193 55.7792C32.9668 55.2241 33.6227 54.7878 34.3461 54.4973C34.4641 54.4488 34.558 54.3555 34.6073 54.2378C34.6565 54.1201 34.6571 53.9877 34.6089 53.8697C34.5864 53.8118 34.5526 53.7589 34.5094 53.7143C34.4662 53.6696 34.4146 53.634 34.3575 53.6095C34.3004 53.5851 34.239 53.5722 34.1769 53.5718C34.1148 53.5713 34.0532 53.5833 33.9958 53.6069C33.1286 53.9473 32.3448 54.4702 31.6975 55.1401C31.0502 55.8101 30.5546 56.6114 30.2443 57.4898C30.2269 57.5512 30.2222 57.6155 30.2306 57.6787C30.239 57.742 30.2603 57.8028 30.2931 57.8575C30.326 57.9122 30.3696 57.9596 30.4215 57.9968C30.4733 58.034 30.5323 58.0602 30.5946 58.0737L30.7406 58.0883Z" fill="#14142B"/>
<path d="M45.4102 52.1909C45.4919 52.181 45.5701 52.1521 45.6385 52.1064C45.707 52.0608 45.7638 51.9997 45.8043 51.9281C45.8562 51.8133 45.8624 51.683 45.8218 51.5637C45.7811 51.4444 45.6966 51.3451 45.5854 51.2858C44.9099 50.9316 44.1585 50.7466 43.3958 50.7466C42.633 50.7466 41.8817 50.9316 41.2062 51.2858C41.1534 51.3174 41.1073 51.359 41.0706 51.4084C41.034 51.4578 41.0074 51.5139 40.9925 51.5736C40.9776 51.6333 40.9746 51.6953 40.9837 51.7562C40.9928 51.817 41.0139 51.8754 41.0456 51.9281C41.1097 52.0382 41.2148 52.1185 41.3379 52.1513C41.461 52.1842 41.5921 52.1669 41.7025 52.1033V52.1033C42.236 51.8315 42.8263 51.6899 43.425 51.6899C44.0237 51.6899 44.6139 51.8315 45.1475 52.1033C45.2282 52.15 45.3176 52.1798 45.4102 52.1909V52.1909Z" fill="#14142B"/>
<path d="M14.2501 108.04C13.3596 113.383 12.4838 118.857 11.6663 124.272C10.8489 129.688 10.119 135.118 9.69571 140.49L9.54973 142.417C9.50925 142.839 9.50925 143.265 9.54973 143.687C9.70494 144.867 9.92915 146.037 10.2212 147.19C10.8635 149.657 11.6809 152.226 12.5714 154.781C14.3085 159.919 16.3667 165.072 18.4103 170.21L13.9143 172.604C10.764 167.857 7.91202 162.918 5.3749 157.817C4.06759 155.195 2.9125 152.5 1.91534 149.745C1.36733 148.242 0.933057 146.7 0.616183 145.132C0.424197 144.171 0.326401 143.193 0.324219 142.213V139.979C0.470192 134.218 0.883791 128.53 1.565 122.915C2.20728 117.28 3.02473 111.733 4.11953 106.113L14.2501 108.04Z" fill="#FFD5BD"/>
<path d="M8.04311 94.4209C4.02885 95.8807 0 110.317 0 110.317L16.5825 120.667C16.5825 120.667 21.6332 108.537 19.575 103.369C17.4438 97.9681 12.6121 92.7131 8.04311 94.4209Z" fill="#FFC226"/>
<path d="M94.8695 374.748C95.7123 374.58 96.4736 374.133 97.0299 373.478C97.1436 373.294 97.2121 373.085 97.2298 372.87C97.2476 372.654 97.2141 372.437 97.1321 372.237C97.0852 372.114 97.0087 372.004 96.9095 371.918C96.8102 371.831 96.6911 371.77 96.5628 371.741C95.1907 371.434 91.9063 374.529 91.5267 374.879C91.4991 374.92 91.4844 374.968 91.4844 375.018C91.4844 375.067 91.4991 375.115 91.5267 375.156C91.5456 375.201 91.5788 375.238 91.6211 375.262C91.6633 375.286 91.7123 375.295 91.7603 375.288C92.8119 375.21 93.8534 375.029 94.8695 374.748V374.748ZM96.0081 372.252C96.157 372.217 96.3117 372.217 96.4606 372.252C96.5115 372.264 96.5584 372.289 96.5968 372.325C96.6351 372.361 96.6636 372.406 96.6796 372.456C96.7449 372.582 96.7789 372.722 96.7789 372.865C96.7789 373.007 96.7449 373.147 96.6796 373.273C96.2417 373.974 94.6798 374.529 92.4318 374.733C93.4738 373.708 94.6834 372.869 96.0081 372.252V372.252Z" fill="#FFC226"/>
<path d="M91.759 375.288C91.759 375.288 91.832 375.288 91.8466 375.288C92.8538 374.441 94.5325 371.697 94.0362 370.646C93.9194 370.398 93.6421 370.135 92.9852 370.252C92.7513 370.293 92.5283 370.381 92.3299 370.512C92.1316 370.642 91.9621 370.812 91.832 371.011C91.2724 372.319 91.1445 373.771 91.467 375.156C91.4734 375.198 91.4901 375.237 91.5157 375.27C91.5412 375.303 91.5747 375.329 91.613 375.346L91.759 375.288ZM92.9268 370.69H93.0728C93.4961 370.69 93.5691 370.777 93.5983 370.821C93.9048 371.449 92.8246 373.536 91.8612 374.587C91.625 373.462 91.7529 372.292 92.2261 371.244C92.3837 370.98 92.6331 370.782 92.9268 370.69V370.69Z" fill="#FFC226"/>
<path d="M35.1367 57.519L36.9176 56.5264C36.9176 56.5264 36.2899 58.2196 35.1367 57.519Z" fill="#14142B"/>
<path d="M18.3483 152.562L17.5454 156.284C17.414 156.576 17.7644 156.854 18.2461 156.824L60.2717 154.168C60.6367 154.168 60.9286 153.949 60.9432 153.715L61.0746 150.037C61.0746 149.789 60.7535 149.584 60.3447 149.613L19.0051 152.226C18.8764 152.223 18.7488 152.252 18.6341 152.311C18.5194 152.369 18.4211 152.456 18.3483 152.562V152.562Z" fill="#14142B"/>
<path d="M24.2027 156.781H23.0934C22.8744 156.781 22.6992 156.693 22.6992 156.547L22.9182 151.774C22.9182 151.628 23.108 151.511 23.3269 151.496L24.4363 151.423C24.6553 151.423 24.8304 151.511 24.8304 151.657L24.6115 156.43C24.5969 156.781 24.4217 156.781 24.2027 156.781Z" fill="#FF3951"/>
<path d="M57.1616 154.766H56.0668C55.8333 154.766 55.6581 154.664 55.6727 154.533L55.8917 149.745C55.8917 149.613 56.0814 149.482 56.3004 149.467H57.4098C57.6287 149.467 57.8039 149.555 57.8039 149.686L57.585 154.474C57.5704 154.62 57.3514 154.752 57.1616 154.766Z" fill="#FF3951"/>
<path d="M40.6832 155.803L39.5738 155.876C39.3549 155.876 39.1797 155.788 39.1797 155.642L39.4132 150.869C39.4132 150.723 39.603 150.591 39.822 150.577H40.9314C41.1503 150.577 41.3255 150.664 41.3109 150.796L41.0919 155.584C41.0919 155.657 40.9022 155.788 40.6832 155.803Z" fill="#FF3951"/>
<path d="M18.1442 169.232L26.4209 176.297L16.305 177.961C16.305 177.961 12.3199 172.882 13.9986 169.042L18.1442 169.232Z" fill="#FFD5BD"/>
<path d="M28.0993 184.603L19.5599 185.537L16.3047 177.961L26.4206 176.297L28.0993 184.603Z" fill="#FFD5BD"/>
<path d="M606.625 71.9481C616.918 60.1171 611.608 47.1949 600.053 40.07C588.498 32.9451 574.997 38.1507 569.818 50.2315C564.638 62.3124 566.479 65.441 563.245 66.0983C561.772 72.4608 566.334 79.1388 571.619 75.6157C579.611 78.9942 593.624 86.8816 606.625 71.9481Z" fill="#14142B"/>
<path d="M592.481 81.5312C586.829 81.5312 581.833 79.073 578.179 77.272L576.549 76.4701L577.075 75.3659C577.587 75.6025 578.139 75.8786 578.718 76.1678C585.685 79.5988 596.202 84.7782 607.428 73.1049C611.569 68.7931 613.488 63.9029 613.002 59.1179C612.476 53.9911 609.189 48.9958 603.984 45.4202L604.68 44.408C610.188 48.1939 613.659 53.5047 614.224 58.9996C614.75 64.2578 612.712 69.3846 608.322 73.9462C602.827 79.6777 597.411 81.5312 592.481 81.5312Z" fill="#14142B"/>
<path d="M568.687 55.0034C566.466 47.2212 569.003 31.4201 588.406 31.407C607.809 31.3938 616.012 45.1179 607.927 56.502C584.515 61.7997 568.687 55.0034 568.687 55.0034Z" fill="#14142B"/>
<path d="M560.667 70.6466C548.586 73.8278 559.05 93.9669 570.92 84.7782C568.291 84.5941 562.507 78.7838 566.977 75.0241C562.244 70.8964 560.667 70.6466 560.667 70.6466Z" fill="#14142B"/>
<path d="M560.827 88.6299C559.709 88.6292 558.606 88.3681 557.606 87.8674C555.888 86.8782 554.492 85.4145 553.585 83.6518C552.678 81.8891 552.299 79.9022 552.493 77.9294C552.648 76.2782 553.328 74.7201 554.433 73.483C555.537 72.246 557.009 71.3949 558.632 71.0542L558.934 72.2504C557.542 72.508 556.272 73.2163 555.322 74.2663C554.372 75.3163 553.794 76.6496 553.676 78.0608C553.499 79.7838 553.823 81.5212 554.609 83.0647C555.395 84.6082 556.609 85.8923 558.106 86.7632C560.669 88.0778 563.64 87.3548 566.453 84.7782L567.282 85.6984C565.581 87.4603 563.273 88.5084 560.827 88.6299V88.6299Z" fill="#14142B"/>
<path d="M570.132 76.3782C567.03 75.734 562.245 67.6889 564.217 65.7697C563.019 65.8163 561.867 66.2389 560.923 66.9774C559.979 67.716 559.292 68.733 558.958 69.8842C558.157 72.3688 559.747 77.0223 565.295 78.4157C567.989 79.1256 570.132 76.3782 570.132 76.3782Z" fill="#3F80FD"/>
<path d="M570.727 109.558C570.635 112.568 570.412 115.539 570.228 118.523L569.465 127.462C569.202 130.459 568.834 133.443 568.466 136.467C568.269 137.965 568.045 139.49 567.769 141.068C567.497 142.763 567.106 144.436 566.599 146.076C564.583 152.051 561.906 157.783 558.62 163.166C555.533 168.412 552.103 173.449 548.353 178.244C547.928 178.827 547.297 179.226 546.588 179.361C545.88 179.496 545.146 179.356 544.537 178.969C543.928 178.582 543.488 177.978 543.308 177.279C543.129 176.581 543.221 175.84 543.568 175.207V175.141C546.197 169.962 548.826 164.625 551.14 159.366C552.284 156.737 553.427 154.108 554.4 151.387C555.382 148.812 556.198 146.178 556.845 143.5C557.127 142.269 557.329 141.022 557.45 139.766C557.568 138.452 557.66 136.953 557.739 135.507L558.212 126.713L558.672 117.866C558.87 114.908 559.001 111.95 559.251 109.006C559.336 107.487 560.021 106.065 561.155 105.052C562.289 104.039 563.78 103.517 565.298 103.603C566.816 103.688 568.238 104.373 569.252 105.507C570.265 106.641 570.786 108.131 570.701 109.65L570.727 109.558Z" fill="#FFD5BD"/>
<path d="M569.844 163.087C569.844 163.087 569.844 231.917 574.024 269.198C574.458 304.192 582.45 383.276 582.45 383.276H591.271C592.77 344.036 603.694 307.413 596.424 272.853C613.408 204.903 605.534 163.179 605.534 163.179L569.844 163.087Z" fill="#FFD5BD"/>
<path d="M579.465 163.126C579.465 163.126 586.038 247.363 599.288 277.493C613.144 309.174 637.739 371.234 640.171 381.751L647.546 379.792C647.546 379.792 642.669 311.672 620.151 273.168C627.118 178.23 609.568 163.1 609.568 163.1L579.465 163.126Z" fill="#FFD5BD"/>
<path d="M567.033 92.429C559.632 98.6863 557.252 108.874 557.344 115.776C561.774 123.045 575.617 125.293 575.617 125.293C575.617 125.293 577.812 111.096 576.76 104.405C575.709 97.7136 571.305 88.814 567.033 92.429Z" fill="#FFC226"/>
<path d="M561.72 105.496C561.303 101.712 562.351 97.9118 564.649 94.8773C566.948 91.8428 570.322 89.8045 574.077 89.1819C576.22 88.8006 578.481 88.4457 580.65 88.1697C587.412 87.445 594.217 87.2034 601.013 87.4466C602.958 87.4466 604.864 87.5518 606.665 87.6701C608.254 87.7748 609.805 88.205 611.221 88.934C612.637 89.663 613.888 90.6753 614.896 91.908C615.905 93.1407 616.649 94.5675 617.083 96.0999C617.517 97.6322 617.631 99.2374 617.418 100.816C613.12 129.342 610.569 149.967 613.383 162.469C613.383 162.469 622.269 174.3 626.305 201.538C629.828 225.292 628.934 265.346 632.812 286.866C618.956 296.764 574.971 296.16 568.49 290.376C570.318 246.864 561.418 189.851 568.188 163.52C565.48 148.929 566.952 137.781 565.427 128.934C555.24 122.112 562.864 115.789 561.72 105.496Z" fill="#FF8139"/>
<path d="M587.344 167.701C579.549 167.701 572.319 166.952 569.138 165.545C567.823 164.967 567.205 164.283 567.284 163.494C567.287 163.445 567.301 163.396 567.323 163.352C567.346 163.308 567.377 163.268 567.415 163.236C567.453 163.204 567.497 163.18 567.545 163.166C567.592 163.152 567.642 163.147 567.692 163.152C567.789 163.165 567.878 163.214 567.942 163.29C568.005 163.365 568.037 163.462 568.033 163.56C568.033 164.125 568.888 164.625 569.44 164.875C577.104 168.253 608.548 167.872 613.596 162.245C613.668 162.174 613.765 162.134 613.866 162.134C613.967 162.134 614.064 162.174 614.135 162.245C614.172 162.279 614.201 162.319 614.221 162.365C614.241 162.41 614.252 162.459 614.252 162.508C614.252 162.558 614.241 162.607 614.221 162.652C614.201 162.697 614.172 162.738 614.135 162.771C611.098 166.123 598.623 167.701 587.344 167.701Z" fill="#14142B"/>
<path d="M586.961 165.019C579.166 165.019 571.936 164.27 568.755 162.876C567.44 162.298 566.822 161.562 566.901 160.813C566.914 160.713 566.965 160.621 567.044 160.558C567.122 160.494 567.221 160.463 567.322 160.471C567.421 160.484 567.511 160.535 567.572 160.614C567.634 160.693 567.662 160.792 567.65 160.891C567.65 161.457 568.505 161.943 569.057 162.206C576.734 165.584 608.165 165.203 613.226 159.577C613.297 159.509 613.391 159.472 613.489 159.472C613.587 159.472 613.681 159.509 613.752 159.577C613.82 159.648 613.857 159.742 613.857 159.84C613.857 159.938 613.82 160.032 613.752 160.103C610.716 163.442 598.254 165.019 586.961 165.019Z" fill="#14142B"/>
<path opacity="0.2" d="M593.796 253.502C594.993 236.006 593.796 209.806 583.096 195.123C585.909 213.737 593.796 253.502 593.796 253.502Z" fill="#14142B"/>
<path d="M597.657 64.7048C596.75 71.2776 596.159 83.2796 600.996 87.473C590.776 92.0331 582.207 99.6292 576.454 109.229C570.038 94.598 580.634 88.1961 580.634 88.1961C587.838 86.1979 587.338 80.8082 585.774 75.7734L597.657 64.7048Z" fill="#FFD5BD"/>
<path opacity="0.2" d="M592.808 69.2269L585.775 75.7997C586.155 76.9661 586.436 78.1621 586.617 79.3753C589.377 78.8758 593.045 75.6946 593.19 72.8025C593.285 71.5973 593.156 70.3849 592.808 69.2269Z" fill="#14142B"/>
<path d="M600.369 50.179C600.921 61.0373 601.381 65.6383 596.583 71.6721C589.366 80.7557 575.971 78.7708 572.198 68.228C568.806 58.7237 568.478 42.5546 578.508 37.2963C588.538 32.0381 599.804 39.3076 600.369 50.179Z" fill="#FFD5BD"/>
<path d="M590.167 41.5949C589.352 53.0447 601.735 62.8908 605.613 58.5396C609.491 54.1884 599.935 33.7864 590.167 41.5949Z" fill="#14142B"/>
<path d="M572.932 40.6748C586.919 51.3096 603.232 51.257 602.194 43.5011C601.155 35.7452 581.227 28.87 572.932 40.6748Z" fill="#14142B"/>
<path d="M583.607 53.5302C583.712 54.411 583.318 55.1734 582.74 55.226C582.161 55.2786 581.596 54.6082 581.504 53.7274C581.412 52.8467 581.793 52.0974 582.385 52.0448C582.976 51.9922 583.515 52.6889 583.607 53.5302Z" fill="#14142B"/>
<path d="M572.67 54.6869C572.775 55.5677 572.381 56.3301 571.789 56.3827C571.197 56.4353 570.658 55.7648 570.566 54.8841C570.474 54.0033 570.856 53.254 571.434 53.2014C572.012 53.1489 572.578 53.8061 572.67 54.6869Z" fill="#14142B"/>
<path d="M571.699 53.2146L569.49 52.8071C569.49 52.8071 570.778 54.3583 571.699 53.2146Z" fill="#14142B"/>
<path d="M576.128 56.1077C575.56 58.1852 574.701 60.1722 573.578 62.0101C574.066 62.2891 574.609 62.4604 575.169 62.5126C575.729 62.5647 576.294 62.4965 576.825 62.3124L576.128 56.1077Z" fill="#FF97B8"/>
<path d="M603.892 60.0249C603.544 60.9486 602.999 61.7857 602.295 62.478C601.592 63.1703 600.746 63.7013 599.817 64.0343C597.411 64.8099 596.031 62.2202 596.557 59.5122C597.017 57.0671 598.818 53.715 601.302 54.1356C603.787 54.5563 604.865 57.6324 603.892 60.0249Z" fill="#FFD5BD"/>
<path d="M586.437 50.1395C586.293 50.1173 586.162 50.0423 586.069 49.9292C585.677 49.3963 585.166 48.9613 584.578 48.6581C583.99 48.3548 583.339 48.1915 582.678 48.1808C582.539 48.192 582.401 48.1489 582.293 48.0607C582.185 47.9725 582.116 47.8459 582.099 47.7076C582.094 47.6391 582.102 47.5704 582.124 47.5053C582.146 47.4402 582.18 47.3801 582.226 47.3286C582.271 47.2771 582.326 47.2353 582.388 47.2055C582.45 47.1758 582.517 47.1588 582.586 47.1554C583.424 47.1449 584.253 47.3351 585.003 47.7102C585.753 48.0852 586.403 48.6342 586.897 49.3113C586.941 49.364 586.973 49.425 586.992 49.4906C587.011 49.5562 587.017 49.625 587.008 49.6928C586.999 49.7605 586.977 49.8258 586.942 49.8846C586.907 49.9433 586.861 49.9943 586.805 50.0343C586.7 50.1144 586.569 50.1519 586.437 50.1395V50.1395Z" fill="#14142B"/>
<path d="M569.411 51.9142C569.284 51.9604 569.144 51.9604 569.017 51.9142C568.89 51.859 568.79 51.7574 568.736 51.6302C568.682 51.503 568.679 51.36 568.728 51.2307C569.033 50.466 569.517 49.7855 570.139 49.2458C570.761 48.7062 571.503 48.323 572.303 48.1283C572.443 48.1053 572.585 48.1378 572.701 48.219C572.816 48.3001 572.896 48.4233 572.921 48.5621C572.944 48.6944 572.915 48.8306 572.838 48.9412C572.762 49.0518 572.646 49.1281 572.514 49.1537C571.881 49.314 571.296 49.6231 570.806 50.0553C570.317 50.4874 569.938 51.0301 569.701 51.6382C569.675 51.7021 569.635 51.7597 569.586 51.8073C569.536 51.8549 569.476 51.8913 569.411 51.9142V51.9142Z" fill="#14142B"/>
<path d="M582.648 52.071L580.439 51.6504C580.439 51.6504 581.715 53.2016 582.648 52.071Z" fill="#14142B"/>
<path d="M599.056 145.971L590.367 141.541L588.355 152.518C588.355 152.518 595.375 154.2 600.318 152.136L601.094 150.822C601.291 148.429 601.002 147.43 599.056 145.971Z" fill="#FFD5BD"/>
<path d="M583.451 144.499L583.241 149.323C583.21 150.02 583.443 150.702 583.894 151.234C584.345 151.765 584.981 152.107 585.673 152.189L588.381 152.518L590.392 141.541L586.015 141.843C585.336 141.894 584.7 142.193 584.227 142.683C583.755 143.172 583.479 143.819 583.451 144.499V144.499Z" fill="#FFD5BD"/>
<path d="M617.457 97.7136C619.587 103.721 621.506 109.702 623.228 115.828C625.089 122.03 626.573 128.338 627.672 134.719C627.959 136.511 628.126 138.32 628.171 140.135C628.258 142.61 627.672 145.064 626.475 147.233C625.177 149.436 623.243 151.195 620.928 152.281C619.044 153.153 617.026 153.699 614.96 153.898C611.442 154.199 607.898 153.982 604.443 153.254C602.805 152.959 601.185 152.568 599.593 152.084C597.987 151.636 596.407 151.101 594.86 150.48C594.215 150.224 593.686 149.741 593.371 149.123C593.056 148.504 592.978 147.792 593.15 147.12C593.323 146.448 593.734 145.861 594.308 145.471C594.882 145.08 595.578 144.912 596.267 144.998H596.424C597.831 145.169 599.369 145.353 600.841 145.472C602.314 145.59 603.825 145.643 605.285 145.682C608.043 145.79 610.804 145.547 613.501 144.959C614.54 144.729 615.535 144.329 616.445 143.776C616.967 143.487 617.368 143.02 617.576 142.461C617.776 141.82 617.83 141.141 617.733 140.476C617.61 139.15 617.404 137.833 617.116 136.533C616.537 133.719 615.801 130.775 614.92 127.857C614.04 124.938 613.225 121.98 612.291 119.036C610.438 113.173 608.518 107.205 606.612 101.408C606.121 99.9676 606.221 98.3914 606.892 97.0256C607.562 95.6599 608.748 94.6164 610.188 94.1248C611.628 93.6332 613.204 93.7338 614.57 94.4043C615.936 95.0749 616.979 96.2605 617.471 97.7004L617.457 97.7136Z" fill="#FFD5BD"/>
<path d="M544.459 173.169L534.744 172.394L537.071 183.305C537.071 183.305 543.433 182.292 547.325 178.993C547.76 178.611 548.041 178.082 548.113 177.507V177.507C548.18 177.101 548.139 176.684 547.995 176.298C547.786 175.483 547.338 174.749 546.707 174.191C546.077 173.633 545.294 173.277 544.459 173.169Z" fill="#FFD5BD"/>
<path d="M529.448 177.77L531.104 182.306C531.338 182.963 531.813 183.507 532.433 183.827C533.053 184.146 533.772 184.218 534.443 184.028L537.072 183.305L534.745 172.394L530.802 174.339C530.197 174.648 529.725 175.167 529.476 175.799C529.226 176.431 529.216 177.132 529.448 177.77V177.77Z" fill="#FFD5BD"/>
<path d="M610.887 88.8007C617.381 91.535 620.471 95.952 625.834 108.23C624.52 116.643 610.309 123.794 610.309 123.794C610.309 123.794 605.616 113.146 604.065 106.547C602.514 99.9482 604.315 86.027 610.887 88.8007Z" fill="#FFC226"/>
<path d="M591.956 383.328C591.898 383.171 591.789 383.037 591.646 382.949C591.503 382.861 591.334 382.823 591.167 382.842L582.964 382.711C582.103 382.652 581.243 382.834 580.48 383.236C576.727 385.582 572.512 387.089 568.123 387.653C566.388 387.916 567.176 390.861 571.278 390.9C578.074 390.979 579.297 390.467 585.094 390.532C590.037 390.532 587.723 390.808 591.667 390.9C592.613 390.9 593.376 390.309 593.257 389.652L591.956 383.328Z" fill="#14142B"/>
<path d="M649.006 378.386C648.908 378.249 648.767 378.148 648.606 378.098C648.444 378.048 648.271 378.052 648.112 378.11L640.133 380.068C639.291 380.224 638.512 380.616 637.885 381.199C635.953 383.434 633.284 386.865 627.763 387.693C626.014 387.956 626.803 390.9 630.905 390.94C637.701 391.019 638.555 388.495 644.182 387.088C648.98 385.892 646.811 386.707 650.584 385.774C651.504 385.563 652.095 384.775 651.806 384.17L649.006 378.386Z" fill="#14142B"/>
<path d="M580.297 103.537C583.32 102.407 591.826 101.736 595.664 105.312C601.948 102.078 605.379 92.8365 604.603 87.1839C603.127 86.0723 601.308 85.5141 599.463 85.6064C599.463 85.6064 585.463 94.4403 580.297 103.537Z" fill="white"/>
<path d="M574.705 103.642C574.705 103.642 572.97 96.2543 581.278 87.9857C580.279 87.3415 576.795 88.5772 576.795 88.5772C576.795 88.5772 566.699 94.2956 568.316 106.048C570.058 104.456 572.346 103.595 574.705 103.642V103.642Z" fill="white"/>
<path d="M586.367 62.8907C586.789 62.4904 587.172 62.0501 587.51 61.5762C587.535 61.5451 587.552 61.5093 587.561 61.4711C587.57 61.4328 587.571 61.3931 587.563 61.3545C587.556 61.316 587.54 61.2794 587.517 61.2474C587.495 61.2153 587.465 61.1885 587.432 61.1687C587.372 61.116 587.294 61.0869 587.215 61.0869C587.135 61.0869 587.058 61.116 586.998 61.1687C586.226 62.2139 585.228 63.0714 584.079 63.6769C582.929 64.2824 581.658 64.6203 580.359 64.6654C580.315 64.6561 580.27 64.6567 580.226 64.6672C580.182 64.6777 580.141 64.6979 580.106 64.7263C580.071 64.7546 580.043 64.7904 580.024 64.831C580.004 64.8717 579.994 64.9161 579.994 64.9612C579.994 65.0062 580.004 65.0507 580.024 65.0913C580.043 65.1319 580.071 65.1677 580.106 65.1961C580.141 65.2244 580.182 65.2446 580.226 65.2551C580.27 65.2657 580.315 65.2663 580.359 65.2569C582.582 65.2197 584.716 64.3792 586.367 62.8907V62.8907Z" fill="#14142B"/>
<path d="M688.776 381.637L678.489 382.715L676.561 360.53L686.848 359.439L688.776 381.637Z" fill="#FFD5BD"/>
<path d="M740.121 380.889H730.151L729.326 357.791H739.309L740.121 380.889Z" fill="#FFD5BD"/>
<path d="M728.758 379.735H740.871C741.07 379.733 741.263 379.801 741.418 379.925C741.573 380.05 741.68 380.225 741.721 380.419L743.687 389.299C743.728 389.514 743.721 389.736 743.667 389.948C743.613 390.16 743.512 390.358 743.373 390.528C743.234 390.697 743.059 390.834 742.862 390.928C742.664 391.023 742.448 391.073 742.228 391.074C738.309 391.011 735.455 390.77 730.533 390.77C727.502 390.77 718.356 391.087 714.17 391.087C709.985 391.087 709.439 386.952 711.152 386.571C718.838 384.897 724.622 382.576 727.083 380.369C727.538 379.949 728.138 379.722 728.758 379.735V379.735Z" fill="#14142B"/>
<path d="M725.47 381.485C724.793 381.536 724.118 381.357 723.555 380.978C723.373 380.824 723.232 380.628 723.146 380.406C723.059 380.185 723.03 379.945 723.06 379.709C723.055 379.571 723.091 379.435 723.163 379.318C723.236 379.2 723.341 379.107 723.466 379.049C724.57 378.479 727.792 380.457 728.147 380.686C728.189 380.705 728.224 380.738 728.244 380.78C728.265 380.821 728.271 380.869 728.261 380.914C728.255 380.962 728.235 381.007 728.203 381.043C728.172 381.079 728.13 381.105 728.083 381.117C727.229 381.335 726.352 381.459 725.47 381.485ZM723.986 379.417C723.881 379.406 723.774 379.428 723.682 379.481C723.619 379.481 723.542 379.57 723.53 379.76C723.51 379.917 723.528 380.076 723.584 380.224C723.639 380.372 723.729 380.504 723.847 380.61C724.965 381.117 726.235 381.18 727.398 380.787C726.361 380.113 725.202 379.648 723.986 379.417Z" fill="#6A35FF"/>
<path d="M728.019 381.13H727.905C726.877 380.572 724.886 378.377 725.089 377.324C725.124 377.149 725.219 376.991 725.358 376.877C725.497 376.764 725.67 376.702 725.85 376.703C726.029 376.679 726.211 376.694 726.384 376.747C726.556 376.799 726.716 376.888 726.852 377.007C728.006 377.946 728.247 380.813 728.26 380.952C728.26 380.995 728.25 381.037 728.23 381.075C728.21 381.112 728.181 381.144 728.146 381.168C728.1 381.169 728.056 381.155 728.019 381.13V381.13ZM726.015 377.083H725.9C725.596 377.083 725.571 377.261 725.558 377.324C725.431 377.971 726.7 379.633 727.727 380.407C727.663 379.27 727.251 378.181 726.547 377.286C726.402 377.153 726.212 377.081 726.015 377.083V377.083Z" fill="#6A35FF"/>
<path d="M677.396 379.417H689.51C689.709 379.416 689.902 379.484 690.057 379.608C690.212 379.733 690.319 379.908 690.36 380.102L692.326 388.981C692.367 389.197 692.36 389.419 692.305 389.631C692.251 389.843 692.151 390.041 692.012 390.211C691.873 390.38 691.698 390.517 691.5 390.611C691.302 390.706 691.086 390.756 690.867 390.757C686.948 390.694 684.094 390.453 679.172 390.453C676.14 390.453 666.995 390.77 662.809 390.77C658.623 390.77 658.078 386.635 659.79 386.254C667.477 384.58 673.261 382.259 675.722 380.052C676.177 379.632 676.777 379.405 677.396 379.417V379.417Z" fill="#14142B"/>
<path d="M674.099 381.168C673.422 381.219 672.747 381.04 672.184 380.66C672.002 380.507 671.861 380.311 671.775 380.089C671.688 379.868 671.659 379.628 671.689 379.392C671.684 379.254 671.72 379.118 671.792 379.001C671.865 378.883 671.97 378.79 672.095 378.732C673.199 378.162 676.421 380.14 676.776 380.369C676.818 380.388 676.852 380.421 676.873 380.463C676.894 380.504 676.9 380.552 676.89 380.597C676.884 380.645 676.864 380.689 676.832 380.726C676.801 380.762 676.759 380.788 676.712 380.8C675.858 381.018 674.981 381.141 674.099 381.168V381.168ZM672.615 379.062C672.51 379.051 672.403 379.073 672.311 379.126C672.247 379.126 672.171 379.214 672.159 379.405C672.139 379.561 672.157 379.721 672.213 379.869C672.268 380.017 672.358 380.149 672.476 380.254C673.594 380.762 674.864 380.825 676.027 380.432C674.99 379.758 673.831 379.293 672.615 379.062V379.062Z" fill="#6A35FF"/>
<path d="M676.646 380.813H676.532C675.504 380.255 673.513 378.06 673.716 377.007C673.751 376.832 673.846 376.674 673.985 376.56C674.124 376.447 674.297 376.385 674.477 376.386C674.656 376.362 674.838 376.377 675.011 376.43C675.183 376.482 675.343 376.571 675.479 376.69C676.633 377.629 676.874 380.496 676.887 380.635C676.887 380.678 676.877 380.72 676.857 380.757C676.837 380.795 676.808 380.827 676.773 380.851C676.727 380.852 676.683 380.838 676.646 380.813V380.813ZM674.642 376.766H674.527C674.223 376.766 674.198 376.944 674.185 377.007C674.058 377.654 675.327 379.316 676.354 380.09C676.29 378.953 675.878 377.864 675.174 376.969C675.029 376.836 674.838 376.764 674.642 376.766V376.766Z" fill="#6A35FF"/>
<path opacity="0.2" d="M686.848 359.439L676.561 360.53L677.563 371.972L687.85 370.893L686.848 359.439Z" fill="#14142B"/>
<path opacity="0.2" d="M739.309 357.803H729.326L729.757 369.714H739.74L739.309 357.803Z" fill="#14142B"/>
<path d="M735.188 155.182H682.268C677.194 182.657 661.491 279.895 672.793 366.543L690.703 364.323C690.703 364.323 689.042 249.301 704.859 206.783C706.686 229.538 708.842 253.715 710.719 266.628C715.324 298.339 725.18 367.646 725.18 367.646H743.42C743.42 367.646 739.691 301.307 737.965 270.141C736.075 236.312 735.264 162.159 735.188 155.182Z" fill="#14142B"/>
<path d="M670.737 370.716L692.909 367.418L692.237 361.279L669.164 364.298L670.737 370.716Z" fill="#FF3951"/>
<path d="M722.984 367.798H744.496V361.367L722.172 360.949L722.984 367.798Z" fill="#FF3951"/>
<path d="M744.356 68.2943C741.425 79.0587 739.305 90.0276 738.014 101.109C737.595 104.508 737.253 107.844 736.974 111.079C736.606 115.189 736.352 119.146 736.149 122.901C735.895 127.657 735.819 133.276 735.832 138.807C735.832 151.491 736.365 163.732 736.365 163.732C726.217 166.269 696.891 164.582 680.87 163.415C678.983 148.096 678.491 132.638 679.399 117.231C679.933 107.056 681.055 96.9215 682.76 86.8769C683.621 81.514 684.816 76.2101 686.337 70.9961C686.927 69.1479 688.033 67.5074 689.526 66.2687C691.018 65.03 692.835 64.2451 694.76 64.0069C696.701 63.7659 698.946 63.5249 701.305 63.3854C702.218 63.3854 703.132 63.2966 704.058 63.2839C711.625 63.3701 719.18 63.8952 726.687 64.8568C728.107 65.0217 729.553 65.2373 730.949 65.4657C735.464 66.1721 739.94 67.1163 744.356 68.2943V68.2943Z" fill="#FF3951"/>
<path opacity="0.2" d="M692.871 80.5601C687.636 92.5014 683.138 104.752 679.4 117.243C679.934 107.069 681.056 96.9341 682.762 86.8896L692.871 80.5601Z" fill="#14142B"/>
<path d="M691.288 65.1105C679.288 66.0745 655.695 105.307 660.135 113.831C664.574 122.355 672.007 126.325 684.844 102.225C697.681 78.1247 691.288 65.1105 691.288 65.1105Z" fill="#EB2941"/>
<path d="M697.044 20.6262C697.044 20.6262 695.357 31.928 702.65 37.2174C709.944 42.5068 709.944 16.9224 709.944 16.9224L697.044 20.6262Z" fill="#14142B"/>
<path d="M726.7 64.806C721.842 69.2202 709.944 67.5839 709.944 67.5839C709.944 67.5839 702.511 65.5544 704.071 63.2332C708.447 62.5102 710.565 60.468 711.44 57.855C711.92 56.2353 712.071 54.5362 711.884 52.8573C711.812 51.9212 711.689 50.9897 711.516 50.0668L726.218 39.1201C724.302 46.3629 721.943 59.5928 726.7 64.806Z" fill="#FFD5BD"/>
<path opacity="0.2" d="M722.83 46.0964C722.247 54.9755 714.991 57.3602 711.414 57.8549C711.893 56.2352 712.044 54.5361 711.858 52.8572L722.83 46.0964Z" fill="#14142B"/>
<path d="M723.822 48.1387C722.293 50.4011 720.064 52.0992 717.477 52.9722C714.89 53.8453 712.088 53.845 709.501 52.9715C706.137 51.8999 703.304 49.5928 701.573 46.5151C701.332 46.1036 701.112 45.6803 700.914 45.2467C697.324 36.8496 696.183 22.161 705.062 16.656C707.014 15.4298 709.248 14.7231 711.55 14.6033C713.852 14.4834 716.147 14.9542 718.217 15.971C720.286 16.9878 722.061 18.5169 723.373 20.4128C724.684 22.3088 725.49 24.5087 725.712 26.8035C726.803 36.5832 727.906 42.3293 723.822 48.1387Z" fill="#FFD5BD"/>
<path d="M711.401 32.0421C711.591 32.8158 711.223 33.5388 710.703 33.6276C710.183 33.7164 709.65 33.1456 709.511 32.3592C709.371 31.5727 709.701 30.8624 710.208 30.7736C710.716 30.6848 711.248 31.2303 711.401 32.0421Z" fill="#14142B"/>
<path d="M702.434 33.5642C702.624 34.3379 702.256 35.0736 701.736 35.1624C701.216 35.2512 700.696 34.6677 700.556 33.894C700.417 33.1202 700.734 32.3845 701.254 32.2957C701.774 32.2069 702.307 32.7777 702.434 33.5642Z" fill="#14142B"/>
<path d="M705.35 33.4756C704.816 36.0567 703.932 38.5531 702.725 40.896C703.34 41.1845 704.011 41.3341 704.691 41.3341C705.37 41.3341 706.041 41.1845 706.657 40.896L705.35 33.4756Z" fill="#FF97B8"/>
<path d="M713.685 28.6554C713.603 28.6834 713.515 28.6888 713.43 28.6709C713.345 28.6531 713.267 28.6127 713.203 28.554C712.781 28.1377 712.268 27.8258 711.704 27.643C711.14 27.4602 710.542 27.4117 709.956 27.5012C709.835 27.5314 709.707 27.5124 709.6 27.4481C709.493 27.3839 709.415 27.2798 709.385 27.1587C709.355 27.0376 709.374 26.9094 709.438 26.8024C709.502 26.6953 709.607 26.6182 709.728 26.5879V26.5879C710.464 26.4554 711.222 26.5014 711.937 26.7221C712.652 26.9428 713.304 27.3317 713.837 27.8563C713.882 27.8989 713.917 27.9501 713.941 28.0068C713.966 28.0635 713.978 28.1245 713.978 28.1861C713.978 28.2478 713.966 28.3087 713.941 28.3654C713.917 28.4221 713.882 28.4733 713.837 28.5159V28.5159C713.796 28.5715 713.744 28.6188 713.685 28.6554V28.6554Z" fill="#14142B"/>
<path d="M708.638 44.8408C709.803 44.8234 710.946 44.5234 711.969 43.9666C712.992 43.4098 713.864 42.6129 714.511 41.6443C714.529 41.6164 714.541 41.585 714.547 41.5522C714.552 41.5194 714.55 41.4859 714.542 41.4537C714.533 41.4215 714.519 41.3914 714.498 41.3653C714.478 41.3392 714.452 41.3176 714.423 41.3019C714.369 41.2687 714.304 41.258 714.242 41.2723C714.18 41.2865 714.127 41.3245 714.093 41.378C713.474 42.2608 712.657 42.9867 711.708 43.4976C710.759 44.0086 709.703 44.2905 708.626 44.3208C708.563 44.3238 708.503 44.3502 708.459 44.3948C708.414 44.4393 708.388 44.4988 708.385 44.5617V44.5617C708.385 44.6257 708.41 44.687 708.455 44.7322C708.501 44.7774 708.562 44.8028 708.626 44.8028L708.638 44.8408Z" fill="#14142B"/>
<path d="M698.058 31.1289C697.978 31.1791 697.886 31.2055 697.792 31.205C697.731 31.1888 697.675 31.1609 697.625 31.1227C697.576 31.0845 697.535 31.0368 697.504 30.9825C697.473 30.9281 697.454 30.8682 697.447 30.8062C697.439 30.7443 697.444 30.6815 697.462 30.6215V30.6215C697.655 29.8969 698.02 29.2294 698.526 28.6754C699.031 28.1213 699.663 27.6968 700.366 27.4377C700.426 27.4184 700.488 27.4113 700.55 27.4169C700.612 27.4226 700.672 27.4408 700.727 27.4705C700.781 27.5002 700.829 27.5407 700.868 27.5896C700.906 27.6385 700.934 27.6947 700.95 27.7548C700.967 27.8139 700.973 27.8759 700.967 27.9373C700.96 27.9986 700.942 28.0581 700.912 28.1123C700.883 28.1665 700.843 28.2143 700.795 28.2531C700.747 28.2919 700.692 28.3208 700.633 28.3383V28.3383C700.086 28.5574 699.597 28.9006 699.205 29.3409C698.813 29.7811 698.529 30.3064 698.375 30.8752C698.346 30.9396 698.302 30.9963 698.247 31.0404C698.192 31.0845 698.127 31.1148 698.058 31.1289V31.1289Z" fill="#14142B"/>
<path d="M713.316 20.4105C716.069 19.0406 719.329 21.197 718.606 24.1144C717.654 27.9197 720.407 33.2979 723.464 35.2132C723.464 35.2132 723.362 33.6277 724.732 33.8306C726.102 34.0336 726.749 42.2911 724.631 46.515C724.631 46.515 728.119 42.5068 729.286 33.6277C730.453 24.7486 729.705 17.658 727.269 15.2353C724.834 12.8126 724.212 15.3368 722.411 11.95C720.61 8.56329 717.02 4.77064 713.951 6.99042C710.881 9.21019 707.723 9.62877 705.287 7.94175C702.852 6.25472 700.112 8.99455 700.429 12.0642C700.746 15.1338 695.672 12.9014 694.607 16.0725C693.541 19.2436 695.951 29.0867 713.316 20.4105Z" fill="#14142B"/>
<path opacity="0.2" d="M709.498 52.9715C706.134 51.9 703.301 49.5928 701.57 46.5151C703.968 46.5151 707.456 46.6547 708.369 47.2128C709.282 47.7709 709.485 50.8278 709.498 52.9715Z" fill="#14142B"/>
<path d="M731.29 34.0464C730.581 36.4331 728.958 38.4433 726.775 39.6402C723.87 41.2004 721.701 38.765 721.904 35.6573C722.107 32.8794 723.819 28.6428 727.041 28.4018C730.263 28.1608 732.153 31.1036 731.29 34.0464Z" fill="#FFD5BD"/>
<path d="M724.532 59.1995L710.465 65.5417L709.64 60.4679L704.478 62.2818C703.574 62.5951 702.802 63.2062 702.291 64.0151C701.779 64.824 701.557 65.7826 701.662 66.734L702.233 72.3151L709.374 68.4083L712.926 73.4821L729.821 65.3514L724.532 59.1995Z" fill="#EB2941"/>
<path d="M689.23 83.4014L701.166 63.9688C703.13 63.5334 704.874 62.4139 706.088 60.8104C707.927 58.2736 709.069 48.126 708.206 47.6947C707.344 47.2635 698.059 48.329 697.425 49.572C696.79 50.8151 694.951 61.1148 694.951 61.1148L681.201 77.2367L689.23 83.4014Z" fill="#FFD5BD"/>
<path d="M662.341 100.424C668.188 90.8216 688.711 65.808 688.711 65.808L698.237 72.2263C698.237 72.2263 681.075 107.058 674.632 113.831C668.188 120.605 654.096 113.958 662.341 100.424Z" fill="#EB2941"/>
<path opacity="0.2" d="M736.15 122.913C735.896 127.67 735.82 133.289 735.832 138.819C717.136 136.79 712.48 126.642 712.48 126.642L736.974 111.142C736.606 115.226 736.365 119.159 736.15 122.913Z" fill="#14142B"/>
<path d="M699.898 114.77L677.142 113.184C675.848 111.649 674.049 110.624 672.068 110.292C668.923 109.861 659.473 113.501 659.473 114.478C659.473 115.455 664.711 123.167 666.119 123.167C667.527 123.167 677.535 120.009 677.535 120.009L698.185 124.74L699.898 114.77Z" fill="#FFD5BD"/>
<path d="M744.207 68.4083C744.207 68.4083 748.989 71.1355 749.687 84.4668C750.308 96.4916 746.44 122.076 738.905 127.67C726.868 136.549 683.094 124.283 683.094 124.283L684.781 111.421C684.781 111.421 717.912 115.81 725.802 111.421C733.692 107.032 736.051 84.5175 736.051 84.5175C736.051 84.5175 739.349 69.7909 744.207 68.4083Z" fill="#EB2941"/>
<path d="M687.95 110.381L685.755 126.592L681.734 125.044L682.762 110.635L687.95 110.381Z" fill="#EB2941"/>
<path d="M686.896 65.7066L689.966 62.6243L700.202 70.2349L699.238 74.1924L686.896 65.7066Z" fill="#EB2941"/>
<path opacity="0.2" d="M704.857 206.783C702.252 214.237 700.275 221.895 698.946 229.678C697.462 209.383 703.385 187.946 703.385 187.946L704.857 206.783Z" fill="#14142B"/>
<path d="M182.288 50.0448C182.288 50.0448 174.882 48.3913 173.834 38.8432C172.868 29.982 176.815 28.2238 176.815 28.2238C176.815 28.2238 171.773 19.1647 180.192 13.9598C188.61 8.75488 201.5 15.6948 206.461 13.3426C211.421 10.9905 216.94 12.3063 215.368 19.2928C213.796 26.2792 206.437 28.0957 206.437 28.0957L189.449 25.1148C189.449 25.1148 196.773 44.2111 192.43 47.8091C188.086 51.4071 182.288 50.0448 182.288 50.0448Z" fill="#14142B"/>
<path d="M211.885 21.9011C211.885 21.9011 215.553 36.1535 211.885 38.6104C208.218 41.0673 207.426 24.0087 207.426 24.0087L211.885 21.9011Z" fill="#14142B"/>
<path d="M184.86 159.942L181.215 167.743L174.753 166.812C168.663 167.79 166.125 164.331 166.125 164.331L162.294 160.838C140.88 140.787 137.271 130.564 139.11 122.494C141.055 113.971 153.957 88.9011 157.846 83.0674C161.735 77.2337 164.669 75.6385 164.669 75.6385C171.725 72.5994 177.07 74.7885 179.527 82.3338C181.518 88.4353 177 94.8046 173.519 99.404C169.236 105.034 165.278 110.905 161.665 116.987C160.5 118.989 159.336 121.027 158.242 123.076C157.764 123.961 155.133 127.804 155.424 128.584C157.217 133.579 166.229 147.762 169.397 152.676L170.491 154.376C182.182 156.052 184.86 159.942 184.86 159.942Z" fill="#6A35FF"/>
<path d="M164.238 105.622C164.68 106.251 176.161 162.608 176.161 162.608H229.794C229.794 162.608 230.271 128.153 231.156 119.979C232.041 111.805 237.467 78.0604 224.822 72.4946C224.822 72.4946 211.944 69.4322 202.442 69.3041C196.722 69.2267 191.008 69.7142 185.383 70.7596C185.383 70.7596 168.93 71.6329 164.657 75.6152C160.384 79.5975 164.238 105.622 164.238 105.622Z" fill="#6A35FF"/>
<path d="M229.794 161.851C229.794 161.851 228.886 243.139 226.453 262.584C224.019 282.03 217.708 366.065 217.708 366.065L201.779 362.234C201.779 362.234 200.614 301.068 198.949 270.688C197.284 240.309 197.657 204.317 197.657 204.317C197.657 204.317 186.013 280.004 181.53 287.293C177.047 294.582 158.812 336.71 147.052 357.763L134.08 346.421C134.08 346.421 155.202 279.189 158.812 267.847C162.422 256.506 165.566 172.366 176.162 162.608L229.794 161.851Z" fill="#14142B"/>
<path d="M145.085 355.294L141.848 360.243L137.482 366.927L128.562 362.292L132.219 354.91L134.943 349.437L145.085 355.294Z" fill="#FFD5BD"/>
<path d="M282.568 142.475L275.04 140.367C275.04 140.367 271.954 141.351 267.377 142.465C256.953 145.014 238.784 148.302 231.585 142.465C222.366 134.565 217.422 121.581 214.55 106.469C211.678 91.3573 228.801 80.792 228.801 80.792C228.801 80.792 232.633 87.7257 234.71 102.264C236.787 116.802 240.024 127.676 241.265 130.541C241.265 130.541 250.594 135.404 267.177 134.271L276.364 129.523L286.007 134.322L282.568 142.475Z" fill="#6A35FF"/>
<path d="M282.57 142.474L275.042 140.366C275.042 140.366 271.956 141.35 267.379 142.464L267.178 134.27L276.366 129.523L286.009 134.321L282.57 142.474Z" fill="#FFD5BD"/>
<path opacity="0.2" d="M197.518 204.993C197.518 205.319 197.414 205.68 197.344 206.064L197.518 204.993Z" fill="#14142B"/>
<path opacity="0.2" d="M200.069 188.679C200.069 188.679 199.766 211.967 197.438 227.652C197.589 215.03 197.868 202.757 197.868 202.757L200.069 188.679Z" fill="#14142B"/>
<path d="M204.668 67.0801C206.229 68.2986 208.007 69.2112 209.907 69.7699C209.907 69.7699 207.194 73.0302 198.496 72.3898C195.108 72.1336 190.799 73.985 185.397 70.7596C185.397 70.7596 187.656 57.858 186.666 50.2195C186.666 50.2195 177.735 46.3886 179.866 40.5782C181.799 35.2918 187.819 41.3583 188.913 42.5111C187.842 41.1487 181.414 32.567 186.095 25.5457C187.594 23.3041 189.567 21.4193 191.875 20.0249C194.183 18.6304 196.77 17.7604 199.451 17.4763L206.833 19.4558L209.803 26.4423C209.803 26.4423 213.773 31.8218 214.053 42.5926C214.332 53.3634 208.103 57.1826 203.573 58.4635C203.573 58.4635 203.445 59.6279 203.445 61.1998C203.387 63.3074 203.585 66.0903 204.668 67.0801Z" fill="#FFD5BD"/>
<path d="M207.006 43.4425L205.842 34.7444L210.744 41.5911C210.28 42.1381 209.709 42.5845 209.066 42.9029C208.424 43.2213 207.723 43.4049 207.006 43.4425V43.4425Z" fill="#FF97B8"/>
<path d="M198.494 43.9897C199.174 44.8719 200.098 45.5352 201.152 45.8974C202.205 46.2596 203.342 46.3048 204.421 46.0275" stroke="#14142B" stroke-linecap="round" stroke-linejoin="round"/>
<path d="M196.271 31.9615C196.271 31.9615 197.669 28.9107 200.533 29.3765" stroke="#14142B" stroke-linecap="round" stroke-linejoin="round"/>
<path d="M208.857 28.2354C209.71 28.124 210.577 28.2169 211.387 28.5064C212.197 28.7959 212.926 29.2737 213.515 29.9005" stroke="#14142B" stroke-linecap="round" stroke-linejoin="round"/>
<path d="M201.488 35.9206C201.488 36.7707 201.057 37.4577 200.533 37.4577C200.009 37.4577 199.578 36.7707 199.578 35.9206C199.578 35.0706 200.009 34.3953 200.533 34.3953C201.057 34.3953 201.488 35.0823 201.488 35.9206Z" fill="#14142B"/>
<path d="M211.173 35.2917C211.173 36.13 210.742 36.817 210.219 36.817C209.695 36.817 209.264 36.13 209.264 35.2917C209.264 34.4533 209.695 33.7546 210.219 33.7546C210.742 33.7546 211.173 34.4416 211.173 35.2917Z" fill="#14142B"/>
<path d="M195.049 76.3488L202.524 75.2076L204.352 82.4386L200.871 88.9127H198.868L195.049 83.1023V76.3488Z" fill="#14142B"/>
<path d="M198.868 88.9127L195.049 123.076L202.035 129.807L207.077 122.925L200.871 88.9127H198.868Z" fill="#14142B"/>
<path d="M198.494 72.3897L202.278 82.3571C202.278 82.3571 212.06 77.4782 213.492 69.3041L206.505 66.9054C204.074 69.061 201.383 70.9034 198.494 72.3897V72.3897Z" fill="white"/>
<path d="M186.059 66.2534C186.059 66.2534 192.825 69.8165 198.495 72.3898L196.271 82.3572C196.271 82.3572 185.07 75.6502 181.309 70.4104L186.059 66.2534Z" fill="white"/>
<path opacity="0.2" d="M203.526 58.4285C203.526 58.4285 203.398 59.5929 203.398 61.1648C201.472 60.6896 199.614 59.9737 197.867 59.034C199.775 59.2928 201.717 59.085 203.526 58.4285Z" fill="#14142B"/>
<path d="M188.971 42.5111C190.237 37.4632 189.787 32.1373 187.69 27.3738C187.69 27.3738 200.976 31.1815 201.011 19.0833C201.011 19.0833 183.289 21.9128 182.38 28.2122C181.472 34.5117 187.457 40.7995 188.971 42.5111Z" fill="#14142B"/>
<path d="M200.813 20.8647C200.813 20.8647 205.889 28.0724 210.244 26.582V16.1023H195.107L187.107 20.8764L192.65 26.582L196.772 23.1935L200.813 20.8647Z" fill="#14142B"/>
<path d="M216.647 379.165L205.282 378.582L205.003 369.966L204.793 363.678L213.992 362.758L215.808 362.84L216.204 370.618L216.647 379.165Z" fill="#FFD5BD"/>
<path opacity="0.2" d="M216.204 370.618L205.003 369.966L204.793 363.678L213.992 362.758L215.808 362.84L216.204 370.618Z" fill="#14142B"/>
<path d="M198.625 367.812L220.481 367.276L221.715 360.15H199.137L198.625 367.812Z" fill="#6A35FF"/>
<path d="M219.096 379.642C219.096 379.642 222.903 368.417 225.873 369.535C228.842 370.653 219.096 379.642 219.096 379.642Z" stroke="#6A35FF" stroke-miterlimit="10"/>
<path d="M219.748 379.642C219.748 379.642 225.5 374.169 227.817 376.3C230.135 378.431 219.748 379.642 219.748 379.642Z" stroke="#6A35FF" stroke-miterlimit="10"/>
<path opacity="0.2" d="M145.083 355.294L141.846 360.243L132.217 354.91L134.942 349.437L145.083 355.294Z" fill="#14142B"/>
<path d="M130.074 350.823L146.772 359.661L150.708 354.817L133.696 345.257L130.074 350.823Z" fill="#6A35FF"/>
<path d="M140.707 369.896C140.707 369.896 145.435 363.981 147.356 365.378C149.277 366.775 140.707 369.896 140.707 369.896Z" stroke="#6A35FF" stroke-miterlimit="10"/>
<path d="M141.566 369.896C141.566 369.896 149.717 367.975 150.067 370.618C150.416 373.261 141.566 369.896 141.566 369.896Z" stroke="#6A35FF" stroke-miterlimit="10"/>
<path d="M139.716 363.585L130.948 358.659C130.336 358.32 129.614 358.236 128.941 358.425C128.267 358.615 127.695 359.063 127.35 359.672L123.403 366.659C123.059 367.272 122.973 367.996 123.163 368.673C123.353 369.35 123.804 369.924 124.416 370.269L149.299 384.241C149.912 384.585 150.637 384.671 151.313 384.481C151.99 384.291 152.564 383.841 152.909 383.228C153.215 382.681 153.318 382.043 153.199 381.427C153.079 380.811 152.746 380.257 152.257 379.863C149.043 377.29 142.452 371.375 140.997 365.25C140.909 364.899 140.75 364.571 140.53 364.284C140.31 363.998 140.033 363.76 139.716 363.585V363.585Z" fill="#14142B"/>
<path d="M215.599 374.798H203.955C203.142 374.801 202.363 375.126 201.789 375.703C201.215 376.279 200.893 377.059 200.893 377.872V387.187C200.893 388 201.215 388.779 201.79 389.353C202.364 389.927 203.143 390.25 203.955 390.25H236.978C237.381 390.251 237.78 390.173 238.153 390.02C238.526 389.867 238.865 389.641 239.151 389.357C239.436 389.072 239.663 388.734 239.817 388.362C239.972 387.99 240.052 387.591 240.052 387.187V387.187C240.051 386.462 239.793 385.759 239.324 385.205C238.855 384.651 238.206 384.281 237.49 384.16C232.774 383.38 222.783 381.144 217.835 375.799C217.55 375.489 217.205 375.24 216.821 375.067C216.436 374.895 216.02 374.804 215.599 374.798V374.798Z" fill="#14142B"/>
<path d="M184.861 159.942L181.217 167.743L174.754 166.812C168.664 167.79 166.126 164.331 166.126 164.331L162.295 160.838L169.409 152.687L170.504 154.387C182.183 156.053 184.861 159.942 184.861 159.942Z" fill="#FFD5BD"/>
<path d="M162.003 161.164L169.63 152.245L167.056 148.973L159.092 158.556L162.003 161.164Z" fill="white"/>
</svg>
