<svg width="1240" height="298" viewBox="0 0 1240 298" fill="none" xmlns="http://www.w3.org/2000/svg">
<path d="M424.39 87.571H393.484L419.898 120.196H450.794L424.39 87.571Z" fill="#A0A3BD"/>
<path d="M562.298 237.132C564.805 237.132 566.838 235.1 566.838 232.592C566.838 230.085 564.805 228.052 562.298 228.052C559.79 228.052 557.758 230.085 557.758 232.592C557.758 235.1 559.79 237.132 562.298 237.132Z" fill="#6E7191"/>
<path d="M538.306 237.132C540.813 237.132 542.845 235.1 542.845 232.592C542.845 230.085 540.813 228.052 538.306 228.052C535.798 228.052 533.766 230.085 533.766 232.592C533.766 235.1 535.798 237.132 538.306 237.132Z" fill="#6E7191"/>
<path d="M455.335 237.132C457.842 237.132 459.875 235.1 459.875 232.592C459.875 230.085 457.842 228.052 455.335 228.052C452.828 228.052 450.795 230.085 450.795 232.592C450.795 235.1 452.828 237.132 455.335 237.132Z" fill="#6E7191"/>
<path d="M431.343 237.132C433.85 237.132 435.883 235.1 435.883 232.592C435.883 230.085 433.85 228.052 431.343 228.052C428.835 228.052 426.803 230.085 426.803 232.592C426.803 235.1 428.835 237.132 431.343 237.132Z" fill="#6E7191"/>
<path d="M569.905 41.355H423.725V232.592H569.905V41.355Z" fill="#D9DBE9"/>
<path opacity="0.3" d="M569.905 167.333H423.725V168.321H569.905V167.333Z" fill="#6E7191"/>
<path opacity="0.3" d="M530.688 141.081H423.725V142.069H530.688V141.081Z" fill="#6E7191"/>
<path opacity="0.3" d="M530.688 193.594H423.725V194.582H530.688V193.594Z" fill="#6E7191"/>
<path d="M423.725 41.355H558.289V24.8479H440.631C439.23 24.8479 437.887 25.4043 436.897 26.3946C435.906 27.3849 435.35 28.7281 435.35 30.1287V35.1625L423.725 41.355Z" fill="#D9DBE9"/>
<path opacity="0.3" d="M425.577 40.3672L423.725 41.3549H530.688V40.3672H425.577Z" fill="#6E7191"/>
<path opacity="0.3" d="M478.196 24.8384V26.9089L466.58 33.1014H558.29V24.8384H478.196Z" fill="#6E7191"/>
<path d="M434.689 72.6502V111.743C434.689 112.332 434.806 112.916 435.032 113.461C435.257 114.005 435.589 114.5 436.006 114.916C436.423 115.333 436.918 115.663 437.463 115.887C438.008 116.112 438.592 116.227 439.182 116.226H522.943C524.132 116.226 525.272 115.754 526.113 114.913C526.953 114.072 527.426 112.932 527.426 111.743V105.398H553.772C554.362 105.4 554.946 105.285 555.491 105.06C556.036 104.835 556.531 104.505 556.948 104.089C557.366 103.672 557.697 103.178 557.923 102.633C558.149 102.089 558.265 101.505 558.265 100.915V73.9703L530.664 68.1577H439.182C438.592 68.1577 438.008 68.2739 437.463 68.4997C436.918 68.7254 436.422 69.0564 436.005 69.4735C435.588 69.8907 435.257 70.3859 435.031 70.931C434.806 71.476 434.689 72.0602 434.689 72.6502Z" fill="#A0A3BD"/>
<path opacity="0.3" d="M530.687 68.1577H445.711C445.718 73.0925 447.684 77.8225 451.176 81.3092C454.668 84.796 459.401 86.7543 464.336 86.7543H530.687L536.339 90.5534C538.456 91.9821 540.922 92.8078 543.472 92.9421C546.023 93.0764 548.562 92.5142 550.817 91.3158C553.072 90.1173 554.959 88.3277 556.275 86.1388C557.591 83.95 558.287 81.4442 558.288 78.8902V73.9324L530.687 68.1577Z" fill="#6E7191"/>
<path opacity="0.3" d="M530.7 232.592H569.916V41.3549H530.7V232.592Z" fill="#6E7191"/>
<path opacity="0.7" d="M485.47 52.4484H448.03C447.08 52.4484 446.538 51.8595 446.861 51.1377L455.504 31.5723C455.745 31.1706 456.086 30.8386 456.494 30.6088C456.902 30.379 457.363 30.2593 457.831 30.2616H495.271C496.221 30.2616 496.763 30.8505 496.44 31.5723L487.797 51.1377C487.558 51.5413 487.217 51.8749 486.809 52.105C486.4 52.3351 485.938 52.4536 485.47 52.4484V52.4484Z" fill="#6E7191"/>
<path d="M484.282 52.4484H446.842C445.892 52.4484 445.351 51.8595 445.674 51.1377L454.336 31.5723C454.576 31.1706 454.918 30.8386 455.326 30.6088C455.734 30.379 456.194 30.2593 456.663 30.2616H494.103C495.053 30.2616 495.594 30.8505 495.271 31.5723L486.609 51.1377C486.369 51.54 486.028 51.8726 485.62 52.1025C485.212 52.3324 484.751 52.4516 484.282 52.4484V52.4484Z" fill="#6E7191"/>
<path opacity="0.1" d="M482.779 50.3208H450.23C449.584 50.3208 449.28 49.9314 449.451 49.447L456.622 33.3009C456.779 33.0328 457.004 32.8108 457.274 32.6574C457.544 32.504 457.85 32.4246 458.161 32.4271H490.719C491.355 32.4271 491.669 32.8165 491.488 33.3009L484.318 49.447C484.161 49.7151 483.936 49.937 483.665 50.0905C483.395 50.2439 483.09 50.3233 482.779 50.3208V50.3208Z" fill="white"/>
<path d="M463.328 40.3957H457.155C456.765 40.3957 456.547 40.1487 456.68 39.8543L458.731 35.2289C458.828 35.0632 458.967 34.9259 459.133 34.8308C459.3 34.7358 459.489 34.6864 459.681 34.6875H465.855C466.253 34.6875 466.472 34.925 466.339 35.2289L464.287 39.8543C464.188 40.0201 464.048 40.1573 463.88 40.2522C463.711 40.3471 463.521 40.3966 463.328 40.3957V40.3957Z" fill="#D9DBE9"/>
<path d="M473.98 40.3957H467.854C467.455 40.3957 467.246 40.1487 467.369 39.8543L469.421 35.2289C469.518 35.0632 469.656 34.9259 469.823 34.8308C469.99 34.7358 470.179 34.6864 470.371 34.6875H476.544C476.943 34.6875 477.152 34.925 477.019 35.2289L474.977 39.8543C474.875 40.0258 474.728 40.1666 474.553 40.2619C474.377 40.3572 474.179 40.4034 473.98 40.3957Z" fill="#D9DBE9"/>
<path d="M484.615 40.3957H478.442C478.052 40.3957 477.834 40.1487 477.967 39.8543L480.018 35.2289C480.115 35.0632 480.254 34.9259 480.421 34.8308C480.587 34.7358 480.776 34.6864 480.968 34.6875H487.142C487.541 34.6875 487.759 34.925 487.626 35.2289L485.575 39.8543C485.475 40.0201 485.335 40.1573 485.167 40.2522C484.998 40.3471 484.808 40.3966 484.615 40.3957Z" fill="white"/>
<path d="M459.928 48.0699H453.754C453.365 48.0699 453.146 47.8324 453.279 47.538L455.331 42.9031C455.429 42.7386 455.568 42.6024 455.735 42.5075C455.901 42.4127 456.089 42.3624 456.281 42.3617H462.454C462.853 42.3617 463.071 42.6086 462.939 42.9031L460.887 47.538C460.787 47.702 460.646 47.8373 460.478 47.9305C460.309 48.0238 460.12 48.0718 459.928 48.0699Z" fill="white"/>
<path d="M470.58 48.0699H464.406C464.008 48.0699 463.799 47.8324 463.922 47.538L465.974 42.9031C466.072 42.7386 466.211 42.6024 466.377 42.5075C466.544 42.4127 466.732 42.3624 466.923 42.3617H473.097C473.496 42.3617 473.705 42.6086 473.572 42.9031L471.53 47.538C471.43 47.7007 471.291 47.835 471.124 47.9282C470.958 48.0213 470.771 48.0701 470.58 48.0699V48.0699Z" fill="#D9DBE9"/>
<path d="M481.215 48.0699H475.041C474.652 48.0699 474.433 47.8324 474.566 47.538L476.618 42.9031C476.716 42.7386 476.855 42.6024 477.022 42.5075C477.188 42.4127 477.376 42.3624 477.568 42.3617H483.741C484.14 42.3617 484.359 42.6086 484.226 42.9031L482.174 47.538C482.074 47.702 481.933 47.8373 481.765 47.9305C481.597 48.0238 481.407 48.0718 481.215 48.0699V48.0699Z" fill="#D9DBE9"/>
<path d="M530.689 41.355V39.6834C530.692 38.7874 531.085 37.9288 531.781 37.2953C532.478 36.6617 533.422 36.3047 534.407 36.3022H542.885V33.1014L547.604 28.8085H558.892L561.032 24.8479V41.355H530.689Z" fill="#6E7191"/>
<path opacity="0.3" d="M489.354 153.134H465.058C464.709 153.132 464.375 152.992 464.128 152.745C463.881 152.498 463.741 152.163 463.738 151.814V151.814C463.738 151.464 463.877 151.128 464.125 150.88C464.373 150.633 464.708 150.494 465.058 150.494H489.354C489.699 150.501 490.027 150.644 490.269 150.89C490.51 151.137 490.646 151.469 490.645 151.814C490.646 152.159 490.51 152.491 490.269 152.737C490.027 152.984 489.699 153.127 489.354 153.134Z" fill="#6E7191"/>
<path opacity="0.3" d="M489.354 179.386H465.058C464.708 179.386 464.373 179.247 464.125 178.999C463.877 178.752 463.738 178.416 463.738 178.066C463.741 177.716 463.881 177.382 464.128 177.135C464.375 176.888 464.709 176.748 465.058 176.746H489.354C489.704 176.746 490.04 176.885 490.287 177.132C490.535 177.38 490.674 177.716 490.674 178.066C490.674 178.416 490.535 178.752 490.287 178.999C490.04 179.247 489.704 179.386 489.354 179.386Z" fill="#6E7191"/>
<path opacity="0.3" d="M477.207 217.215H476.219V232.592H477.207V217.215Z" fill="#6E7191"/>
<path opacity="0.3" d="M477.207 205.875H423.725V206.863H476.219V213.597H477.207V205.875Z" fill="#6E7191"/>
<path opacity="0.3" d="M493.829 213.597H460.587C460.13 213.63 459.702 213.835 459.39 214.171C459.078 214.506 458.904 214.948 458.904 215.406C458.904 215.865 459.078 216.306 459.39 216.642C459.702 216.977 460.13 217.182 460.587 217.215H493.829C494.287 217.182 494.714 216.977 495.026 216.642C495.339 216.306 495.512 215.865 495.512 215.406C495.512 214.948 495.339 214.506 495.026 214.171C494.714 213.835 494.287 213.63 493.829 213.597Z" fill="#6E7191"/>
<g opacity="0.8">
<path d="M1204.35 297.345H1209V119.721H1204.35V297.345Z" fill="#D9DBE9"/>
<path d="M1231.85 297.345H1236.5V119.721H1231.85V297.345Z" fill="#D9DBE9"/>
<path d="M939.813 297.345H944.469V119.721H939.813V297.345Z" fill="#EFF0F7"/>
<path opacity="0.2" d="M939.814 119.722H944.47V239.068L939.814 228.648V119.722Z" fill="black"/>
<path d="M912.329 297.345H916.984V119.721H912.329V297.345Z" fill="#D9DBE9"/>
<path d="M956.089 297.345H960.744V119.721H956.089V297.345Z" fill="#D9DBE9"/>
<path d="M912.33 223.622L1209.02 223.622V119.722L912.33 119.722V223.622Z" fill="#A0A3BD"/>
<path d="M909.358 119.722L1209.02 119.722V112.132L909.358 112.132V119.722Z" fill="#6E7191"/>
<path d="M1236.49 119.722H1209V223.622H1236.49V119.722Z" fill="#6E7191"/>
<path d="M1239.46 112.145H1209V119.734H1239.46V112.145Z" fill="#6E7191"/>
<path opacity="0.2" d="M1239.46 112.145H1209V119.734H1239.46V112.145Z" fill="black"/>
<path opacity="0.2" d="M912.328 125.015L1236.5 125.015V119.734L912.328 119.734V125.015Z" fill="black"/>
<path d="M1097.88 91.7503H987.618C985.565 91.7243 983.599 90.9195 982.116 89.4988C980.634 88.0781 979.747 86.1475 979.634 84.0974L976.726 20.0172C976.672 19.0293 976.82 18.0407 977.162 17.1123C977.505 16.1839 978.033 15.3353 978.715 14.6185C979.397 13.9018 980.219 13.3321 981.129 12.9445C982.039 12.5568 983.019 12.3594 984.009 12.3643H1094.27C1096.32 12.3935 1098.29 13.1997 1099.77 14.6201C1101.25 16.0405 1102.13 17.9693 1102.25 20.0172L1105.17 84.0974C1105.22 85.0858 1105.07 86.0751 1104.73 87.0043C1104.39 87.9336 1103.86 88.783 1103.18 89.5001C1102.5 90.2172 1101.68 90.7869 1100.77 91.1739C1099.85 91.5609 1098.87 91.7571 1097.88 91.7503V91.7503Z" fill="#A0A3BD"/>
<path d="M1096.41 91.7503H986.14C984.087 91.7243 982.12 90.9195 980.638 89.4988C979.156 88.0781 978.268 86.1475 978.155 84.0974L975.247 20.0172C975.193 19.0293 975.342 18.0407 975.684 17.1123C976.026 16.1839 976.554 15.3353 977.237 14.6185C977.919 13.9018 978.74 13.3321 979.65 12.9445C980.561 12.5568 981.541 12.3594 982.53 12.3643H1092.8C1094.85 12.3935 1096.81 13.1997 1098.29 14.6201C1099.77 16.0405 1100.65 17.9693 1100.77 20.0172L1103.69 84.0974C1103.74 85.0858 1103.6 86.0751 1103.26 87.0043C1102.91 87.9336 1102.39 88.783 1101.7 89.5001C1101.02 90.2172 1100.2 90.7869 1099.29 91.1739C1098.38 91.5609 1097.39 91.7571 1096.41 91.7503V91.7503Z" fill="#D9DBE9"/>
<path d="M1051.18 53.0267H1030.12V91.7503H1051.18V53.0267Z" fill="#6E7191"/>
<path d="M1029.45 48.8942L1020.16 112.12H1042.94L1052.23 48.8942H1029.45ZM1042.83 68.983L1041.33 79.1868C1041.22 79.9441 1040.84 80.6365 1040.26 81.1376C1039.68 81.6388 1038.94 81.9152 1038.18 81.9164H1034.75C1034.29 81.9156 1033.84 81.8163 1033.42 81.6251C1033 81.4339 1032.63 81.1552 1032.33 80.8081C1032.03 80.461 1031.81 80.0534 1031.68 79.613C1031.55 79.1727 1031.52 78.7098 1031.58 78.2557L1033.09 68.0519C1033.2 67.2946 1033.58 66.6022 1034.16 66.1011C1034.74 65.5999 1035.47 65.3236 1036.24 65.3223H1039.67C1040.13 65.3231 1040.58 65.4224 1041 65.6136C1041.42 65.8048 1041.79 66.0835 1042.09 66.4306C1042.39 66.7777 1042.61 67.1853 1042.74 67.6257C1042.87 68.066 1042.9 68.5289 1042.83 68.983V68.983Z" fill="#A0A3BD"/>
<path d="M1055.92 107.502H1016.05L1011.15 112.145H1066.52L1055.92 107.502Z" fill="#D9DBE9"/>
<path d="M1214.11 87.031V85.3091C1214.11 84.9404 1213.96 84.5868 1213.7 84.326C1213.44 84.0653 1213.09 83.9188 1212.72 83.9188H1195.56C1195.2 83.9188 1194.84 84.0653 1194.58 84.326C1194.32 84.5868 1194.17 84.9404 1194.17 85.3091V112.094H1214.11V108.982C1218.45 108.982 1221.85 104.161 1221.85 98.0001C1221.85 91.8396 1218.46 87.031 1214.11 87.031ZM1214.11 106.163V89.8626C1216.79 89.8626 1219.06 93.6125 1219.06 98.0512C1219.06 102.49 1216.8 106.24 1214.11 106.24V106.163Z" fill="#A0A3BD"/>
<path opacity="0.3" d="M1214.12 89.8625H1211.85L1214.12 96.1507V89.8625Z" fill="black"/>
<path opacity="0.3" d="M1214.12 109.033H1211.85L1214.12 110.079V109.033Z" fill="black"/>
</g>
<g opacity="0.7">
<path d="M167.326 184.199H246.709C246.709 184.199 228.847 188.283 216.118 190.026V197.268H197.917V190.026C185.188 188.229 167.326 184.199 167.326 184.199Z" fill="#A0A3BD"/>
<path d="M248.997 165.575H233.668C235.411 154.964 235.411 144.139 233.668 133.528H248.997C250.726 144.14 250.726 154.963 248.997 165.575V165.575Z" fill="#A0A3BD"/>
<path d="M218.804 197.268H195.238V250.88H218.804V197.268Z" fill="#A0A3BD"/>
<path opacity="0.2" d="M218.804 197.268H195.238V250.88H218.804V197.268Z" fill="white"/>
<path d="M274.55 137.231H208.522C206.735 137.255 204.965 136.881 203.341 136.136C201.716 135.391 200.277 134.293 199.129 132.924C197.981 131.554 197.152 129.946 196.702 128.216C196.252 126.487 196.193 124.678 196.528 122.923C199.679 99.2659 201.37 75.4374 201.593 51.5726C201.537 49.9527 201.812 48.3384 202.399 46.8279C202.987 45.3174 203.876 43.9422 205.012 42.786C206.148 41.6297 207.507 40.7166 209.007 40.1021C210.507 39.4875 212.116 39.1844 213.736 39.2112H269.335C272.811 39.2686 276.159 40.5334 278.804 42.7888C281.45 45.0441 283.228 48.1496 283.834 51.5726C287.088 75.2232 288.884 99.0517 289.212 122.923C289.075 126.735 287.476 130.349 284.746 133.013C282.016 135.677 278.364 137.188 274.55 137.231V137.231Z" fill="#4E4B66"/>
<path d="M277.49 122.882C277.17 99.0105 275.374 75.1817 272.113 51.5318C271.498 48.1162 269.716 45.0203 267.071 42.773C264.427 40.5258 261.084 39.2668 257.614 39.2112H213.736C212.116 39.1844 210.507 39.4875 209.007 40.1021C207.507 40.7166 206.148 41.6297 205.012 42.786C203.876 43.9422 202.987 45.3174 202.399 46.8279C201.812 48.3384 201.537 49.9527 201.593 51.5726C201.37 75.4374 199.679 99.2659 196.528 122.923C196.193 124.678 196.252 126.487 196.702 128.216C197.152 129.946 197.981 131.554 199.129 132.924C200.277 134.293 201.716 135.391 203.341 136.136C204.965 136.881 206.735 137.255 208.522 137.231H262.842C266.662 137.187 270.318 135.671 273.047 132.997C275.776 130.324 277.368 126.7 277.49 122.882V122.882Z" fill="#D9DBE9"/>
<path d="M246.709 258.394C246.709 258.688 246.644 258.978 246.518 259.243C246.391 259.509 246.207 259.742 245.978 259.926C245.749 260.11 245.482 260.241 245.196 260.308C244.91 260.375 244.613 260.377 244.326 260.314C237.097 258.748 215.465 254.188 207.024 254.188C198.584 254.188 176.938 258.748 169.709 260.314C169.422 260.377 169.124 260.375 168.839 260.308C168.553 260.241 168.285 260.11 168.057 259.926C167.828 259.742 167.644 259.509 167.517 259.243C167.391 258.978 167.325 258.688 167.326 258.394V258.394C167.325 257.212 167.73 256.065 168.474 255.146C169.217 254.226 170.254 253.59 171.41 253.344C179.865 251.519 199.155 247.571 207.024 247.571C214.893 247.571 234.17 251.519 242.624 253.344C243.781 253.59 244.818 254.226 245.561 255.146C246.305 256.065 246.71 257.212 246.709 258.394V258.394Z" fill="#A0A3BD"/>
<path d="M167.328 254.392C165.982 254.392 164.666 254.791 163.547 255.539C162.427 256.287 161.555 257.35 161.04 258.594C160.524 259.838 160.39 261.206 160.652 262.527C160.915 263.847 161.563 265.06 162.515 266.012C163.467 266.964 164.68 267.612 166 267.875C167.321 268.138 168.689 268.003 169.933 267.488C171.177 266.973 172.24 266.1 172.988 264.981C173.736 263.861 174.135 262.545 174.135 261.199C174.135 259.394 173.418 257.662 172.142 256.386C170.865 255.109 169.134 254.392 167.328 254.392V254.392ZM167.328 264.861C166.601 264.861 165.891 264.645 165.286 264.242C164.682 263.838 164.211 263.264 163.932 262.592C163.654 261.92 163.581 261.181 163.723 260.468C163.865 259.755 164.215 259.1 164.729 258.586C165.243 258.072 165.898 257.722 166.611 257.58C167.324 257.438 168.063 257.511 168.735 257.789C169.407 258.068 169.981 258.539 170.385 259.143C170.789 259.748 171.004 260.458 171.004 261.185C171.004 262.16 170.617 263.095 169.928 263.784C169.238 264.474 168.303 264.861 167.328 264.861Z" fill="#4E4B66"/>
<path d="M207.026 254.392C205.679 254.392 204.363 254.791 203.244 255.539C202.125 256.287 201.252 257.35 200.737 258.594C200.222 259.838 200.087 261.206 200.35 262.527C200.612 263.847 201.261 265.06 202.212 266.012C203.164 266.964 204.377 267.612 205.698 267.875C207.018 268.138 208.387 268.003 209.631 267.488C210.874 266.973 211.937 266.1 212.685 264.981C213.433 263.861 213.833 262.545 213.833 261.199C213.833 259.394 213.115 257.662 211.839 256.386C210.562 255.109 208.831 254.392 207.026 254.392V254.392ZM207.026 264.861C206.299 264.861 205.588 264.645 204.984 264.242C204.379 263.838 203.908 263.264 203.63 262.592C203.352 261.92 203.279 261.181 203.421 260.468C203.562 259.755 203.912 259.1 204.427 258.586C204.941 258.072 205.596 257.722 206.309 257.58C207.022 257.438 207.761 257.511 208.432 257.789C209.104 258.068 209.678 258.539 210.082 259.143C210.486 259.748 210.701 260.458 210.701 261.185C210.701 262.16 210.314 263.095 209.625 263.784C208.936 264.474 208.001 264.861 207.026 264.861V264.861Z" fill="#4E4B66"/>
<path d="M245.893 254.392C244.547 254.392 243.231 254.791 242.111 255.539C240.992 256.287 240.119 257.35 239.604 258.594C239.089 259.838 238.954 261.206 239.217 262.527C239.479 263.847 240.128 265.06 241.08 266.012C242.032 266.964 243.244 267.612 244.565 267.875C245.885 268.138 247.254 268.003 248.498 267.488C249.742 266.973 250.805 266.1 251.553 264.981C252.301 263.861 252.7 262.545 252.7 261.199C252.7 259.394 251.983 257.662 250.706 256.386C249.43 255.109 247.698 254.392 245.893 254.392V254.392ZM245.893 264.861C245.166 264.861 244.455 264.645 243.851 264.242C243.246 263.838 242.775 263.264 242.497 262.592C242.219 261.92 242.146 261.181 242.288 260.468C242.43 259.755 242.78 259.1 243.294 258.586C243.808 258.072 244.463 257.722 245.176 257.58C245.889 257.438 246.628 257.511 247.3 257.789C247.971 258.068 248.545 258.539 248.949 259.143C249.353 259.748 249.569 260.458 249.569 261.185C249.569 262.16 249.181 263.095 248.492 263.784C247.803 264.474 246.868 264.861 245.893 264.861Z" fill="#4E4B66"/>
<path d="M227.119 164.554C200.638 165.565 174.119 164.624 147.777 161.736C146.544 161.557 145.287 161.65 144.093 162.007C142.899 162.365 141.798 162.978 140.866 163.806C139.934 164.633 139.194 165.653 138.697 166.796C138.2 167.938 137.958 169.176 137.989 170.422V171.783C138.056 174.467 139.079 177.038 140.874 179.034C142.668 181.031 145.116 182.322 147.777 182.674C174.103 185.536 200.603 186.469 227.064 185.465L227.119 164.554Z" fill="#D9DBE9"/>
<path d="M266.723 182.647C251.584 184.008 236.65 185.056 221.457 185.669C220.238 185.7 219.026 185.486 217.893 185.04C216.759 184.593 215.726 183.923 214.856 183.07C213.986 182.216 213.297 181.197 212.829 180.072C212.361 178.947 212.123 177.739 212.131 176.521V174.206C212.13 171.714 213.106 169.32 214.85 167.539C216.593 165.758 218.965 164.73 221.457 164.677C236.65 164.078 251.584 163.07 266.723 161.654C267.884 161.496 269.066 161.59 270.188 161.929C271.31 162.268 272.346 162.844 273.226 163.619C274.105 164.394 274.808 165.349 275.285 166.419C275.763 167.49 276.004 168.65 275.994 169.823V172.137C275.974 174.712 275.025 177.193 273.321 179.124C271.618 181.055 269.275 182.306 266.723 182.647V182.647Z" fill="#A0A3BD"/>
<path d="M308.367 286.071H303.956L302.771 121.875H308.367V286.071Z" fill="#4E4B66"/>
<path opacity="0.5" d="M308.367 286.071H303.956L302.771 121.875H308.367V286.071Z" fill="white"/>
<path d="M312.778 286.071H308.367V121.875H313.963L312.778 286.071Z" fill="#6E7191"/>
<path d="M50.482 286.071H46.0711L44.8867 121.875H50.482V286.071Z" fill="#A0A3BD"/>
<path d="M54.8758 286.071H50.4785V121.875H56.0738L54.8758 286.071Z" fill="#6E7191"/>
<path d="M259.657 111.147H0V121.861H259.657V111.147Z" fill="#A0A3BD"/>
<path opacity="0.2" d="M259.657 111.147H0V121.861H259.657V111.147Z" fill="white"/>
<path d="M322.827 111.147H255.152V121.861H322.827V111.147Z" fill="#6E7191"/>
<path d="M273.364 121.875H15.4766V139.545H273.364V121.875Z" fill="#A0A3BD"/>
<path d="M273.38 139.545H308.367V121.875H273.38V139.545Z" fill="#4E4B66"/>
<path d="M15.4801 296.963H11.0828L9.88477 121.875H15.4801V296.963Z" fill="#A0A3BD"/>
<path d="M19.8874 296.963H15.4766V121.875H21.0718L19.8874 296.963Z" fill="#6E7191"/>
<path d="M273.379 296.963H268.968L267.783 121.875H273.379V296.963Z" fill="#A0A3BD"/>
<path d="M277.778 296.963H273.381V121.875H278.976L277.778 296.963Z" fill="#6E7191"/>
<path d="M179.812 0.193848H171.984L177.729 82.7755H185.544C185.845 82.7806 186.145 82.7221 186.422 82.604C186.699 82.4859 186.949 82.3107 187.154 82.0899C187.36 81.8691 187.516 81.6076 187.614 81.3223C187.712 81.037 187.749 80.7343 187.722 80.434L182.276 2.53543C182.223 1.91119 181.943 1.32806 181.489 0.896498C181.035 0.46494 180.438 0.214932 179.812 0.193848V0.193848Z" fill="#D9DBE9"/>
<path d="M181.09 82.7756H63.9159C63.2803 82.7678 62.6704 82.5236 62.2048 82.0908C61.7393 81.658 61.4514 81.0674 61.3974 80.434L55.9518 2.53549C55.9251 2.2351 55.9618 1.93245 56.0596 1.64717C56.1573 1.36188 56.314 1.10037 56.5194 0.879558C56.7248 0.65875 56.9744 0.483587 57.2518 0.365465C57.5293 0.247344 57.8285 0.188893 58.1301 0.1939H175.318C175.952 0.202035 176.561 0.446613 177.024 0.879724C177.487 1.31284 177.772 1.90329 177.823 2.53549L183.269 80.434C183.293 80.7339 183.255 81.0357 183.157 81.3201C183.058 81.6044 182.901 81.8651 182.696 82.0854C182.491 82.3058 182.243 82.4809 181.966 82.5998C181.69 82.7186 181.391 82.7785 181.09 82.7756V82.7756Z" fill="#A0A3BD"/>
<path opacity="0.1" d="M119.61 62.8177C102.28 63.2261 63.916 82.7756 63.916 82.7756H181.091C181.091 82.7756 138.125 62.3548 119.61 62.8177Z" fill="#4E4B66"/>
<path d="M134.817 67.4191C134.778 66.633 134.439 65.8918 133.868 65.3494C133.298 64.8069 132.541 64.5048 131.754 64.5058H110.775C109.987 64.5015 109.227 64.8024 108.656 65.3456C108.085 65.8887 107.747 66.6318 107.712 67.4191L105.574 111.147H136.886L134.817 67.4191Z" fill="#A0A3BD"/>
<path d="M137.188 67.4191C137.149 66.6329 136.81 65.8918 136.239 65.3493C135.669 64.8069 134.912 64.5048 134.125 64.5057H131.756C132.543 64.5048 133.3 64.8069 133.871 65.3493C134.441 65.8918 134.78 66.6329 134.819 67.4191L136.888 111.147H139.243L137.188 67.4191Z" fill="#D9DBE9"/>
</g>
<path d="M820.263 104.377V97.0271C820.076 97.0271 819.896 96.9528 819.764 96.8205C819.632 96.6882 819.557 96.5088 819.557 96.3217C819.557 96.1346 819.632 95.9551 819.764 95.8228C819.896 95.6905 820.076 95.6162 820.263 95.6162H828.651V105.8H820.263C820.074 105.8 819.893 105.725 819.759 105.592C819.626 105.458 819.551 105.277 819.551 105.089C819.551 104.9 819.626 104.719 819.759 104.585C819.893 104.452 820.074 104.377 820.263 104.377V104.377Z" fill="#4E4B66"/>
<path opacity="0.3" d="M820.263 104.377V97.0271C820.076 97.0271 819.896 96.9528 819.764 96.8205C819.632 96.6882 819.557 96.5088 819.557 96.3217C819.557 96.1346 819.632 95.9551 819.764 95.8228C819.896 95.6905 820.076 95.6162 820.263 95.6162H828.651V105.8H820.263C820.074 105.8 819.893 105.725 819.759 105.592C819.626 105.458 819.551 105.277 819.551 105.089C819.551 104.9 819.626 104.719 819.759 104.585C819.893 104.452 820.074 104.377 820.263 104.377V104.377Z" fill="#4E4B66"/>
<path d="M826.74 97.0271H820.225V104.364H826.74V97.0271Z" fill="#EFF0F7"/>
<path d="M825.395 105.069H847.982C849.534 105.069 850.791 103.12 850.791 100.695C850.791 98.2712 849.508 96.3217 847.982 96.3217H825.395V105.069Z" fill="white"/>
<path d="M825.395 95.6162C832.796 95.6162 840.197 95.4879 847.585 95.6162C852.715 95.706 852.92 105.441 847.957 105.775C844.494 106.018 840.941 105.775 837.465 105.775H825.395C825.226 105.752 825.071 105.668 824.958 105.54C824.846 105.411 824.784 105.246 824.784 105.076C824.784 104.905 824.846 104.74 824.958 104.612C825.071 104.483 825.226 104.4 825.395 104.377H846.418C848.046 104.377 849.201 104.377 849.829 102.44C850.368 100.772 850.201 97.3991 847.982 97.0271C847.73 97.0079 847.477 97.0079 847.226 97.0271H825.395C825.208 97.0271 825.028 96.9528 824.896 96.8205C824.764 96.6882 824.689 96.5088 824.689 96.3217C824.689 96.1346 824.764 95.9551 824.896 95.8228C825.028 95.6905 825.208 95.6162 825.395 95.6162Z" fill="#4E4B66"/>
<path d="M853.444 116.177V106.968C853.679 106.968 853.904 106.874 854.07 106.708C854.236 106.543 854.329 106.317 854.329 106.083C854.329 105.848 854.236 105.623 854.07 105.457C853.904 105.291 853.679 105.198 853.444 105.198H842.939V118.024H853.444C853.689 118.024 853.924 117.927 854.097 117.754C854.271 117.58 854.368 117.346 854.368 117.101C854.368 116.856 854.271 116.621 854.097 116.448C853.924 116.274 853.689 116.177 853.444 116.177V116.177Z" fill="#4E4B66"/>
<path opacity="0.3" d="M853.444 116.177V106.968C853.679 106.968 853.904 106.874 854.07 106.708C854.236 106.543 854.329 106.317 854.329 106.083C854.329 105.848 854.236 105.623 854.07 105.457C853.904 105.291 853.679 105.198 853.444 105.198H842.939V118.024H853.444C853.689 118.024 853.924 117.927 854.097 117.754C854.271 117.58 854.368 117.346 854.368 117.101C854.368 116.856 854.271 116.621 854.097 116.448C853.924 116.274 853.689 116.177 853.444 116.177V116.177Z" fill="white"/>
<path d="M853.445 106.968H845.287V116.164H853.445V106.968Z" fill="#4E4B66"/>
<path opacity="0.8" d="M853.445 106.968H845.287V116.164H853.445V106.968Z" fill="white"/>
<path d="M846.994 117.049H818.699C816.75 117.049 815.172 114.599 815.172 111.572C815.172 108.545 816.75 106.083 818.699 106.083H846.994V117.049Z" fill="white"/>
<path d="M846.996 105.198C837.736 105.198 828.449 105.031 819.189 105.198C812.84 105.313 812.493 117.511 818.727 117.934C823.062 118.229 827.526 117.934 831.874 117.934H846.996C847.211 117.908 847.409 117.805 847.552 117.643C847.696 117.481 847.775 117.272 847.775 117.056C847.775 116.839 847.696 116.631 847.552 116.469C847.409 116.307 847.211 116.203 846.996 116.177H820.651C818.624 116.177 817.162 116.177 816.38 113.74C815.7 111.662 815.918 107.429 818.701 106.968C819.017 106.942 819.335 106.942 819.65 106.968H846.996C847.231 106.968 847.456 106.874 847.622 106.708C847.788 106.543 847.881 106.317 847.881 106.083C847.881 105.848 847.788 105.623 847.622 105.457C847.456 105.291 847.231 105.198 846.996 105.198V105.198Z" fill="#4E4B66"/>
<path d="M847.291 112.868H801.59V158.658H847.291V112.868Z" fill="#A0A3BD"/>
<path d="M875.353 112.868H847.289V158.658H875.353V112.868Z" fill="#4E4B66"/>
<path opacity="0.2" d="M875.353 112.868H847.289V158.658H875.353V112.868Z" fill="white"/>
<path d="M838.553 125.746H792.865L801.587 112.868H847.288L838.553 125.746Z" fill="#6E7191"/>
<path d="M855.562 125.746H883.626L875.353 112.868H847.289L855.562 125.746Z" fill="#4E4B66"/>
<path opacity="0.7" d="M855.562 125.746H883.626L875.353 112.868H847.289L855.562 125.746Z" fill="white"/>
<path d="M850.368 158.658H773.627V235.553H850.368V158.658Z" fill="#EFF0F7"/>
<path d="M897.504 158.658H850.367V235.553H897.504V158.658Z" fill="#A0A3BD"/>
<path d="M869.221 158.646V187.749L870.439 186.646L872.594 187.992L874.48 186.646L876.904 187.992L879.456 186.646L881.072 187.992L882.958 187.005V158.646H869.221Z" fill="#EFF0F7"/>
<path opacity="0.2" d="M1161.41 98.9585C1163.65 97.683 1162.89 85.4128 1161.9 78.3977C1160.7 69.9158 1157.13 54.9033 1145.78 46.5872C1140.37 42.6205 1135.21 39.2532 1134.3 34.9803C1132.64 38.8068 1123.22 65.898 1136.66 78.0788C1148.04 88.372 1156.47 86.0761 1161.41 98.9585Z" fill="#4E4B66"/>
<path d="M1158.42 91.9944C1155.8 90.5276 1158.8 76.2294 1161.2 68.0919C1164.09 58.2451 1171.06 40.8476 1186.71 31.3325C1194.13 26.8045 1201.19 22.9781 1203.06 17.991C1204.51 22.4169 1209.18 57.2758 1190.31 71.2551C1174.27 83.0788 1166.77 77.0968 1158.42 91.9944Z" fill="#6E7191"/>
<path d="M1159.7 88.8057C1159.77 88.8042 1159.85 88.7788 1159.91 88.7331C1159.97 88.6874 1160.02 88.6236 1160.04 88.5506C1163.91 76.4994 1168.81 64.8028 1174.68 53.5897C1184.25 34.7763 1197.12 31.7152 1197.25 31.6896C1197.29 31.6792 1197.33 31.6599 1197.37 31.633C1197.41 31.6061 1197.44 31.572 1197.46 31.5328C1197.49 31.4936 1197.5 31.4501 1197.51 31.4047C1197.52 31.3594 1197.51 31.3131 1197.5 31.2687C1197.49 31.2243 1197.48 31.1821 1197.45 31.1446C1197.43 31.107 1197.39 31.0749 1197.35 31.05C1197.32 31.0251 1197.27 31.008 1197.23 30.9995C1197.18 30.9911 1197.14 30.9916 1197.09 31.0009C1196.95 31.0009 1183.79 34.1386 1174.06 53.2835C1168.19 64.5387 1163.29 76.2782 1159.43 88.372C1159.41 88.4616 1159.42 88.557 1159.46 88.6379C1159.51 88.7188 1159.58 88.779 1159.67 88.8057H1159.7Z" fill="white"/>
<path d="M1200.39 44.0363C1200.43 44.0384 1200.47 44.0316 1200.52 44.0163C1200.56 44.0009 1200.6 43.9774 1200.63 43.9471C1200.69 43.8804 1200.73 43.7912 1200.73 43.6983C1200.73 43.6055 1200.69 43.5163 1200.63 43.4496C1198.27 41.1919 1195.26 39.7266 1192.03 39.2579C1188.8 38.7893 1185.5 39.3405 1182.59 40.8349C1182.55 40.8538 1182.51 40.881 1182.48 40.9148C1182.45 40.9486 1182.43 40.9883 1182.42 41.0313C1182.4 41.0743 1182.4 41.1199 1182.4 41.1651C1182.4 41.2103 1182.42 41.2542 1182.44 41.2941C1182.46 41.3364 1182.48 41.3745 1182.52 41.4062C1182.55 41.4378 1182.59 41.4622 1182.63 41.4777C1182.68 41.4933 1182.72 41.4998 1182.77 41.4967C1182.81 41.4936 1182.86 41.4811 1182.9 41.4599C1185.68 40.0385 1188.83 39.5203 1191.92 39.9776C1195.01 40.4349 1197.88 41.8449 1200.13 44.0108C1200.21 44.0484 1200.3 44.0574 1200.39 44.0363V44.0363Z" fill="white"/>
<path d="M1186.9 67.3138C1186.96 67.3308 1187.02 67.3308 1187.08 67.3138C1187.12 67.2913 1187.16 67.2612 1187.18 67.2253C1187.21 67.1893 1187.23 67.1482 1187.24 67.1044C1187.26 67.0605 1187.26 67.0147 1187.25 66.9696C1187.25 66.9246 1187.23 66.8812 1187.21 66.8418C1187.21 66.727 1180.83 56.2043 1171.48 58.7808C1171.39 58.8075 1171.32 58.8677 1171.27 58.9486C1171.23 59.0295 1171.22 59.1249 1171.24 59.2145C1171.27 59.3032 1171.33 59.3782 1171.41 59.4234C1171.49 59.4686 1171.58 59.4806 1171.67 59.4568C1180.49 57.0206 1186.55 67.1097 1186.6 67.199C1186.64 67.2403 1186.68 67.2721 1186.74 67.292C1186.79 67.3119 1186.85 67.3194 1186.9 67.3138V67.3138Z" fill="white"/>
<path d="M1176.79 49.4316C1176.87 49.4301 1176.94 49.4047 1177 49.359C1177.06 49.3133 1177.11 49.2495 1177.13 49.1765C1177.46 47.968 1177.34 46.6839 1176.8 45.5541C1176.6 45.2342 1176.33 44.9608 1176.01 44.752C1175.7 44.5432 1175.34 44.4036 1174.97 44.3424C1174.92 44.3312 1174.87 44.3294 1174.83 44.337C1174.78 44.3446 1174.74 44.3616 1174.7 44.3868C1174.66 44.412 1174.63 44.4448 1174.61 44.4833C1174.58 44.5217 1174.56 44.565 1174.56 44.6103C1174.54 44.7015 1174.56 44.7966 1174.61 44.8753C1174.66 44.9539 1174.73 45.0099 1174.83 45.0312C1175.11 45.0676 1175.38 45.1667 1175.62 45.3212C1175.85 45.4757 1176.05 45.6817 1176.2 45.924C1176.63 46.8899 1176.72 47.9741 1176.46 48.9979C1176.44 49.0415 1176.44 49.0873 1176.45 49.1326C1176.45 49.1779 1176.46 49.2217 1176.49 49.2612C1176.51 49.3007 1176.54 49.3351 1176.58 49.3622C1176.61 49.3893 1176.66 49.4086 1176.7 49.4188L1176.79 49.4316Z" fill="white"/>
<path d="M1141.29 85.4639H1173.57L1170.6 113.104H1144.26L1141.29 85.4639Z" fill="#A0A3BD"/>
</svg>
