<svg width="724" height="603" viewBox="0 0 724 603" fill="none" xmlns="http://www.w3.org/2000/svg">
<g filter="url(#filter0_d)">
<path d="M650.012 26.9048H430.204C418.102 26.9048 408.292 36.4419 408.292 48.2064V184.516C408.292 196.28 418.102 205.818 430.204 205.818H650.012C662.114 205.818 671.924 196.28 671.924 184.516V48.2064C671.924 36.4419 662.114 26.9048 650.012 26.9048Z" fill="white" fill-opacity="0.01"/>
</g>
<path d="M659.719 16H418.965C405.71 16 394.965 26.7452 394.965 40V193.577C394.965 206.831 405.71 217.577 418.965 217.577H659.719C672.974 217.577 683.719 206.831 683.719 193.577V40C683.719 26.7452 672.974 16 659.719 16Z" fill="white"/>
<path d="M640.002 59.2151H439.818C436.984 59.2151 434.688 61.5119 434.688 64.3453C434.688 67.1786 436.984 69.4754 439.818 69.4754H640.002C642.836 69.4754 645.133 67.1786 645.133 64.3453C645.133 61.5119 642.836 59.2151 640.002 59.2151Z" fill="#F5F7FC"/>
<g filter="url(#filter1_d)">
<path d="M527.919 61.7434H440.532C437.909 61.7434 435.783 62.8866 435.783 64.2968C435.783 65.707 437.909 66.8501 440.532 66.8501H527.919C530.542 66.8501 532.668 65.707 532.668 64.2968C532.668 62.8866 530.542 61.7434 527.919 61.7434Z" fill="#FFC226" fill-opacity="0.01"/>
</g>
<path d="M533.069 59.2153H438.677C435.844 59.2153 433.547 61.5121 433.547 64.3455C433.547 67.1788 435.844 69.4756 438.677 69.4756H533.069C535.902 69.4756 538.199 67.1788 538.199 64.3455C538.199 61.5121 535.902 59.2153 533.069 59.2153Z" fill="#FFC226"/>
<path d="M640.006 85.4365H439.822C436.988 85.4365 434.691 87.7334 434.691 90.5667C434.691 93.4 436.988 95.6968 439.822 95.6968H640.006C642.84 95.6968 645.137 93.4 645.137 90.5667C645.137 87.7334 642.84 85.4365 640.006 85.4365Z" fill="#F5F7FC"/>
<g filter="url(#filter2_d)">
<path d="M592.172 86.6921H442.391C439.618 86.6921 437.37 88.3956 437.37 90.4969C437.37 92.5982 439.618 94.3016 442.391 94.3016H592.172C594.944 94.3016 597.192 92.5982 597.192 90.4969C597.192 88.3956 594.944 86.6921 592.172 86.6921Z" fill="#FF3951" fill-opacity="0.01"/>
</g>
<path d="M592.87 85.4365H439.821C436.988 85.4365 434.691 87.7334 434.691 90.5667C434.691 93.4 436.988 95.6968 439.821 95.6968H592.87C595.703 95.6968 598 93.4 598 90.5667C598 87.7334 595.703 85.4365 592.87 85.4365Z" fill="#FF3951"/>
<path d="M640.006 111.658H439.822C436.988 111.658 434.691 113.955 434.691 116.788C434.691 119.621 436.988 121.918 439.822 121.918H640.006C642.84 121.918 645.137 119.621 645.137 116.788C645.137 113.955 642.84 111.658 640.006 111.658Z" fill="#F5F7FC"/>
<g filter="url(#filter3_d)">
<path d="M470.022 111.658H439.349C436.516 111.658 434.219 113.955 434.219 116.788C434.219 119.621 436.516 121.918 439.349 121.918H470.022C472.855 121.918 475.152 119.621 475.152 116.788C475.152 113.955 472.855 111.658 470.022 111.658Z" fill="#FFC226" fill-opacity="0.01"/>
</g>
<path d="M470.494 111.658H439.821C436.988 111.658 434.691 113.955 434.691 116.788C434.691 119.621 436.988 121.918 439.821 121.918H470.494C473.327 121.918 475.624 119.621 475.624 116.788C475.624 113.955 473.327 111.658 470.494 111.658Z" fill="#FFC226"/>
<path d="M640.006 137.879H439.822C436.988 137.879 434.691 140.176 434.691 143.009C434.691 145.843 436.988 148.139 439.822 148.139H640.006C642.84 148.139 645.137 145.843 645.137 143.009C645.137 140.176 642.84 137.879 640.006 137.879Z" fill="#F5F7FC"/>
<g filter="url(#filter4_d)">
<path d="M559.333 139.185H441.176C438.374 139.185 436.102 140.826 436.102 142.852C436.102 144.877 438.374 146.519 441.176 146.519H559.333C562.136 146.519 564.408 144.877 564.408 142.852C564.408 140.826 562.136 139.185 559.333 139.185Z" fill="#FF3951" fill-opacity="0.01"/>
</g>
<path d="M559.28 137.879H439.821C436.988 137.879 434.691 140.175 434.691 143.009C434.691 145.842 436.988 148.139 439.821 148.139H559.28C562.114 148.139 564.411 145.842 564.411 143.009C564.411 140.175 562.114 137.879 559.28 137.879Z" fill="#FF3951"/>
<path d="M640.006 164.101H439.822C436.988 164.101 434.691 166.398 434.691 169.231C434.691 172.064 436.988 174.361 439.822 174.361H640.006C642.84 174.361 645.137 172.064 645.137 169.231C645.137 166.398 642.84 164.101 640.006 164.101Z" fill="#F5F7FC"/>
<g filter="url(#filter5_d)">
<path d="M577.15 165.537H440.883C438.1 165.537 435.843 167.287 435.843 169.445C435.843 171.603 438.1 173.353 440.883 173.353H577.15C579.934 173.353 582.19 171.603 582.19 169.445C582.19 167.287 579.934 165.537 577.15 165.537Z" fill="#FFC226" fill-opacity="0.01"/>
</g>
<path d="M578.532 164.101H439.821C436.988 164.101 434.691 166.398 434.691 169.231C434.691 172.065 436.988 174.362 439.821 174.362H578.532C581.366 174.362 583.662 172.065 583.662 169.231C583.662 166.398 581.366 164.101 578.532 164.101Z" fill="#FFC226"/>
<g filter="url(#filter6_d)">
<path d="M511.598 339.109H657.639C670.41 339.109 680.763 349.462 680.763 362.233V523.422C680.763 536.193 670.41 546.546 657.639 546.546H511.598C498.827 546.546 488.474 536.193 488.474 523.422V362.233C488.474 349.462 498.827 339.109 511.598 339.109Z" fill="white" fill-opacity="0.01"/>
</g>
<path d="M508.831 335.178H660.406C673.661 335.178 684.406 345.923 684.406 359.178V526.476C684.406 539.731 673.661 550.476 660.406 550.476H508.831C495.576 550.476 484.831 539.731 484.831 526.476V359.178C484.831 345.923 495.576 335.178 508.831 335.178Z" fill="white"/>
<path d="M596.696 511.316C634.522 504.646 659.778 468.576 653.109 430.75C646.439 392.925 610.369 367.668 572.544 374.338C534.718 381.008 509.461 417.078 516.131 454.903C522.801 492.729 558.871 517.985 596.696 511.316ZM577.955 405.026C598.831 401.345 618.739 415.285 622.421 436.161C626.102 457.038 612.162 476.946 591.285 480.627C570.409 484.308 550.501 470.369 546.819 449.492C543.138 428.615 557.078 408.707 577.955 405.026Z" fill="#F5F7FC"/>
<g filter="url(#filter7_d)">
<path d="M532.184 457.662C534.551 465.036 538.447 471.827 543.617 477.593C548.787 483.359 555.116 487.97 562.189 491.124C569.262 494.279 576.92 495.906 584.665 495.9C592.409 495.893 600.065 494.254 607.133 491.088" stroke="#FFC226" stroke-opacity="0.01" stroke-width="28.945" stroke-linecap="round"/>
</g>
<path d="M532.184 457.662C534.551 465.036 538.447 471.827 543.617 477.593C548.787 483.359 555.116 487.97 562.189 491.124C569.262 494.279 576.92 495.906 584.665 495.9C592.409 495.893 600.065 494.254 607.133 491.088" stroke="#FFC226" stroke-width="28.945" stroke-linecap="round"/>
<g filter="url(#filter8_d)">
<path d="M546.063 403.507C536.222 413.666 530.666 427.222 530.548 441.366C530.43 455.51 535.758 469.157 545.428 479.48" stroke="#FF8139" stroke-opacity="0.01" stroke-width="28.945" stroke-linecap="round"/>
</g>
<path d="M546.063 403.507C536.222 413.666 530.666 427.222 530.548 441.366C530.43 455.51 535.758 469.157 545.428 479.48" stroke="#FF8139" stroke-width="28.945" stroke-linecap="round"/>
<g filter="url(#filter9_d)">
<path d="M639.677 444.121C639.927 433.46 637.078 422.956 631.474 413.884C625.869 404.812 617.752 398.561 608.107 394.014C598.462 389.466 587.704 387.816 577.139 389.264C566.574 390.713 556.657 394.197 548.592 401.173" stroke="#FF3951" stroke-opacity="0.01" stroke-width="28.945" stroke-linecap="round"/>
</g>
<path d="M639.677 444.121C639.927 433.46 637.078 422.956 631.474 413.884C625.869 404.812 617.752 398.561 608.107 394.014C598.462 389.466 587.704 387.816 577.139 389.264C566.574 390.713 556.657 394.197 548.592 401.173" stroke="#FF3951" stroke-width="28.945" stroke-linecap="round"/>
<g filter="url(#filter10_d)">
<path d="M242.602 363.216H71C57.7452 363.216 47 373.961 47 387.216V529.127C47 542.381 57.7452 553.127 71 553.127H242.602C255.857 553.127 266.602 542.381 266.602 529.127V387.216C266.602 373.961 255.857 363.216 242.602 363.216Z" fill="white" fill-opacity="0.01"/>
</g>
<path d="M242.602 363.216H71C57.7452 363.216 47 373.961 47 387.216V529.127C47 542.381 57.7452 553.127 71 553.127H242.602C255.857 553.127 266.602 542.381 266.602 529.127V387.216C266.602 373.961 255.857 363.216 242.602 363.216Z" fill="white"/>
<g filter="url(#filter11_d)">
<path d="M212.267 427.8V504.996C212.267 508.112 214.793 510.638 217.909 510.638C221.025 510.638 223.551 508.112 223.551 504.996V427.8C223.551 424.684 221.025 422.158 217.909 422.158C214.793 422.158 212.267 424.684 212.267 427.8Z" fill="#FF3951" fill-opacity="0.01"/>
</g>
<path d="M212.267 427.8V504.996C212.267 508.112 214.793 510.638 217.909 510.638C221.025 510.638 223.551 508.112 223.551 504.996V427.8C223.551 424.684 221.025 422.158 217.909 422.158C214.793 422.158 212.267 424.684 212.267 427.8Z" fill="#FF3951"/>
<g filter="url(#filter12_d)">
<path d="M187.83 439.579V504.982C187.83 508.098 190.356 510.624 193.471 510.624C196.587 510.624 199.113 508.098 199.113 504.982V439.579C199.113 436.463 196.587 433.938 193.471 433.938C190.356 433.938 187.83 436.463 187.83 439.579Z" fill="#FFC226" fill-opacity="0.01"/>
</g>
<path d="M187.83 439.579V504.982C187.83 508.098 190.356 510.624 193.471 510.624C196.587 510.624 199.113 508.098 199.113 504.982V439.579C199.113 436.463 196.587 433.938 193.471 433.938C190.356 433.938 187.83 436.463 187.83 439.579Z" fill="#FFC226"/>
<g filter="url(#filter13_d)">
<path d="M163.38 480.83V504.982C163.38 508.098 165.906 510.624 169.022 510.624C172.138 510.624 174.664 508.098 174.664 504.982V480.83C174.664 477.714 172.138 475.188 169.022 475.188C165.906 475.188 163.38 477.714 163.38 480.83Z" fill="#FF3951" fill-opacity="0.01"/>
</g>
<path d="M163.38 480.83V504.982C163.38 508.098 165.906 510.624 169.022 510.624C172.138 510.624 174.664 508.098 174.664 504.982V480.83C174.664 477.714 172.138 475.188 169.022 475.188C165.906 475.188 163.38 477.714 163.38 480.83Z" fill="#FF3951"/>
<g filter="url(#filter14_d)">
<path d="M138.927 419.044V504.982C138.927 508.098 141.453 510.624 144.569 510.624C147.685 510.624 150.211 508.098 150.211 504.982V419.044C150.211 415.928 147.685 413.402 144.569 413.402C141.453 413.402 138.927 415.928 138.927 419.044Z" fill="#FFC226" fill-opacity="0.01"/>
</g>
<path d="M138.927 419.044V504.982C138.927 508.098 141.453 510.624 144.569 510.624C147.685 510.624 150.211 508.098 150.211 504.982V419.044C150.211 415.928 147.685 413.402 144.569 413.402C141.453 413.402 138.927 415.928 138.927 419.044Z" fill="#FFC226"/>
<g filter="url(#filter15_d)">
<path d="M114.486 411.346V504.982C114.486 508.098 117.012 510.624 120.128 510.624C123.244 510.624 125.77 508.098 125.77 504.982V411.346C125.77 408.23 123.244 405.704 120.128 405.704C117.012 405.704 114.486 408.23 114.486 411.346Z" fill="#FF3951" fill-opacity="0.01"/>
</g>
<path d="M114.486 411.346V504.982C114.486 508.098 117.012 510.624 120.128 510.624C123.244 510.624 125.77 508.098 125.77 504.982V411.346C125.77 408.23 123.244 405.704 120.128 405.704C117.012 405.704 114.486 408.23 114.486 411.346Z" fill="#FF3951"/>
<g filter="url(#filter16_d)">
<path d="M90.0446 449.793V504.982C90.0446 508.098 92.5705 510.624 95.6863 510.624C98.8022 510.624 101.328 508.098 101.328 504.982V449.793C101.328 446.677 98.8022 444.151 95.6863 444.151C92.5705 444.151 90.0446 446.677 90.0446 449.793Z" fill="#FFC226" fill-opacity="0.01"/>
</g>
<path d="M90.0447 449.793V504.982C90.0447 508.098 92.5706 510.624 95.6864 510.624C98.8023 510.624 101.328 508.098 101.328 504.982V449.793C101.328 446.677 98.8023 444.151 95.6864 444.151C92.5706 444.151 90.0447 446.677 90.0447 449.793Z" fill="#FFC226"/>
<g filter="url(#filter17_d)">
<path d="M221.949 50.6982H85.6537C71.8976 50.6982 60.7461 61.8498 60.7461 75.6058V238.892C60.7461 252.648 71.8976 263.799 85.6537 263.799H221.949C235.706 263.799 246.857 252.648 246.857 238.892V75.6058C246.857 61.8498 235.706 50.6982 221.949 50.6982Z" fill="white" fill-opacity="0.01"/>
</g>
<path d="M221.949 50.6982H85.6537C71.8976 50.6982 60.7461 61.8498 60.7461 75.6058V238.892C60.7461 252.648 71.8976 263.799 85.6537 263.799H221.949C235.706 263.799 246.857 252.648 246.857 238.892V75.6058C246.857 61.8498 235.706 50.6982 221.949 50.6982Z" fill="white"/>
<g filter="url(#filter18_d)">
<path d="M101.088 88.491C98.8477 88.491 96.658 89.1552 94.7954 90.3998C92.9328 91.6443 91.4811 93.4132 90.6239 95.4828C89.7666 97.5523 89.5423 99.8296 89.9794 102.027C90.4164 104.224 91.4951 106.242 93.0791 107.826C94.6631 109.41 96.6812 110.489 98.8782 110.926C101.075 111.363 103.353 111.138 105.422 110.281C107.492 109.424 109.261 107.972 110.505 106.11C111.75 104.247 112.414 102.057 112.414 99.8171C112.41 96.8143 111.216 93.9355 109.093 91.8122C106.969 89.6889 104.091 88.4945 101.088 88.491ZM107.626 96.2305L101.165 104.998C101.089 105.099 100.993 105.184 100.884 105.248C100.774 105.312 100.653 105.353 100.528 105.37C100.402 105.386 100.274 105.377 100.152 105.344C100.03 105.311 99.9154 105.253 99.8155 105.175L95.202 101.487C95.1052 101.409 95.0246 101.313 94.9648 101.205C94.9051 101.096 94.8672 100.977 94.8536 100.854C94.826 100.605 94.8983 100.355 95.0548 100.16C95.2112 99.9642 95.439 99.8388 95.6878 99.8112C95.811 99.7976 95.9358 99.8083 96.0548 99.8428C96.1739 99.8773 96.285 99.935 96.3818 100.012L100.229 103.09L106.106 95.1139C106.177 95.0077 106.269 94.917 106.375 94.8472C106.482 94.7774 106.602 94.73 106.728 94.7078C106.853 94.6857 106.982 94.6892 107.106 94.7182C107.231 94.7473 107.348 94.8012 107.451 94.8767C107.553 94.9523 107.64 95.0479 107.705 95.1578C107.769 95.2677 107.811 95.3896 107.828 95.5161C107.844 95.6426 107.835 95.7712 107.8 95.894C107.765 96.0168 107.706 96.1312 107.626 96.2305Z" fill="#FF3951" fill-opacity="0.01"/>
</g>
<path d="M101.087 109.466C106.365 109.466 110.643 105.187 110.643 99.9096C110.643 94.6319 106.365 90.3535 101.087 90.3535C95.8093 90.3535 91.5309 94.6319 91.5309 99.9096C91.5309 105.187 95.8093 109.466 101.087 109.466Z" fill="white"/>
<path d="M101.088 88.4912C98.8477 88.4912 96.658 89.1554 94.7954 90.4C92.9328 91.6445 91.4811 93.4134 90.6239 95.483C89.7666 97.5525 89.5423 99.8298 89.9794 102.027C90.4164 104.224 91.4951 106.242 93.0791 107.826C94.6631 109.41 96.6812 110.489 98.8782 110.926C101.075 111.363 103.353 111.138 105.422 110.281C107.492 109.424 109.261 107.972 110.505 106.11C111.75 104.247 112.414 102.057 112.414 99.8173C112.41 96.8145 111.216 93.9357 109.093 91.8124C106.969 89.6891 104.091 88.4947 101.088 88.4912ZM107.626 96.2307L101.165 104.998C101.089 105.099 100.993 105.184 100.884 105.248C100.774 105.312 100.653 105.353 100.528 105.37C100.402 105.386 100.274 105.377 100.152 105.344C100.03 105.311 99.9154 105.253 99.8155 105.175L95.202 101.487C95.1052 101.409 95.0246 101.313 94.9648 101.205C94.9051 101.096 94.8672 100.977 94.8536 100.854C94.826 100.605 94.8983 100.355 95.0548 100.16C95.2112 99.9644 95.439 99.839 95.6878 99.8114C95.811 99.7978 95.9358 99.8085 96.0548 99.843C96.1739 99.8775 96.285 99.9352 96.3818 100.012L100.229 103.09L106.106 95.1141C106.177 95.0079 106.269 94.9172 106.375 94.8474C106.482 94.7776 106.602 94.7302 106.728 94.708C106.853 94.6859 106.982 94.6894 107.106 94.7184C107.231 94.7475 107.348 94.8014 107.451 94.8769C107.553 94.9525 107.64 95.0481 107.705 95.158C107.769 95.2679 107.811 95.3898 107.828 95.5163C107.844 95.6428 107.835 95.7714 107.8 95.8942C107.765 96.017 107.706 96.1314 107.626 96.2307Z" fill="#FF3951"/>
<path opacity="0.9" d="M212.783 94.447H123.533C120.742 94.447 118.48 96.7093 118.48 99.4999V99.4999C118.48 102.29 120.742 104.553 123.533 104.553H212.783C215.574 104.553 217.836 102.29 217.836 99.4999C217.836 96.7093 215.574 94.447 212.783 94.447Z" fill="#D9DBE9"/>
<g filter="url(#filter19_d)">
<path d="M101.096 117.207C98.8556 117.207 96.6658 117.871 94.8032 119.116C92.9406 120.36 91.4889 122.129 90.6317 124.199C89.7744 126.268 89.5501 128.546 89.9872 130.743C90.4242 132.94 91.5029 134.958 93.0869 136.542C94.6709 138.126 96.689 139.204 98.886 139.642C101.083 140.079 103.36 139.854 105.43 138.997C107.5 138.14 109.268 136.688 110.513 134.825C111.758 132.963 112.422 130.773 112.422 128.533C112.418 125.53 111.224 122.651 109.101 120.528C106.977 118.405 104.098 117.21 101.096 117.207ZM107.634 124.946L101.173 133.714C101.097 133.815 101.001 133.9 100.892 133.964C100.782 134.028 100.661 134.069 100.535 134.086C100.41 134.102 100.282 134.093 100.16 134.06C100.038 134.027 99.9232 133.969 99.8234 133.891L95.2098 130.203C95.113 130.125 95.0324 130.029 94.9727 129.921C94.9129 129.812 94.8751 129.693 94.8614 129.57C94.8338 129.321 94.9062 129.071 95.0626 128.876C95.2191 128.68 95.4468 128.555 95.6956 128.527C95.8189 128.514 95.9436 128.524 96.0627 128.559C96.1817 128.593 96.2928 128.651 96.3897 128.728L100.237 131.806L106.114 123.83C106.185 123.724 106.276 123.633 106.383 123.563C106.49 123.493 106.61 123.446 106.735 123.424C106.861 123.402 106.99 123.405 107.114 123.434C107.238 123.463 107.356 123.517 107.458 123.593C107.561 123.668 107.648 123.764 107.712 123.874C107.777 123.984 107.819 124.106 107.836 124.232C107.852 124.359 107.842 124.487 107.808 124.61C107.773 124.733 107.714 124.847 107.634 124.946Z" fill="#FF3951" fill-opacity="0.01"/>
</g>
<path d="M101.091 138.183C106.369 138.183 110.647 133.905 110.647 128.627C110.647 123.349 106.369 119.071 101.091 119.071C95.8133 119.071 91.5349 123.349 91.5349 128.627C91.5349 133.905 95.8133 138.183 101.091 138.183Z" fill="white"/>
<path d="M101.096 117.207C98.8556 117.207 96.6658 117.871 94.8032 119.116C92.9406 120.36 91.4889 122.129 90.6317 124.199C89.7744 126.268 89.5501 128.546 89.9872 130.743C90.4242 132.94 91.5029 134.958 93.0869 136.542C94.6709 138.126 96.689 139.204 98.886 139.642C101.083 140.079 103.36 139.854 105.43 138.997C107.5 138.14 109.268 136.688 110.513 134.825C111.758 132.963 112.422 130.773 112.422 128.533C112.418 125.53 111.224 122.651 109.101 120.528C106.977 118.405 104.098 117.21 101.096 117.207ZM107.634 124.946L101.173 133.714C101.097 133.815 101.001 133.9 100.892 133.964C100.782 134.028 100.661 134.069 100.535 134.086C100.41 134.102 100.282 134.093 100.16 134.06C100.038 134.027 99.9232 133.969 99.8234 133.891L95.2098 130.203C95.113 130.125 95.0324 130.029 94.9727 129.921C94.9129 129.812 94.8751 129.693 94.8614 129.57C94.8338 129.321 94.9062 129.071 95.0626 128.876C95.2191 128.68 95.4468 128.555 95.6956 128.527C95.8189 128.514 95.9436 128.524 96.0627 128.559C96.1817 128.593 96.2928 128.651 96.3897 128.728L100.237 131.806L106.114 123.83C106.185 123.724 106.276 123.633 106.383 123.563C106.49 123.493 106.61 123.446 106.735 123.424C106.861 123.402 106.99 123.405 107.114 123.434C107.238 123.463 107.356 123.517 107.458 123.593C107.561 123.668 107.648 123.764 107.712 123.874C107.777 123.984 107.819 124.106 107.836 124.232C107.852 124.359 107.842 124.487 107.808 124.61C107.773 124.733 107.714 124.847 107.634 124.946Z" fill="#FF3951"/>
<path opacity="0.9" d="M178.569 123.163H123.541C120.75 123.163 118.488 125.425 118.488 128.216V128.216C118.488 131.007 120.75 133.269 123.541 133.269H178.569C181.36 133.269 183.622 131.007 183.622 128.216C183.622 125.425 181.36 123.163 178.569 123.163Z" fill="#D9DBE9"/>
<path d="M101.087 195.614C106.365 195.614 110.643 191.336 110.643 186.058C110.643 180.78 106.365 176.502 101.087 176.502C95.8093 176.502 91.5309 180.78 91.5309 186.058C91.5309 191.336 95.8093 195.614 101.087 195.614Z" fill="white"/>
<path d="M101.088 174.638C98.8477 174.638 96.658 175.303 94.7954 176.547C92.9328 177.792 91.4811 179.561 90.6239 181.63C89.7666 183.7 89.5423 185.977 89.9794 188.174C90.4164 190.371 91.4951 192.389 93.0791 193.973C94.6631 195.557 96.6812 196.636 98.8782 197.073C101.075 197.51 103.353 197.286 105.422 196.429C107.492 195.571 109.261 194.12 110.505 192.257C111.75 190.394 112.414 188.205 112.414 185.965C112.41 182.962 111.216 180.083 109.093 177.96C106.969 175.836 104.091 174.642 101.088 174.638ZM107.626 182.378L101.165 191.145C101.089 191.246 100.993 191.331 100.884 191.395C100.774 191.459 100.653 191.501 100.528 191.517C100.402 191.534 100.274 191.525 100.152 191.492C100.03 191.458 99.9154 191.401 99.8155 191.323L95.202 187.634C95.1052 187.557 95.0246 187.461 94.9648 187.352C94.9051 187.244 94.8672 187.124 94.8536 187.001C94.826 186.752 94.8983 186.503 95.0548 186.307C95.2112 186.112 95.439 185.986 95.6878 185.959C95.811 185.945 95.9358 185.956 96.0548 185.99C96.1739 186.025 96.285 186.082 96.3818 186.16L100.229 189.238L106.106 181.261C106.177 181.155 106.269 181.064 106.375 180.995C106.482 180.925 106.602 180.877 106.728 180.855C106.853 180.833 106.982 180.837 107.106 180.866C107.231 180.895 107.348 180.949 107.451 181.024C107.553 181.1 107.64 181.195 107.705 181.305C107.769 181.415 107.811 181.537 107.828 181.664C107.844 181.79 107.835 181.919 107.8 182.041C107.765 182.164 107.706 182.279 107.626 182.378Z" fill="#D9DBE9"/>
<path opacity="0.5" d="M178.561 180.595H123.533C120.742 180.595 118.48 182.857 118.48 185.648V185.648C118.48 188.438 120.742 190.701 123.533 190.701H178.561C181.352 190.701 183.614 188.438 183.614 185.648C183.614 182.857 181.352 180.595 178.561 180.595Z" fill="#D9DBE9"/>
<g filter="url(#filter20_d)">
<path d="M101.096 145.923C98.8556 145.923 96.6658 146.587 94.8032 147.832C92.9406 149.076 91.4889 150.845 90.6317 152.915C89.7744 154.984 89.5501 157.262 89.9872 159.459C90.4242 161.656 91.5029 163.674 93.0869 165.258C94.6709 166.842 96.689 167.921 98.886 168.358C101.083 168.795 103.36 168.57 105.43 167.713C107.5 166.856 109.268 165.404 110.513 163.542C111.758 161.679 112.422 159.489 112.422 157.249C112.418 154.246 111.224 151.367 109.101 149.244C106.977 147.121 104.098 145.926 101.096 145.923ZM107.634 153.662L101.173 162.43C101.097 162.531 101.001 162.616 100.892 162.68C100.782 162.744 100.661 162.785 100.535 162.802C100.41 162.818 100.282 162.809 100.16 162.776C100.038 162.743 99.9232 162.685 99.8234 162.607L95.2098 158.919C95.113 158.841 95.0324 158.746 94.9727 158.637C94.9129 158.528 94.8751 158.409 94.8614 158.286C94.8338 158.037 94.9062 157.787 95.0626 157.592C95.2191 157.396 95.4468 157.271 95.6956 157.243C95.8189 157.23 95.9436 157.24 96.0627 157.275C96.1817 157.309 96.2928 157.367 96.3897 157.444L100.237 160.522L106.114 152.546C106.185 152.44 106.276 152.349 106.383 152.279C106.49 152.209 106.61 152.162 106.735 152.14C106.861 152.118 106.99 152.121 107.114 152.15C107.238 152.179 107.356 152.233 107.458 152.309C107.561 152.384 107.648 152.48 107.712 152.59C107.777 152.7 107.819 152.822 107.836 152.948C107.852 153.075 107.842 153.203 107.808 153.326C107.773 153.449 107.714 153.563 107.634 153.662Z" fill="#FF3951" fill-opacity="0.01"/>
</g>
<path d="M101.091 166.899C106.369 166.899 110.647 162.62 110.647 157.343C110.647 152.065 106.369 147.787 101.091 147.787C95.8133 147.787 91.5349 152.065 91.5349 157.343C91.5349 162.62 95.8133 166.899 101.091 166.899Z" fill="white"/>
<path d="M101.096 145.923C98.8556 145.923 96.6658 146.587 94.8032 147.832C92.9406 149.076 91.4889 150.845 90.6317 152.915C89.7744 154.984 89.5501 157.262 89.9872 159.459C90.4242 161.656 91.5029 163.674 93.0869 165.258C94.6709 166.842 96.689 167.921 98.886 168.358C101.083 168.795 103.36 168.57 105.43 167.713C107.5 166.856 109.268 165.404 110.513 163.542C111.758 161.679 112.422 159.489 112.422 157.249C112.418 154.246 111.224 151.367 109.101 149.244C106.977 147.121 104.098 145.926 101.096 145.923ZM107.634 153.662L101.173 162.43C101.097 162.531 101.001 162.616 100.892 162.68C100.782 162.744 100.661 162.785 100.535 162.802C100.41 162.818 100.282 162.809 100.16 162.776C100.038 162.743 99.9232 162.685 99.8234 162.607L95.2098 158.919C95.113 158.841 95.0324 158.746 94.9727 158.637C94.9129 158.528 94.8751 158.409 94.8614 158.286C94.8338 158.037 94.9062 157.787 95.0626 157.592C95.2191 157.396 95.4468 157.271 95.6956 157.243C95.8189 157.23 95.9436 157.24 96.0627 157.275C96.1817 157.309 96.2928 157.367 96.3897 157.444L100.237 160.522L106.114 152.546C106.185 152.44 106.276 152.349 106.383 152.279C106.49 152.209 106.61 152.162 106.735 152.14C106.861 152.118 106.99 152.121 107.114 152.15C107.238 152.179 107.356 152.233 107.458 152.309C107.561 152.384 107.648 152.48 107.712 152.59C107.777 152.7 107.819 152.822 107.836 152.948C107.852 153.075 107.842 153.203 107.808 153.326C107.773 153.449 107.714 153.563 107.634 153.662Z" fill="#FF3951"/>
<path opacity="0.9" d="M212.791 151.879H123.541C120.75 151.879 118.488 154.141 118.488 156.932V156.932C118.488 159.722 120.75 161.985 123.541 161.985H212.791C215.582 161.985 217.844 159.722 217.844 156.932C217.844 154.141 215.582 151.879 212.791 151.879Z" fill="#D9DBE9"/>
<path d="M101.087 224.33C106.365 224.33 110.643 220.052 110.643 214.774C110.643 209.496 106.365 205.218 101.087 205.218C95.8093 205.218 91.5309 209.496 91.5309 214.774C91.5309 220.052 95.8093 224.33 101.087 224.33Z" fill="white"/>
<path d="M101.088 203.354C98.8477 203.354 96.658 204.019 94.7954 205.263C92.9328 206.508 91.4811 208.277 90.6239 210.346C89.7666 212.416 89.5423 214.693 89.9794 216.89C90.4164 219.087 91.4951 221.105 93.0791 222.689C94.6631 224.273 96.6812 225.352 98.8782 225.789C101.075 226.226 103.353 226.002 105.422 225.144C107.492 224.287 109.261 222.836 110.505 220.973C111.75 219.11 112.414 216.921 112.414 214.68C112.41 211.678 111.216 208.799 109.093 206.676C106.969 204.552 104.091 203.358 101.088 203.354ZM107.626 211.094L101.165 219.861C101.089 219.962 100.993 220.047 100.884 220.111C100.774 220.175 100.653 220.216 100.528 220.233C100.402 220.249 100.274 220.241 100.152 220.207C100.03 220.174 99.9154 220.117 99.8155 220.039L95.202 216.35C95.1052 216.273 95.0246 216.177 94.9648 216.068C94.9051 215.96 94.8672 215.84 94.8536 215.717C94.826 215.468 94.8983 215.219 95.0548 215.023C95.2112 214.828 95.439 214.702 95.6878 214.675C95.811 214.661 95.9358 214.672 96.0548 214.706C96.1739 214.741 96.285 214.798 96.3818 214.876L100.229 217.954L106.106 209.977C106.177 209.871 106.269 209.78 106.375 209.711C106.482 209.641 106.602 209.593 106.728 209.571C106.853 209.549 106.982 209.553 107.106 209.582C107.231 209.611 107.348 209.665 107.451 209.74C107.553 209.816 107.64 209.911 107.705 210.021C107.769 210.131 107.811 210.253 107.828 210.38C107.844 210.506 107.835 210.635 107.8 210.757C107.765 210.88 107.706 210.995 107.626 211.094Z" fill="#D9DBE9"/>
<path opacity="0.5" d="M212.783 209.627H123.533C120.742 209.627 118.48 211.889 118.48 214.68V214.68C118.48 217.47 120.742 219.733 123.533 219.733H212.783C215.574 219.733 217.836 217.47 217.836 214.68C217.836 211.889 215.574 209.627 212.783 209.627Z" fill="#D9DBE9"/>
<defs>
<filter id="filter0_d" x="384.292" y="16.9048" width="311.632" height="226.913" filterUnits="userSpaceOnUse" color-interpolation-filters="sRGB">
<feFlood flood-opacity="0" result="BackgroundImageFix"/>
<feColorMatrix in="SourceAlpha" type="matrix" values="0 0 0 0 0 0 0 0 0 0 0 0 0 0 0 0 0 0 127 0"/>
<feOffset dy="14"/>
<feGaussianBlur stdDeviation="12"/>
<feColorMatrix type="matrix" values="0 0 0 0 1 0 0 0 0 0.803921 0 0 0 0 0.113725 0 0 0 0.15 0"/>
<feBlend mode="normal" in2="BackgroundImageFix" result="effect1_dropShadow"/>
<feBlend mode="normal" in="SourceGraphic" in2="effect1_dropShadow" result="shape"/>
</filter>
<filter id="filter1_d" x="423.763" y="53.7234" width="120.926" height="29.1467" filterUnits="userSpaceOnUse" color-interpolation-filters="sRGB">
<feFlood flood-opacity="0" result="BackgroundImageFix"/>
<feColorMatrix in="SourceAlpha" type="matrix" values="0 0 0 0 0 0 0 0 0 0 0 0 0 0 0 0 0 0 127 0"/>
<feOffset dy="4"/>
<feGaussianBlur stdDeviation="6.01"/>
<feColorMatrix type="matrix" values="0 0 0 0 1 0 0 0 0 0.760784 0 0 0 0 0.14902 0 0 0 0.36 0"/>
<feBlend mode="normal" in2="BackgroundImageFix" result="effect1_dropShadow"/>
<feBlend mode="normal" in="SourceGraphic" in2="effect1_dropShadow" result="shape"/>
</filter>
<filter id="filter2_d" x="432.37" y="83.6921" width="169.822" height="17.6095" filterUnits="userSpaceOnUse" color-interpolation-filters="sRGB">
<feFlood flood-opacity="0" result="BackgroundImageFix"/>
<feColorMatrix in="SourceAlpha" type="matrix" values="0 0 0 0 0 0 0 0 0 0 0 0 0 0 0 0 0 0 127 0"/>
<feOffset dy="2"/>
<feGaussianBlur stdDeviation="2.5"/>
<feColorMatrix type="matrix" values="0 0 0 0 0.956863 0 0 0 0 0.14902 0 0 0 0 0.243137 0 0 0 0.33 0"/>
<feBlend mode="normal" in2="BackgroundImageFix" result="effect1_dropShadow"/>
<feBlend mode="normal" in="SourceGraphic" in2="effect1_dropShadow" result="shape"/>
</filter>
<filter id="filter3_d" x="429.219" y="107.658" width="50.933" height="20.26" filterUnits="userSpaceOnUse" color-interpolation-filters="sRGB">
<feFlood flood-opacity="0" result="BackgroundImageFix"/>
<feColorMatrix in="SourceAlpha" type="matrix" values="0 0 0 0 0 0 0 0 0 0 0 0 0 0 0 0 0 0 127 0"/>
<feOffset dy="1"/>
<feGaussianBlur stdDeviation="2.5"/>
<feColorMatrix type="matrix" values="0 0 0 0 1 0 0 0 0 0.803921 0 0 0 0 0.113725 0 0 0 0.21 0"/>
<feBlend mode="normal" in2="BackgroundImageFix" result="effect1_dropShadow"/>
<feBlend mode="normal" in="SourceGraphic" in2="effect1_dropShadow" result="shape"/>
</filter>
<filter id="filter4_d" x="430.102" y="136.185" width="140.306" height="19.334" filterUnits="userSpaceOnUse" color-interpolation-filters="sRGB">
<feFlood flood-opacity="0" result="BackgroundImageFix"/>
<feColorMatrix in="SourceAlpha" type="matrix" values="0 0 0 0 0 0 0 0 0 0 0 0 0 0 0 0 0 0 127 0"/>
<feOffset dy="3"/>
<feGaussianBlur stdDeviation="3"/>
<feColorMatrix type="matrix" values="0 0 0 0 1 0 0 0 0 0.223529 0 0 0 0 0.317647 0 0 0 0.24 0"/>
<feBlend mode="normal" in2="BackgroundImageFix" result="effect1_dropShadow"/>
<feBlend mode="normal" in="SourceGraphic" in2="effect1_dropShadow" result="shape"/>
</filter>
<filter id="filter5_d" x="429.843" y="163.537" width="158.347" height="19.8152" filterUnits="userSpaceOnUse" color-interpolation-filters="sRGB">
<feFlood flood-opacity="0" result="BackgroundImageFix"/>
<feColorMatrix in="SourceAlpha" type="matrix" values="0 0 0 0 0 0 0 0 0 0 0 0 0 0 0 0 0 0 127 0"/>
<feOffset dy="4"/>
<feGaussianBlur stdDeviation="3"/>
<feColorMatrix type="matrix" values="0 0 0 0 1 0 0 0 0 0.80475 0 0 0 0 0.1125 0 0 0 0.28 0"/>
<feBlend mode="normal" in2="BackgroundImageFix" result="effect1_dropShadow"/>
<feBlend mode="normal" in="SourceGraphic" in2="effect1_dropShadow" result="shape"/>
</filter>
<filter id="filter6_d" x="449.474" y="312.109" width="270.288" height="285.437" filterUnits="userSpaceOnUse" color-interpolation-filters="sRGB">
<feFlood flood-opacity="0" result="BackgroundImageFix"/>
<feColorMatrix in="SourceAlpha" type="matrix" values="0 0 0 0 0 0 0 0 0 0 0 0 0 0 0 0 0 0 127 0"/>
<feOffset dy="12"/>
<feGaussianBlur stdDeviation="19.5"/>
<feColorMatrix type="matrix" values="0 0 0 0 1 0 0 0 0 0.223529 0 0 0 0 0.317647 0 0 0 0.11 0"/>
<feBlend mode="normal" in2="BackgroundImageFix" result="effect1_dropShadow"/>
<feBlend mode="normal" in="SourceGraphic" in2="effect1_dropShadow" result="shape"/>
</filter>
<filter id="filter7_d" x="508.802" y="438.733" width="121.714" height="84.9992" filterUnits="userSpaceOnUse" color-interpolation-filters="sRGB">
<feFlood flood-opacity="0" result="BackgroundImageFix"/>
<feColorMatrix in="SourceAlpha" type="matrix" values="0 0 0 0 0 0 0 0 0 0 0 0 0 0 0 0 0 0 127 0"/>
<feOffset dy="4.45308"/>
<feGaussianBlur stdDeviation="4.45308"/>
<feColorMatrix type="matrix" values="0 0 0 0 1 0 0 0 0 0.760784 0 0 0 0 0.14902 0 0 0 0.22 0"/>
<feBlend mode="normal" in2="BackgroundImageFix" result="effect1_dropShadow"/>
<feBlend mode="normal" in="SourceGraphic" in2="effect1_dropShadow" result="shape"/>
</filter>
<filter id="filter8_d" x="507.167" y="384.582" width="62.2743" height="122.73" filterUnits="userSpaceOnUse" color-interpolation-filters="sRGB">
<feFlood flood-opacity="0" result="BackgroundImageFix"/>
<feColorMatrix in="SourceAlpha" type="matrix" values="0 0 0 0 0 0 0 0 0 0 0 0 0 0 0 0 0 0 127 0"/>
<feOffset dy="4.45308"/>
<feGaussianBlur stdDeviation="4.45308"/>
<feColorMatrix type="matrix" values="0 0 0 0 1 0 0 0 0 0.505882 0 0 0 0 0.223529 0 0 0 0.22 0"/>
<feBlend mode="normal" in2="BackgroundImageFix" result="effect1_dropShadow"/>
<feBlend mode="normal" in="SourceGraphic" in2="effect1_dropShadow" result="shape"/>
</filter>
<filter id="filter9_d" x="516.307" y="363.149" width="155.67" height="119.937" filterUnits="userSpaceOnUse" color-interpolation-filters="sRGB">
<feFlood flood-opacity="0" result="BackgroundImageFix"/>
<feColorMatrix in="SourceAlpha" type="matrix" values="0 0 0 0 0 0 0 0 0 0 0 0 0 0 0 0 0 0 127 0"/>
<feOffset dy="6.67962"/>
<feGaussianBlur stdDeviation="8.90615"/>
<feColorMatrix type="matrix" values="0 0 0 0 1 0 0 0 0 0.223529 0 0 0 0 0.317647 0 0 0 0.22 0"/>
<feBlend mode="normal" in2="BackgroundImageFix" result="effect1_dropShadow"/>
<feBlend mode="normal" in="SourceGraphic" in2="effect1_dropShadow" result="shape"/>
</filter>
<filter id="filter10_d" x="0" y="318.216" width="313.602" height="283.911" filterUnits="userSpaceOnUse" color-interpolation-filters="sRGB">
<feFlood flood-opacity="0" result="BackgroundImageFix"/>
<feColorMatrix in="SourceAlpha" type="matrix" values="0 0 0 0 0 0 0 0 0 0 0 0 0 0 0 0 0 0 127 0"/>
<feOffset dy="2"/>
<feGaussianBlur stdDeviation="23.5"/>
<feColorMatrix type="matrix" values="0 0 0 0 1 0 0 0 0 0.760784 0 0 0 0 0.14902 0 0 0 0.27 0"/>
<feBlend mode="normal" in2="BackgroundImageFix" result="effect1_dropShadow"/>
<feBlend mode="normal" in="SourceGraphic" in2="effect1_dropShadow" result="shape"/>
</filter>
<filter id="filter11_d" x="198.256" y="413.242" width="39.3067" height="116.503" filterUnits="userSpaceOnUse" color-interpolation-filters="sRGB">
<feFlood flood-opacity="0" result="BackgroundImageFix"/>
<feColorMatrix in="SourceAlpha" type="matrix" values="0 0 0 0 0 0 0 0 0 0 0 0 0 0 0 0 0 0 127 0"/>
<feOffset dy="5.09503"/>
<feGaussianBlur stdDeviation="7.00567"/>
<feColorMatrix type="matrix" values="0 0 0 0 1 0 0 0 0 0.223529 0 0 0 0 0.317647 0 0 0 0.25 0"/>
<feBlend mode="normal" in2="BackgroundImageFix" result="effect1_dropShadow"/>
<feBlend mode="normal" in="SourceGraphic" in2="effect1_dropShadow" result="shape"/>
</filter>
<filter id="filter12_d" x="180.811" y="428.919" width="25.3203" height="90.7233" filterUnits="userSpaceOnUse" color-interpolation-filters="sRGB">
<feFlood flood-opacity="0" result="BackgroundImageFix"/>
<feColorMatrix in="SourceAlpha" type="matrix" values="0 0 0 0 0 0 0 0 0 0 0 0 0 0 0 0 0 0 127 0"/>
<feOffset dy="2"/>
<feGaussianBlur stdDeviation="3.50932"/>
<feColorMatrix type="matrix" values="0 0 0 0 1 0 0 0 0 0.760784 0 0 0 0 0.14902 0 0 0 0.2 0"/>
<feBlend mode="normal" in2="BackgroundImageFix" result="effect1_dropShadow"/>
<feBlend mode="normal" in="SourceGraphic" in2="effect1_dropShadow" result="shape"/>
</filter>
<filter id="filter13_d" x="149.369" y="466.272" width="39.3067" height="63.4587" filterUnits="userSpaceOnUse" color-interpolation-filters="sRGB">
<feFlood flood-opacity="0" result="BackgroundImageFix"/>
<feColorMatrix in="SourceAlpha" type="matrix" values="0 0 0 0 0 0 0 0 0 0 0 0 0 0 0 0 0 0 127 0"/>
<feOffset dy="5.09503"/>
<feGaussianBlur stdDeviation="7.00567"/>
<feColorMatrix type="matrix" values="0 0 0 0 1 0 0 0 0 0.223529 0 0 0 0 0.317647 0 0 0 0.25 0"/>
<feBlend mode="normal" in2="BackgroundImageFix" result="effect1_dropShadow"/>
<feBlend mode="normal" in="SourceGraphic" in2="effect1_dropShadow" result="shape"/>
</filter>
<filter id="filter14_d" x="131.908" y="408.383" width="25.3213" height="111.259" filterUnits="userSpaceOnUse" color-interpolation-filters="sRGB">
<feFlood flood-opacity="0" result="BackgroundImageFix"/>
<feColorMatrix in="SourceAlpha" type="matrix" values="0 0 0 0 0 0 0 0 0 0 0 0 0 0 0 0 0 0 127 0"/>
<feOffset dy="2"/>
<feGaussianBlur stdDeviation="3.50932"/>
<feColorMatrix type="matrix" values="0 0 0 0 1 0 0 0 0 0.760784 0 0 0 0 0.14902 0 0 0 0.2 0"/>
<feBlend mode="normal" in2="BackgroundImageFix" result="effect1_dropShadow"/>
<feBlend mode="normal" in="SourceGraphic" in2="effect1_dropShadow" result="shape"/>
</filter>
<filter id="filter15_d" x="100.475" y="396.788" width="39.3067" height="132.943" filterUnits="userSpaceOnUse" color-interpolation-filters="sRGB">
<feFlood flood-opacity="0" result="BackgroundImageFix"/>
<feColorMatrix in="SourceAlpha" type="matrix" values="0 0 0 0 0 0 0 0 0 0 0 0 0 0 0 0 0 0 127 0"/>
<feOffset dy="5.09503"/>
<feGaussianBlur stdDeviation="7.00567"/>
<feColorMatrix type="matrix" values="0 0 0 0 1 0 0 0 0 0.223529 0 0 0 0 0.317647 0 0 0 0.25 0"/>
<feBlend mode="normal" in2="BackgroundImageFix" result="effect1_dropShadow"/>
<feBlend mode="normal" in="SourceGraphic" in2="effect1_dropShadow" result="shape"/>
</filter>
<filter id="filter16_d" x="83.026" y="439.132" width="25.3207" height="80.5103" filterUnits="userSpaceOnUse" color-interpolation-filters="sRGB">
<feFlood flood-opacity="0" result="BackgroundImageFix"/>
<feColorMatrix in="SourceAlpha" type="matrix" values="0 0 0 0 0 0 0 0 0 0 0 0 0 0 0 0 0 0 127 0"/>
<feOffset dy="2"/>
<feGaussianBlur stdDeviation="3.50932"/>
<feColorMatrix type="matrix" values="0 0 0 0 1 0 0 0 0 0.760784 0 0 0 0 0.14902 0 0 0 0.2 0"/>
<feBlend mode="normal" in2="BackgroundImageFix" result="effect1_dropShadow"/>
<feBlend mode="normal" in="SourceGraphic" in2="effect1_dropShadow" result="shape"/>
</filter>
<filter id="filter17_d" x="42.7461" y="34.6982" width="222.111" height="249.101" filterUnits="userSpaceOnUse" color-interpolation-filters="sRGB">
<feFlood flood-opacity="0" result="BackgroundImageFix"/>
<feColorMatrix in="SourceAlpha" type="matrix" values="0 0 0 0 0 0 0 0 0 0 0 0 0 0 0 0 0 0 127 0"/>
<feOffset dy="2"/>
<feGaussianBlur stdDeviation="9"/>
<feColorMatrix type="matrix" values="0 0 0 0 1 0 0 0 0 0.223529 0 0 0 0 0.317647 0 0 0 0.11 0"/>
<feBlend mode="normal" in2="BackgroundImageFix" result="effect1_dropShadow"/>
<feBlend mode="normal" in="SourceGraphic" in2="effect1_dropShadow" result="shape"/>
</filter>
<filter id="filter18_d" x="84.7617" y="87.2216" width="32.6523" height="32.6525" filterUnits="userSpaceOnUse" color-interpolation-filters="sRGB">
<feFlood flood-opacity="0" result="BackgroundImageFix"/>
<feColorMatrix in="SourceAlpha" type="matrix" values="0 0 0 0 0 0 0 0 0 0 0 0 0 0 0 0 0 0 127 0"/>
<feOffset dy="3.73061"/>
<feGaussianBlur stdDeviation="2.5"/>
<feColorMatrix type="matrix" values="0 0 0 0 1 0 0 0 0 0.223529 0 0 0 0 0.317647 0 0 0 0.2 0"/>
<feBlend mode="normal" in2="BackgroundImageFix" result="effect1_dropShadow"/>
<feBlend mode="normal" in="SourceGraphic" in2="effect1_dropShadow" result="shape"/>
</filter>
<filter id="filter19_d" x="84.7695" y="115.938" width="32.6525" height="32.6524" filterUnits="userSpaceOnUse" color-interpolation-filters="sRGB">
<feFlood flood-opacity="0" result="BackgroundImageFix"/>
<feColorMatrix in="SourceAlpha" type="matrix" values="0 0 0 0 0 0 0 0 0 0 0 0 0 0 0 0 0 0 127 0"/>
<feOffset dy="3.73061"/>
<feGaussianBlur stdDeviation="2.5"/>
<feColorMatrix type="matrix" values="0 0 0 0 1 0 0 0 0 0.223529 0 0 0 0 0.317647 0 0 0 0.2 0"/>
<feBlend mode="normal" in2="BackgroundImageFix" result="effect1_dropShadow"/>
<feBlend mode="normal" in="SourceGraphic" in2="effect1_dropShadow" result="shape"/>
</filter>
<filter id="filter20_d" x="84.7695" y="144.654" width="32.6525" height="32.6524" filterUnits="userSpaceOnUse" color-interpolation-filters="sRGB">
<feFlood flood-opacity="0" result="BackgroundImageFix"/>
<feColorMatrix in="SourceAlpha" type="matrix" values="0 0 0 0 0 0 0 0 0 0 0 0 0 0 0 0 0 0 127 0"/>
<feOffset dy="3.73061"/>
<feGaussianBlur stdDeviation="2.5"/>
<feColorMatrix type="matrix" values="0 0 0 0 1 0 0 0 0 0.223529 0 0 0 0 0.317647 0 0 0 0.2 0"/>
<feBlend mode="normal" in2="BackgroundImageFix" result="effect1_dropShadow"/>
<feBlend mode="normal" in="SourceGraphic" in2="effect1_dropShadow" result="shape"/>
</filter>
</defs>
</svg>
