<svg width="194" height="48" viewBox="0 0 194 48" fill="none" xmlns="http://www.w3.org/2000/svg">
<g filter="url(#filter0_d)">
<path d="M40.1599 7.73987H7.54419V37.8467H40.1599V7.73987Z" fill="white" fill-opacity="0.01"/>
<path fill-rule="evenodd" clip-rule="evenodd" d="M14.7209 3H33.5056C40.3464 3 44.2084 6.88004 44.2285 13.7209V32.5076C44.2285 39.3464 40.3464 43.2285 33.5056 43.2285H14.7209C7.88004 43.2285 4 39.3464 4 32.5076V13.7209C4 6.88004 7.88004 3 14.7209 3ZM24.213 34.9011C25.0799 34.9011 25.802 34.2575 25.8825 33.3926V12.8962C25.9629 12.2726 25.6632 11.6471 25.1201 11.3071C24.5549 10.9652 23.871 10.9652 23.33 11.3071C22.7849 11.6471 22.4852 12.2726 22.5435 12.8962V33.3926C22.6461 34.2575 23.3682 34.9011 24.213 34.9011ZM33.4675 34.9012C34.3123 34.9012 35.0344 34.2575 35.137 33.3926V26.7951C35.1953 26.1495 34.8956 25.5481 34.3505 25.2061C33.8095 24.8642 33.1256 24.8642 32.5624 25.2061C32.0173 25.5481 31.7176 26.1495 31.798 26.7951V33.3926C31.8785 34.2575 32.6006 34.9012 33.4675 34.9012ZM16.5089 33.3926C16.4285 34.2575 15.7064 34.9012 14.8395 34.9012C13.9746 34.9012 13.2504 34.2575 13.172 33.3926V19.4937C13.1117 18.8681 13.4114 18.2466 13.9564 17.9046C14.4975 17.5627 15.1834 17.5627 15.7265 17.9046C16.2676 18.2466 16.5713 18.8681 16.5089 19.4937V33.3926Z" fill="#FF3951" fill-opacity="0.01"/>
</g>
<path d="M40.1599 7.73987H7.54419V37.8467H40.1599V7.73987Z" fill="white"/>
<path fill-rule="evenodd" clip-rule="evenodd" d="M14.7209 3H33.5056C40.3464 3 44.2084 6.88004 44.2285 13.7209V32.5076C44.2285 39.3464 40.3464 43.2285 33.5056 43.2285H14.7209C7.88004 43.2285 4 39.3464 4 32.5076V13.7209C4 6.88004 7.88004 3 14.7209 3ZM24.213 34.9011C25.0799 34.9011 25.802 34.2575 25.8825 33.3926V12.8962C25.9629 12.2726 25.6632 11.6471 25.1201 11.3071C24.5549 10.9652 23.871 10.9652 23.33 11.3071C22.7849 11.6471 22.4852 12.2726 22.5435 12.8962V33.3926C22.6461 34.2575 23.3682 34.9011 24.213 34.9011ZM33.4675 34.9012C34.3123 34.9012 35.0344 34.2575 35.137 33.3926V26.7951C35.1953 26.1495 34.8956 25.5481 34.3505 25.2061C33.8095 24.8642 33.1256 24.8642 32.5624 25.2061C32.0173 25.5481 31.7176 26.1495 31.798 26.7951V33.3926C31.8785 34.2575 32.6006 34.9012 33.4675 34.9012ZM16.5089 33.3926C16.4285 34.2575 15.7064 34.9012 14.8395 34.9012C13.9746 34.9012 13.2504 34.2575 13.172 33.3926V19.4937C13.1117 18.8681 13.4114 18.2466 13.9564 17.9046C14.4975 17.5627 15.1834 17.5627 15.7265 17.9046C16.2676 18.2466 16.5713 18.8681 16.5089 19.4937V33.3926Z" fill="#FF3951"/>
<path d="M17.4854 20.1842C17.4854 18.7761 16.3438 17.6345 14.9357 17.6345C13.5275 17.6345 12.386 18.7761 12.386 20.1842V32.7315C12.386 34.1397 13.5275 35.2812 14.9357 35.2812C16.3438 35.2812 17.4854 34.1397 17.4854 32.7315V20.1842Z" fill="white"/>
<path d="M26.6638 13.497C26.6638 12.0888 25.5223 10.9473 24.1141 10.9473C22.706 10.9473 21.5645 12.0888 21.5645 13.497V32.7314C21.5645 34.1395 22.706 35.2811 24.1141 35.2811C25.5223 35.2811 26.6638 34.1395 26.6638 32.7314V13.497Z" fill="white"/>
<path d="M35.8425 25.6948C35.8425 24.2867 34.701 23.1451 33.2929 23.1451C31.8847 23.1451 30.7432 24.2867 30.7432 25.6948V32.7314C30.7432 34.1395 31.8847 35.281 33.2929 35.281C34.701 35.281 35.8425 34.1395 35.8425 32.7314V25.6948Z" fill="white"/>
<path d="M67.2471 10.537H62.0979L53.6982 34.5132H58.0107L59.7807 29.2352H69.5643L71.3665 34.5132H75.679L67.2471 10.537ZM60.9715 25.6629L64.6725 14.7851L68.3735 25.6629H60.9715ZM89.8668 17.1667V19.2585C88.6439 17.7138 86.7129 16.7805 84.3314 16.7805C79.7614 16.7805 75.8351 20.1275 75.8351 25.1802C75.8351 30.1363 79.6971 33.6442 84.3958 33.6442C86.552 33.6442 88.4186 32.904 89.6737 31.5202V33.6764C89.6737 36.412 87.5175 38.0855 84.8141 38.0855C82.4648 38.0855 80.8878 36.7982 80.2764 35.0281L76.9293 36.7016C78.0236 39.6302 81.0487 41.6256 84.8463 41.6256C89.6737 41.6256 93.5357 38.4073 93.5357 33.6764V17.1667H89.8668ZM84.7819 30.072C81.9177 30.072 79.858 28.0766 79.858 25.2124C79.858 22.3159 82.0142 20.3528 84.7498 20.3528C87.5497 20.3528 89.6737 22.3481 89.6737 25.2124C89.6737 28.0444 87.6462 30.072 84.7819 30.072ZM112.721 25.2124C112.721 20.6102 109.245 16.7805 104.354 16.7805C99.4618 16.7805 95.7608 20.6102 95.7608 25.8238C95.7608 30.9087 99.3975 34.8994 104.643 34.8994C108.183 34.8994 111.015 33.0971 112.077 30.6191L108.891 29.0743C108.119 30.4903 106.735 31.488 104.675 31.488C102.004 31.488 99.9767 29.7179 99.7836 26.9502H112.528C112.657 26.4353 112.721 25.8238 112.721 25.2124ZM99.848 23.9572C100.299 21.4148 102.101 19.9987 104.354 19.9987C106.574 19.9987 108.441 21.6401 108.57 23.9572H99.848ZM123.233 16.7805C121.076 16.7805 119.274 17.6494 118.309 19.2585V17.1667H114.672V34.5132H118.534V24.2147C118.534 21.8654 120.014 20.3528 122.235 20.3528C124.423 20.3528 125.904 21.8654 125.904 24.2147V34.5132H129.766V23.2492C129.766 19.4516 127.095 16.7805 123.233 16.7805ZM140.63 34.8994C144.331 34.8994 147.356 32.7753 148.386 29.9432L145.039 28.2375C144.363 30.1363 142.754 31.3271 140.63 31.3271C137.798 31.3271 135.738 29.0099 135.738 25.856C135.738 22.6377 137.798 20.3528 140.63 20.3528C142.722 20.3528 144.363 21.5757 145.039 23.4423L148.386 21.7688C147.324 18.8402 144.298 16.7805 140.63 16.7805C135.513 16.7805 131.715 20.6424 131.715 25.8238C131.715 31.0053 135.545 34.8994 140.63 34.8994ZM162.283 17.1667L157.617 29.4283L152.95 17.1667H148.734L155.557 34.4488L154.978 35.8005C154.527 36.8625 153.948 38.1498 151.727 38.1498C151.051 38.1498 150.215 38.0211 149.732 37.8924V41.1428C150.44 41.4647 151.341 41.5934 152.274 41.5934C156.651 41.5934 158.003 38.4395 158.775 36.5407L166.499 17.1667H162.283ZM191.952 34.5132L184.325 22.4125L191.856 10.537H187.286L182.072 18.808L176.826 10.537H172.256L179.787 22.4125L172.16 34.5132H176.697L182.072 26.0169L187.414 34.5132H191.952Z" fill="#14142B"/>
<defs>
<filter id="filter0_d" x="0.30092" y="0.3578" width="47.6267" height="47.6267" filterUnits="userSpaceOnUse" color-interpolation-filters="sRGB">
<feFlood flood-opacity="0" result="BackgroundImageFix"/>
<feColorMatrix in="SourceAlpha" type="matrix" values="0 0 0 0 0 0 0 0 0 0 0 0 0 0 0 0 0 0 127 0"/>
<feOffset dy="1.05688"/>
<feGaussianBlur stdDeviation="1.84954"/>
<feColorMatrix type="matrix" values="0 0 0 0 1 0 0 0 0 0.223529 0 0 0 0 0.317647 0 0 0 0.42 0"/>
<feBlend mode="normal" in2="BackgroundImageFix" result="effect1_dropShadow"/>
<feBlend mode="normal" in="SourceGraphic" in2="effect1_dropShadow" result="shape"/>
</filter>
</defs>
</svg>
