<svg width="198" height="39" viewBox="0 0 198 39" fill="none" xmlns="http://www.w3.org/2000/svg">
<path d="M46.5035 13.5304C46.5035 11.469 46.9638 9.62774 47.8844 8.00664C48.8251 6.36552 50.0959 5.09466 51.697 4.19405C53.3181 3.27342 55.1293 2.81311 57.1307 2.81311C59.4723 2.81311 61.5237 3.41351 63.2849 4.61433C65.0461 5.81515 66.2769 7.47628 66.9774 9.59772H62.1442C61.6638 8.59704 60.9833 7.84653 60.1027 7.34619C59.2422 6.84585 58.2414 6.59568 57.1007 6.59568C55.8799 6.59568 54.7891 6.88588 53.8285 7.46627C52.8878 8.02665 52.1473 8.8272 51.6069 9.86791C51.0866 10.9086 50.8264 12.1295 50.8264 13.5304C50.8264 14.9113 51.0866 16.1321 51.6069 17.1929C52.1473 18.2335 52.8878 19.0441 53.8285 19.6245C54.7891 20.1849 55.8799 20.4651 57.1007 20.4651C58.2414 20.4651 59.2422 20.2149 60.1027 19.7146C60.9833 19.1942 61.6638 18.4337 62.1442 17.4331H66.9774C66.2769 19.5745 65.0461 21.2456 63.2849 22.4464C61.5437 23.6273 59.4923 24.2177 57.1307 24.2177C55.1293 24.2177 53.3181 23.7674 51.697 22.8667C50.0959 21.9461 48.8251 20.6753 47.8844 19.0542C46.9638 17.4331 46.5035 15.5918 46.5035 13.5304Z" fill="#1F2559"/>
<path d="M77.9522 24.3077C76.3511 24.3077 74.9101 23.9574 73.6293 23.2569C72.3484 22.5364 71.3377 21.5257 70.5972 20.2249C69.8767 18.924 69.5164 17.4229 69.5164 15.7218C69.5164 14.0207 69.8868 12.5197 70.6272 11.2188C71.3877 9.91788 72.4184 8.91719 73.7194 8.21672C75.0202 7.49623 76.4712 7.13599 78.0723 7.13599C79.6734 7.13599 81.1243 7.49623 82.4253 8.21672C83.7262 8.91719 84.7468 9.91788 85.4874 11.2188C86.2478 12.5197 86.6281 14.0207 86.6281 15.7218C86.6281 17.4229 86.2378 18.924 85.4573 20.2249C84.6968 21.5257 83.656 22.5364 82.3352 23.2569C81.0343 23.9574 79.5733 24.3077 77.9522 24.3077ZM77.9522 20.6451C78.7127 20.6451 79.4232 20.465 80.0836 20.1047C80.7641 19.7246 81.3045 19.1642 81.7048 18.4237C82.1051 17.6832 82.3052 16.7825 82.3052 15.7218C82.3052 14.1408 81.8849 12.9299 81.0443 12.0894C80.2237 11.2288 79.213 10.7985 78.0122 10.7985C76.8115 10.7985 75.8007 11.2288 74.9802 12.0894C74.1796 12.9299 73.7793 14.1408 73.7793 15.7218C73.7793 17.3029 74.1697 18.5237 74.9501 19.3843C75.7507 20.2249 76.7514 20.6451 77.9522 20.6451Z" fill="#1F2559"/>
<path d="M110.365 7.16602C112.407 7.16602 114.048 7.79645 115.288 9.0573C116.55 10.2981 117.18 12.0394 117.18 14.2808V24.0375H112.977V14.8512C112.977 13.5504 112.647 12.5597 111.986 11.8793C111.326 11.1787 110.425 10.8285 109.284 10.8285C108.144 10.8285 107.233 11.1787 106.553 11.8793C105.892 12.5597 105.562 13.5504 105.562 14.8512V24.0375H101.359V14.8512C101.359 13.5504 101.029 12.5597 100.368 11.8793C99.7078 11.1787 98.8072 10.8285 97.6665 10.8285C96.5057 10.8285 95.585 11.1787 94.9046 11.8793C94.2442 12.5597 93.9139 13.5504 93.9139 14.8512V24.0375H89.7111V7.40618H93.9139V9.41755C94.4543 8.71707 95.1448 8.1667 95.9853 7.76642C96.8459 7.36615 97.7865 7.16602 98.8072 7.16602C100.108 7.16602 101.269 7.4462 102.29 8.00659C103.31 8.54696 104.101 9.32749 104.661 10.3482C105.202 9.38753 105.982 8.617 107.003 8.0366C108.044 7.45622 109.164 7.16602 110.365 7.16602Z" fill="#1F2559"/>
<path d="M125.371 9.8078C125.911 9.04729 126.652 8.41685 127.592 7.91651C128.553 7.39616 129.644 7.13599 130.864 7.13599C132.286 7.13599 133.566 7.48622 134.707 8.1867C135.868 8.88718 136.778 9.88786 137.439 11.1887C138.119 12.4696 138.46 13.9606 138.46 15.6617C138.46 17.363 138.119 18.874 137.439 20.1948C136.778 21.4957 135.868 22.5064 134.707 23.2269C133.566 23.9474 132.286 24.3077 130.864 24.3077C129.644 24.3077 128.563 24.0575 127.623 23.5572C126.702 23.0568 125.952 22.4263 125.371 21.6659V31.9629H121.168V7.40617H125.371V9.8078ZM134.167 15.6617C134.167 14.6611 133.957 13.8005 133.537 13.08C133.136 12.3395 132.596 11.7791 131.916 11.3989C131.255 11.0186 130.534 10.8285 129.753 10.8285C128.993 10.8285 128.272 11.0286 127.592 11.429C126.932 11.8091 126.392 12.3695 125.971 13.11C125.57 13.8506 125.371 14.7212 125.371 15.7218C125.371 16.7225 125.57 17.5931 125.971 18.3336C126.392 19.0741 126.932 19.6445 127.592 20.0448C128.272 20.4251 128.993 20.6151 129.753 20.6151C130.534 20.6151 131.255 20.415 131.916 20.0147C132.596 19.6145 133.136 19.044 133.537 18.3036C133.957 17.5631 134.167 16.6825 134.167 15.6617Z" fill="#1F2559"/>
<path d="M140.433 15.6617C140.433 13.9807 140.763 12.4897 141.424 11.1887C142.104 9.88786 143.015 8.88718 144.155 8.1867C145.316 7.48622 146.607 7.13599 148.028 7.13599C149.269 7.13599 150.35 7.38616 151.271 7.8865C152.211 8.38684 152.961 9.01726 153.522 9.77778V7.40617H157.755V24.0375H153.522V21.6058C152.982 22.3864 152.231 23.0368 151.271 23.5572C150.33 24.0575 149.239 24.3077 147.999 24.3077C146.597 24.3077 145.316 23.9474 144.155 23.2269C143.015 22.5064 142.104 21.4957 141.424 20.1948C140.763 18.874 140.433 17.363 140.433 15.6617ZM153.522 15.7218C153.522 14.7012 153.322 13.8305 152.922 13.11C152.521 12.3695 151.981 11.8091 151.3 11.429C150.62 11.0286 149.889 10.8285 149.109 10.8285C148.328 10.8285 147.608 11.0186 146.948 11.3989C146.287 11.7791 145.747 12.3395 145.326 13.08C144.926 13.8005 144.726 14.6611 144.726 15.6617C144.726 16.6625 144.926 17.5431 145.326 18.3036C145.747 19.044 146.287 19.6145 146.948 20.0147C147.628 20.415 148.348 20.6151 149.109 20.6151C149.889 20.6151 150.62 20.4251 151.3 20.0448C151.981 19.6445 152.521 19.0841 152.922 18.3636C153.322 17.6231 153.522 16.7425 153.522 15.7218Z" fill="#1F2559"/>
<path d="M171.075 7.16602C173.058 7.16602 174.659 7.79645 175.879 9.0573C177.1 10.2981 177.71 12.0394 177.71 14.2808V24.0375H173.508V14.8512C173.508 13.5304 173.178 12.5197 172.517 11.8192C171.856 11.0987 170.955 10.7384 169.815 10.7384C168.654 10.7384 167.733 11.0987 167.053 11.8192C166.392 12.5197 166.062 13.5304 166.062 14.8512V24.0375H161.86V7.40618H166.062V9.47759C166.623 8.7571 167.334 8.19671 168.194 7.79645C169.075 7.37616 170.036 7.16602 171.075 7.16602Z" fill="#1F2559"/>
<path d="M197.618 7.40625L187.32 31.9029H182.848L186.45 23.6172L179.786 7.40625H184.499L188.792 19.0241L193.145 7.40625H197.618Z" fill="#1F2559"/>
<g filter="url(#filter0_d)">
<path d="M14.9927 30.5486C9.23541 30.5486 4.5867 25.8642 4.5867 20.1426C4.5867 14.4212 9.23541 9.73669 14.9927 9.73669C20.7141 9.73669 25.3986 14.3854 25.3986 20.1426C25.3628 25.8642 20.7141 30.5486 14.9927 30.5486Z" fill="#F4263E"/>
</g>
<path d="M14.9927 31.741C8.57569 31.741 3.39429 26.5198 3.39429 20.1426C3.39429 13.7656 8.57569 8.54431 14.9927 8.54431C21.3697 8.54431 26.5911 13.7257 26.5911 20.1426C26.5511 26.5198 21.3697 31.741 14.9927 31.741Z" fill="#F4263E"/>
<g filter="url(#filter1_d)">
<path d="M31.8458 2.04028H17.151C16.4608 2.04028 15.9014 2.59977 15.9014 3.28992V17.9847C15.9014 18.6749 16.4608 19.2343 17.151 19.2343H31.8458C32.5359 19.2343 33.0954 18.6749 33.0954 17.9847V3.28992C33.0954 2.59977 32.5359 2.04028 31.8458 2.04028Z" fill="#1B76FF"/>
</g>
<path d="M32.6226 1.13147H16.3742C15.6111 1.13147 14.9925 1.7501 14.9925 2.51322V18.7615C14.9925 19.5247 15.6111 20.1432 16.3742 20.1432H32.6226C33.3856 20.1432 34.0043 19.5247 34.0043 18.7615V2.51322C34.0043 1.7501 33.3856 1.13147 32.6226 1.13147Z" fill="#1B76FF"/>
<defs>
<filter id="filter0_d" x="0.5867" y="7.73669" width="28.8119" height="28.8119" filterUnits="userSpaceOnUse" color-interpolation-filters="sRGB">
<feFlood flood-opacity="0" result="BackgroundImageFix"/>
<feColorMatrix in="SourceAlpha" type="matrix" values="0 0 0 0 0 0 0 0 0 0 0 0 0 0 0 0 0 0 127 0"/>
<feOffset dy="2"/>
<feGaussianBlur stdDeviation="2"/>
<feColorMatrix type="matrix" values="0 0 0 0 0.956863 0 0 0 0 0.14902 0 0 0 0 0.243137 0 0 0 0.3 0"/>
<feBlend mode="normal" in2="BackgroundImageFix" result="effect1_dropShadow"/>
<feBlend mode="normal" in="SourceGraphic" in2="effect1_dropShadow" result="shape"/>
</filter>
<filter id="filter1_d" x="12.7014" y="1.84028" width="23.594" height="23.594" filterUnits="userSpaceOnUse" color-interpolation-filters="sRGB">
<feFlood flood-opacity="0" result="BackgroundImageFix"/>
<feColorMatrix in="SourceAlpha" type="matrix" values="0 0 0 0 0 0 0 0 0 0 0 0 0 0 0 0 0 0 127 0"/>
<feOffset dy="3"/>
<feGaussianBlur stdDeviation="1.6"/>
<feColorMatrix type="matrix" values="0 0 0 0 0.104167 0 0 0 0 0.4625 0 0 0 0 1 0 0 0 0.2 0"/>
<feBlend mode="normal" in2="BackgroundImageFix" result="effect1_dropShadow"/>
<feBlend mode="normal" in="SourceGraphic" in2="effect1_dropShadow" result="shape"/>
</filter>
</defs>
</svg>
