<svg width="198" height="38" viewBox="0 0 198 38" fill="none" xmlns="http://www.w3.org/2000/svg">
<path d="M71.3942 18.1183C69.9886 20.3986 67.9893 21.7105 65.3966 21.7105C61.6482 21.7105 58.8993 18.6806 58.8993 14.776C58.8993 10.8713 61.5233 7.87251 65.4591 7.87251C67.9581 7.87251 70.2071 9.27817 71.3317 11.4023L74.9552 8.52849C73.1123 5.24858 69.7699 3.28064 65.5217 3.28064C58.7119 3.28064 53.9326 8.34106 53.9326 14.776C53.9326 21.2107 58.8056 26.3025 65.4591 26.3025C69.6449 26.3025 73.1434 24.0846 75.0489 20.9296L71.3942 18.1183Z" fill="#1F2559"/>
<path d="M84.9716 9.52808C79.9737 9.52808 76.3814 13.1516 76.3814 17.8997C76.3814 22.6164 79.9737 26.3025 84.9716 26.3025C89.9695 26.3025 93.5619 22.6164 93.5619 17.8997C93.5619 13.1516 89.9695 9.52808 84.9716 9.52808ZM84.9716 13.7451C87.127 13.7451 88.7513 15.4007 88.7513 17.8997C88.7513 20.3986 87.127 22.0854 84.9716 22.0854C82.8163 22.0854 81.1919 20.3986 81.1919 17.8997C81.1919 15.4007 82.8163 13.7451 84.9716 13.7451Z" fill="#1F2559"/>
<path d="M96.6653 9.90292V25.9276H101.413V17.5872C101.413 15.4943 102.507 13.7139 104.506 13.7139C106.255 13.7139 107.38 14.8071 107.38 16.9V25.9276H112.128V17.5872C112.128 15.4943 113.222 13.7139 115.22 13.7139C116.969 13.7139 118.063 14.8071 118.063 16.9V25.9276H122.811V16.1815C122.811 12.0271 120.469 9.52808 116.625 9.52808C113.908 9.52808 112.377 10.7151 111.222 12.3395C110.128 10.5589 108.379 9.52808 105.912 9.52808C103.819 9.52808 102.257 10.3402 101.226 11.9646V9.90292H96.6653Z" fill="#1F2559"/>
<path d="M135.268 13.7139C137.299 13.7139 138.985 15.3694 138.985 17.9621C138.985 20.4611 137.299 22.1167 135.268 22.1167C133.144 22.1167 131.489 20.4924 131.489 17.9621C131.489 15.3382 133.144 13.7139 135.268 13.7139ZM131.27 9.90292H126.866V32.175H131.613V24.1783C132.613 25.6776 134.519 26.3025 136.236 26.3025C140.61 26.3025 143.765 22.6789 143.765 17.8997C143.765 12.9642 140.36 9.52808 136.267 9.52808C134.706 9.52808 132.519 10.1841 131.27 12.1208V9.90292Z" fill="#1F2559"/>
<path d="M155.185 15.963L150.813 16.8064C147.439 17.5248 145.596 19.1491 145.596 21.5232C145.596 24.3032 147.783 26.3025 150.906 26.3025C153.031 26.3025 154.592 25.3653 155.342 23.9596V25.9276H159.746V15.8379C159.746 11.9333 157.091 9.52808 152.625 9.52808C149.626 9.52808 147.221 10.7776 145.752 12.558L148.22 15.5568C149.189 14.4635 150.562 13.6201 152.343 13.6201C153.967 13.6201 155.185 14.2449 155.185 15.8379V15.963ZM151.968 22.7726C150.844 22.7726 150.125 22.1479 150.125 21.242C150.125 20.3674 150.75 19.8051 152.031 19.5865L155.216 18.9617V19.4303C155.216 21.3358 153.936 22.7726 151.968 22.7726Z" fill="#1F2559"/>
<path d="M163.746 9.90292V25.9276H168.494V17.5872C168.494 15.4943 169.587 13.7139 171.649 13.7139C173.398 13.7139 174.523 14.8071 174.523 16.9V25.9276H179.271V16.1815C179.271 12.0271 176.896 9.52808 173.054 9.52808C170.9 9.52808 169.338 10.3402 168.307 11.9646V9.90292H163.746Z" fill="#1F2559"/>
<path d="M187.023 25.334L186.836 25.865C186.149 28.1453 184.993 28.5515 183.744 28.5515C183.212 28.5515 182.4 28.4889 181.557 28.0204V31.9563C182.276 32.2999 183.306 32.5498 184.43 32.5498C187.46 32.5498 189.397 31.1129 190.991 27.2394L197.988 9.90283H193.146L189.397 20.3985L185.681 9.90283H180.714L187.023 25.334Z" fill="#1F2559"/>
<g filter="url(#filter0_d)">
<path d="M24.7021 1.7301H21.1823C20.6952 1.7301 20.3002 2.2213 20.3002 2.82721V27.8243C20.3002 28.4302 20.6952 28.9214 21.1823 28.9214H24.7021C25.1894 28.9214 25.5843 28.4302 25.5843 27.8243V2.82721C25.5843 2.2213 25.1894 1.7301 24.7021 1.7301Z" fill="#F4263E"/>
</g>
<path d="M25.2304 1.1123H20.654C20.0206 1.1123 19.507 1.62581 19.507 2.25926V28.392C19.507 29.0255 20.0206 29.539 20.654 29.539H25.2304C25.8639 29.539 26.3774 29.0255 26.3774 28.392V2.25926C26.3774 1.62581 25.8639 1.1123 25.2304 1.1123Z" fill="#F4263E"/>
<g filter="url(#filter1_d)">
<path d="M35.5957 28.9214C38.4801 28.9214 40.8184 26.5831 40.8184 23.6986C40.8184 20.8143 38.4801 18.476 35.5957 18.476C32.7113 18.476 30.373 20.8143 30.373 23.6986C30.373 26.5831 32.7113 28.9214 35.5957 28.9214Z" fill="#1B76FF"/>
</g>
<path d="M35.5957 29.5388C38.821 29.5388 41.4357 26.924 41.4357 23.6986C41.4357 20.4734 38.821 17.8586 35.5957 17.8586C32.3703 17.8586 29.7556 20.4734 29.7556 23.6986C29.7556 26.924 32.3703 29.5388 35.5957 29.5388Z" fill="#1B76FF"/>
<g filter="url(#filter2_d)">
<path d="M35.5957 11.4017C38.0529 11.4017 40.0449 9.40971 40.0449 6.95244C40.0449 4.49518 38.0529 2.50317 35.5957 2.50317C33.1384 2.50317 31.1464 4.49518 31.1464 6.95244C31.1464 9.40971 33.1384 11.4017 35.5957 11.4017Z" fill="#FFCD1D"/>
</g>
<path d="M35.5957 12.7924C38.821 12.7924 41.4357 10.1777 41.4357 6.95236C41.4357 3.72698 38.821 1.1123 35.5957 1.1123C32.3703 1.1123 29.7556 3.72698 29.7556 6.95236C29.7556 10.1777 32.3703 12.7924 35.5957 12.7924Z" fill="#FFCD1D"/>
<g filter="url(#filter3_d)">
<path d="M10.2895 28.9214C13.1739 28.9214 15.5122 26.5831 15.5122 23.6986C15.5122 20.8143 13.1739 18.476 10.2895 18.476C7.40506 18.476 5.06678 20.8143 5.06678 23.6986C5.06678 26.5831 7.40506 28.9214 10.2895 28.9214Z" fill="#782CE4"/>
</g>
<path d="M10.2895 29.5388C13.5148 29.5388 16.1295 26.924 16.1295 23.6986C16.1295 20.4734 13.5148 17.8586 10.2895 17.8586C7.06412 17.8586 4.44944 20.4734 4.44944 23.6986C4.44944 26.924 7.06412 29.5388 10.2895 29.5388Z" fill="#782CE4"/>
<defs>
<filter id="filter0_d" x="16.3002" y="0.730103" width="13.2841" height="35.1913" filterUnits="userSpaceOnUse" color-interpolation-filters="sRGB">
<feFlood flood-opacity="0" result="BackgroundImageFix"/>
<feColorMatrix in="SourceAlpha" type="matrix" values="0 0 0 0 0 0 0 0 0 0 0 0 0 0 0 0 0 0 127 0"/>
<feOffset dy="3"/>
<feGaussianBlur stdDeviation="2"/>
<feColorMatrix type="matrix" values="0 0 0 0 0.956863 0 0 0 0 0.14902 0 0 0 0 0.243137 0 0 0 0.15 0"/>
<feBlend mode="normal" in2="BackgroundImageFix" result="effect1_dropShadow"/>
<feBlend mode="normal" in="SourceGraphic" in2="effect1_dropShadow" result="shape"/>
</filter>
<filter id="filter1_d" x="26.373" y="17.476" width="18.4454" height="18.4454" filterUnits="userSpaceOnUse" color-interpolation-filters="sRGB">
<feFlood flood-opacity="0" result="BackgroundImageFix"/>
<feColorMatrix in="SourceAlpha" type="matrix" values="0 0 0 0 0 0 0 0 0 0 0 0 0 0 0 0 0 0 127 0"/>
<feOffset dy="3"/>
<feGaussianBlur stdDeviation="2"/>
<feColorMatrix type="matrix" values="0 0 0 0 0.104167 0 0 0 0 0.4625 0 0 0 0 1 0 0 0 0.15 0"/>
<feBlend mode="normal" in2="BackgroundImageFix" result="effect1_dropShadow"/>
<feBlend mode="normal" in="SourceGraphic" in2="effect1_dropShadow" result="shape"/>
</filter>
<filter id="filter2_d" x="27.1464" y="1.50317" width="16.8985" height="16.8985" filterUnits="userSpaceOnUse" color-interpolation-filters="sRGB">
<feFlood flood-opacity="0" result="BackgroundImageFix"/>
<feColorMatrix in="SourceAlpha" type="matrix" values="0 0 0 0 0 0 0 0 0 0 0 0 0 0 0 0 0 0 127 0"/>
<feOffset dy="3"/>
<feGaussianBlur stdDeviation="2"/>
<feColorMatrix type="matrix" values="0 0 0 0 1 0 0 0 0 0.80475 0 0 0 0 0.1125 0 0 0 0.3 0"/>
<feBlend mode="normal" in2="BackgroundImageFix" result="effect1_dropShadow"/>
<feBlend mode="normal" in="SourceGraphic" in2="effect1_dropShadow" result="shape"/>
</filter>
<filter id="filter3_d" x="1.06678" y="17.476" width="18.4454" height="18.4454" filterUnits="userSpaceOnUse" color-interpolation-filters="sRGB">
<feFlood flood-opacity="0" result="BackgroundImageFix"/>
<feColorMatrix in="SourceAlpha" type="matrix" values="0 0 0 0 0 0 0 0 0 0 0 0 0 0 0 0 0 0 127 0"/>
<feOffset dy="3"/>
<feGaussianBlur stdDeviation="2"/>
<feColorMatrix type="matrix" values="0 0 0 0 0.470588 0 0 0 0 0.172549 0 0 0 0 0.894118 0 0 0 0.15 0"/>
<feBlend mode="normal" in2="BackgroundImageFix" result="effect1_dropShadow"/>
<feBlend mode="normal" in="SourceGraphic" in2="effect1_dropShadow" result="shape"/>
</filter>
</defs>
</svg>
