<svg width="136" height="37" viewBox="0 0 136 37" fill="none" xmlns="http://www.w3.org/2000/svg">
<path d="M100.228 3.45578C100.228 2.03922 101.406 0.889526 102.859 0.889526H133.196C134.649 0.889526 135.827 2.03922 135.827 3.45578V34.148C135.827 35.565 134.649 36.7138 133.196 36.7138H102.859C101.406 36.7138 100.228 35.565 100.228 34.1485V3.45531V3.45578Z" fill="#2563AE"/>
<path d="M0.576691 30.8977H15.433V26.0198H5.95399V7.41185H0.576691V30.8977ZM22.9546 30.8977V14.7211H17.5778V30.8977H22.9546ZM20.2667 12.5129C22.1413 12.5129 23.3084 11.2706 23.3084 9.71735C23.2736 8.13023 22.1413 6.92322 20.3024 6.92322C18.463 6.92322 17.2602 8.1307 17.2602 9.71735C17.2602 11.2706 18.4273 12.5129 20.2314 12.5129H20.2667V12.5129ZM25.4509 30.8977H30.8277V21.8636C30.8277 21.3801 30.8625 20.8967 31.0048 20.5523C31.3929 19.5863 32.2776 18.5855 33.7633 18.5855C35.7093 18.5855 36.4878 20.0693 36.4878 22.2428V30.8972H41.8637V21.6221C41.8637 16.6531 39.211 14.341 35.6731 14.341C32.7728 14.341 31.4991 15.9624 30.7915 17.067H30.8277V14.7211H25.4509C25.5218 16.2392 25.4509 30.8977 25.4509 30.8977V30.8977ZM49.4493 7.41185H44.0724V30.8977H49.4493V25.6529L50.793 23.961L55.0028 30.8977H61.6172L54.5433 20.8558L60.7329 14.0244H54.2604C54.2604 14.0244 49.8388 20.136 49.4493 20.8614V7.41185Z" fill="#2563AE"/>
<path d="M75.9956 24.1498C76.0666 23.7345 76.1727 22.9377 76.1727 22.0365C76.1727 17.8549 74.05 13.6095 68.4613 13.6095C62.4831 13.6095 59.7237 18.3375 59.7237 22.6257C59.7237 27.9292 63.0844 31.2411 68.956 31.2411C71.2911 31.2411 73.4481 30.8972 75.2176 30.1722L74.51 26.6212C73.0591 27.1023 71.5735 27.3433 69.7345 27.3433C67.2233 27.3433 65.0305 26.312 64.8534 24.1151L75.9956 24.1489V24.1498V24.1498ZM64.8182 20.5124C64.9596 19.132 65.88 17.0952 68.1789 17.0952C70.6193 17.0952 71.1859 19.2696 71.1859 20.5124H64.8186H64.8182ZM89.4443 7.41185V15.5419H89.3733C88.5948 14.404 86.9677 13.6447 84.8112 13.6447C80.6719 13.6447 77.0288 16.9571 77.0635 22.6158C77.0635 27.8611 80.3538 31.2773 84.4565 31.2773C86.6854 31.2773 88.8072 30.3104 89.869 28.447H89.9747L90.1875 30.8977H94.9625C94.892 29.7588 94.8206 27.792 94.8206 25.8596V7.41138H89.4438L89.4443 7.41185ZM89.4443 23.4098C89.4443 23.8233 89.409 24.2382 89.3376 24.5821C89.0205 26.0668 87.7467 27.1009 86.1902 27.1009C83.9622 27.1009 82.5113 25.3071 82.5113 22.4777C82.5113 19.8212 83.7503 17.6816 86.2259 17.6816C87.8882 17.6816 89.0552 18.82 89.3738 20.2342C89.4443 20.5457 89.4443 20.891 89.4443 21.2011V23.4094V23.4098Z" fill="#2563AE"/>
<path d="M111.019 30.8779V14.7014H105.642V30.8779H111.02H111.019ZM108.332 12.4931C110.206 12.4931 111.374 11.2509 111.374 9.69851C111.338 8.11093 110.206 6.90344 108.368 6.90344C106.527 6.90344 105.325 8.11093 105.325 9.69851C105.325 11.2509 106.492 12.4931 108.297 12.4931H108.331H108.332ZM113.995 30.8779H119.372V21.8452C119.372 21.3622 119.407 20.8783 119.549 20.5335C119.937 19.567 120.822 18.5667 122.308 18.5667C124.253 18.5667 125.031 20.05 125.031 22.2249V30.8779H130.408V21.6028C130.408 16.6343 127.755 14.3222 124.218 14.3222C121.318 14.3222 120.044 15.9431 119.336 17.0473H119.372V14.7018H113.996C114.066 16.2194 113.995 30.8784 113.995 30.8784V30.8779Z" fill="white"/>
</svg>
