<svg width="208" height="51" viewBox="0 0 208 51" fill="none" xmlns="http://www.w3.org/2000/svg">
<g filter="url(#filter0_d)">
<path d="M34.0928 18.2184C29.8809 18.2184 26.462 14.8125 26.462 10.6267C26.462 10.0807 26.527 9.56076 26.631 9.04077H16.4914C12.5655 9.04077 9.38062 12.2126 9.38062 16.1125V29.1771C9.38062 33.0899 12.5655 36.2488 16.4914 36.2488H29.6209C33.5598 36.2488 36.7317 33.0769 36.7317 29.1771V17.7374C35.9257 18.0364 35.0288 18.2184 34.0928 18.2184Z" fill="#6A35FF" fill-opacity="0.01"/>
</g>
<path d="M34.0928 18.2184C29.8809 18.2184 26.462 14.8125 26.462 10.6267C26.462 10.0807 26.527 9.56076 26.631 9.04077H16.4914C12.5655 9.04077 9.38062 12.2126 9.38062 16.1125V29.1771C9.38062 33.0899 12.5655 36.2488 16.4914 36.2488H29.6209C33.5598 36.2488 36.7317 33.0769 36.7317 29.1771V17.7374C35.9257 18.0364 35.0288 18.2184 34.0928 18.2184Z" fill="#6A35FF"/>
<g filter="url(#filter1_d)">
<path d="M34.6774 15.5961C37.7323 15.5961 40.2022 13.1391 40.2022 10.0972C40.2022 7.06831 37.7323 4.59839 34.6774 4.59839C31.6225 4.59839 29.1526 7.05531 29.1526 10.0972C29.1526 13.1261 31.6225 15.5961 34.6774 15.5961Z" fill="#FF3951" fill-opacity="0.01"/>
</g>
<path d="M34.6774 15.5961C37.7323 15.5961 40.2022 13.1391 40.2022 10.0972C40.2022 7.06831 37.7323 4.59839 34.6774 4.59839C31.6225 4.59839 29.1526 7.05531 29.1526 10.0972C29.1526 13.1261 31.6225 15.5961 34.6774 15.5961Z" fill="#FF3951"/>
<path d="M68.1505 22.5909C67.9331 23.515 67.5661 24.412 67.0497 25.2817C66.5333 26.1243 65.8946 26.8854 65.1335 27.5649C64.3725 28.2172 63.5027 28.7472 62.5242 29.1549C61.5458 29.5354 60.4993 29.7257 59.3849 29.7257C58.1075 29.7257 56.898 29.4811 55.7564 28.9918C54.642 28.4754 53.6499 27.7823 52.7802 26.9125C51.9376 26.0428 51.2581 25.0371 50.7417 23.8956C50.2524 22.7268 50.0078 21.4765 50.0078 20.1447C50.0078 18.8129 50.2524 17.5762 50.7417 16.4346C51.2581 15.2659 51.9376 14.2466 52.7802 13.3769C53.6499 12.5071 54.642 11.8276 55.7564 11.3384C56.898 10.8219 58.1075 10.5637 59.3849 10.5637C60.4993 10.5637 61.5458 10.7676 62.5242 11.1753C63.5027 11.5558 64.3725 12.0858 65.1335 12.7653C65.8946 13.4176 66.5333 14.1787 67.0497 15.0484C67.5661 15.891 67.9331 16.7744 68.1505 17.6985H63.4619C63.2445 17.2093 62.9455 16.7744 62.565 16.3938C62.2388 16.0677 61.8176 15.7687 61.3011 15.4969C60.7847 15.1979 60.146 15.0484 59.3849 15.0484C58.0531 15.0484 56.9387 15.5105 56.0418 16.4346C55.1448 17.3587 54.6964 18.5954 54.6964 20.1447C54.6964 21.694 55.1448 22.9307 56.0418 23.8548C56.9387 24.7789 58.0531 25.241 59.3849 25.241C60.146 25.241 60.7847 25.1051 61.3011 24.8333C61.8176 24.5615 62.2388 24.2625 62.565 23.9363C62.9455 23.5558 63.2445 23.1073 63.4619 22.5909H68.1505Z" fill="#14142B"/>
<path d="M75.8968 20.1447C75.8968 21.694 76.3453 22.9307 77.2422 23.8548C78.1392 24.7789 79.2536 25.241 80.5854 25.241C81.9172 25.241 83.0316 24.7789 83.9285 23.8548C84.8255 22.9307 85.274 21.694 85.274 20.1447C85.274 18.5954 84.8255 17.3587 83.9285 16.4346C83.0316 15.5105 81.9172 15.0484 80.5854 15.0484C79.2536 15.0484 78.1392 15.5105 77.2422 16.4346C76.3453 17.3587 75.8968 18.5954 75.8968 20.1447ZM89.9625 20.1447C89.9625 21.4765 89.7043 22.7268 89.1879 23.8956C88.6986 25.0371 88.0191 26.0428 87.1494 26.9125C86.3068 27.7823 85.3147 28.4754 84.1732 28.9918C83.0588 29.4811 81.8629 29.7257 80.5854 29.7257C79.3079 29.7257 78.0984 29.4811 76.9569 28.9918C75.8425 28.4754 74.8504 27.7823 73.9806 26.9125C73.1381 26.0428 72.4586 25.0371 71.9421 23.8956C71.4529 22.7268 71.2083 21.4765 71.2083 20.1447C71.2083 18.8129 71.4529 17.5762 71.9421 16.4346C72.4586 15.2659 73.1381 14.2466 73.9806 13.3769C74.8504 12.5071 75.8425 11.8276 76.9569 11.3384C78.0984 10.8219 79.3079 10.5637 80.5854 10.5637C81.8629 10.5637 83.0588 10.8219 84.1732 11.3384C85.3147 11.8276 86.3068 12.5071 87.1494 13.3769C88.0191 14.2466 88.6986 15.2659 89.1879 16.4346C89.7043 17.5762 89.9625 18.8129 89.9625 20.1447Z" fill="#14142B"/>
<path d="M102.99 10.5637C103.941 10.5637 104.757 10.6996 105.436 10.9714C106.116 11.216 106.673 11.4878 107.108 11.7868C107.597 12.1402 107.991 12.5479 108.29 13.0099C108.725 12.5479 109.228 12.1402 109.798 11.7868C110.288 11.4878 110.872 11.216 111.552 10.9714C112.231 10.6996 112.979 10.5637 113.794 10.5637C115.832 10.5637 117.463 11.216 118.686 12.5207C119.909 13.8253 120.521 15.7551 120.521 18.31V29.5218H115.832V18.7177C115.832 17.5762 115.52 16.6792 114.895 16.0269C114.297 15.3746 113.59 15.0484 112.775 15.0484C111.959 15.0484 111.239 15.3746 110.614 16.0269C110.016 16.6792 109.717 17.5762 109.717 18.7177V29.5218H105.028V18.7177C105.028 17.5762 104.716 16.6792 104.091 16.0269C103.493 15.3746 102.786 15.0484 101.971 15.0484C101.155 15.0484 100.435 15.3746 99.8098 16.0269C99.2118 16.6792 98.9128 17.5762 98.9128 18.7177V29.5218H94.2243V10.7676H97.6897L98.5051 12.6022C98.8857 12.2217 99.3069 11.882 99.769 11.583C100.15 11.3384 100.612 11.1073 101.155 10.8899C101.699 10.6724 102.31 10.5637 102.99 10.5637Z" fill="#14142B"/>
<path d="M135.198 10.5637C136.367 10.5637 137.481 10.8083 138.541 11.2976C139.601 11.7596 140.526 12.4256 141.314 13.2953C142.129 14.1379 142.768 15.1436 143.23 16.3123C143.719 17.4811 143.964 18.7585 143.964 20.1447C143.964 21.5309 143.719 22.8083 143.23 23.9771C142.768 25.1458 142.129 26.1651 141.314 27.0348C140.526 27.8774 139.601 28.5433 138.541 29.0326C137.481 29.4946 136.367 29.7257 135.198 29.7257C134.41 29.7257 133.717 29.6305 133.119 29.4403C132.548 29.25 132.045 29.0462 131.61 28.8287C131.121 28.5569 130.686 28.2444 130.306 27.891V36.045H125.617V10.7676H129.083L129.898 12.6022C130.306 12.2217 130.781 11.882 131.325 11.583C131.787 11.3384 132.344 11.1073 132.997 10.8899C133.649 10.6724 134.383 10.5637 135.198 10.5637ZM129.898 20.1447C129.898 21.694 130.347 22.9307 131.244 23.8548C132.14 24.7789 133.255 25.241 134.587 25.241C135.919 25.241 137.033 24.7789 137.93 23.8548C138.827 22.9307 139.275 21.694 139.275 20.1447C139.275 18.5954 138.827 17.3587 137.93 16.4346C137.033 15.5105 135.919 15.0484 134.587 15.0484C133.255 15.0484 132.14 15.5105 131.244 16.4346C130.347 17.3587 129.898 18.5954 129.898 20.1447Z" fill="#14142B"/>
<path d="M155.997 10.5637C157.057 10.5637 158.036 10.754 158.933 11.1345C159.83 11.4878 160.604 11.9907 161.257 12.643C161.909 13.2953 162.412 14.07 162.765 14.9669C163.146 15.8638 163.336 16.8423 163.336 17.9023V29.5218H159.871L159.055 27.6872C158.62 28.0677 158.145 28.4074 157.628 28.7064C157.166 28.9782 156.609 29.2228 155.957 29.4403C155.304 29.6305 154.57 29.7257 153.755 29.7257C151.717 29.7257 150.154 29.2364 149.066 28.258C147.979 27.2523 147.436 25.9748 147.436 24.4256C147.436 23.5014 147.612 22.6589 147.966 21.8978C148.346 21.1096 148.971 20.4437 149.841 19.9001C150.711 19.3293 151.852 18.8944 153.266 18.5954C154.706 18.2693 156.5 18.1062 158.647 18.1062C158.647 17.0733 158.362 16.2715 157.791 15.7008C157.248 15.13 156.514 14.8446 155.59 14.8446C154.965 14.8446 154.462 14.9533 154.081 15.1707C153.728 15.3882 153.442 15.6192 153.225 15.8638C152.98 16.1628 152.817 16.5026 152.736 16.8831H148.047C148.156 16.0133 148.401 15.1979 148.781 14.4369C149.189 13.6758 149.732 13.0099 150.412 12.4391C151.091 11.8684 151.893 11.4199 152.817 11.0937C153.769 10.7404 154.829 10.5637 155.997 10.5637ZM154.57 26.0564C155.794 26.0564 156.772 25.703 157.506 24.9963C158.267 24.2625 158.647 23.3248 158.647 22.1832V21.3678C157.261 21.3678 156.147 21.4358 155.304 21.5717C154.462 21.6804 153.796 21.857 153.307 22.1017C152.844 22.3191 152.532 22.5909 152.369 22.9171C152.206 23.2432 152.124 23.6102 152.124 24.0179C152.124 24.5343 152.355 25.0099 152.817 25.4448C153.279 25.8525 153.864 26.0564 154.57 26.0564Z" fill="#14142B"/>
<path d="M177.997 10.5637C179.112 10.5637 180.131 10.754 181.055 11.1345C181.979 11.4878 182.767 12.0179 183.42 12.7245C184.099 13.404 184.616 14.233 184.969 15.2115C185.35 16.19 185.54 17.2908 185.54 18.5139V29.5218H180.851V19.1254C180.851 17.9023 180.484 16.9239 179.75 16.19C179.044 15.429 178.12 15.0484 176.978 15.0484C175.836 15.0484 174.899 15.429 174.165 16.19C173.458 16.9239 173.105 17.9023 173.105 19.1254V29.5218H168.416V10.7676H171.882L172.697 12.6022C173.159 12.2217 173.662 11.882 174.206 11.583C174.668 11.3384 175.211 11.1073 175.836 10.8899C176.489 10.6724 177.209 10.5637 177.997 10.5637Z" fill="#14142B"/>
<path d="M188.613 10.7676H193.506L198.194 22.9986L202.475 10.7676H207.368C206.036 14.1923 204.826 17.2908 203.739 20.0632C203.277 21.2591 202.815 22.4278 202.353 23.5694C201.918 24.711 201.524 25.7574 201.171 26.7087C200.817 27.6328 200.518 28.4074 200.274 29.0326C200.029 29.6577 199.88 30.0247 199.825 30.1334C199.363 31.2478 198.901 32.1855 198.439 32.9465C198.004 33.7347 197.529 34.3735 197.012 34.8627C196.496 35.352 195.938 35.7053 195.341 35.9227C194.743 36.1402 194.063 36.2489 193.302 36.2489C193.085 36.2489 192.867 36.2353 192.65 36.2081C192.459 36.2081 192.296 36.1945 192.16 36.1674C191.97 36.1402 191.807 36.0994 191.671 36.045V32.1719C192.704 32.1719 193.492 31.9409 194.036 31.4788C194.607 31.0167 195.042 30.4324 195.341 29.7257L195.748 28.7064L188.613 10.7676Z" fill="#14142B"/>
<defs>
<filter id="filter0_d" x="0.380623" y="5.04077" width="45.3511" height="45.2081" filterUnits="userSpaceOnUse" color-interpolation-filters="sRGB">
<feFlood flood-opacity="0" result="BackgroundImageFix"/>
<feColorMatrix in="SourceAlpha" type="matrix" values="0 0 0 0 0 0 0 0 0 0 0 0 0 0 0 0 0 0 127 0"/>
<feOffset dy="5"/>
<feGaussianBlur stdDeviation="4.5"/>
<feColorMatrix type="matrix" values="0 0 0 0 0.392157 0 0 0 0 0.290196 0 0 0 0 1 0 0 0 0.18 0"/>
<feBlend mode="normal" in2="BackgroundImageFix" result="effect1_dropShadow"/>
<feBlend mode="normal" in="SourceGraphic" in2="effect1_dropShadow" result="shape"/>
</filter>
<filter id="filter1_d" x="19.1526" y="0.598389" width="31.0496" height="30.9977" filterUnits="userSpaceOnUse" color-interpolation-filters="sRGB">
<feFlood flood-opacity="0" result="BackgroundImageFix"/>
<feColorMatrix in="SourceAlpha" type="matrix" values="0 0 0 0 0 0 0 0 0 0 0 0 0 0 0 0 0 0 127 0"/>
<feOffset dy="6"/>
<feGaussianBlur stdDeviation="5"/>
<feColorMatrix type="matrix" values="0 0 0 0 1 0 0 0 0 0.223529 0 0 0 0 0.317647 0 0 0 0.17 0"/>
<feBlend mode="normal" in2="BackgroundImageFix" result="effect1_dropShadow"/>
<feBlend mode="normal" in="SourceGraphic" in2="effect1_dropShadow" result="shape"/>
</filter>
</defs>
</svg>
