<svg width="174" height="28" viewBox="0 0 174 28" fill="none" xmlns="http://www.w3.org/2000/svg">
<path d="M22.46 11.9066C18.7781 11.9066 15.7893 8.92919 15.7893 5.26996C15.7893 4.79267 15.8461 4.33811 15.937 3.88354H7.07308C3.64113 3.88354 0.856934 6.65638 0.856934 10.0656V21.4865C0.856934 24.9071 3.64113 27.6685 7.07308 27.6685H18.5508C21.9941 27.6685 24.7669 24.8957 24.7669 21.4865V11.4861C24.0623 11.7475 23.2782 11.9066 22.46 11.9066Z" fill="white"/>
<path d="M24.7779 21.4865V11.4861C24.062 11.7475 23.2778 11.9066 22.471 11.9066C18.789 11.9066 15.8003 8.92919 15.8003 5.26996C15.8003 4.79267 15.8571 4.33811 15.948 3.88354H7.08406C3.67484 3.88354 0.913376 6.61092 0.86792 9.99741C9.05004 13.3725 17.4595 17.475 24.7325 22.2706C24.7552 22.0092 24.7779 21.7479 24.7779 21.4865Z" fill="white"/>
<path d="M22.9708 9.614C25.6414 9.614 27.8006 7.46619 27.8006 4.807C27.8006 2.15917 25.6414 0 22.9708 0C20.3003 0 18.1411 2.14781 18.1411 4.807C18.1411 7.45482 20.3003 9.614 22.9708 9.614Z" fill="white"/>
<path d="M52.2329 15.7289C52.0428 16.5367 51.7221 17.3208 51.2706 18.0811C50.8192 18.8177 50.2608 19.483 49.5955 20.077C48.9302 20.6473 48.1699 21.1106 47.3145 21.467C46.4591 21.7997 45.5444 21.966 44.5702 21.966C43.4534 21.966 42.3961 21.7521 41.3981 21.3245C40.424 20.873 39.5567 20.2671 38.7964 19.5068C38.0598 18.7464 37.4658 17.8673 37.0143 16.8694C36.5866 15.8477 36.3728 14.7547 36.3728 13.5904C36.3728 12.4262 36.5866 11.3451 37.0143 10.3471C37.4658 9.32541 38.0598 8.43439 38.7964 7.67405C39.5567 6.91372 40.424 6.31971 41.3981 5.89202C42.3961 5.44057 43.4534 5.21484 44.5702 5.21484C45.5444 5.21484 46.4591 5.39305 47.3145 5.74945C48.1699 6.0821 48.9302 6.54543 49.5955 7.13944C50.2608 7.7097 50.8192 8.37499 51.2706 9.13532C51.7221 9.8719 52.0428 10.6441 52.2329 11.452H48.1342C47.9442 11.0243 47.6828 10.6441 47.3501 10.3115C47.065 10.0263 46.6967 9.76498 46.2453 9.52737C45.7938 9.26601 45.2355 9.13532 44.5702 9.13532C43.4059 9.13532 42.4317 9.53925 41.6476 10.3471C40.8635 11.155 40.4715 12.2361 40.4715 13.5904C40.4715 14.9448 40.8635 16.0259 41.6476 16.8337C42.4317 17.6416 43.4059 18.0455 44.5702 18.0455C45.2355 18.0455 45.7938 17.9267 46.2453 17.6891C46.6967 17.4515 47.065 17.1901 47.3501 16.905C47.6828 16.5724 47.9442 16.1803 48.1342 15.7289H52.2329Z" fill="white"/>
<path d="M59.0047 13.5904C59.0047 14.9448 59.3967 16.0259 60.1808 16.8337C60.9649 17.6416 61.9391 18.0455 63.1034 18.0455C64.2676 18.0455 65.2418 17.6416 66.0259 16.8337C66.81 16.0259 67.202 14.9448 67.202 13.5904C67.202 12.2361 66.81 11.155 66.0259 10.3471C65.2418 9.53925 64.2676 9.13532 63.1034 9.13532C61.9391 9.13532 60.9649 9.53925 60.1808 10.3471C59.3967 11.155 59.0047 12.2361 59.0047 13.5904ZM71.3007 13.5904C71.3007 14.7547 71.075 15.8477 70.6235 16.8694C70.1959 17.8673 69.6018 18.7464 68.8415 19.5068C68.1049 20.2671 67.2377 20.873 66.2397 21.3245C65.2656 21.7521 64.2201 21.966 63.1034 21.966C61.9866 21.966 60.9293 21.7521 59.9313 21.3245C58.9571 20.873 58.0899 20.2671 57.3296 19.5068C56.593 18.7464 55.999 17.8673 55.5475 16.8694C55.1198 15.8477 54.906 14.7547 54.906 13.5904C54.906 12.4262 55.1198 11.3451 55.5475 10.3471C55.999 9.32541 56.593 8.43439 57.3296 7.67405C58.0899 6.91372 58.9571 6.31971 59.9313 5.89202C60.9293 5.44057 61.9866 5.21484 63.1034 5.21484C64.2201 5.21484 65.2656 5.44057 66.2397 5.89202C67.2377 6.31971 68.1049 6.91372 68.8415 7.67405C69.6018 8.43439 70.1959 9.32541 70.6235 10.3471C71.075 11.3451 71.3007 12.4262 71.3007 13.5904Z" fill="white"/>
<path d="M82.689 5.21484C83.5207 5.21484 84.2335 5.33365 84.8275 5.57125C85.4215 5.7851 85.9086 6.0227 86.2888 6.28407C86.7164 6.59295 87.061 6.94936 87.3223 7.35329C87.7025 6.94936 88.1421 6.59295 88.641 6.28407C89.0687 6.0227 89.5796 5.7851 90.1736 5.57125C90.7676 5.33365 91.421 5.21484 92.1338 5.21484C93.9159 5.21484 95.3415 5.7851 96.4107 6.9256C97.4799 8.0661 98.0146 9.7531 98.0146 11.9866V21.7878H93.9159V12.343C93.9159 11.345 93.6426 10.561 93.0961 9.9907C92.5734 9.42045 91.9556 9.13532 91.2428 9.13532C90.53 9.13532 89.9004 9.42045 89.3539 9.9907C88.8311 10.561 88.5698 11.345 88.5698 12.343V21.7878H84.4711V12.343C84.4711 11.345 84.1978 10.561 83.6513 9.9907C83.1286 9.42045 82.5108 9.13532 81.798 9.13532C81.0852 9.13532 80.4556 9.42045 79.9091 9.9907C79.3863 10.561 79.125 11.345 79.125 12.343V21.7878H75.0263V5.39305H78.0557L78.7686 6.99688C79.1012 6.66423 79.4695 6.36723 79.8734 6.10586C80.2061 5.89202 80.61 5.69005 81.0852 5.49997C81.5604 5.30989 82.095 5.21484 82.689 5.21484Z" fill="white"/>
<path d="M110.845 5.21484C111.867 5.21484 112.841 5.42869 113.768 5.85638C114.694 6.26031 115.502 6.84244 116.191 7.60277C116.904 8.33935 117.463 9.21849 117.866 10.2402C118.294 11.2619 118.508 12.3786 118.508 13.5904C118.508 14.8022 118.294 15.9189 117.866 16.9406C117.463 17.9623 116.904 18.8534 116.191 19.6137C115.502 20.3503 114.694 20.9324 113.768 21.3601C112.841 21.764 111.867 21.966 110.845 21.966C110.156 21.966 109.55 21.8828 109.028 21.7165C108.529 21.5502 108.089 21.372 107.709 21.1819C107.281 20.9443 106.901 20.671 106.568 20.3622V27.4903H102.47V5.39305H105.499L106.212 6.99688C106.568 6.66423 106.984 6.36723 107.459 6.10586C107.863 5.89202 108.35 5.69005 108.921 5.49997C109.491 5.30989 110.132 5.21484 110.845 5.21484ZM106.212 13.5904C106.212 14.9448 106.604 16.0259 107.388 16.8337C108.172 17.6416 109.146 18.0455 110.311 18.0455C111.475 18.0455 112.449 17.6416 113.233 16.8337C114.017 16.0259 114.409 14.9448 114.409 13.5904C114.409 12.2361 114.017 11.155 113.233 10.3471C112.449 9.53925 111.475 9.13532 110.311 9.13532C109.146 9.13532 108.172 9.53925 107.388 10.3471C106.604 11.155 106.212 12.2361 106.212 13.5904Z" fill="white"/>
<path d="M129.028 5.21484C129.954 5.21484 130.81 5.38117 131.594 5.71381C132.378 6.0227 133.055 6.46227 133.625 7.03252C134.195 7.60277 134.635 8.27995 134.944 9.06404C135.277 9.84814 135.443 10.7035 135.443 11.6302V21.7878H132.413L131.701 20.184C131.32 20.5166 130.905 20.8136 130.453 21.075C130.049 21.3126 129.562 21.5264 128.992 21.7165C128.422 21.8828 127.78 21.966 127.067 21.966C125.285 21.966 123.919 21.5383 122.969 20.6829C122.018 19.8038 121.543 18.687 121.543 17.3327C121.543 16.5248 121.697 15.7883 122.006 15.123C122.339 14.4339 122.885 13.8518 123.646 13.3766C124.406 12.8776 125.404 12.4974 126.64 12.2361C127.899 11.9509 129.467 11.8084 131.344 11.8084C131.344 10.9055 131.095 10.2045 130.596 9.70558C130.121 9.20661 129.479 8.95712 128.671 8.95712C128.125 8.95712 127.685 9.05216 127.352 9.24225C127.044 9.43233 126.794 9.63429 126.604 9.84814C126.39 10.1095 126.248 10.4065 126.176 10.7392H122.078C122.173 9.97882 122.387 9.26601 122.719 8.60071C123.076 7.93542 123.551 7.35329 124.145 6.85432C124.739 6.35535 125.44 5.9633 126.248 5.67817C127.079 5.36929 128.006 5.21484 129.028 5.21484ZM127.78 18.7583C128.849 18.7583 129.705 18.4494 130.346 17.8317C131.012 17.1901 131.344 16.3704 131.344 15.3725V14.6596C130.132 14.6596 129.158 14.719 128.422 14.8378C127.685 14.9329 127.103 15.0873 126.675 15.3012C126.271 15.4913 125.998 15.7289 125.856 16.014C125.713 16.2991 125.642 16.6199 125.642 16.9763C125.642 17.4277 125.844 17.8435 126.248 18.2237C126.652 18.5801 127.162 18.7583 127.78 18.7583Z" fill="white"/>
<path d="M148.26 5.21484C149.234 5.21484 150.125 5.38117 150.933 5.71381C151.741 6.0227 152.43 6.48603 153 7.1038C153.594 7.69781 154.045 8.42251 154.354 9.27789C154.687 10.1333 154.853 11.0956 154.853 12.1648V21.7878H150.754V12.6994C150.754 11.6302 150.434 10.7748 149.792 10.1333C149.174 9.46797 148.367 9.13532 147.369 9.13532C146.371 9.13532 145.551 9.46797 144.909 10.1333C144.292 10.7748 143.983 11.6302 143.983 12.6994V21.7878H139.884V5.39305H142.914L143.626 6.99688C144.03 6.66423 144.47 6.36723 144.945 6.10586C145.349 5.89202 145.824 5.69005 146.371 5.49997C146.941 5.30989 147.571 5.21484 148.26 5.21484Z" fill="white"/>
<path d="M157.54 5.39305H161.817L165.916 16.0853L169.658 5.39305H173.935C172.771 8.38687 171.713 11.0956 170.763 13.5191C170.359 14.5646 169.955 15.5863 169.551 16.5842C169.171 17.5822 168.826 18.497 168.517 19.3286C168.209 20.1364 167.947 20.8136 167.733 21.3601C167.52 21.9066 167.389 22.2274 167.341 22.3224C166.937 23.2966 166.533 24.1163 166.13 24.7816C165.749 25.4707 165.334 26.029 164.882 26.4567C164.431 26.8844 163.944 27.1933 163.421 27.3834C162.898 27.5735 162.304 27.6685 161.639 27.6685C161.449 27.6685 161.259 27.6566 161.069 27.6329C160.902 27.6329 160.76 27.621 160.641 27.5972C160.475 27.5735 160.332 27.5378 160.213 27.4903V24.1044C161.116 24.1044 161.805 23.9025 162.28 23.4985C162.779 23.0946 163.159 22.5838 163.421 21.966L163.777 21.075L157.54 5.39305Z" fill="white"/>
</svg>
