<svg width="198" height="49" viewBox="0 0 198 49" fill="none" xmlns="http://www.w3.org/2000/svg">
<g clip-path="url(#clip0)">
<g filter="url(#filter0_d)">
<path d="M32.4537 17.6147C28.4443 17.6147 25.1898 14.3726 25.1898 10.388C25.1898 9.86827 25.2517 9.37329 25.3507 8.8783H15.6985C11.9614 8.8783 8.92963 11.8977 8.92963 15.6101V28.0466C8.92963 31.7713 11.9614 34.7783 15.6985 34.7783H28.1968C31.9463 34.7783 34.9658 31.7589 34.9658 28.0466V17.1569C34.1985 17.4415 33.3447 17.6147 32.4537 17.6147Z" fill="#6A35FF" fill-opacity="0.01"/>
</g>
<path d="M32.4537 17.6147C28.4443 17.6147 25.1898 14.3726 25.1898 10.388C25.1898 9.86827 25.2517 9.37329 25.3507 8.8783H15.6985C11.9614 8.8783 8.92963 11.8977 8.92963 15.6101V28.0466C8.92963 31.7713 11.9614 34.7783 15.6985 34.7783H28.1968C31.9463 34.7783 34.9658 31.7589 34.9658 28.0466V17.1569C34.1985 17.4415 33.3447 17.6147 32.4537 17.6147Z" fill="#6A35FF"/>
<g filter="url(#filter1_d)">
<path d="M33.0102 15.1182C35.9182 15.1182 38.2694 12.7794 38.2694 9.8837C38.2694 7.00047 35.9182 4.64929 33.0102 4.64929C30.1022 4.64929 27.751 6.98809 27.751 9.8837C27.751 12.767 30.1022 15.1182 33.0102 15.1182Z" fill="#FF3951" fill-opacity="0.01"/>
</g>
<path d="M33.0102 15.1182C35.9183 15.1182 38.2694 12.7794 38.2694 9.8837C38.2694 7.00047 35.9183 4.64929 33.0102 4.64929C30.1022 4.64929 27.751 6.98809 27.751 9.8837C27.751 12.767 30.1022 15.1182 33.0102 15.1182Z" fill="#FF3951"/>
<path d="M64.874 21.7769C64.6671 22.6565 64.3177 23.5104 63.8262 24.3383C63.3346 25.1404 62.7266 25.8649 62.0021 26.5117C61.2777 27.1327 60.4497 27.6372 59.5182 28.0253C58.5869 28.3875 57.5907 28.5686 56.5299 28.5686C55.3139 28.5686 54.1625 28.3358 53.0758 27.87C52.015 27.3784 51.0706 26.7187 50.2427 25.8907C49.4406 25.0628 48.7938 24.1054 48.3022 23.0188C47.8364 21.9062 47.6036 20.716 47.6036 19.4483C47.6036 18.1805 47.8364 17.0032 48.3022 15.9165C48.7938 14.804 49.4406 13.8337 50.2427 13.0058C51.0706 12.1778 52.015 11.531 53.0758 11.0653C54.1625 10.5737 55.3139 10.3279 56.5299 10.3279C57.5907 10.3279 58.5869 10.522 59.5182 10.9101C60.4497 11.2723 61.2777 11.7768 62.0021 12.4236C62.7266 13.0446 63.3346 13.7691 63.8262 14.597C64.3177 15.3991 64.6671 16.24 64.874 17.1197H60.4108C60.2039 16.654 59.9193 16.24 59.5571 15.8777C59.2465 15.5673 58.8456 15.2826 58.3539 15.0239C57.8624 14.7393 57.2544 14.597 56.5299 14.597C55.2621 14.597 54.2013 15.0369 53.3475 15.9165C52.4936 16.7962 52.0668 17.9734 52.0668 19.4483C52.0668 20.9231 52.4936 22.1003 53.3475 22.98C54.2013 23.8597 55.2621 24.2995 56.5299 24.2995C57.2544 24.2995 57.8624 24.1702 58.3539 23.9114C58.8456 23.6527 59.2465 23.3681 59.5571 23.0576C59.9193 22.6954 60.2039 22.2684 60.4108 21.7769H64.874Z" fill="#14142B"/>
<path d="M72.2479 19.4483C72.2479 20.9231 72.6748 22.1003 73.5286 22.98C74.3825 23.8597 75.4433 24.2995 76.7111 24.2995C77.9788 24.2995 79.0397 23.8597 79.8934 22.98C80.7473 22.1003 81.1743 20.9231 81.1743 19.4483C81.1743 17.9734 80.7473 16.7962 79.8934 15.9165C79.0397 15.0369 77.9788 14.597 76.7111 14.597C75.4433 14.597 74.3825 15.0369 73.5286 15.9165C72.6748 16.7962 72.2479 17.9734 72.2479 19.4483ZM85.6374 19.4483C85.6374 20.716 85.3916 21.9062 84.9 23.0188C84.4342 24.1054 83.7874 25.0628 82.9595 25.8907C82.1574 26.7187 81.213 27.3784 80.1264 27.87C79.0656 28.3358 77.9272 28.5686 76.7111 28.5686C75.495 28.5686 74.3436 28.3358 73.257 27.87C72.1962 27.3784 71.2518 26.7187 70.4238 25.8907C69.6218 25.0628 68.975 24.1054 68.4833 23.0188C68.0176 21.9062 67.7848 20.716 67.7848 19.4483C67.7848 18.1805 68.0176 17.0032 68.4833 15.9165C68.975 14.804 69.6218 13.8337 70.4238 13.0058C71.2518 12.1778 72.1962 11.531 73.257 11.0653C74.3436 10.5737 75.495 10.3279 76.7111 10.3279C77.9272 10.3279 79.0656 10.5737 80.1264 11.0653C81.213 11.531 82.1574 12.1778 82.9595 13.0058C83.7874 13.8337 84.4342 14.804 84.9 15.9165C85.3916 17.0032 85.6374 18.1805 85.6374 19.4483Z" fill="#14142B"/>
<path d="M98.0386 10.3279C98.9438 10.3279 99.7206 10.4572 100.367 10.716C101.014 10.9488 101.544 11.2076 101.959 11.4922C102.424 11.8286 102.799 12.2167 103.084 12.6565C103.498 12.2167 103.977 11.8286 104.519 11.4922C104.986 11.2076 105.542 10.9488 106.189 10.716C106.835 10.4572 107.547 10.3279 108.323 10.3279C110.263 10.3279 111.816 10.9488 112.98 12.1908C114.144 13.4327 114.727 15.2697 114.727 17.7018V28.3745H110.263V18.0899C110.263 17.0032 109.966 16.1494 109.371 15.5284C108.802 14.9075 108.129 14.597 107.353 14.597C106.576 14.597 105.891 14.9075 105.296 15.5284C104.727 16.1494 104.442 17.0032 104.442 18.0899V28.3745H99.9786V18.0899C99.9786 17.0032 99.6816 16.1494 99.0866 15.5284C98.5174 14.9075 97.8444 14.597 97.0685 14.597C96.2918 14.597 95.6064 14.9075 95.0112 15.5284C94.442 16.1494 94.1574 17.0032 94.1574 18.0899V28.3745H89.6943V10.522H92.9931L93.7693 12.2684C94.1316 11.9062 94.5325 11.5828 94.9724 11.2982C95.3351 11.0653 95.7749 10.8453 96.2918 10.6384C96.8096 10.4314 97.3912 10.3279 98.0386 10.3279Z" fill="#14142B"/>
<path d="M128.698 10.3279C129.811 10.3279 130.871 10.5607 131.88 11.0265C132.889 11.4663 133.77 12.1003 134.52 12.9282C135.296 13.7302 135.904 14.6876 136.344 15.8001C136.809 16.9127 137.043 18.1287 137.043 19.4483C137.043 20.7678 136.809 21.9838 136.344 23.0964C135.904 24.2089 135.296 25.1792 134.52 26.0071C133.77 26.8092 132.889 27.4431 131.88 27.9089C130.871 28.3486 129.811 28.5686 128.698 28.5686C127.948 28.5686 127.288 28.478 126.719 28.297C126.175 28.1158 125.697 27.9218 125.283 27.7148C124.817 27.456 124.403 27.1585 124.041 26.8221V34.5841H119.578V10.522H122.877L123.653 12.2684C124.041 11.9062 124.493 11.5828 125.011 11.2982C125.451 11.0653 125.981 10.8453 126.603 10.6384C127.224 10.4314 127.922 10.3279 128.698 10.3279ZM123.653 19.4483C123.653 20.9231 124.08 22.1003 124.934 22.98C125.787 23.8597 126.848 24.2995 128.116 24.2995C129.384 24.2995 130.445 23.8597 131.299 22.98C132.153 22.1003 132.579 20.9231 132.579 19.4483C132.579 17.9734 132.153 16.7962 131.299 15.9165C130.445 15.0369 129.384 14.597 128.116 14.597C126.848 14.597 125.787 15.0369 124.934 15.9165C124.08 16.7962 123.653 17.9734 123.653 19.4483Z" fill="#14142B"/>
<path d="M148.497 10.3279C149.506 10.3279 150.438 10.509 151.292 10.8712C152.146 11.2076 152.883 11.6863 153.504 12.3072C154.125 12.9282 154.604 13.6656 154.94 14.5194C155.302 15.3732 155.483 16.3046 155.483 17.3137V28.3745H152.185L151.408 26.6281C150.994 26.9903 150.542 27.3137 150.05 27.5983C149.61 27.8571 149.08 28.0899 148.459 28.297C147.837 28.478 147.139 28.5686 146.363 28.5686C144.423 28.5686 142.935 28.1029 141.899 27.1715C140.865 26.2141 140.348 24.9981 140.348 23.5233C140.348 22.6436 140.515 21.8416 140.852 21.1171C141.214 20.3668 141.809 19.7329 142.637 19.2154C143.465 18.6721 144.551 18.2581 145.897 17.9734C147.268 17.663 148.976 17.5078 151.02 17.5078C151.02 16.5245 150.748 15.7613 150.205 15.218C149.688 14.6746 148.989 14.403 148.11 14.403C147.515 14.403 147.036 14.5064 146.673 14.7134C146.337 14.9204 146.065 15.1403 145.858 15.3732C145.625 15.6578 145.47 15.9813 145.393 16.3435H140.929C141.033 15.5155 141.266 14.7393 141.628 14.0149C142.016 13.2904 142.533 12.6565 143.181 12.1131C143.827 11.5699 144.59 11.1429 145.47 10.8324C146.376 10.4961 147.385 10.3279 148.497 10.3279ZM147.139 25.0757C148.304 25.0757 149.235 24.7393 149.934 24.0666C150.658 23.3681 151.02 22.4755 151.02 21.3888V20.6126C149.7 20.6126 148.64 20.6773 147.837 20.8067C147.036 20.9101 146.402 21.0782 145.936 21.3112C145.496 21.5181 145.199 21.7769 145.044 22.0874C144.888 22.3978 144.81 22.7471 144.81 23.1352C144.81 23.6268 145.03 24.0796 145.47 24.4935C145.91 24.8816 146.467 25.0757 147.139 25.0757Z" fill="#14142B"/>
<path d="M169.439 10.3279C170.501 10.3279 171.471 10.509 172.35 10.8712C173.23 11.2076 173.98 11.7122 174.602 12.3848C175.248 13.0316 175.74 13.8208 176.076 14.7522C176.439 15.6837 176.62 16.7316 176.62 17.8959V28.3745H172.156V18.478C172.156 17.3137 171.807 16.3823 171.108 15.6837C170.436 14.9593 169.557 14.597 168.469 14.597C167.382 14.597 166.49 14.9593 165.792 15.6837C165.119 16.3823 164.783 17.3137 164.783 18.478V28.3745H160.319V10.522H163.618L164.394 12.2684C164.834 11.9062 165.313 11.5828 165.831 11.2982C166.271 11.0653 166.787 10.8453 167.382 10.6384C168.004 10.4314 168.689 10.3279 169.439 10.3279Z" fill="#14142B"/>
<path d="M179.545 10.522H184.203L188.665 22.1649L192.741 10.522H197.398C196.13 13.782 194.979 16.7316 193.944 19.3707C193.504 20.5091 193.064 21.6216 192.624 22.7083C192.21 23.795 191.835 24.7911 191.499 25.6967C191.162 26.5763 190.878 27.3137 190.645 27.9088C190.412 28.5039 190.27 28.8533 190.218 28.9567C189.778 30.0175 189.338 30.9102 188.899 31.6346C188.485 32.3849 188.032 32.993 187.54 33.4587C187.049 33.9244 186.518 34.2607 185.95 34.4677C185.38 34.6747 184.733 34.7782 184.009 34.7782C183.802 34.7782 183.595 34.7653 183.388 34.7394C183.206 34.7394 183.051 34.7264 182.922 34.7006C182.741 34.6747 182.585 34.6359 182.456 34.5841V30.8972C183.439 30.8972 184.189 30.6773 184.707 30.2374C185.251 29.7976 185.665 29.2414 185.95 28.5686L186.337 27.5983L179.545 10.522Z" fill="#14142B"/>
</g>
<defs>
<filter id="filter0_d" x="-0.0703735" y="4.8783" width="44.0361" height="43.9" filterUnits="userSpaceOnUse" color-interpolation-filters="sRGB">
<feFlood flood-opacity="0" result="BackgroundImageFix"/>
<feColorMatrix in="SourceAlpha" type="matrix" values="0 0 0 0 0 0 0 0 0 0 0 0 0 0 0 0 0 0 127 0"/>
<feOffset dy="5"/>
<feGaussianBlur stdDeviation="4.5"/>
<feColorMatrix type="matrix" values="0 0 0 0 0.392157 0 0 0 0 0.290196 0 0 0 0 1 0 0 0 0.18 0"/>
<feBlend mode="normal" in2="BackgroundImageFix" result="effect1_dropShadow"/>
<feBlend mode="normal" in="SourceGraphic" in2="effect1_dropShadow" result="shape"/>
</filter>
<filter id="filter1_d" x="17.751" y="0.649292" width="30.5184" height="30.4689" filterUnits="userSpaceOnUse" color-interpolation-filters="sRGB">
<feFlood flood-opacity="0" result="BackgroundImageFix"/>
<feColorMatrix in="SourceAlpha" type="matrix" values="0 0 0 0 0 0 0 0 0 0 0 0 0 0 0 0 0 0 127 0"/>
<feOffset dy="6"/>
<feGaussianBlur stdDeviation="5"/>
<feColorMatrix type="matrix" values="0 0 0 0 1 0 0 0 0 0.223529 0 0 0 0 0.317647 0 0 0 0.17 0"/>
<feBlend mode="normal" in2="BackgroundImageFix" result="effect1_dropShadow"/>
<feBlend mode="normal" in="SourceGraphic" in2="effect1_dropShadow" result="shape"/>
</filter>
<clipPath id="clip0">
<rect width="198" height="48.5481" fill="white" transform="translate(0 0.272095)"/>
</clipPath>
</defs>
</svg>
