<svg width="173" height="28" viewBox="0 0 173 28" fill="none" xmlns="http://www.w3.org/2000/svg">
<path d="M59.6252 15.1709C58.3761 17.1972 56.5997 18.363 54.2959 18.363C50.9651 18.363 48.5225 15.6706 48.5225 12.201C48.5225 8.73135 50.854 6.0667 54.3514 6.0667C56.5719 6.0667 58.5704 7.31576 59.5697 9.20322L62.7895 6.64959C61.1518 3.73513 58.1818 1.98645 54.4069 1.98645C48.3559 1.98645 44.1091 6.48305 44.1091 12.201C44.1091 17.9189 48.4392 22.4432 54.3514 22.4432C58.0708 22.4432 61.1796 20.4725 62.8727 17.669L59.6252 15.1709Z" fill="white"/>
<path d="M71.6899 7.53781C67.2488 7.53781 64.0567 10.7576 64.0567 14.9766C64.0567 19.1679 67.2488 22.4432 71.6899 22.4432C76.1309 22.4432 79.323 19.1679 79.323 14.9766C79.323 10.7576 76.1309 7.53781 71.6899 7.53781ZM71.6899 11.285C73.6051 11.285 75.0484 12.7561 75.0484 14.9766C75.0484 17.1972 73.6051 18.696 71.6899 18.696C69.7746 18.696 68.3313 17.1972 68.3313 14.9766C68.3313 12.7561 69.7746 11.285 71.6899 11.285Z" fill="white"/>
<path d="M82.0807 7.87089V22.1101H86.2997V14.6991C86.2997 12.8394 87.2712 11.2572 89.0476 11.2572C90.602 11.2572 91.6012 12.2287 91.6012 14.0884V22.1101H95.8203V14.6991C95.8203 12.8394 96.7918 11.2572 98.5682 11.2572C100.123 11.2572 101.094 12.2287 101.094 14.0884V22.1101H105.313V13.45C105.313 9.75836 103.231 7.53781 99.8173 7.53781C97.4024 7.53781 96.0423 8.59257 95.0153 10.0359C94.0438 8.45379 92.4895 7.53781 90.2967 7.53781C88.437 7.53781 87.0491 8.25949 86.1332 9.70284V7.87089H82.0807Z" fill="white"/>
<path d="M116.382 11.2572C118.187 11.2572 119.685 12.7283 119.685 15.0321C119.685 17.2527 118.187 18.7238 116.382 18.7238C114.495 18.7238 113.024 17.2805 113.024 15.0321C113.024 12.7006 114.495 11.2572 116.382 11.2572ZM112.83 7.87089H108.916V27.6615H113.135V20.5558C114.023 21.8881 115.716 22.4432 117.243 22.4432C121.129 22.4432 123.932 19.2234 123.932 14.9766C123.932 10.5911 120.907 7.53781 117.271 7.53781C115.883 7.53781 113.94 8.1207 112.83 9.84163V7.87089Z" fill="white"/>
<path d="M134.081 13.2557L130.195 14.0051C127.197 14.6436 125.56 16.0869 125.56 18.1964C125.56 20.6668 127.503 22.4432 130.278 22.4432C132.166 22.4432 133.553 21.6105 134.22 20.3615V22.1101H138.133V13.1447C138.133 9.67509 135.774 7.53781 131.805 7.53781C129.14 7.53781 127.003 8.64808 125.698 10.2302L127.891 12.8949C128.752 11.9234 129.973 11.174 131.555 11.174C132.998 11.174 134.081 11.7291 134.081 13.1447V13.2557ZM131.222 19.3067C130.223 19.3067 129.584 18.7516 129.584 17.9466C129.584 17.1694 130.139 16.6698 131.277 16.4755L134.109 15.9204V16.3367C134.109 18.0299 132.971 19.3067 131.222 19.3067Z" fill="white"/>
<path d="M141.687 7.87089V22.1101H145.906V14.6991C145.906 12.8394 146.878 11.2572 148.71 11.2572C150.264 11.2572 151.263 12.2287 151.263 14.0884V22.1101H155.482V13.45C155.482 9.75836 153.373 7.53781 149.959 7.53781C148.044 7.53781 146.656 8.25949 145.74 9.70284V7.87089H141.687Z" fill="white"/>
<path d="M162.371 21.5828L162.205 22.0546C161.594 24.0809 160.567 24.4417 159.457 24.4417C158.985 24.4417 158.263 24.3862 157.514 23.9698V27.4672C158.152 27.7725 159.068 27.9946 160.068 27.9946C162.76 27.9946 164.481 26.7178 165.896 23.2759L172.114 7.87089H167.812L164.481 17.1972L161.178 7.87089H156.764L162.371 21.5828Z" fill="white"/>
<path d="M18.7938 0.0585938H14.3502C13.8914 0.0585938 13.5195 0.430505 13.5195 0.889281V24.4874C13.5195 24.9462 13.8914 25.3181 14.3502 25.3181H18.7938C19.2525 25.3181 19.6244 24.9462 19.6244 24.4874V0.889281C19.6244 0.430505 19.2525 0.0585938 18.7938 0.0585938Z" fill="white"/>
<path d="M27.8154 25.3177C30.6814 25.3177 33.0047 22.9943 33.0047 20.1283C33.0047 17.2623 30.6814 14.939 27.8154 14.939C24.9493 14.939 22.626 17.2623 22.626 20.1283C22.626 22.9943 24.9493 25.3177 27.8154 25.3177Z" fill="white"/>
<path d="M27.8154 10.4373C30.6814 10.4373 33.0047 8.11398 33.0047 5.24797C33.0047 2.38196 30.6814 0.0585938 27.8154 0.0585938C24.9493 0.0585938 22.626 2.38196 22.626 5.24797C22.626 8.11398 24.9493 10.4373 27.8154 10.4373Z" fill="white"/>
<path d="M5.32878 25.3177C8.19479 25.3177 10.5182 22.9943 10.5182 20.1283C10.5182 17.2623 8.19479 14.939 5.32878 14.939C2.46277 14.939 0.139404 17.2623 0.139404 20.1283C0.139404 22.9943 2.46277 25.3177 5.32878 25.3177Z" fill="white"/>
</svg>
