<svg width="134" height="44" viewBox="0 0 134 44" fill="none" xmlns="http://www.w3.org/2000/svg">
<path d="M16.4518 0H17.6396C21.7636 0.0896518 25.8204 1.74821 28.7341 4.68431C27.6582 5.78254 26.56 6.83595 25.5066 7.93418C23.8704 6.45493 21.8981 5.31187 19.7465 4.90843C16.5638 4.23605 13.1346 4.8412 10.4675 6.65664C7.55382 8.56175 5.58148 11.7892 5.15563 15.2408C4.68496 18.6476 5.64871 22.2336 7.8676 24.8784C9.99683 27.4559 13.2467 29.0696 16.6086 29.1817C19.7465 29.361 23.0187 28.3972 25.3049 26.2007C27.0979 24.6542 27.9272 22.3009 28.1961 20.0148C24.4756 20.0148 20.755 20.0372 17.0345 20.0148V15.3977H32.7011C33.508 20.351 32.3425 25.9318 28.5772 29.473C26.0669 31.9833 22.5929 33.4625 19.0517 33.7539C15.6225 34.0901 12.0812 33.4401 9.03307 31.7816C5.37976 29.8316 2.46608 26.5369 1.03165 22.6595C-0.313129 19.0958 -0.335542 15.0615 0.919583 11.4754C2.06264 8.20314 4.25911 5.31187 7.08314 3.2947C9.79511 1.29995 13.0898 0.201717 16.4518 0Z" fill="#3478EF"/>
<path d="M106.328 1.16553H111.124V33.1712C109.533 33.1712 107.919 33.1936 106.328 33.1488C106.35 22.5026 106.328 11.8341 106.328 1.16553V1.16553Z" fill="#449D4B"/>
<path d="M43.3697 12.2599C46.3282 11.6995 49.5333 12.3271 51.9763 14.0977C54.1952 15.6666 55.7417 18.132 56.2123 20.8216C56.8175 23.937 56.0554 27.3438 54.0383 29.8092C51.8642 32.566 48.3006 34.0452 44.8266 33.8211C41.6439 33.6418 38.5509 32.0505 36.6682 29.4506C34.539 26.5817 34.0235 22.637 35.189 19.2751C36.3545 15.6666 39.6492 12.9098 43.3697 12.2599V12.2599ZM44.0421 16.5183C42.8318 16.8321 41.7112 17.5269 40.9043 18.5131C38.7302 21.113 38.8647 25.349 41.2629 27.7696C42.6301 29.1592 44.6921 29.8092 46.5972 29.4282C48.3678 29.1144 49.9143 27.9265 50.766 26.3576C52.2452 23.6905 51.8194 20.0147 49.5557 17.9303C48.0988 16.5856 45.9696 16.0252 44.0421 16.5183Z" fill="#F82D2D"/>
<path d="M67.1274 12.2598C70.5118 11.6098 74.2099 12.5512 76.7426 14.9269C80.8666 18.6251 81.3148 25.5507 77.796 29.8091C75.6668 32.4987 72.2152 33.9779 68.8084 33.821C65.5585 33.7314 62.3535 32.1177 60.426 29.4505C58.2519 26.5144 57.7812 22.4801 59.0139 19.0509C60.2467 15.5545 63.4741 12.8874 67.1274 12.2598V12.2598ZM67.7998 16.5183C66.5895 16.832 65.4689 17.5268 64.662 18.4906C62.5104 21.0457 62.6 25.2145 64.9086 27.6575C66.2757 29.1143 68.405 29.8315 70.3773 29.4281C72.1255 29.0919 73.6944 27.9264 74.5461 26.3575C76.003 23.668 75.5771 19.9923 73.291 17.9079C71.8342 16.5631 69.7049 16.0252 67.7998 16.5183Z" fill="#FFBF2F"/>
<path d="M87.2767 13.5598C89.8542 11.9461 93.2833 11.4978 96.0625 12.8874C96.9366 13.2685 97.6539 13.9184 98.3487 14.5684C98.3711 13.9633 98.3487 13.3357 98.3711 12.7081C99.8727 12.7306 101.374 12.7081 102.898 12.7306V32.4988C102.876 35.4797 102.114 38.6399 99.9624 40.814C97.609 43.2122 94.0005 43.9518 90.7507 43.4587C87.2767 42.9432 84.2509 40.4105 82.9061 37.2055C84.2509 36.5555 85.6629 36.04 87.0525 35.4349C87.837 37.2727 89.4283 38.8416 91.4231 39.2002C93.4178 39.5588 95.7263 39.0658 97.0263 37.4072C98.4159 35.7038 98.4159 33.3729 98.3487 31.2885C97.3177 32.2971 96.1298 33.1936 94.6954 33.5298C91.58 34.4039 88.1508 33.3281 85.7526 31.2212C83.332 29.1144 81.8976 25.8645 82.032 22.6371C82.0993 18.9838 84.1613 15.4649 87.2767 13.5598V13.5598ZM91.9161 16.4287C90.549 16.6528 89.2714 17.4149 88.3973 18.4683C86.2905 20.9785 86.2905 24.9904 88.4197 27.4559C89.63 28.9127 91.58 29.7196 93.4626 29.5178C95.2333 29.3385 96.8694 28.2179 97.7435 26.6714C99.2228 24.0491 98.9762 20.4854 96.9815 18.1993C95.7488 16.7873 93.7764 16.0925 91.9161 16.4287V16.4287Z" fill="#3478EF"/>
<path d="M116.884 14.7028C119.574 12.1926 123.72 11.3409 127.172 12.6633C130.444 13.896 132.528 17.0114 133.582 20.2164C128.718 22.2336 123.877 24.2283 119.013 26.2455C119.686 27.523 120.717 28.6885 122.106 29.1592C124.056 29.854 126.387 29.6075 128.023 28.3075C128.673 27.8144 129.189 27.1644 129.682 26.5369C130.915 27.3662 132.147 28.173 133.38 29.0023C131.632 31.6246 128.696 33.4625 125.536 33.7538C122.039 34.1797 118.319 32.8349 116.055 30.1005C112.334 25.7973 112.693 18.5803 116.884 14.7028V14.7028ZM119.282 18.8492C118.52 19.9475 118.207 21.2923 118.229 22.6146C121.479 21.2698 124.729 19.9251 127.979 18.5579C127.441 17.3027 126.141 16.5407 124.818 16.339C122.689 15.958 120.47 17.101 119.282 18.8492V18.8492Z" fill="#F82D2D"/>
</svg>
