<svg width="156" height="31" viewBox="0 0 156 31" fill="none" xmlns="http://www.w3.org/2000/svg">
<path d="M13.0022 5.52456C11.1822 5.52456 10.656 6.3318 10.656 8.11225V11.0658H15.5107L15.0241 15.8376H10.6579V30.3188H4.8318V15.8376H0.906891V11.0658H4.8318V8.19335C4.8318 3.38011 6.77256 0.837686 12.1875 0.837686C13.3229 0.8358 14.4564 0.901812 15.5824 1.0395V5.53022L13.0022 5.52456Z" fill="#1777F2"/>
<path d="M15.9144 20.085C15.9144 14.7059 18.4625 10.6547 23.8019 10.6547C26.714 10.6547 28.4926 12.1522 29.3432 14.0119V11.0658H34.9241V30.3188H29.3432V27.4067C28.5341 29.2683 26.714 30.7243 23.8019 30.7243C18.4625 30.7243 15.9144 26.6787 15.9144 21.294V20.085ZM21.7386 21.3807C21.7386 24.2513 22.7891 26.1525 25.4994 26.1525C27.8872 26.1525 29.0999 24.4135 29.0999 21.6636V19.7304C29.0999 16.9805 27.8872 15.2416 25.4994 15.2416C22.7891 15.2416 21.7386 17.1427 21.7386 20.0133V21.3807V21.3807Z" fill="#1777F2"/>
<path d="M47.059 10.6603C49.3223 10.6603 51.4668 11.1469 52.6399 11.9541L51.346 16.0808C50.1333 15.5037 48.8074 15.1982 47.4626 15.1906C44.3072 15.1906 42.9361 17.0107 42.9361 20.1265V21.2581C42.9361 24.3739 44.311 26.1939 47.4626 26.1939C48.8074 26.1864 50.1333 25.8808 51.346 25.3037L52.6399 29.4285C51.4668 30.2377 49.3242 30.7243 47.059 30.7243C40.222 30.7243 37.1081 27.0427 37.1081 21.1374V20.2472C37.1081 14.3419 40.222 10.6603 47.059 10.6603Z" fill="#1777F2"/>
<path d="M53.4075 21.4278V19.7304C53.4075 14.2702 56.5214 10.6772 62.8737 10.6772C68.8601 10.6772 71.4892 14.3174 71.4892 19.6568V22.7311H59.2298C59.3524 25.3603 60.5255 26.5334 63.7564 26.5334C65.9423 26.5334 68.2471 26.0883 69.9464 25.3603L71.0121 29.3493C69.4749 30.1603 66.3195 30.7658 63.53 30.7658C56.1574 30.7639 53.4075 27.086 53.4075 21.4278ZM59.2317 18.9194H66.2705V18.4346C66.2705 16.3317 65.4218 14.6625 62.8756 14.6625C60.2445 14.6644 59.2317 16.3241 59.2317 18.9118V18.9194Z" fill="#1777F2"/>
<path d="M93.0791 21.2995C93.0791 26.6786 90.4914 30.7299 85.1576 30.7299C82.2456 30.7299 80.2237 29.2738 79.4146 27.4123V30.3243H73.9148V1.39773L79.739 0.869629V13.7326C80.5877 12.0352 82.4493 10.6583 85.1595 10.6583C90.499 10.6583 93.081 14.7039 93.081 20.0887L93.0791 21.2995ZM87.255 19.9642C87.255 17.2539 86.2044 15.232 83.413 15.232C81.0253 15.232 79.7314 16.9295 79.7314 19.6813V21.7031C79.7314 24.453 81.0253 26.1524 83.413 26.1524C86.2044 26.1524 87.255 24.1305 87.255 21.4202V19.9642Z" fill="#1777F2"/>
<path d="M95.0274 21.177V20.2076C95.0274 14.6644 98.1828 10.6603 104.614 10.6603C111.046 10.6603 114.203 14.6644 114.203 20.2076V21.177C114.203 26.7183 111.048 30.7243 104.616 30.7243C98.1847 30.7243 95.0274 26.7183 95.0274 21.177ZM108.377 19.8021C108.377 17.254 107.325 15.2321 104.605 15.2321C101.885 15.2321 100.842 17.254 100.842 19.8021V21.5825C100.842 24.1306 101.895 26.1524 104.605 26.1524C107.315 26.1524 108.377 24.1306 108.377 21.5825V19.8021Z" fill="#1777F2"/>
<path d="M116.14 21.177V20.2076C116.14 14.6644 119.295 10.6603 125.727 10.6603C132.158 10.6603 135.314 14.6644 135.314 20.2076V21.177C135.314 26.7183 132.158 30.7243 125.727 30.7243C119.295 30.7243 116.14 26.7183 116.14 21.177ZM129.49 19.8021C129.49 17.254 128.437 15.2321 125.727 15.2321C123.017 15.2321 121.966 17.254 121.966 19.8021V21.5825C121.966 24.1306 123.017 26.1524 125.727 26.1524C128.437 26.1524 129.49 24.1306 129.49 21.5825V19.8021Z" fill="#1777F2"/>
<path d="M143.322 20.2471L149.065 11.0657H155.253L149.227 20.5715L155.497 30.3187H149.308L143.322 20.8884V30.3187H137.496V1.39773L143.322 0.869629V20.2471Z" fill="#1777F2"/>
</svg>
