<svg width="238" height="40" viewBox="0 0 238 40" fill="none" xmlns="http://www.w3.org/2000/svg">
<path d="M85.1044 26.3971C83.2296 26.3971 81.5767 25.99 80.1459 25.176C78.7151 24.3619 77.5804 23.2271 76.7416 21.7716C75.9275 20.3162 75.5205 18.651 75.5205 16.7762C75.5205 14.9013 75.9275 13.2362 76.7416 11.7807C77.5804 10.3252 78.7151 9.19046 80.1459 8.37639C81.5767 7.56231 83.2296 7.15527 85.1044 7.15527C87.448 7.15527 89.4215 7.772 91.025 9.00545C92.6284 10.2142 93.6522 11.8917 94.0962 14.0379H89.1008C88.8541 13.1498 88.3607 12.4591 87.6206 11.9657C86.9052 11.4477 86.0542 11.1887 85.0674 11.1887C83.7599 11.1887 82.6498 11.682 81.7371 12.6688C80.8243 13.6555 80.368 15.0247 80.368 16.7762C80.368 18.5277 80.8243 19.8968 81.7371 20.8836C82.6498 21.8703 83.7599 22.3637 85.0674 22.3637C86.0542 22.3637 86.9052 22.117 87.6206 21.6236C88.3607 21.1302 88.8541 20.4272 89.1008 19.5144H94.0962C93.6522 21.5866 92.6284 23.2518 91.025 24.5099C89.4215 25.768 87.448 26.3971 85.1044 26.3971Z" fill="#1F2559"/>
<path d="M106.367 26.3971C104.591 26.3971 102.987 25.99 101.556 25.176C100.15 24.3619 99.0279 23.2394 98.1892 21.8086C97.3751 20.3532 96.9681 18.6757 96.9681 16.7762C96.9681 14.8767 97.3874 13.2115 98.2262 11.7807C99.0649 10.3252 100.187 9.19046 101.593 8.37639C103.024 7.56231 104.628 7.15527 106.404 7.15527C108.155 7.15527 109.734 7.56231 111.14 8.37639C112.571 9.19046 113.694 10.3252 114.508 11.7807C115.346 13.2115 115.766 14.8767 115.766 16.7762C115.766 18.6757 115.346 20.3532 114.508 21.8086C113.694 23.2394 112.571 24.3619 111.14 25.176C109.71 25.99 108.118 26.3971 106.367 26.3971ZM106.367 22.2897C107.6 22.2897 108.673 21.8333 109.586 20.9206C110.499 19.9831 110.955 18.6017 110.955 16.7762C110.955 14.9507 110.499 13.5815 109.586 12.6688C108.673 11.7314 107.613 11.2627 106.404 11.2627C105.146 11.2627 104.06 11.7314 103.148 12.6688C102.26 13.5815 101.816 14.9507 101.816 16.7762C101.816 18.6017 102.26 19.9831 103.148 20.9206C104.06 21.8333 105.133 22.2897 106.367 22.2897Z" fill="#1F2559"/>
<path d="M119.261 25.953V7.59931H123.442L123.849 10.0786C124.441 9.19046 125.218 8.4874 126.18 7.96935C127.167 7.42663 128.302 7.15527 129.585 7.15527C132.422 7.15527 134.432 8.25304 135.616 10.4486C136.282 9.43715 137.17 8.63541 138.28 8.04335C139.415 7.4513 140.649 7.15527 141.981 7.15527C144.374 7.15527 146.211 7.87067 147.494 9.30147C148.777 10.7323 149.418 12.8291 149.418 15.5921V25.953H144.682V16.0361C144.682 14.4573 144.374 13.2485 143.757 12.4098C143.165 11.571 142.24 11.1516 140.982 11.1516C139.699 11.1516 138.663 11.6204 137.873 12.5578C137.109 13.4952 136.726 14.8027 136.726 16.4801V25.953H131.99V16.0361C131.99 14.4573 131.681 13.2485 131.065 12.4098C130.448 11.571 129.498 11.1516 128.215 11.1516C126.957 11.1516 125.934 11.6204 125.144 12.5578C124.379 13.4952 123.997 14.8027 123.997 16.4801V25.953H119.261Z" fill="#1F2559"/>
<path d="M153.175 34.0938V7.59931H157.394L157.912 10.2266C158.504 9.41248 159.281 8.69708 160.243 8.08036C161.23 7.46364 162.5 7.15527 164.054 7.15527C165.781 7.15527 167.323 7.57465 168.68 8.41339C170.036 9.25214 171.11 10.3992 171.899 11.8547C172.688 13.3102 173.083 14.963 173.083 16.8132C173.083 18.6634 172.688 20.3162 171.899 21.7716C171.11 23.2024 170.036 24.3372 168.68 25.176C167.323 25.99 165.781 26.3971 164.054 26.3971C162.673 26.3971 161.464 26.138 160.428 25.62C159.392 25.102 158.553 24.3742 157.912 23.4368V34.0938H153.175ZM163.055 22.2527C164.56 22.2527 165.806 21.747 166.792 20.7355C167.779 19.7241 168.273 18.4167 168.273 16.8132C168.273 15.2097 167.779 13.8899 166.792 12.8538C165.806 11.8177 164.56 11.2997 163.055 11.2997C161.526 11.2997 160.267 11.8177 159.281 12.8538C158.319 13.8652 157.838 15.1727 157.838 16.7762C157.838 18.3797 158.319 19.6994 159.281 20.7355C160.267 21.747 161.526 22.2527 163.055 22.2527Z" fill="#1F2559"/>
<path d="M182.902 26.3971C181.323 26.3971 180.028 26.1504 179.016 25.657C178.005 25.139 177.252 24.4606 176.759 23.6218C176.266 22.7831 176.019 21.858 176.019 20.8466C176.019 19.1444 176.685 17.7629 178.017 16.7022C179.349 15.6414 181.348 15.111 184.012 15.111H188.674V14.667C188.674 13.4089 188.317 12.4838 187.601 11.8917C186.886 11.2997 185.998 11.0036 184.937 11.0036C183.975 11.0036 183.136 11.238 182.421 11.7067C181.705 12.1507 181.261 12.8168 181.089 13.7049H176.463C176.586 12.3728 177.03 11.2133 177.795 10.2266C178.585 9.2398 179.596 8.4874 180.829 7.96935C182.063 7.42663 183.444 7.15527 184.974 7.15527C187.589 7.15527 189.649 7.809 191.153 9.11646C192.658 10.4239 193.411 12.2741 193.411 14.667V25.953H189.377L188.933 22.9928C188.391 23.9795 187.626 24.7936 186.639 25.435C185.677 26.0764 184.431 26.3971 182.902 26.3971ZM183.975 22.6967C185.332 22.6967 186.38 22.2527 187.12 21.3646C187.885 20.4765 188.366 19.3787 188.563 18.0713H184.53C183.272 18.0713 182.371 18.3056 181.829 18.7744C181.286 19.2184 181.014 19.7735 181.014 20.4395C181.014 21.1549 181.286 21.71 181.829 22.1047C182.371 22.4994 183.087 22.6967 183.975 22.6967Z" fill="#1F2559"/>
<path d="M197.191 25.953V7.59931H201.372L201.742 10.7076C202.309 9.62217 203.123 8.75876 204.184 8.11736C205.27 7.47597 206.54 7.15527 207.996 7.15527C210.265 7.15527 212.029 7.87067 213.287 9.30147C214.545 10.7323 215.174 12.8291 215.174 15.5921V25.953H210.438V16.0361C210.438 14.4573 210.117 13.2485 209.476 12.4098C208.834 11.571 207.835 11.1516 206.478 11.1516C205.146 11.1516 204.048 11.6204 203.185 12.5578C202.346 13.4952 201.927 14.8027 201.927 16.4801V25.953H197.191Z" fill="#1F2559"/>
<path d="M220.643 34.0939L224.899 24.732H223.788L216.647 7.59937H221.79L226.934 20.5136L232.299 7.59937H237.332L225.676 34.0939H220.643Z" fill="#1F2559"/>
<g filter="url(#filter0_d)">
<path d="M20.8584 30.8537C19.9957 31.7164 18.5964 31.7153 17.7351 30.851L5.28367 18.3568C4.42446 17.4946 4.42565 16.0995 5.28635 15.2388L17.7378 2.78742C18.5985 1.92672 19.9936 1.92553 20.8558 2.78474L33.3499 15.2362C34.2141 16.0975 34.2154 17.4967 33.3526 18.3595L20.8584 30.8537Z" fill="#782CE4"/>
</g>
<path d="M20.9303 31.5095C20.0272 32.4126 18.5625 32.4114 17.661 31.5067L4.62769 18.4286C3.72832 17.5261 3.72957 16.0658 4.63049 15.1649L17.6638 2.13159C18.5647 1.23067 20.025 1.22942 20.9275 2.12879L34.0056 15.1621C34.9102 16.0637 34.9115 17.5283 34.0084 18.4314L20.9303 31.5095Z" fill="#782CE4"/>
<g filter="url(#filter1_d)">
<path d="M35.95 30.851C35.0886 31.7153 33.6893 31.7165 32.8264 30.8537L20.3312 18.3584C19.4683 17.4956 19.4695 16.0962 20.3339 15.2348L32.8291 2.78236C33.6914 1.92307 35.0866 1.92426 35.9473 2.78503L48.3998 15.2375C49.2605 16.0983 49.2617 17.4935 48.4024 18.3558L35.95 30.851Z" fill="#FFCD1D"/>
</g>
<path d="M36.0239 31.5055C35.1223 32.4101 33.6577 32.4114 32.7546 31.5083L19.6765 18.4302C18.7734 17.5271 18.7746 16.0624 19.6793 15.1609L32.7574 2.12757C33.6599 1.2282 35.1202 1.22945 36.0211 2.13037L49.0544 15.1637C49.9553 16.0646 49.9566 17.5249 49.0572 18.4274L36.0239 31.5055Z" fill="#FFCD1D"/>
<g filter="url(#filter2_d)">
<path d="M49.3218 30.8524C48.4597 31.7159 47.0605 31.7159 46.1984 30.8524L33.7227 18.3571C32.8615 17.4946 32.8627 16.0971 33.7254 15.2361L46.2011 2.78357C47.0626 1.92371 48.4576 1.92371 49.3191 2.78357L61.7947 15.2361C62.6575 16.0971 62.6586 17.4946 61.7974 18.3571L49.3218 30.8524Z" fill="#F4263E"/>
</g>
<path d="M49.3947 31.5072C48.4924 32.411 47.0279 32.411 46.1256 31.5072L33.0677 18.4289C32.1663 17.5261 32.1676 16.0634 33.0705 15.1622L46.1284 2.1286C47.0301 1.22862 48.4902 1.22862 49.3919 2.1286L62.4497 15.1622C63.3527 16.0634 63.3539 17.5261 62.4525 18.4289L49.3947 31.5072Z" fill="#F4263E"/>
<defs>
<filter id="filter0_d" x="1.04035" y="1.24118" width="36.5583" height="36.5583" filterUnits="userSpaceOnUse" color-interpolation-filters="sRGB">
<feFlood flood-opacity="0" result="BackgroundImageFix"/>
<feColorMatrix in="SourceAlpha" type="matrix" values="0 0 0 0 0 0 0 0 0 0 0 0 0 0 0 0 0 0 127 0"/>
<feOffset dy="2.69977"/>
<feGaussianBlur stdDeviation="1.79985"/>
<feColorMatrix type="matrix" values="0 0 0 0 0.470588 0 0 0 0 0.172549 0 0 0 0 0.894118 0 0 0 0.21 0"/>
<feBlend mode="normal" in2="BackgroundImageFix" result="effect1_dropShadow"/>
<feBlend mode="normal" in="SourceGraphic" in2="effect1_dropShadow" result="shape"/>
</filter>
<filter id="filter1_d" x="16.0851" y="2.13866" width="36.5607" height="36.5607" filterUnits="userSpaceOnUse" color-interpolation-filters="sRGB">
<feFlood flood-opacity="0" result="BackgroundImageFix"/>
<feColorMatrix in="SourceAlpha" type="matrix" values="0 0 0 0 0 0 0 0 0 0 0 0 0 0 0 0 0 0 127 0"/>
<feOffset dy="3.59969"/>
<feGaussianBlur stdDeviation="1.79985"/>
<feColorMatrix type="matrix" values="0 0 0 0 1 0 0 0 0 0.80475 0 0 0 0 0.1125 0 0 0 0.26 0"/>
<feBlend mode="normal" in2="BackgroundImageFix" result="effect1_dropShadow"/>
<feBlend mode="normal" in="SourceGraphic" in2="effect1_dropShadow" result="shape"/>
</filter>
<filter id="filter2_d" x="29.4779" y="1.23874" width="36.5644" height="36.5607" filterUnits="userSpaceOnUse" color-interpolation-filters="sRGB">
<feFlood flood-opacity="0" result="BackgroundImageFix"/>
<feColorMatrix in="SourceAlpha" type="matrix" values="0 0 0 0 0 0 0 0 0 0 0 0 0 0 0 0 0 0 127 0"/>
<feOffset dy="2.69977"/>
<feGaussianBlur stdDeviation="1.79985"/>
<feColorMatrix type="matrix" values="0 0 0 0 0.956863 0 0 0 0 0.14902 0 0 0 0 0.243137 0 0 0 0.32 0"/>
<feBlend mode="normal" in2="BackgroundImageFix" result="effect1_dropShadow"/>
<feBlend mode="normal" in="SourceGraphic" in2="effect1_dropShadow" result="shape"/>
</filter>
</defs>
</svg>
