<svg width="177" height="30" viewBox="0 0 177 30" fill="none" xmlns="http://www.w3.org/2000/svg">
<path d="M39.3428 12.2814C39.3428 10.4055 39.7617 8.72999 40.5994 7.25479C41.4554 5.76138 42.6119 4.60489 44.0689 3.78534C45.5441 2.94757 47.1923 2.52869 49.0135 2.52869C51.1444 2.52869 53.0111 3.07506 54.6138 4.1678C56.2165 5.26054 57.3366 6.77216 57.974 8.70267H53.5757C53.1386 7.79205 52.5194 7.10909 51.7181 6.65378C50.9349 6.19847 50.0243 5.97082 48.9862 5.97082C47.8753 5.97082 46.8827 6.2349 46.0085 6.76306C45.1525 7.273 44.4787 8.0015 43.9869 8.94854C43.5134 9.89558 43.2766 11.0065 43.2766 12.2814C43.2766 13.538 43.5134 14.649 43.9869 15.6143C44.4787 16.5613 45.1525 17.2989 46.0085 17.8271C46.8827 18.337 47.8753 18.592 48.9862 18.592C50.0243 18.592 50.9349 18.3643 51.7181 17.909C52.5194 17.4355 53.1386 16.7434 53.5757 15.8328H57.974C57.3366 17.7815 56.2165 19.3023 54.6138 20.395C53.0293 21.4695 51.1626 22.0068 49.0135 22.0068C47.1923 22.0068 45.5441 21.597 44.0689 20.7775C42.6119 19.9397 41.4554 18.7832 40.5994 17.308C39.7617 15.8328 39.3428 14.1573 39.3428 12.2814Z" fill="white"/>
<path d="M67.961 22.0887C66.5041 22.0887 65.1928 21.77 64.0272 21.1326C62.8616 20.477 61.9419 19.5572 61.268 18.3734C60.6124 17.1896 60.2845 15.8237 60.2845 14.2756C60.2845 12.7276 60.6215 11.3617 61.2953 10.1779C61.9874 8.99407 62.9253 8.08345 64.1091 7.44602C65.2929 6.79038 66.6133 6.46255 68.0703 6.46255C69.5273 6.46255 70.8477 6.79038 72.0315 7.44602C73.2153 8.08345 74.1441 8.99407 74.818 10.1779C75.5101 11.3617 75.8561 12.7276 75.8561 14.2756C75.8561 15.8237 75.501 17.1896 74.7907 18.3734C74.0986 19.5572 73.1516 20.477 71.9495 21.1326C70.7657 21.77 69.4362 22.0887 67.961 22.0887ZM67.961 18.7559C68.6531 18.7559 69.2996 18.592 69.9007 18.2642C70.5199 17.9181 71.0116 17.4082 71.3759 16.7343C71.7401 16.0605 71.9222 15.2409 71.9222 14.2756C71.9222 12.8369 71.5398 11.735 70.7748 10.9701C70.0281 10.187 69.1084 9.79541 68.0157 9.79541C66.9229 9.79541 66.0032 10.187 65.2565 10.9701C64.528 11.735 64.1638 12.8369 64.1638 14.2756C64.1638 15.7144 64.5189 16.8254 65.2292 17.6085C65.9577 18.3734 66.8683 18.7559 67.961 18.7559Z" fill="white"/>
<path d="M97.4567 6.48987C99.3144 6.48987 100.808 7.06356 101.937 8.21094C103.084 9.3401 103.658 10.9246 103.658 12.9644V21.8429H99.8334V13.4834C99.8334 12.2996 99.5329 11.3981 98.9319 10.7789C98.3309 10.1414 97.5113 9.82273 96.4732 9.82273C95.4351 9.82273 94.6065 10.1414 93.9873 10.7789C93.3862 11.3981 93.0857 12.2996 93.0857 13.4834V21.8429H89.2612V13.4834C89.2612 12.2996 88.9607 11.3981 88.3596 10.7789C87.7586 10.1414 86.9391 9.82273 85.901 9.82273C84.8447 9.82273 84.0069 10.1414 83.3877 10.7789C82.7867 11.3981 82.4862 12.2996 82.4862 13.4834V21.8429H78.6616V6.70842H82.4862V8.53876C82.9779 7.90133 83.6062 7.40049 84.3711 7.03624C85.1543 6.67199 86.0102 6.48987 86.9391 6.48987C88.1229 6.48987 89.1792 6.74484 90.108 7.25479C91.0369 7.74652 91.7562 8.4568 92.2662 9.38563C92.7579 8.51144 93.4682 7.81027 94.397 7.28211C95.3441 6.75395 96.364 6.48987 97.4567 6.48987Z" fill="white"/>
<path d="M111.112 8.8939C111.604 8.20183 112.277 7.62814 113.133 7.17284C114.008 6.69931 115 6.46255 116.111 6.46255C117.404 6.46255 118.57 6.78127 119.608 7.4187C120.664 8.05613 121.493 8.96675 122.094 10.1506C122.713 11.3161 123.023 12.673 123.023 14.221C123.023 15.7691 122.713 17.1441 122.094 18.3461C121.493 19.5299 120.664 20.4496 119.608 21.1053C118.57 21.7609 117.404 22.0887 116.111 22.0887C115 22.0887 114.017 21.8611 113.161 21.4058C112.323 20.9505 111.64 20.3768 111.112 19.6847V29.055H107.287V6.70842H111.112V8.8939ZM119.116 14.221C119.116 13.3104 118.925 12.5273 118.543 11.8716C118.178 11.1978 117.687 10.6878 117.067 10.3418C116.466 9.99575 115.811 9.82273 115.1 9.82273C114.408 9.82273 113.753 10.0049 113.133 10.3691C112.532 10.7151 112.041 11.2251 111.658 11.8989C111.294 12.5728 111.112 13.365 111.112 14.2756C111.112 15.1863 111.294 15.9785 111.658 16.6524C112.041 17.3262 112.532 17.8453 113.133 18.2095C113.753 18.5556 114.408 18.7286 115.1 18.7286C115.811 18.7286 116.466 18.5464 117.067 18.1822C117.687 17.818 118.178 17.2989 118.543 16.625C118.925 15.9512 119.116 15.1498 119.116 14.221Z" fill="white"/>
<path d="M124.819 14.221C124.819 12.6912 125.119 11.3344 125.72 10.1506C126.339 8.96675 127.168 8.05613 128.206 7.4187C129.262 6.78127 130.437 6.46255 131.73 6.46255C132.859 6.46255 133.843 6.69021 134.681 7.14552C135.536 7.60083 136.219 8.17451 136.729 8.86658V6.70842H140.581V21.8429H136.729V19.6301C136.238 20.3404 135.555 20.9323 134.681 21.4058C133.825 21.8611 132.832 22.0887 131.703 22.0887C130.428 22.0887 129.262 21.7609 128.206 21.1053C127.168 20.4496 126.339 19.5299 125.72 18.3461C125.119 17.1441 124.819 15.7691 124.819 14.221ZM136.729 14.2756C136.729 13.3468 136.547 12.5546 136.183 11.8989C135.819 11.2251 135.327 10.7151 134.708 10.3691C134.089 10.0049 133.424 9.82273 132.714 9.82273C132.003 9.82273 131.348 9.99575 130.747 10.3418C130.146 10.6878 129.654 11.1978 129.271 11.8716C128.907 12.5273 128.725 13.3104 128.725 14.221C128.725 15.1316 128.907 15.933 129.271 16.625C129.654 17.2989 130.146 17.818 130.747 18.1822C131.366 18.5464 132.022 18.7286 132.714 18.7286C133.424 18.7286 134.089 18.5556 134.708 18.2095C135.327 17.8453 135.819 17.3353 136.183 16.6797C136.547 16.0058 136.729 15.2045 136.729 14.2756Z" fill="white"/>
<path d="M152.703 6.48987C154.506 6.48987 155.963 7.06356 157.074 8.21094C158.185 9.3401 158.741 10.9246 158.741 12.9644V21.8429H154.916V13.4834C154.916 12.2814 154.616 11.3617 154.015 10.7242C153.414 10.0686 152.594 9.74078 151.556 9.74078C150.5 9.74078 149.662 10.0686 149.043 10.7242C148.442 11.3617 148.141 12.2814 148.141 13.4834V21.8429H144.317V6.70842H148.141V8.5934C148.651 7.93775 149.298 7.42781 150.081 7.06356C150.882 6.6811 151.756 6.48987 152.703 6.48987Z" fill="white"/>
<path d="M176.857 6.70842L167.486 29.0003H163.416L166.694 21.4604L160.629 6.70842H164.918L168.825 17.2807L172.786 6.70842H176.857Z" fill="white"/>
<path opacity="0.8" d="M10.6683 28.8531C4.82884 28.8531 0.11377 24.1018 0.11377 18.2986C0.11377 12.4955 4.82884 7.74414 10.6683 7.74414C16.4714 7.74414 21.2228 12.4592 21.2228 18.2986C21.1865 24.1018 16.4714 28.8531 10.6683 28.8531Z" fill="white"/>
<path d="M26.5414 0.998413H12.0957C11.3073 0.998413 10.6682 1.63754 10.6682 2.42594V16.8716C10.6682 17.66 11.3073 18.2991 12.0957 18.2991H26.5414C27.3298 18.2991 27.9689 17.66 27.9689 16.8716V2.42594C27.9689 1.63754 27.3298 0.998413 26.5414 0.998413Z" fill="white"/>
</svg>
