<svg width="198" height="59" viewBox="0 0 198 59" fill="none" xmlns="http://www.w3.org/2000/svg">
<path d="M50.2175 19.4776C50.2175 17.4636 50.6672 15.6649 51.5667 14.0812C52.4856 12.4779 53.727 11.2363 55.2912 10.3565C56.8749 9.45713 58.6444 9.00745 60.5996 9.00745C62.8872 9.00745 64.8912 9.59399 66.6119 10.7671C68.3324 11.9402 69.5348 13.5631 70.2191 15.6355H65.4974C65.0281 14.658 64.3633 13.9248 63.5031 13.436C62.6623 12.9472 61.6847 12.7028 60.5703 12.7028C59.3776 12.7028 58.312 12.9863 57.3736 13.5532C56.4546 14.1007 55.7312 14.8828 55.2032 15.8995C54.6949 16.9162 54.4408 18.1088 54.4408 19.4776C54.4408 20.8266 54.6949 22.0192 55.2032 23.0555C55.7312 24.0722 56.4546 24.8641 57.3736 25.431C58.312 25.9785 59.3776 26.2523 60.5703 26.2523C61.6847 26.2523 62.6623 26.0078 63.5031 25.5191C64.3633 25.0107 65.0281 24.2677 65.4974 23.2902H70.2191C69.5348 25.3821 68.3324 27.0148 66.6119 28.1879C64.9107 29.3415 62.9068 29.9183 60.5996 29.9183C58.6444 29.9183 56.8749 29.4782 55.2912 28.5984C53.727 27.6991 52.4856 26.4575 51.5667 24.8738C50.6672 23.2902 50.2175 21.4914 50.2175 19.4776Z" fill="#14142B"/>
<path d="M80.9406 30.0064C79.3765 30.0064 77.9688 29.6642 76.7175 28.9798C75.4661 28.276 74.4788 27.2886 73.7553 26.0178C73.0515 24.7468 72.6996 23.2804 72.6996 21.6186C72.6996 19.9566 73.0613 18.4903 73.7846 17.2194C74.5276 15.9485 75.5346 14.9708 76.8054 14.2865C78.0763 13.5827 79.4938 13.2307 81.058 13.2307C82.6221 13.2307 84.0396 13.5827 85.3105 14.2865C86.5815 14.9708 87.5786 15.9485 88.302 17.2194C89.045 18.4903 89.4165 19.9566 89.4165 21.6186C89.4165 23.2804 89.0352 24.7468 88.2726 26.0178C87.5297 27.2886 86.513 28.276 85.2226 28.9798C83.9517 29.6642 82.5244 30.0064 80.9406 30.0064ZM80.9406 26.4283C81.6837 26.4283 82.3777 26.2524 83.0229 25.9004C83.6877 25.529 84.2156 24.9814 84.6067 24.2581C84.9977 23.5347 85.1932 22.6548 85.1932 21.6186C85.1932 20.0739 84.7827 18.891 83.9614 18.0698C83.1598 17.2291 82.1725 16.8087 80.9993 16.8087C79.8262 16.8087 78.8388 17.2291 78.0372 18.0698C77.2551 18.891 76.8641 20.0739 76.8641 21.6186C76.8641 23.1631 77.2454 24.3558 78.0078 25.1965C78.79 26.0178 79.7676 26.4283 80.9406 26.4283Z" fill="#14142B"/>
<path d="M112.606 13.2599C114.601 13.2599 116.203 13.8758 117.416 15.1076C118.648 16.3198 119.263 18.0208 119.263 20.2107V29.7423H115.157V20.7678C115.157 19.497 114.835 18.5291 114.19 17.8644C113.544 17.1801 112.664 16.838 111.55 16.838C110.435 16.838 109.546 17.1801 108.881 17.8644C108.237 18.5291 107.913 19.497 107.913 20.7678V29.7423H103.808V20.7678C103.808 19.497 103.485 18.5291 102.84 17.8644C102.195 17.1801 101.315 16.838 100.2 16.838C99.0663 16.838 98.1669 17.1801 97.5021 17.8644C96.8569 18.5291 96.5342 19.497 96.5342 20.7678V29.7423H92.4283V13.4946H96.5342V15.4596C97.0621 14.7752 97.7367 14.2376 98.5579 13.8465C99.3986 13.4554 100.318 13.2599 101.315 13.2599C102.586 13.2599 103.72 13.5337 104.717 14.0811C105.714 14.609 106.487 15.3715 107.034 16.3687C107.562 15.4302 108.324 14.6774 109.321 14.1105C110.338 13.5434 111.433 13.2599 112.606 13.2599Z" fill="#14142B"/>
<path d="M127.265 15.8409C127.794 15.0979 128.517 14.4821 129.436 13.9933C130.374 13.4849 131.44 13.2307 132.632 13.2307C134.021 13.2307 135.271 13.5729 136.386 14.2572C137.52 14.9416 138.41 15.9192 139.055 17.19C139.721 18.4413 140.052 19.898 140.052 21.5599C140.052 23.2218 139.721 24.6979 139.055 25.9884C138.41 27.2593 137.52 28.2467 136.386 28.9505C135.271 29.6545 134.021 30.0064 132.632 30.0064C131.44 30.0064 130.384 29.7619 129.465 29.2732C128.566 28.7844 127.832 28.1685 127.265 27.4254V37.4849H123.159V13.4947H127.265V15.8409ZM135.859 21.5599C135.859 20.5823 135.653 19.7416 135.242 19.0377C134.851 18.3142 134.324 17.7668 133.659 17.3953C133.014 17.0238 132.31 16.8381 131.548 16.8381C130.804 16.8381 130.101 17.0337 129.436 17.4246C128.79 17.7962 128.263 18.3436 127.852 19.0669C127.461 19.7905 127.265 20.6409 127.265 21.6186C127.265 22.5961 127.461 23.4467 127.852 24.1701C128.263 24.8934 128.79 25.4507 129.436 25.8418C130.101 26.2133 130.804 26.399 131.548 26.399C132.31 26.399 133.014 26.2034 133.659 25.8124C134.324 25.4213 134.851 24.8642 135.242 24.1407C135.653 23.4173 135.859 22.557 135.859 21.5599Z" fill="#14142B"/>
<path d="M141.98 21.5599C141.98 19.9175 142.303 18.4609 142.948 17.19C143.612 15.9192 144.503 14.9416 145.617 14.2572C146.751 13.5729 148.012 13.2307 149.4 13.2307C150.613 13.2307 151.668 13.4752 152.568 13.9639C153.487 14.4527 154.22 15.0686 154.767 15.8117V13.4947H158.902V29.7425H154.767V27.3669C154.24 28.1293 153.507 28.7648 152.568 29.2732C151.648 29.7619 150.583 30.0064 149.371 30.0064C148.002 30.0064 146.751 29.6544 145.617 28.9505C144.503 28.2467 143.612 27.2593 142.948 25.9884C142.303 24.6979 141.98 23.2218 141.98 21.5599ZM154.767 21.6186C154.767 20.6214 154.572 19.7708 154.181 19.0669C153.79 18.3436 153.261 17.7962 152.597 17.4246C151.932 17.0337 151.218 16.8381 150.455 16.8381C149.693 16.8381 148.989 17.0238 148.344 17.3953C147.7 17.7668 147.171 18.3142 146.76 19.0377C146.37 19.7416 146.175 20.5823 146.175 21.5599C146.175 22.5375 146.37 23.3978 146.76 24.1407C147.171 24.8642 147.7 25.4213 148.344 25.8124C149.009 26.2034 149.713 26.399 150.455 26.399C151.218 26.399 151.932 26.2133 152.597 25.8418C153.261 25.4507 153.79 24.9033 154.181 24.1994C154.572 23.4759 154.767 22.6157 154.767 21.6186Z" fill="#14142B"/>
<path d="M171.916 13.2599C173.851 13.2599 175.416 13.8758 176.609 15.1076C177.802 16.3198 178.397 18.0208 178.397 20.2107V29.7423H174.292V20.7678C174.292 19.4775 173.969 18.4901 173.325 17.8057C172.679 17.1019 171.8 16.75 170.684 16.75C169.55 16.75 168.651 17.1019 167.987 17.8057C167.341 18.4901 167.019 19.4775 167.019 20.7678V29.7423H162.913V13.4946H167.019V15.5181C167.566 14.8143 168.261 14.2669 169.101 13.8758C169.961 13.4652 170.9 13.2599 171.916 13.2599Z" fill="#14142B"/>
<path d="M197.847 13.4945L187.786 37.4261H183.417L186.937 29.3315L180.426 13.4945H185.03L189.224 24.8444L193.476 13.4945H197.847Z" fill="#14142B"/>
<g filter="url(#filter0_d)">
<path d="M14.6295 41.3243H12.3444C11.8004 41.3243 11.3594 40.8833 11.3594 40.3393V19.4095C11.3594 18.8654 11.8004 18.4244 12.3444 18.4244H22.6412C23.1852 18.4244 23.6262 18.8654 23.6262 19.4095V32.3277C23.6262 37.2957 19.6005 41.3243 14.6295 41.3243Z" fill="#FF3951" fill-opacity="0.01"/>
</g>
<path d="M14.6295 41.3243H12.3444C11.8003 41.3243 11.3593 40.8833 11.3593 40.3393V19.4095C11.3593 18.8654 11.8003 18.4244 12.3444 18.4244H22.6411C23.1851 18.4244 23.6261 18.8654 23.6261 19.4095V32.3277C23.6261 37.2957 19.6004 41.3243 14.6295 41.3243Z" fill="#FF3951"/>
<g filter="url(#filter1_d)">
<path d="M38.9978 19.4609C39.5419 19.4609 39.9865 19.0184 39.9496 18.4756C39.4434 11.0324 33.2455 5.14917 25.6712 5.14917C25.268 5.14917 24.8687 5.16689 24.4738 5.2006C23.9859 5.24227 23.6263 5.66148 23.6263 6.15124V18.4759C23.6263 19.0199 24.0674 19.4609 24.6114 19.4609H38.9978Z" fill="#FF3951" fill-opacity="0.01"/>
</g>
<path d="M38.9978 19.4609C39.5419 19.4609 39.9865 19.0184 39.9496 18.4756C39.4434 11.0324 33.2455 5.14917 25.6712 5.14917C25.268 5.14917 24.8687 5.16689 24.4738 5.2006C23.9859 5.24227 23.6263 5.66148 23.6263 6.15124V18.4759C23.6263 19.0199 24.0674 19.4609 24.6114 19.4609H38.9978Z" fill="#FF3951"/>
<g filter="url(#filter2_d)">
<path d="M35.3487 33.5109C38.4858 32.2308 39.9912 28.6499 38.7113 25.5128C37.4311 22.3757 33.8503 20.8704 30.7132 22.1503C27.5761 23.4304 26.0707 27.0113 27.3506 30.1484C28.6308 33.2855 32.2116 34.7909 35.3487 33.5109Z" fill="#FFCD1D" fill-opacity="0.01"/>
</g>
<path d="M35.3487 33.5107C38.4858 32.2307 39.9912 28.6498 38.7113 25.5127C37.4311 22.3756 33.8503 20.8703 30.7132 22.1502C27.5761 23.4303 26.0707 27.0112 27.3506 30.1483C28.6308 33.2854 32.2116 34.7908 35.3487 33.5107Z" fill="#FFCD1D"/>
<defs>
<filter id="filter0_d" x="1.35941" y="14.4244" width="32.2668" height="42.8999" filterUnits="userSpaceOnUse" color-interpolation-filters="sRGB">
<feFlood flood-opacity="0" result="BackgroundImageFix"/>
<feColorMatrix in="SourceAlpha" type="matrix" values="0 0 0 0 0 0 0 0 0 0 0 0 0 0 0 0 0 0 127 0"/>
<feOffset dy="6"/>
<feGaussianBlur stdDeviation="5"/>
<feColorMatrix type="matrix" values="0 0 0 0 1 0 0 0 0 0.223529 0 0 0 0 0.317647 0 0 0 0.17 0"/>
<feBlend mode="normal" in2="BackgroundImageFix" result="effect1_dropShadow"/>
<feBlend mode="normal" in="SourceGraphic" in2="effect1_dropShadow" result="shape"/>
</filter>
<filter id="filter1_d" x="13.6263" y="1.14917" width="36.3254" height="34.3117" filterUnits="userSpaceOnUse" color-interpolation-filters="sRGB">
<feFlood flood-opacity="0" result="BackgroundImageFix"/>
<feColorMatrix in="SourceAlpha" type="matrix" values="0 0 0 0 0 0 0 0 0 0 0 0 0 0 0 0 0 0 127 0"/>
<feOffset dy="6"/>
<feGaussianBlur stdDeviation="5"/>
<feColorMatrix type="matrix" values="0 0 0 0 1 0 0 0 0 0.223529 0 0 0 0 0.317647 0 0 0 0.17 0"/>
<feBlend mode="normal" in2="BackgroundImageFix" result="effect1_dropShadow"/>
<feBlend mode="normal" in="SourceGraphic" in2="effect1_dropShadow" result="shape"/>
</filter>
<filter id="filter2_d" x="23.8944" y="21.4588" width="18.2731" height="18.2731" filterUnits="userSpaceOnUse" color-interpolation-filters="sRGB">
<feFlood flood-opacity="0" result="BackgroundImageFix"/>
<feColorMatrix in="SourceAlpha" type="matrix" values="0 0 0 0 0 0 0 0 0 0 0 0 0 0 0 0 0 0 127 0"/>
<feOffset dy="2.76474"/>
<feGaussianBlur stdDeviation="1.5"/>
<feColorMatrix type="matrix" values="0 0 0 0 1 0 0 0 0 0.80475 0 0 0 0 0.1125 0 0 0 0.27 0"/>
<feBlend mode="normal" in2="BackgroundImageFix" result="effect1_dropShadow"/>
<feBlend mode="normal" in="SourceGraphic" in2="effect1_dropShadow" result="shape"/>
</filter>
</defs>
</svg>
