<svg width="184" height="26" viewBox="0 0 184 26" fill="none" xmlns="http://www.w3.org/2000/svg">
<path d="M63.5317 19.6872C62.0586 19.6872 60.76 19.3674 59.6358 18.7277C58.5116 18.0881 57.6199 17.1965 56.9609 16.0529C56.3213 14.9094 56.0015 13.601 56.0015 12.1279C56.0015 10.6548 56.3213 9.34652 56.9609 8.20289C57.6199 7.0593 58.5116 6.16769 59.6358 5.52805C60.76 4.88842 62.0586 4.5686 63.5317 4.5686C65.3731 4.5686 66.9237 5.05318 68.1836 6.02232C69.4434 6.97208 70.2478 8.29011 70.5967 9.97644H66.6718C66.4779 9.2786 66.0902 8.7359 65.5087 8.34825C64.9466 7.94122 64.2779 7.7377 63.5026 7.7377C62.4754 7.7377 61.6031 8.12536 60.8859 8.90066C60.1688 9.67594 59.8102 10.7517 59.8102 12.1279C59.8102 13.5041 60.1688 14.5799 60.8859 15.3552C61.6031 16.1305 62.4754 16.5182 63.5026 16.5182C64.2779 16.5182 64.9466 16.3243 65.5087 15.9367C66.0902 15.549 66.4779 14.9966 66.6718 14.2794H70.5967C70.2478 15.9075 69.4434 17.2159 68.1836 18.2045C66.9237 19.193 65.3731 19.6872 63.5317 19.6872Z" fill="white"/>
<path d="M80.2376 19.6872C78.8421 19.6872 77.5822 19.3674 76.458 18.7277C75.3532 18.0881 74.4713 17.2062 73.8122 16.082C73.1726 14.9384 72.8528 13.6204 72.8528 12.1279C72.8528 10.6355 73.1823 9.32711 73.8413 8.20289C74.5004 7.0593 75.3823 6.16769 76.4871 5.52805C77.6113 4.88842 78.8711 4.5686 80.2667 4.5686C81.6429 4.5686 82.8834 4.88842 83.9882 5.52805C85.1124 6.16769 85.9944 7.0593 86.634 8.20289C87.293 9.32711 87.6225 10.6355 87.6225 12.1279C87.6225 13.6204 87.293 14.9384 86.634 16.082C85.9944 17.2062 85.1124 18.0881 83.9882 18.7277C82.864 19.3674 81.6138 19.6872 80.2376 19.6872ZM80.2376 16.4599C81.2068 16.4599 82.05 16.1014 82.7671 15.3843C83.4843 14.6477 83.8429 13.5622 83.8429 12.1279C83.8429 10.6936 83.4843 9.61782 82.7671 8.90066C82.05 8.16412 81.2165 7.79585 80.2667 7.79585C79.2782 7.79585 78.4254 8.16412 77.7082 8.90066C77.0104 9.61782 76.6615 10.6936 76.6615 12.1279C76.6615 13.5622 77.0104 14.6477 77.7082 15.3843C78.4254 16.1014 79.2685 16.4599 80.2376 16.4599Z" fill="white"/>
<path d="M90.3687 19.3384V4.9175H93.6543L93.974 6.86547C94.4388 6.16769 95.0496 5.61527 95.8055 5.20824C96.5808 4.78182 97.4725 4.5686 98.4806 4.5686C100.709 4.5686 102.29 5.43114 103.219 7.15621C103.743 6.36152 104.441 5.73158 105.313 5.26638C106.205 4.8012 107.173 4.5686 108.22 4.5686C110.101 4.5686 111.545 5.1307 112.552 6.25491C113.56 7.37912 114.064 9.0267 114.064 11.1976V19.3384H110.343V11.5464C110.343 10.306 110.101 9.35613 109.615 8.69719C109.151 8.03813 108.423 7.70863 107.436 7.70863C106.427 7.70863 105.613 8.0769 104.993 8.81343C104.392 9.54999 104.091 10.5773 104.091 11.8953V19.3384H100.37V11.5464C100.37 10.306 100.128 9.35613 99.6431 8.69719C99.1589 8.03813 98.4122 7.70863 97.405 7.70863C96.4163 7.70863 95.6114 8.0769 94.9914 8.81343C94.3908 9.54999 94.0905 10.5773 94.0905 11.8953V19.3384H90.3687Z" fill="white"/>
<path d="M117.016 25.7347V4.9175H120.331L120.738 6.98177C121.203 6.34213 121.813 5.78003 122.569 5.29546C123.344 4.81089 124.343 4.5686 125.564 4.5686C126.921 4.5686 128.133 4.89811 129.198 5.55712C130.264 6.21615 131.107 7.11745 131.728 8.26103C132.348 9.40464 132.658 10.7033 132.658 12.157C132.658 13.6107 132.348 14.9094 131.728 16.0529C131.107 17.1772 130.264 18.0688 129.198 18.7278C128.133 19.3674 126.921 19.6872 125.564 19.6872C124.479 19.6872 123.529 19.4837 122.715 19.0767C121.901 18.6696 121.242 18.0978 120.738 17.3613V25.7347H117.016ZM124.779 16.4309C125.961 16.4309 126.94 16.0336 127.716 15.2389C128.491 14.4441 128.878 13.4169 128.878 12.157C128.878 10.8971 128.491 9.8601 127.716 9.04601C126.94 8.23196 125.961 7.82492 124.779 7.82492C123.577 7.82492 122.588 8.23196 121.813 9.04601C121.057 9.8407 120.679 10.8681 120.679 12.1279C120.679 13.3879 121.057 14.4248 121.813 15.2389C122.588 16.0336 123.577 16.4309 124.779 16.4309Z" fill="white"/>
<path d="M140.372 19.6872C139.132 19.6872 138.114 19.4934 137.319 19.1058C136.525 18.6987 135.934 18.1657 135.546 17.5066C135.159 16.8477 134.965 16.1208 134.965 15.326C134.965 13.9887 135.488 12.9033 136.535 12.0698C137.582 11.2363 139.152 10.8195 141.245 10.8195H144.909V10.4707C144.909 9.48217 144.627 8.75531 144.065 8.29011C143.503 7.82492 142.805 7.59233 141.972 7.59233C141.216 7.59233 140.556 7.77646 139.994 8.14474C139.433 8.49364 139.083 9.017 138.947 9.71475H135.313C135.41 8.66808 135.76 7.75708 136.36 6.98177C136.98 6.20645 137.775 5.61527 138.744 5.20824C139.714 4.78182 140.799 4.5686 142.001 4.5686C144.056 4.5686 145.674 5.08225 146.856 6.10954C148.038 7.13683 148.63 8.59055 148.63 10.4707V19.3384H145.46L145.112 17.0124C144.685 17.7877 144.084 18.4273 143.309 18.9313C142.553 19.4353 141.575 19.6872 140.372 19.6872ZM141.216 16.7798C142.281 16.7798 143.106 16.4309 143.687 15.7331C144.288 15.0353 144.666 14.1728 144.821 13.1456H141.652C140.663 13.1456 139.956 13.3296 139.53 13.698C139.103 14.0468 138.89 14.4829 138.89 15.0062C138.89 15.5683 139.103 16.0045 139.53 16.3146C139.956 16.6247 140.517 16.7798 141.216 16.7798Z" fill="white"/>
<path d="M151.6 19.3384V4.9175H154.885L155.176 7.35973C155.621 6.50689 156.261 5.82849 157.095 5.32453C157.948 4.82058 158.946 4.5686 160.089 4.5686C161.872 4.5686 163.258 5.1307 164.247 6.25491C165.236 7.37912 165.729 9.0267 165.729 11.1976V19.3384H162.008V11.5464C162.008 10.306 161.756 9.35613 161.252 8.69719C160.749 8.03813 159.963 7.70863 158.897 7.70863C157.851 7.70863 156.988 8.0769 156.309 8.81343C155.651 9.54999 155.321 10.5773 155.321 11.8953V19.3384H151.6Z" fill="white"/>
<path d="M170.027 25.7348L173.37 18.379H172.498L166.887 4.9176H170.928L174.97 15.0646L179.185 4.9176H183.139L173.981 25.7348H170.027Z" fill="white"/>
<path d="M13.503 23.3101C12.5758 24.2374 11.0719 24.2361 10.1462 23.3072L0.691771 13.8204C-0.231712 12.8937 -0.230424 11.3943 0.694645 10.4692L10.149 1.01484C11.0741 0.0897639 12.5735 0.0884795 13.5002 1.01196L22.987 10.4664C23.916 11.3921 23.9172 12.896 22.9899 13.8232L13.503 23.3101Z" fill="white"/>
<path opacity="0.5" d="M35.868 23.3076C34.9414 24.2355 33.4377 24.2355 32.5113 23.3076L23.039 13.8205C22.1135 12.8935 22.1148 11.3916 23.0419 10.4662L32.5141 1.01157C33.4399 0.0874527 34.9392 0.0874527 35.8651 1.01157L45.3373 10.4662C46.2645 11.3916 46.2657 12.8935 45.3401 13.8205L35.868 23.3076Z" fill="white"/>
<path d="M26.347 23.3058C25.4213 24.2347 23.9174 24.2359 22.9901 23.3086L13.5033 13.8218C12.5759 12.8945 12.5772 11.3906 13.5061 10.4649L22.993 1.0105C23.9196 0.0870134 25.4191 0.0883016 26.3442 1.01337L35.7985 10.4677C36.7236 11.3928 36.7249 12.8923 35.8014 13.8189L26.347 23.3058Z" fill="white" fill-opacity="0.8"/>
</svg>
