<svg width="256" height="256" viewBox="0 0 256 256" fill="none" xmlns="http://www.w3.org/2000/svg">
<rect x="22.5537" y="30.1628" width="207.555" height="191.589" fill="white"/>
<path fill-rule="evenodd" clip-rule="evenodd" d="M68.224 0H187.763C231.296 0 255.872 24.6912 256 68.224V187.776C256 231.296 231.296 256 187.763 256H68.224C24.6912 256 0 231.296 0 187.776V68.224C0 24.6912 24.6912 0 68.224 0ZM128.628 203.008C134.145 203.008 138.74 198.912 139.252 193.408V62.9757C139.764 59.0077 137.857 55.0269 134.401 52.8637C130.804 50.6877 126.452 50.6877 123.009 52.8637C119.54 55.0269 117.633 59.0077 118.004 62.9757V193.408C118.657 198.912 123.252 203.008 128.628 203.008ZM187.521 203.008C192.897 203.008 197.492 198.912 198.145 193.408V151.424C198.516 147.315 196.609 143.488 193.14 141.312C189.697 139.136 185.345 139.136 181.761 141.312C178.292 143.488 176.385 147.315 176.897 151.424V193.408C177.409 198.912 182.004 203.008 187.521 203.008ZM79.6026 193.408C79.0906 198.912 74.4954 203.008 68.9786 203.008C63.4746 203.008 58.8666 198.912 58.3674 193.408V104.96C57.9834 100.979 59.8906 97.024 63.3594 94.848C66.8026 92.672 71.1674 92.672 74.6234 94.848C78.0666 97.024 79.9994 100.979 79.6026 104.96V193.408Z" fill="#FF3951"/>
<rect x="53.3652" y="93.1288" width="32.4507" height="112.297" rx="16.2254" fill="white"/>
<rect x="111.775" y="50.574" width="32.4507" height="154.852" rx="16.2254" fill="white"/>
<rect x="170.184" y="128.197" width="32.4507" height="77.2287" rx="16.2254" fill="white"/>
</svg>
